%FSLAX34Y34*%
%MOMM*%
%LNOUTLINE*%
G71*
G01*
%ADD10C, 0.100*%
%LPD*%
G54D10*
X12700Y-9525D02*
X260350Y-9525D01*
X260350Y-177800D01*
X12700Y-177800D01*
X12700Y-9525D01*
G54D10*
X12700Y-177800D02*
X260350Y-177800D01*
X260350Y-346075D01*
X12700Y-346075D01*
X12700Y-177800D01*
G54D10*
X260350Y-9525D02*
X508000Y-9525D01*
X508000Y-177800D01*
X260350Y-177800D01*
X260350Y-9525D01*
G54D10*
X260350Y-177800D02*
X508000Y-177800D01*
X508000Y-346075D01*
X260350Y-346075D01*
X260350Y-177800D01*
G54D10*
X508000Y-9525D02*
X755650Y-9525D01*
X755650Y-177800D01*
X508000Y-177800D01*
X508000Y-9525D01*
G54D10*
X508000Y-177800D02*
X755650Y-177800D01*
X755650Y-346075D01*
X508000Y-346075D01*
X508000Y-177800D01*
G54D10*
X12700Y-346075D02*
X260350Y-346075D01*
X260350Y-514350D01*
X12700Y-514350D01*
X12700Y-346075D01*
G54D10*
X12700Y-514350D02*
X260350Y-514350D01*
X260350Y-682625D01*
X12700Y-682625D01*
X12700Y-514350D01*
G54D10*
X260350Y-346075D02*
X508000Y-346075D01*
X508000Y-514350D01*
X260350Y-514350D01*
X260350Y-346075D01*
G54D10*
X260350Y-514350D02*
X508000Y-514350D01*
X508000Y-682625D01*
X260350Y-682625D01*
X260350Y-514350D01*
G54D10*
X508000Y-346075D02*
X755650Y-346075D01*
X755650Y-514350D01*
X508000Y-514350D01*
X508000Y-346075D01*
G54D10*
X508000Y-514350D02*
X755650Y-514350D01*
X755650Y-682625D01*
X508000Y-682625D01*
X508000Y-514350D01*
G54D10*
X12700Y-682625D02*
X755650Y-682625D01*
X755650Y-755650D01*
X12700Y-755650D01*
X12700Y-682625D01*
G54D10*
X260350Y-682625D02*
X260350Y-755650D01*
G54D10*
X508000Y-682625D02*
X508000Y-755650D01*
M02*
