%FSLAX34Y34*%
%MOMM*%
%LNCOPPER_BOTTOM*%
G71*
G01*
%ADD10C, 2.800*%
%ADD11C, 2.600*%
%ADD12C, 2.700*%
%ADD13C, 2.800*%
%ADD14R, 2.100X2.400*%
%ADD15C, 1.050*%
%ADD16C, 3.000*%
%ADD17C, 0.633*%
%ADD18C, 0.667*%
%ADD19C, 2.000*%
%ADD20C, 1.800*%
%ADD21C, 1.900*%
%ADD22C, 2.000*%
%ADD23R, 1.300X1.600*%
%ADD24C, 0.250*%
%LPD*%
G36*
X0Y-125D02*
X760000Y-125D01*
X760000Y-780125D01*
X0Y-780125D01*
X0Y-125D01*
G37*
%LPC*%
X85725Y-34925D02*
G54D10*
D03*
X111125Y-34925D02*
G54D10*
D03*
X136525Y-34925D02*
G54D10*
D03*
X161925Y-34925D02*
G54D10*
D03*
X187325Y-34925D02*
G54D10*
D03*
X85725Y-152400D02*
G54D10*
D03*
X111125Y-152400D02*
G54D10*
D03*
X136525Y-152400D02*
G54D10*
D03*
X161925Y-152400D02*
G54D10*
D03*
X187325Y-152400D02*
G54D10*
D03*
X85725Y-203200D02*
G54D10*
D03*
X111125Y-203200D02*
G54D10*
D03*
X136525Y-203200D02*
G54D10*
D03*
X161925Y-203200D02*
G54D10*
D03*
X187325Y-203200D02*
G54D10*
D03*
X85725Y-320675D02*
G54D10*
D03*
X111125Y-320675D02*
G54D10*
D03*
X136525Y-320675D02*
G54D10*
D03*
X161925Y-320675D02*
G54D10*
D03*
X187325Y-320675D02*
G54D10*
D03*
X85725Y-269875D02*
G54D11*
D03*
X111125Y-269875D02*
G54D11*
D03*
X136525Y-269875D02*
G54D11*
D03*
X161925Y-269875D02*
G54D11*
D03*
X187325Y-269875D02*
G54D11*
D03*
X47620Y-80030D02*
G54D12*
D03*
X73020Y-80030D02*
G54D12*
D03*
X73019Y-108605D02*
G54D12*
D03*
X47620Y-108605D02*
G54D12*
D03*
X104775Y-95250D02*
G54D13*
D03*
X155575Y-95250D02*
G54D13*
D03*
X206375Y-95250D02*
G54D13*
D03*
X73025Y-241300D02*
G54D14*
D03*
X92025Y-241300D02*
G54D14*
D03*
X117475Y-241300D02*
G54D14*
D03*
X136475Y-241300D02*
G54D14*
D03*
G54D15*
X206375Y-95250D02*
X206375Y-79375D01*
X187325Y-60325D01*
X187325Y-34925D01*
G54D15*
X47620Y-80030D02*
X47620Y-47630D01*
X60325Y-34925D01*
X85725Y-34925D01*
G54D15*
X73020Y-80030D02*
X91420Y-80030D01*
X111125Y-60325D01*
X111125Y-34925D01*
X136525Y-34925D02*
G54D10*
D03*
X85725Y-269875D02*
G54D13*
D03*
X136525Y-203200D02*
G54D13*
D03*
G54D15*
X187325Y-269875D02*
X187325Y-203200D01*
X161925Y-269875D02*
G54D13*
D03*
G54D15*
X161925Y-269875D02*
X161925Y-203200D01*
X161925Y-34925D02*
G54D10*
D03*
G54D15*
X117475Y-241300D02*
X92025Y-241300D01*
G54D15*
X111125Y-269875D02*
X111125Y-247650D01*
X117475Y-241300D01*
G54D15*
X73025Y-241300D02*
X73025Y-215900D01*
X85725Y-203200D01*
G54D15*
X136475Y-241300D02*
X136475Y-228550D01*
X111125Y-203200D01*
G54D15*
X136525Y-269875D02*
X136525Y-241350D01*
X136475Y-241300D01*
X31750Y-261938D02*
G54D16*
D03*
X241300Y-261938D02*
G54D16*
D03*
G54D15*
X111125Y-320675D02*
X111125Y-269875D01*
X85725Y-320675D02*
G54D10*
D03*
X187325Y-320675D02*
G54D10*
D03*
X187325Y-152400D02*
G54D10*
D03*
X85725Y-152400D02*
G54D10*
D03*
X333375Y-34925D02*
G54D10*
D03*
X358775Y-34925D02*
G54D10*
D03*
X384175Y-34925D02*
G54D10*
D03*
X409575Y-34925D02*
G54D10*
D03*
X434975Y-34925D02*
G54D10*
D03*
X333375Y-152400D02*
G54D10*
D03*
X358775Y-152400D02*
G54D10*
D03*
X384175Y-152400D02*
G54D10*
D03*
X409575Y-152400D02*
G54D10*
D03*
X434975Y-152400D02*
G54D10*
D03*
X333375Y-203200D02*
G54D10*
D03*
X358775Y-203200D02*
G54D10*
D03*
X384175Y-203200D02*
G54D10*
D03*
X409575Y-203200D02*
G54D10*
D03*
X434975Y-203200D02*
G54D10*
D03*
X333375Y-320675D02*
G54D10*
D03*
X358775Y-320675D02*
G54D10*
D03*
X384175Y-320675D02*
G54D10*
D03*
X409575Y-320675D02*
G54D10*
D03*
X434975Y-320675D02*
G54D10*
D03*
X333375Y-269875D02*
G54D11*
D03*
X358775Y-269875D02*
G54D11*
D03*
X384175Y-269875D02*
G54D11*
D03*
X409575Y-269875D02*
G54D11*
D03*
X434975Y-269875D02*
G54D11*
D03*
X295270Y-80030D02*
G54D12*
D03*
X320670Y-80030D02*
G54D12*
D03*
X320669Y-108605D02*
G54D12*
D03*
X295270Y-108605D02*
G54D12*
D03*
X352425Y-95250D02*
G54D13*
D03*
X403225Y-95250D02*
G54D13*
D03*
X454025Y-95250D02*
G54D13*
D03*
X320675Y-241300D02*
G54D14*
D03*
X339675Y-241300D02*
G54D14*
D03*
X365125Y-241300D02*
G54D14*
D03*
X384125Y-241300D02*
G54D14*
D03*
G54D15*
X454025Y-95250D02*
X454025Y-79375D01*
X434975Y-60325D01*
X434975Y-34925D01*
G54D15*
X295270Y-80030D02*
X295270Y-47630D01*
X307975Y-34925D01*
X333375Y-34925D01*
G54D15*
X320670Y-80030D02*
X339070Y-80030D01*
X358775Y-60325D01*
X358775Y-34925D01*
X384175Y-34925D02*
G54D10*
D03*
X333375Y-269875D02*
G54D13*
D03*
X384175Y-203200D02*
G54D13*
D03*
G54D15*
X434975Y-269875D02*
X434975Y-203200D01*
X409575Y-269875D02*
G54D13*
D03*
G54D15*
X409575Y-269875D02*
X409575Y-203200D01*
X409575Y-34925D02*
G54D10*
D03*
G54D15*
X365125Y-241300D02*
X339675Y-241300D01*
G54D15*
X358775Y-269875D02*
X358775Y-247650D01*
X365125Y-241300D01*
G54D15*
X320675Y-241300D02*
X320675Y-215900D01*
X333375Y-203200D01*
G54D15*
X384125Y-241300D02*
X384125Y-228550D01*
X358775Y-203200D01*
G54D15*
X384175Y-269875D02*
X384175Y-241350D01*
X384125Y-241300D01*
X279400Y-261938D02*
G54D16*
D03*
X488950Y-261938D02*
G54D16*
D03*
G54D15*
X358775Y-320675D02*
X358775Y-269875D01*
X333375Y-320675D02*
G54D10*
D03*
X434975Y-320675D02*
G54D10*
D03*
X434975Y-152400D02*
G54D10*
D03*
X333375Y-152400D02*
G54D10*
D03*
X581025Y-34925D02*
G54D10*
D03*
X606425Y-34925D02*
G54D10*
D03*
X631825Y-34925D02*
G54D10*
D03*
X657225Y-34925D02*
G54D10*
D03*
X682625Y-34925D02*
G54D10*
D03*
X581025Y-152400D02*
G54D10*
D03*
X606425Y-152400D02*
G54D10*
D03*
X631825Y-152400D02*
G54D10*
D03*
X657225Y-152400D02*
G54D10*
D03*
X682625Y-152400D02*
G54D10*
D03*
X581025Y-203200D02*
G54D10*
D03*
X606425Y-203200D02*
G54D10*
D03*
X631825Y-203200D02*
G54D10*
D03*
X657225Y-203200D02*
G54D10*
D03*
X682625Y-203200D02*
G54D10*
D03*
X581025Y-320675D02*
G54D10*
D03*
X606425Y-320675D02*
G54D10*
D03*
X631825Y-320675D02*
G54D10*
D03*
X657225Y-320675D02*
G54D10*
D03*
X682625Y-320675D02*
G54D10*
D03*
X581025Y-269875D02*
G54D11*
D03*
X606425Y-269875D02*
G54D11*
D03*
X631825Y-269875D02*
G54D11*
D03*
X657225Y-269875D02*
G54D11*
D03*
X682625Y-269875D02*
G54D11*
D03*
X542920Y-80030D02*
G54D12*
D03*
X568320Y-80030D02*
G54D12*
D03*
X568319Y-108605D02*
G54D12*
D03*
X542920Y-108605D02*
G54D12*
D03*
X600075Y-95250D02*
G54D13*
D03*
X650875Y-95250D02*
G54D13*
D03*
X701675Y-95250D02*
G54D13*
D03*
X568325Y-241300D02*
G54D14*
D03*
X587325Y-241300D02*
G54D14*
D03*
X612775Y-241300D02*
G54D14*
D03*
X631775Y-241300D02*
G54D14*
D03*
G54D15*
X701675Y-95250D02*
X701675Y-79375D01*
X682625Y-60325D01*
X682625Y-34925D01*
G54D15*
X542920Y-80030D02*
X542920Y-47630D01*
X555625Y-34925D01*
X581025Y-34925D01*
G54D15*
X568320Y-80030D02*
X586720Y-80030D01*
X606425Y-60325D01*
X606425Y-34925D01*
X631825Y-34925D02*
G54D10*
D03*
X581025Y-269875D02*
G54D13*
D03*
X631825Y-203200D02*
G54D13*
D03*
G54D15*
X682625Y-269875D02*
X682625Y-203200D01*
X657225Y-269875D02*
G54D13*
D03*
G54D15*
X657225Y-269875D02*
X657225Y-203200D01*
X657225Y-34925D02*
G54D10*
D03*
G54D15*
X612775Y-241300D02*
X587325Y-241300D01*
G54D15*
X606425Y-269875D02*
X606425Y-247650D01*
X612775Y-241300D01*
G54D15*
X568325Y-241300D02*
X568325Y-215900D01*
X581025Y-203200D01*
G54D15*
X631775Y-241300D02*
X631775Y-228550D01*
X606425Y-203200D01*
G54D15*
X631825Y-269875D02*
X631825Y-241350D01*
X631775Y-241300D01*
X527050Y-261938D02*
G54D16*
D03*
X736600Y-261938D02*
G54D16*
D03*
G54D15*
X606425Y-320675D02*
X606425Y-269875D01*
X581025Y-320675D02*
G54D10*
D03*
X682625Y-320675D02*
G54D10*
D03*
X682625Y-152400D02*
G54D10*
D03*
X581025Y-152400D02*
G54D10*
D03*
X85725Y-371475D02*
G54D10*
D03*
X111125Y-371475D02*
G54D10*
D03*
X136525Y-371475D02*
G54D10*
D03*
X161925Y-371475D02*
G54D10*
D03*
X187325Y-371475D02*
G54D10*
D03*
X85725Y-488950D02*
G54D10*
D03*
X111125Y-488950D02*
G54D10*
D03*
X136525Y-488950D02*
G54D10*
D03*
X161925Y-488950D02*
G54D10*
D03*
X187325Y-488950D02*
G54D10*
D03*
X85725Y-539750D02*
G54D10*
D03*
X111125Y-539750D02*
G54D10*
D03*
X136525Y-539750D02*
G54D10*
D03*
X161925Y-539750D02*
G54D10*
D03*
X187325Y-539750D02*
G54D10*
D03*
X85725Y-657225D02*
G54D10*
D03*
X111125Y-657225D02*
G54D10*
D03*
X136525Y-657225D02*
G54D10*
D03*
X161925Y-657225D02*
G54D10*
D03*
X187325Y-657225D02*
G54D10*
D03*
X85725Y-606425D02*
G54D11*
D03*
X111125Y-606425D02*
G54D11*
D03*
X136525Y-606425D02*
G54D11*
D03*
X161925Y-606425D02*
G54D11*
D03*
X187325Y-606425D02*
G54D11*
D03*
X47620Y-416580D02*
G54D12*
D03*
X73020Y-416580D02*
G54D12*
D03*
X73019Y-445155D02*
G54D12*
D03*
X47620Y-445155D02*
G54D12*
D03*
X104775Y-431800D02*
G54D13*
D03*
X155575Y-431800D02*
G54D13*
D03*
X206375Y-431800D02*
G54D13*
D03*
X73025Y-577850D02*
G54D14*
D03*
X92025Y-577850D02*
G54D14*
D03*
X117475Y-577850D02*
G54D14*
D03*
X136475Y-577850D02*
G54D14*
D03*
G54D15*
X206375Y-431800D02*
X206375Y-415925D01*
X187325Y-396875D01*
X187325Y-371475D01*
G54D15*
X47620Y-416580D02*
X47620Y-384180D01*
X60325Y-371475D01*
X85725Y-371475D01*
G54D15*
X73020Y-416580D02*
X91420Y-416580D01*
X111125Y-396875D01*
X111125Y-371475D01*
X136525Y-371475D02*
G54D10*
D03*
X85725Y-606425D02*
G54D13*
D03*
X136525Y-539750D02*
G54D13*
D03*
G54D15*
X187325Y-606425D02*
X187325Y-539750D01*
X161925Y-606425D02*
G54D13*
D03*
G54D15*
X161925Y-606425D02*
X161925Y-539750D01*
X161925Y-371475D02*
G54D10*
D03*
G54D15*
X117475Y-577850D02*
X92025Y-577850D01*
G54D15*
X111125Y-606425D02*
X111125Y-584200D01*
X117475Y-577850D01*
G54D15*
X73025Y-577850D02*
X73025Y-552450D01*
X85725Y-539750D01*
G54D15*
X136475Y-577850D02*
X136475Y-565100D01*
X111125Y-539750D01*
G54D15*
X136525Y-606425D02*
X136525Y-577900D01*
X136475Y-577850D01*
X31750Y-598488D02*
G54D16*
D03*
X241300Y-598488D02*
G54D16*
D03*
G54D15*
X111125Y-657225D02*
X111125Y-606425D01*
X85725Y-657225D02*
G54D10*
D03*
X187325Y-657225D02*
G54D10*
D03*
X187325Y-488950D02*
G54D10*
D03*
X85725Y-488950D02*
G54D10*
D03*
X333375Y-371475D02*
G54D10*
D03*
X358775Y-371475D02*
G54D10*
D03*
X384175Y-371475D02*
G54D10*
D03*
X409575Y-371475D02*
G54D10*
D03*
X434975Y-371475D02*
G54D10*
D03*
X333375Y-488950D02*
G54D10*
D03*
X358775Y-488950D02*
G54D10*
D03*
X384175Y-488950D02*
G54D10*
D03*
X409575Y-488950D02*
G54D10*
D03*
X434975Y-488950D02*
G54D10*
D03*
X333375Y-539750D02*
G54D10*
D03*
X358775Y-539750D02*
G54D10*
D03*
X384175Y-539750D02*
G54D10*
D03*
X409575Y-539750D02*
G54D10*
D03*
X434975Y-539750D02*
G54D10*
D03*
X333375Y-657225D02*
G54D10*
D03*
X358775Y-657225D02*
G54D10*
D03*
X384175Y-657225D02*
G54D10*
D03*
X409575Y-657225D02*
G54D10*
D03*
X434975Y-657225D02*
G54D10*
D03*
X333375Y-606425D02*
G54D11*
D03*
X358775Y-606425D02*
G54D11*
D03*
X384175Y-606425D02*
G54D11*
D03*
X409575Y-606425D02*
G54D11*
D03*
X434975Y-606425D02*
G54D11*
D03*
X295270Y-416580D02*
G54D12*
D03*
X320670Y-416580D02*
G54D12*
D03*
X320669Y-445155D02*
G54D12*
D03*
X295270Y-445155D02*
G54D12*
D03*
X352425Y-431800D02*
G54D13*
D03*
X403225Y-431800D02*
G54D13*
D03*
X454025Y-431800D02*
G54D13*
D03*
X320675Y-577850D02*
G54D14*
D03*
X339675Y-577850D02*
G54D14*
D03*
X365125Y-577850D02*
G54D14*
D03*
X384125Y-577850D02*
G54D14*
D03*
G54D15*
X454025Y-431800D02*
X454025Y-415925D01*
X434975Y-396875D01*
X434975Y-371475D01*
G54D15*
X295270Y-416580D02*
X295270Y-384180D01*
X307975Y-371475D01*
X333375Y-371475D01*
G54D15*
X320670Y-416580D02*
X339070Y-416580D01*
X358775Y-396875D01*
X358775Y-371475D01*
X384175Y-371475D02*
G54D10*
D03*
X333375Y-606425D02*
G54D13*
D03*
X384175Y-539750D02*
G54D13*
D03*
G54D15*
X434975Y-606425D02*
X434975Y-539750D01*
X409575Y-606425D02*
G54D13*
D03*
G54D15*
X409575Y-606425D02*
X409575Y-539750D01*
X409575Y-371475D02*
G54D10*
D03*
G54D15*
X365125Y-577850D02*
X339675Y-577850D01*
G54D15*
X358775Y-606425D02*
X358775Y-584200D01*
X365125Y-577850D01*
G54D15*
X320675Y-577850D02*
X320675Y-552450D01*
X333375Y-539750D01*
G54D15*
X384125Y-577850D02*
X384125Y-565100D01*
X358775Y-539750D01*
G54D15*
X384175Y-606425D02*
X384175Y-577900D01*
X384125Y-577850D01*
X279400Y-598488D02*
G54D16*
D03*
X488950Y-598488D02*
G54D16*
D03*
G54D15*
X358775Y-657225D02*
X358775Y-606425D01*
X333375Y-657225D02*
G54D10*
D03*
X434975Y-657225D02*
G54D10*
D03*
X434975Y-488950D02*
G54D10*
D03*
X333375Y-488950D02*
G54D10*
D03*
X581025Y-371475D02*
G54D10*
D03*
X606425Y-371475D02*
G54D10*
D03*
X631825Y-371475D02*
G54D10*
D03*
X657225Y-371475D02*
G54D10*
D03*
X682625Y-371475D02*
G54D10*
D03*
X581025Y-488950D02*
G54D10*
D03*
X606425Y-488950D02*
G54D10*
D03*
X631825Y-488950D02*
G54D10*
D03*
X657225Y-488950D02*
G54D10*
D03*
X682625Y-488950D02*
G54D10*
D03*
X581025Y-539750D02*
G54D10*
D03*
X606425Y-539750D02*
G54D10*
D03*
X631825Y-539750D02*
G54D10*
D03*
X657225Y-539750D02*
G54D10*
D03*
X682625Y-539750D02*
G54D10*
D03*
X581025Y-657225D02*
G54D10*
D03*
X606425Y-657225D02*
G54D10*
D03*
X631825Y-657225D02*
G54D10*
D03*
X657225Y-657225D02*
G54D10*
D03*
X682625Y-657225D02*
G54D10*
D03*
X581025Y-606425D02*
G54D11*
D03*
X606425Y-606425D02*
G54D11*
D03*
X631825Y-606425D02*
G54D11*
D03*
X657225Y-606425D02*
G54D11*
D03*
X682625Y-606425D02*
G54D11*
D03*
X542920Y-416580D02*
G54D12*
D03*
X568320Y-416580D02*
G54D12*
D03*
X568319Y-445155D02*
G54D12*
D03*
X542920Y-445155D02*
G54D12*
D03*
X600075Y-431800D02*
G54D13*
D03*
X650875Y-431800D02*
G54D13*
D03*
X701675Y-431800D02*
G54D13*
D03*
X568325Y-577850D02*
G54D14*
D03*
X587325Y-577850D02*
G54D14*
D03*
X612775Y-577850D02*
G54D14*
D03*
X631775Y-577850D02*
G54D14*
D03*
G54D15*
X701675Y-431800D02*
X701675Y-415925D01*
X682625Y-396875D01*
X682625Y-371475D01*
G54D15*
X542920Y-416580D02*
X542920Y-384180D01*
X555625Y-371475D01*
X581025Y-371475D01*
G54D15*
X568320Y-416580D02*
X586720Y-416580D01*
X606425Y-396875D01*
X606425Y-371475D01*
X631825Y-371475D02*
G54D10*
D03*
X581025Y-606425D02*
G54D13*
D03*
X631825Y-539750D02*
G54D13*
D03*
G54D15*
X682625Y-606425D02*
X682625Y-539750D01*
X657225Y-606425D02*
G54D13*
D03*
G54D15*
X657225Y-606425D02*
X657225Y-539750D01*
X657225Y-371475D02*
G54D10*
D03*
G54D15*
X612775Y-577850D02*
X587325Y-577850D01*
G54D15*
X606425Y-606425D02*
X606425Y-584200D01*
X612775Y-577850D01*
G54D15*
X568325Y-577850D02*
X568325Y-552450D01*
X581025Y-539750D01*
G54D15*
X631775Y-577850D02*
X631775Y-565100D01*
X606425Y-539750D01*
G54D15*
X631825Y-606425D02*
X631825Y-577900D01*
X631775Y-577850D01*
X527050Y-598488D02*
G54D16*
D03*
X736600Y-598488D02*
G54D16*
D03*
G54D15*
X606425Y-657225D02*
X606425Y-606425D01*
X581025Y-657225D02*
G54D10*
D03*
X682625Y-657225D02*
G54D10*
D03*
X682625Y-488950D02*
G54D10*
D03*
X581025Y-488950D02*
G54D10*
D03*
%LPD*%
G54D17*
G36*
X76186Y-108605D02*
X76186Y-122605D01*
X69852Y-122605D01*
X69852Y-108605D01*
X76186Y-108605D01*
G37*
G54D17*
G36*
X50787Y-108605D02*
X50787Y-122605D01*
X44453Y-122605D01*
X44453Y-108605D01*
X50787Y-108605D01*
G37*
G54D18*
G36*
X104775Y-91917D02*
X119275Y-91917D01*
X119275Y-98583D01*
X104775Y-98583D01*
X104775Y-91917D01*
G37*
G36*
X104775Y-98583D02*
X90275Y-98583D01*
X90275Y-91917D01*
X104775Y-91917D01*
X104775Y-98583D01*
G37*
G54D18*
G36*
X133192Y-34925D02*
X133192Y-20425D01*
X139858Y-20425D01*
X139858Y-34925D01*
X133192Y-34925D01*
G37*
G36*
X139858Y-34925D02*
X139858Y-49425D01*
X133192Y-49425D01*
X133192Y-34925D01*
X139858Y-34925D01*
G37*
G54D18*
G36*
X89058Y-269875D02*
X89058Y-284375D01*
X82392Y-284375D01*
X82392Y-269875D01*
X89058Y-269875D01*
G37*
G54D18*
G36*
X133192Y-203200D02*
X133192Y-188700D01*
X139858Y-188700D01*
X139858Y-203200D01*
X133192Y-203200D01*
G37*
G54D18*
G36*
X158592Y-34925D02*
X158592Y-20425D01*
X165258Y-20425D01*
X165258Y-34925D01*
X158592Y-34925D01*
G37*
G36*
X165258Y-34925D02*
X165258Y-49425D01*
X158592Y-49425D01*
X158592Y-34925D01*
X165258Y-34925D01*
G37*
G54D18*
G36*
X82392Y-320675D02*
X82392Y-306175D01*
X89058Y-306175D01*
X89058Y-320675D01*
X82392Y-320675D01*
G37*
G36*
X89058Y-320675D02*
X89058Y-335175D01*
X82392Y-335175D01*
X82392Y-320675D01*
X89058Y-320675D01*
G37*
G54D18*
G36*
X183992Y-320675D02*
X183992Y-306175D01*
X190658Y-306175D01*
X190658Y-320675D01*
X183992Y-320675D01*
G37*
G36*
X190658Y-320675D02*
X190658Y-335175D01*
X183992Y-335175D01*
X183992Y-320675D01*
X190658Y-320675D01*
G37*
G54D18*
G36*
X183992Y-152400D02*
X183992Y-137900D01*
X190658Y-137900D01*
X190658Y-152400D01*
X183992Y-152400D01*
G37*
G36*
X190658Y-152400D02*
X190658Y-166900D01*
X183992Y-166900D01*
X183992Y-152400D01*
X190658Y-152400D01*
G37*
G54D18*
G36*
X82392Y-152400D02*
X82392Y-137900D01*
X89058Y-137900D01*
X89058Y-152400D01*
X82392Y-152400D01*
G37*
G36*
X89058Y-152400D02*
X89058Y-166900D01*
X82392Y-166900D01*
X82392Y-152400D01*
X89058Y-152400D01*
G37*
G54D17*
G36*
X323836Y-108605D02*
X323836Y-122605D01*
X317502Y-122605D01*
X317502Y-108605D01*
X323836Y-108605D01*
G37*
G54D17*
G36*
X298437Y-108605D02*
X298437Y-122605D01*
X292103Y-122605D01*
X292103Y-108605D01*
X298437Y-108605D01*
G37*
G54D18*
G36*
X352425Y-91917D02*
X366925Y-91917D01*
X366925Y-98583D01*
X352425Y-98583D01*
X352425Y-91917D01*
G37*
G36*
X352425Y-98583D02*
X337925Y-98583D01*
X337925Y-91917D01*
X352425Y-91917D01*
X352425Y-98583D01*
G37*
G54D18*
G36*
X380842Y-34925D02*
X380842Y-20425D01*
X387508Y-20425D01*
X387508Y-34925D01*
X380842Y-34925D01*
G37*
G36*
X387508Y-34925D02*
X387508Y-49425D01*
X380842Y-49425D01*
X380842Y-34925D01*
X387508Y-34925D01*
G37*
G54D18*
G36*
X336708Y-269875D02*
X336708Y-284375D01*
X330042Y-284375D01*
X330042Y-269875D01*
X336708Y-269875D01*
G37*
G54D18*
G36*
X380842Y-203200D02*
X380842Y-188700D01*
X387508Y-188700D01*
X387508Y-203200D01*
X380842Y-203200D01*
G37*
G54D18*
G36*
X406242Y-34925D02*
X406242Y-20425D01*
X412908Y-20425D01*
X412908Y-34925D01*
X406242Y-34925D01*
G37*
G36*
X412908Y-34925D02*
X412908Y-49425D01*
X406242Y-49425D01*
X406242Y-34925D01*
X412908Y-34925D01*
G37*
G54D18*
G36*
X330042Y-320675D02*
X330042Y-306175D01*
X336708Y-306175D01*
X336708Y-320675D01*
X330042Y-320675D01*
G37*
G36*
X336708Y-320675D02*
X336708Y-335175D01*
X330042Y-335175D01*
X330042Y-320675D01*
X336708Y-320675D01*
G37*
G54D18*
G36*
X431642Y-320675D02*
X431642Y-306175D01*
X438308Y-306175D01*
X438308Y-320675D01*
X431642Y-320675D01*
G37*
G36*
X438308Y-320675D02*
X438308Y-335175D01*
X431642Y-335175D01*
X431642Y-320675D01*
X438308Y-320675D01*
G37*
G54D18*
G36*
X431642Y-152400D02*
X431642Y-137900D01*
X438308Y-137900D01*
X438308Y-152400D01*
X431642Y-152400D01*
G37*
G36*
X438308Y-152400D02*
X438308Y-166900D01*
X431642Y-166900D01*
X431642Y-152400D01*
X438308Y-152400D01*
G37*
G54D18*
G36*
X330042Y-152400D02*
X330042Y-137900D01*
X336708Y-137900D01*
X336708Y-152400D01*
X330042Y-152400D01*
G37*
G36*
X336708Y-152400D02*
X336708Y-166900D01*
X330042Y-166900D01*
X330042Y-152400D01*
X336708Y-152400D01*
G37*
G54D17*
G36*
X571486Y-108605D02*
X571486Y-122605D01*
X565152Y-122605D01*
X565152Y-108605D01*
X571486Y-108605D01*
G37*
G54D17*
G36*
X546087Y-108605D02*
X546087Y-122605D01*
X539753Y-122605D01*
X539753Y-108605D01*
X546087Y-108605D01*
G37*
G54D18*
G36*
X600075Y-91917D02*
X614575Y-91917D01*
X614575Y-98583D01*
X600075Y-98583D01*
X600075Y-91917D01*
G37*
G36*
X600075Y-98583D02*
X585575Y-98583D01*
X585575Y-91917D01*
X600075Y-91917D01*
X600075Y-98583D01*
G37*
G54D18*
G36*
X628492Y-34925D02*
X628492Y-20425D01*
X635158Y-20425D01*
X635158Y-34925D01*
X628492Y-34925D01*
G37*
G36*
X635158Y-34925D02*
X635158Y-49425D01*
X628492Y-49425D01*
X628492Y-34925D01*
X635158Y-34925D01*
G37*
G54D18*
G36*
X584358Y-269875D02*
X584358Y-284375D01*
X577692Y-284375D01*
X577692Y-269875D01*
X584358Y-269875D01*
G37*
G54D18*
G36*
X628492Y-203200D02*
X628492Y-188700D01*
X635158Y-188700D01*
X635158Y-203200D01*
X628492Y-203200D01*
G37*
G54D18*
G36*
X653892Y-34925D02*
X653892Y-20425D01*
X660558Y-20425D01*
X660558Y-34925D01*
X653892Y-34925D01*
G37*
G36*
X660558Y-34925D02*
X660558Y-49425D01*
X653892Y-49425D01*
X653892Y-34925D01*
X660558Y-34925D01*
G37*
G54D18*
G36*
X577692Y-320675D02*
X577692Y-306175D01*
X584358Y-306175D01*
X584358Y-320675D01*
X577692Y-320675D01*
G37*
G36*
X584358Y-320675D02*
X584358Y-335175D01*
X577692Y-335175D01*
X577692Y-320675D01*
X584358Y-320675D01*
G37*
G54D18*
G36*
X679292Y-320675D02*
X679292Y-306175D01*
X685958Y-306175D01*
X685958Y-320675D01*
X679292Y-320675D01*
G37*
G36*
X685958Y-320675D02*
X685958Y-335175D01*
X679292Y-335175D01*
X679292Y-320675D01*
X685958Y-320675D01*
G37*
G54D18*
G36*
X679292Y-152400D02*
X679292Y-137900D01*
X685958Y-137900D01*
X685958Y-152400D01*
X679292Y-152400D01*
G37*
G36*
X685958Y-152400D02*
X685958Y-166900D01*
X679292Y-166900D01*
X679292Y-152400D01*
X685958Y-152400D01*
G37*
G54D18*
G36*
X577692Y-152400D02*
X577692Y-137900D01*
X584358Y-137900D01*
X584358Y-152400D01*
X577692Y-152400D01*
G37*
G36*
X584358Y-152400D02*
X584358Y-166900D01*
X577692Y-166900D01*
X577692Y-152400D01*
X584358Y-152400D01*
G37*
G54D17*
G36*
X76186Y-445155D02*
X76186Y-459155D01*
X69852Y-459155D01*
X69852Y-445155D01*
X76186Y-445155D01*
G37*
G54D17*
G36*
X50787Y-445155D02*
X50787Y-459155D01*
X44453Y-459155D01*
X44453Y-445155D01*
X50787Y-445155D01*
G37*
G54D18*
G36*
X104775Y-428467D02*
X119275Y-428467D01*
X119275Y-435133D01*
X104775Y-435133D01*
X104775Y-428467D01*
G37*
G36*
X104775Y-435133D02*
X90275Y-435133D01*
X90275Y-428467D01*
X104775Y-428467D01*
X104775Y-435133D01*
G37*
G54D18*
G36*
X133192Y-371475D02*
X133192Y-356975D01*
X139858Y-356975D01*
X139858Y-371475D01*
X133192Y-371475D01*
G37*
G36*
X139858Y-371475D02*
X139858Y-385975D01*
X133192Y-385975D01*
X133192Y-371475D01*
X139858Y-371475D01*
G37*
G54D18*
G36*
X89058Y-606425D02*
X89058Y-620925D01*
X82392Y-620925D01*
X82392Y-606425D01*
X89058Y-606425D01*
G37*
G54D18*
G36*
X133192Y-539750D02*
X133192Y-525250D01*
X139858Y-525250D01*
X139858Y-539750D01*
X133192Y-539750D01*
G37*
G54D18*
G36*
X158592Y-371475D02*
X158592Y-356975D01*
X165258Y-356975D01*
X165258Y-371475D01*
X158592Y-371475D01*
G37*
G36*
X165258Y-371475D02*
X165258Y-385975D01*
X158592Y-385975D01*
X158592Y-371475D01*
X165258Y-371475D01*
G37*
G54D18*
G36*
X82392Y-657225D02*
X82392Y-642725D01*
X89058Y-642725D01*
X89058Y-657225D01*
X82392Y-657225D01*
G37*
G36*
X89058Y-657225D02*
X89058Y-671725D01*
X82392Y-671725D01*
X82392Y-657225D01*
X89058Y-657225D01*
G37*
G54D18*
G36*
X183992Y-657225D02*
X183992Y-642725D01*
X190658Y-642725D01*
X190658Y-657225D01*
X183992Y-657225D01*
G37*
G36*
X190658Y-657225D02*
X190658Y-671725D01*
X183992Y-671725D01*
X183992Y-657225D01*
X190658Y-657225D01*
G37*
G54D18*
G36*
X183992Y-488950D02*
X183992Y-474450D01*
X190658Y-474450D01*
X190658Y-488950D01*
X183992Y-488950D01*
G37*
G36*
X190658Y-488950D02*
X190658Y-503450D01*
X183992Y-503450D01*
X183992Y-488950D01*
X190658Y-488950D01*
G37*
G54D18*
G36*
X82392Y-488950D02*
X82392Y-474450D01*
X89058Y-474450D01*
X89058Y-488950D01*
X82392Y-488950D01*
G37*
G36*
X89058Y-488950D02*
X89058Y-503450D01*
X82392Y-503450D01*
X82392Y-488950D01*
X89058Y-488950D01*
G37*
G54D17*
G36*
X323836Y-445155D02*
X323836Y-459155D01*
X317502Y-459155D01*
X317502Y-445155D01*
X323836Y-445155D01*
G37*
G54D17*
G36*
X298437Y-445155D02*
X298437Y-459155D01*
X292103Y-459155D01*
X292103Y-445155D01*
X298437Y-445155D01*
G37*
G54D18*
G36*
X352425Y-428467D02*
X366925Y-428467D01*
X366925Y-435133D01*
X352425Y-435133D01*
X352425Y-428467D01*
G37*
G36*
X352425Y-435133D02*
X337925Y-435133D01*
X337925Y-428467D01*
X352425Y-428467D01*
X352425Y-435133D01*
G37*
G54D18*
G36*
X380842Y-371475D02*
X380842Y-356975D01*
X387508Y-356975D01*
X387508Y-371475D01*
X380842Y-371475D01*
G37*
G36*
X387508Y-371475D02*
X387508Y-385975D01*
X380842Y-385975D01*
X380842Y-371475D01*
X387508Y-371475D01*
G37*
G54D18*
G36*
X336708Y-606425D02*
X336708Y-620925D01*
X330042Y-620925D01*
X330042Y-606425D01*
X336708Y-606425D01*
G37*
G54D18*
G36*
X380842Y-539750D02*
X380842Y-525250D01*
X387508Y-525250D01*
X387508Y-539750D01*
X380842Y-539750D01*
G37*
G54D18*
G36*
X406242Y-371475D02*
X406242Y-356975D01*
X412908Y-356975D01*
X412908Y-371475D01*
X406242Y-371475D01*
G37*
G36*
X412908Y-371475D02*
X412908Y-385975D01*
X406242Y-385975D01*
X406242Y-371475D01*
X412908Y-371475D01*
G37*
G54D18*
G36*
X330042Y-657225D02*
X330042Y-642725D01*
X336708Y-642725D01*
X336708Y-657225D01*
X330042Y-657225D01*
G37*
G36*
X336708Y-657225D02*
X336708Y-671725D01*
X330042Y-671725D01*
X330042Y-657225D01*
X336708Y-657225D01*
G37*
G54D18*
G36*
X431642Y-657225D02*
X431642Y-642725D01*
X438308Y-642725D01*
X438308Y-657225D01*
X431642Y-657225D01*
G37*
G36*
X438308Y-657225D02*
X438308Y-671725D01*
X431642Y-671725D01*
X431642Y-657225D01*
X438308Y-657225D01*
G37*
G54D18*
G36*
X431642Y-488950D02*
X431642Y-474450D01*
X438308Y-474450D01*
X438308Y-488950D01*
X431642Y-488950D01*
G37*
G36*
X438308Y-488950D02*
X438308Y-503450D01*
X431642Y-503450D01*
X431642Y-488950D01*
X438308Y-488950D01*
G37*
G54D18*
G36*
X330042Y-488950D02*
X330042Y-474450D01*
X336708Y-474450D01*
X336708Y-488950D01*
X330042Y-488950D01*
G37*
G36*
X336708Y-488950D02*
X336708Y-503450D01*
X330042Y-503450D01*
X330042Y-488950D01*
X336708Y-488950D01*
G37*
G54D17*
G36*
X571486Y-445155D02*
X571486Y-459155D01*
X565152Y-459155D01*
X565152Y-445155D01*
X571486Y-445155D01*
G37*
G54D17*
G36*
X546087Y-445155D02*
X546087Y-459155D01*
X539753Y-459155D01*
X539753Y-445155D01*
X546087Y-445155D01*
G37*
G54D18*
G36*
X600075Y-428467D02*
X614575Y-428467D01*
X614575Y-435133D01*
X600075Y-435133D01*
X600075Y-428467D01*
G37*
G36*
X600075Y-435133D02*
X585575Y-435133D01*
X585575Y-428467D01*
X600075Y-428467D01*
X600075Y-435133D01*
G37*
G54D18*
G36*
X628492Y-371475D02*
X628492Y-356975D01*
X635158Y-356975D01*
X635158Y-371475D01*
X628492Y-371475D01*
G37*
G36*
X635158Y-371475D02*
X635158Y-385975D01*
X628492Y-385975D01*
X628492Y-371475D01*
X635158Y-371475D01*
G37*
G54D18*
G36*
X584358Y-606425D02*
X584358Y-620925D01*
X577692Y-620925D01*
X577692Y-606425D01*
X584358Y-606425D01*
G37*
G54D18*
G36*
X628492Y-539750D02*
X628492Y-525250D01*
X635158Y-525250D01*
X635158Y-539750D01*
X628492Y-539750D01*
G37*
G54D18*
G36*
X653892Y-371475D02*
X653892Y-356975D01*
X660558Y-356975D01*
X660558Y-371475D01*
X653892Y-371475D01*
G37*
G36*
X660558Y-371475D02*
X660558Y-385975D01*
X653892Y-385975D01*
X653892Y-371475D01*
X660558Y-371475D01*
G37*
G54D18*
G36*
X577692Y-657225D02*
X577692Y-642725D01*
X584358Y-642725D01*
X584358Y-657225D01*
X577692Y-657225D01*
G37*
G36*
X584358Y-657225D02*
X584358Y-671725D01*
X577692Y-671725D01*
X577692Y-657225D01*
X584358Y-657225D01*
G37*
G54D18*
G36*
X679292Y-657225D02*
X679292Y-642725D01*
X685958Y-642725D01*
X685958Y-657225D01*
X679292Y-657225D01*
G37*
G36*
X685958Y-657225D02*
X685958Y-671725D01*
X679292Y-671725D01*
X679292Y-657225D01*
X685958Y-657225D01*
G37*
G54D18*
G36*
X679292Y-488950D02*
X679292Y-474450D01*
X685958Y-474450D01*
X685958Y-488950D01*
X679292Y-488950D01*
G37*
G36*
X685958Y-488950D02*
X685958Y-503450D01*
X679292Y-503450D01*
X679292Y-488950D01*
X685958Y-488950D01*
G37*
G54D18*
G36*
X577692Y-488950D02*
X577692Y-474450D01*
X584358Y-474450D01*
X584358Y-488950D01*
X577692Y-488950D01*
G37*
G36*
X584358Y-488950D02*
X584358Y-503450D01*
X577692Y-503450D01*
X577692Y-488950D01*
X584358Y-488950D01*
G37*
X85725Y-34925D02*
G54D19*
D03*
X111125Y-34925D02*
G54D19*
D03*
X136525Y-34925D02*
G54D19*
D03*
X161925Y-34925D02*
G54D19*
D03*
X187325Y-34925D02*
G54D19*
D03*
X85725Y-152400D02*
G54D19*
D03*
X111125Y-152400D02*
G54D19*
D03*
X136525Y-152400D02*
G54D19*
D03*
X161925Y-152400D02*
G54D19*
D03*
X187325Y-152400D02*
G54D19*
D03*
X85725Y-203200D02*
G54D19*
D03*
X111125Y-203200D02*
G54D19*
D03*
X136525Y-203200D02*
G54D19*
D03*
X161925Y-203200D02*
G54D19*
D03*
X187325Y-203200D02*
G54D19*
D03*
X85725Y-320675D02*
G54D19*
D03*
X111125Y-320675D02*
G54D19*
D03*
X136525Y-320675D02*
G54D19*
D03*
X161925Y-320675D02*
G54D19*
D03*
X187325Y-320675D02*
G54D19*
D03*
X85725Y-269875D02*
G54D20*
D03*
X111125Y-269875D02*
G54D20*
D03*
X136525Y-269875D02*
G54D20*
D03*
X161925Y-269875D02*
G54D20*
D03*
X187325Y-269875D02*
G54D20*
D03*
X47620Y-80030D02*
G54D21*
D03*
X73020Y-80030D02*
G54D21*
D03*
X73019Y-108605D02*
G54D21*
D03*
X47620Y-108605D02*
G54D21*
D03*
X104775Y-95250D02*
G54D22*
D03*
X155575Y-95250D02*
G54D22*
D03*
X206375Y-95250D02*
G54D22*
D03*
X73025Y-241300D02*
G54D23*
D03*
X92025Y-241300D02*
G54D23*
D03*
X117475Y-241300D02*
G54D23*
D03*
X136475Y-241300D02*
G54D23*
D03*
G54D24*
X206375Y-95250D02*
X206375Y-79375D01*
X187325Y-60325D01*
X187325Y-34925D01*
G54D24*
X47620Y-80030D02*
X47620Y-47630D01*
X60325Y-34925D01*
X85725Y-34925D01*
G54D24*
X73020Y-80030D02*
X91420Y-80030D01*
X111125Y-60325D01*
X111125Y-34925D01*
X136525Y-34925D02*
G54D19*
D03*
X85725Y-269875D02*
G54D22*
D03*
X136525Y-203200D02*
G54D22*
D03*
G54D24*
X187325Y-269875D02*
X187325Y-203200D01*
X161925Y-269875D02*
G54D22*
D03*
G54D24*
X161925Y-269875D02*
X161925Y-203200D01*
X161925Y-34925D02*
G54D19*
D03*
G54D24*
X117475Y-241300D02*
X92025Y-241300D01*
G54D24*
X111125Y-269875D02*
X111125Y-247650D01*
X117475Y-241300D01*
G54D24*
X73025Y-241300D02*
X73025Y-215900D01*
X85725Y-203200D01*
G54D24*
X136475Y-241300D02*
X136475Y-228550D01*
X111125Y-203200D01*
G54D24*
X136525Y-269875D02*
X136525Y-241350D01*
X136475Y-241300D01*
G54D24*
X111125Y-320675D02*
X111125Y-269875D01*
X85725Y-320675D02*
G54D19*
D03*
X187325Y-320675D02*
G54D19*
D03*
X187325Y-152400D02*
G54D19*
D03*
X85725Y-152400D02*
G54D19*
D03*
X333375Y-34925D02*
G54D19*
D03*
X358775Y-34925D02*
G54D19*
D03*
X384175Y-34925D02*
G54D19*
D03*
X409575Y-34925D02*
G54D19*
D03*
X434975Y-34925D02*
G54D19*
D03*
X333375Y-152400D02*
G54D19*
D03*
X358775Y-152400D02*
G54D19*
D03*
X384175Y-152400D02*
G54D19*
D03*
X409575Y-152400D02*
G54D19*
D03*
X434975Y-152400D02*
G54D19*
D03*
X333375Y-203200D02*
G54D19*
D03*
X358775Y-203200D02*
G54D19*
D03*
X384175Y-203200D02*
G54D19*
D03*
X409575Y-203200D02*
G54D19*
D03*
X434975Y-203200D02*
G54D19*
D03*
X333375Y-320675D02*
G54D19*
D03*
X358775Y-320675D02*
G54D19*
D03*
X384175Y-320675D02*
G54D19*
D03*
X409575Y-320675D02*
G54D19*
D03*
X434975Y-320675D02*
G54D19*
D03*
X333375Y-269875D02*
G54D20*
D03*
X358775Y-269875D02*
G54D20*
D03*
X384175Y-269875D02*
G54D20*
D03*
X409575Y-269875D02*
G54D20*
D03*
X434975Y-269875D02*
G54D20*
D03*
X295270Y-80030D02*
G54D21*
D03*
X320670Y-80030D02*
G54D21*
D03*
X320669Y-108605D02*
G54D21*
D03*
X295270Y-108605D02*
G54D21*
D03*
X352425Y-95250D02*
G54D22*
D03*
X403225Y-95250D02*
G54D22*
D03*
X454025Y-95250D02*
G54D22*
D03*
X320675Y-241300D02*
G54D23*
D03*
X339675Y-241300D02*
G54D23*
D03*
X365125Y-241300D02*
G54D23*
D03*
X384125Y-241300D02*
G54D23*
D03*
G54D24*
X454025Y-95250D02*
X454025Y-79375D01*
X434975Y-60325D01*
X434975Y-34925D01*
G54D24*
X295270Y-80030D02*
X295270Y-47630D01*
X307975Y-34925D01*
X333375Y-34925D01*
G54D24*
X320670Y-80030D02*
X339070Y-80030D01*
X358775Y-60325D01*
X358775Y-34925D01*
X384175Y-34925D02*
G54D19*
D03*
X333375Y-269875D02*
G54D22*
D03*
X384175Y-203200D02*
G54D22*
D03*
G54D24*
X434975Y-269875D02*
X434975Y-203200D01*
X409575Y-269875D02*
G54D22*
D03*
G54D24*
X409575Y-269875D02*
X409575Y-203200D01*
X409575Y-34925D02*
G54D19*
D03*
G54D24*
X365125Y-241300D02*
X339675Y-241300D01*
G54D24*
X358775Y-269875D02*
X358775Y-247650D01*
X365125Y-241300D01*
G54D24*
X320675Y-241300D02*
X320675Y-215900D01*
X333375Y-203200D01*
G54D24*
X384125Y-241300D02*
X384125Y-228550D01*
X358775Y-203200D01*
G54D24*
X384175Y-269875D02*
X384175Y-241350D01*
X384125Y-241300D01*
G54D24*
X358775Y-320675D02*
X358775Y-269875D01*
X333375Y-320675D02*
G54D19*
D03*
X434975Y-320675D02*
G54D19*
D03*
X434975Y-152400D02*
G54D19*
D03*
X333375Y-152400D02*
G54D19*
D03*
X581025Y-34925D02*
G54D19*
D03*
X606425Y-34925D02*
G54D19*
D03*
X631825Y-34925D02*
G54D19*
D03*
X657225Y-34925D02*
G54D19*
D03*
X682625Y-34925D02*
G54D19*
D03*
X581025Y-152400D02*
G54D19*
D03*
X606425Y-152400D02*
G54D19*
D03*
X631825Y-152400D02*
G54D19*
D03*
X657225Y-152400D02*
G54D19*
D03*
X682625Y-152400D02*
G54D19*
D03*
X581025Y-203200D02*
G54D19*
D03*
X606425Y-203200D02*
G54D19*
D03*
X631825Y-203200D02*
G54D19*
D03*
X657225Y-203200D02*
G54D19*
D03*
X682625Y-203200D02*
G54D19*
D03*
X581025Y-320675D02*
G54D19*
D03*
X606425Y-320675D02*
G54D19*
D03*
X631825Y-320675D02*
G54D19*
D03*
X657225Y-320675D02*
G54D19*
D03*
X682625Y-320675D02*
G54D19*
D03*
X581025Y-269875D02*
G54D20*
D03*
X606425Y-269875D02*
G54D20*
D03*
X631825Y-269875D02*
G54D20*
D03*
X657225Y-269875D02*
G54D20*
D03*
X682625Y-269875D02*
G54D20*
D03*
X542920Y-80030D02*
G54D21*
D03*
X568320Y-80030D02*
G54D21*
D03*
X568319Y-108605D02*
G54D21*
D03*
X542920Y-108605D02*
G54D21*
D03*
X600075Y-95250D02*
G54D22*
D03*
X650875Y-95250D02*
G54D22*
D03*
X701675Y-95250D02*
G54D22*
D03*
X568325Y-241300D02*
G54D23*
D03*
X587325Y-241300D02*
G54D23*
D03*
X612775Y-241300D02*
G54D23*
D03*
X631775Y-241300D02*
G54D23*
D03*
G54D24*
X701675Y-95250D02*
X701675Y-79375D01*
X682625Y-60325D01*
X682625Y-34925D01*
G54D24*
X542920Y-80030D02*
X542920Y-47630D01*
X555625Y-34925D01*
X581025Y-34925D01*
G54D24*
X568320Y-80030D02*
X586720Y-80030D01*
X606425Y-60325D01*
X606425Y-34925D01*
X631825Y-34925D02*
G54D19*
D03*
X581025Y-269875D02*
G54D22*
D03*
X631825Y-203200D02*
G54D22*
D03*
G54D24*
X682625Y-269875D02*
X682625Y-203200D01*
X657225Y-269875D02*
G54D22*
D03*
G54D24*
X657225Y-269875D02*
X657225Y-203200D01*
X657225Y-34925D02*
G54D19*
D03*
G54D24*
X612775Y-241300D02*
X587325Y-241300D01*
G54D24*
X606425Y-269875D02*
X606425Y-247650D01*
X612775Y-241300D01*
G54D24*
X568325Y-241300D02*
X568325Y-215900D01*
X581025Y-203200D01*
G54D24*
X631775Y-241300D02*
X631775Y-228550D01*
X606425Y-203200D01*
G54D24*
X631825Y-269875D02*
X631825Y-241350D01*
X631775Y-241300D01*
G54D24*
X606425Y-320675D02*
X606425Y-269875D01*
X581025Y-320675D02*
G54D19*
D03*
X682625Y-320675D02*
G54D19*
D03*
X682625Y-152400D02*
G54D19*
D03*
X581025Y-152400D02*
G54D19*
D03*
X85725Y-371475D02*
G54D19*
D03*
X111125Y-371475D02*
G54D19*
D03*
X136525Y-371475D02*
G54D19*
D03*
X161925Y-371475D02*
G54D19*
D03*
X187325Y-371475D02*
G54D19*
D03*
X85725Y-488950D02*
G54D19*
D03*
X111125Y-488950D02*
G54D19*
D03*
X136525Y-488950D02*
G54D19*
D03*
X161925Y-488950D02*
G54D19*
D03*
X187325Y-488950D02*
G54D19*
D03*
X85725Y-539750D02*
G54D19*
D03*
X111125Y-539750D02*
G54D19*
D03*
X136525Y-539750D02*
G54D19*
D03*
X161925Y-539750D02*
G54D19*
D03*
X187325Y-539750D02*
G54D19*
D03*
X85725Y-657225D02*
G54D19*
D03*
X111125Y-657225D02*
G54D19*
D03*
X136525Y-657225D02*
G54D19*
D03*
X161925Y-657225D02*
G54D19*
D03*
X187325Y-657225D02*
G54D19*
D03*
X85725Y-606425D02*
G54D20*
D03*
X111125Y-606425D02*
G54D20*
D03*
X136525Y-606425D02*
G54D20*
D03*
X161925Y-606425D02*
G54D20*
D03*
X187325Y-606425D02*
G54D20*
D03*
X47620Y-416580D02*
G54D21*
D03*
X73020Y-416580D02*
G54D21*
D03*
X73019Y-445155D02*
G54D21*
D03*
X47620Y-445155D02*
G54D21*
D03*
X104775Y-431800D02*
G54D22*
D03*
X155575Y-431800D02*
G54D22*
D03*
X206375Y-431800D02*
G54D22*
D03*
X73025Y-577850D02*
G54D23*
D03*
X92025Y-577850D02*
G54D23*
D03*
X117475Y-577850D02*
G54D23*
D03*
X136475Y-577850D02*
G54D23*
D03*
G54D24*
X206375Y-431800D02*
X206375Y-415925D01*
X187325Y-396875D01*
X187325Y-371475D01*
G54D24*
X47620Y-416580D02*
X47620Y-384180D01*
X60325Y-371475D01*
X85725Y-371475D01*
G54D24*
X73020Y-416580D02*
X91420Y-416580D01*
X111125Y-396875D01*
X111125Y-371475D01*
X136525Y-371475D02*
G54D19*
D03*
X85725Y-606425D02*
G54D22*
D03*
X136525Y-539750D02*
G54D22*
D03*
G54D24*
X187325Y-606425D02*
X187325Y-539750D01*
X161925Y-606425D02*
G54D22*
D03*
G54D24*
X161925Y-606425D02*
X161925Y-539750D01*
X161925Y-371475D02*
G54D19*
D03*
G54D24*
X117475Y-577850D02*
X92025Y-577850D01*
G54D24*
X111125Y-606425D02*
X111125Y-584200D01*
X117475Y-577850D01*
G54D24*
X73025Y-577850D02*
X73025Y-552450D01*
X85725Y-539750D01*
G54D24*
X136475Y-577850D02*
X136475Y-565100D01*
X111125Y-539750D01*
G54D24*
X136525Y-606425D02*
X136525Y-577900D01*
X136475Y-577850D01*
G54D24*
X111125Y-657225D02*
X111125Y-606425D01*
X85725Y-657225D02*
G54D19*
D03*
X187325Y-657225D02*
G54D19*
D03*
X187325Y-488950D02*
G54D19*
D03*
X85725Y-488950D02*
G54D19*
D03*
X333375Y-371475D02*
G54D19*
D03*
X358775Y-371475D02*
G54D19*
D03*
X384175Y-371475D02*
G54D19*
D03*
X409575Y-371475D02*
G54D19*
D03*
X434975Y-371475D02*
G54D19*
D03*
X333375Y-488950D02*
G54D19*
D03*
X358775Y-488950D02*
G54D19*
D03*
X384175Y-488950D02*
G54D19*
D03*
X409575Y-488950D02*
G54D19*
D03*
X434975Y-488950D02*
G54D19*
D03*
X333375Y-539750D02*
G54D19*
D03*
X358775Y-539750D02*
G54D19*
D03*
X384175Y-539750D02*
G54D19*
D03*
X409575Y-539750D02*
G54D19*
D03*
X434975Y-539750D02*
G54D19*
D03*
X333375Y-657225D02*
G54D19*
D03*
X358775Y-657225D02*
G54D19*
D03*
X384175Y-657225D02*
G54D19*
D03*
X409575Y-657225D02*
G54D19*
D03*
X434975Y-657225D02*
G54D19*
D03*
X333375Y-606425D02*
G54D20*
D03*
X358775Y-606425D02*
G54D20*
D03*
X384175Y-606425D02*
G54D20*
D03*
X409575Y-606425D02*
G54D20*
D03*
X434975Y-606425D02*
G54D20*
D03*
X295270Y-416580D02*
G54D21*
D03*
X320670Y-416580D02*
G54D21*
D03*
X320669Y-445155D02*
G54D21*
D03*
X295270Y-445155D02*
G54D21*
D03*
X352425Y-431800D02*
G54D22*
D03*
X403225Y-431800D02*
G54D22*
D03*
X454025Y-431800D02*
G54D22*
D03*
X320675Y-577850D02*
G54D23*
D03*
X339675Y-577850D02*
G54D23*
D03*
X365125Y-577850D02*
G54D23*
D03*
X384125Y-577850D02*
G54D23*
D03*
G54D24*
X454025Y-431800D02*
X454025Y-415925D01*
X434975Y-396875D01*
X434975Y-371475D01*
G54D24*
X295270Y-416580D02*
X295270Y-384180D01*
X307975Y-371475D01*
X333375Y-371475D01*
G54D24*
X320670Y-416580D02*
X339070Y-416580D01*
X358775Y-396875D01*
X358775Y-371475D01*
X384175Y-371475D02*
G54D19*
D03*
X333375Y-606425D02*
G54D22*
D03*
X384175Y-539750D02*
G54D22*
D03*
G54D24*
X434975Y-606425D02*
X434975Y-539750D01*
X409575Y-606425D02*
G54D22*
D03*
G54D24*
X409575Y-606425D02*
X409575Y-539750D01*
X409575Y-371475D02*
G54D19*
D03*
G54D24*
X365125Y-577850D02*
X339675Y-577850D01*
G54D24*
X358775Y-606425D02*
X358775Y-584200D01*
X365125Y-577850D01*
G54D24*
X320675Y-577850D02*
X320675Y-552450D01*
X333375Y-539750D01*
G54D24*
X384125Y-577850D02*
X384125Y-565100D01*
X358775Y-539750D01*
G54D24*
X384175Y-606425D02*
X384175Y-577900D01*
X384125Y-577850D01*
G54D24*
X358775Y-657225D02*
X358775Y-606425D01*
X333375Y-657225D02*
G54D19*
D03*
X434975Y-657225D02*
G54D19*
D03*
X434975Y-488950D02*
G54D19*
D03*
X333375Y-488950D02*
G54D19*
D03*
X581025Y-371475D02*
G54D19*
D03*
X606425Y-371475D02*
G54D19*
D03*
X631825Y-371475D02*
G54D19*
D03*
X657225Y-371475D02*
G54D19*
D03*
X682625Y-371475D02*
G54D19*
D03*
X581025Y-488950D02*
G54D19*
D03*
X606425Y-488950D02*
G54D19*
D03*
X631825Y-488950D02*
G54D19*
D03*
X657225Y-488950D02*
G54D19*
D03*
X682625Y-488950D02*
G54D19*
D03*
X581025Y-539750D02*
G54D19*
D03*
X606425Y-539750D02*
G54D19*
D03*
X631825Y-539750D02*
G54D19*
D03*
X657225Y-539750D02*
G54D19*
D03*
X682625Y-539750D02*
G54D19*
D03*
X581025Y-657225D02*
G54D19*
D03*
X606425Y-657225D02*
G54D19*
D03*
X631825Y-657225D02*
G54D19*
D03*
X657225Y-657225D02*
G54D19*
D03*
X682625Y-657225D02*
G54D19*
D03*
X581025Y-606425D02*
G54D20*
D03*
X606425Y-606425D02*
G54D20*
D03*
X631825Y-606425D02*
G54D20*
D03*
X657225Y-606425D02*
G54D20*
D03*
X682625Y-606425D02*
G54D20*
D03*
X542920Y-416580D02*
G54D21*
D03*
X568320Y-416580D02*
G54D21*
D03*
X568319Y-445155D02*
G54D21*
D03*
X542920Y-445155D02*
G54D21*
D03*
X600075Y-431800D02*
G54D22*
D03*
X650875Y-431800D02*
G54D22*
D03*
X701675Y-431800D02*
G54D22*
D03*
X568325Y-577850D02*
G54D23*
D03*
X587325Y-577850D02*
G54D23*
D03*
X612775Y-577850D02*
G54D23*
D03*
X631775Y-577850D02*
G54D23*
D03*
G54D24*
X701675Y-431800D02*
X701675Y-415925D01*
X682625Y-396875D01*
X682625Y-371475D01*
G54D24*
X542920Y-416580D02*
X542920Y-384180D01*
X555625Y-371475D01*
X581025Y-371475D01*
G54D24*
X568320Y-416580D02*
X586720Y-416580D01*
X606425Y-396875D01*
X606425Y-371475D01*
X631825Y-371475D02*
G54D19*
D03*
X581025Y-606425D02*
G54D22*
D03*
X631825Y-539750D02*
G54D22*
D03*
G54D24*
X682625Y-606425D02*
X682625Y-539750D01*
X657225Y-606425D02*
G54D22*
D03*
G54D24*
X657225Y-606425D02*
X657225Y-539750D01*
X657225Y-371475D02*
G54D19*
D03*
G54D24*
X612775Y-577850D02*
X587325Y-577850D01*
G54D24*
X606425Y-606425D02*
X606425Y-584200D01*
X612775Y-577850D01*
G54D24*
X568325Y-577850D02*
X568325Y-552450D01*
X581025Y-539750D01*
G54D24*
X631775Y-577850D02*
X631775Y-565100D01*
X606425Y-539750D01*
G54D24*
X631825Y-606425D02*
X631825Y-577900D01*
X631775Y-577850D01*
G54D24*
X606425Y-657225D02*
X606425Y-606425D01*
X581025Y-657225D02*
G54D19*
D03*
X682625Y-657225D02*
G54D19*
D03*
X682625Y-488950D02*
G54D19*
D03*
X581025Y-488950D02*
G54D19*
D03*
M02*
