; Drill file
; Format: 2.4 (00.0000)
M48
INCH
T01C0.0354
T02C0.0394
T03C0.0433
T04C0.0866
%
G05
G90
T01
X001870Y-017530
X002870Y-017530
X002870Y-016400
X001870Y-016400
X011620Y-016400
X012620Y-016400
X012620Y-017530
X011620Y-017530
X021370Y-017530
X022370Y-017530
X022370Y-016400
X021370Y-016400
X021370Y-004280
X022370Y-004280
X022370Y-003150
X021370Y-003150
X012620Y-003150
X011620Y-003150
X011620Y-004280
X012620Y-004280
X002870Y-004280
X001870Y-004280
X001870Y-003150
X002870Y-003150
T02
X003380Y-025870
X004380Y-025870
X005370Y-025870
X006370Y-025870
X007380Y-025870
X007380Y-023880
X005370Y-023880
X004380Y-023880
X004380Y-021250
X003380Y-021250
X003380Y-019250
X004380Y-019250
X005370Y-019250
X006370Y-019250
X007380Y-019250
X007380Y-021250
X006370Y-021250
X006370Y-014620
X007380Y-014620
X007380Y-012620
X006370Y-012620
X005370Y-012620
X004380Y-012620
X003380Y-012620
X003380Y-014620
X004380Y-014620
X005370Y-014620
X005370Y-010620
X004380Y-010620
X004380Y-008000
X003380Y-008000
X003380Y-006000
X004380Y-006000
X005370Y-006000
X006370Y-006000
X007380Y-006000
X007380Y-008000
X006370Y-008000
X007380Y-010620
X013120Y-012620
X014130Y-012620
X015120Y-012620
X016130Y-012620
X017120Y-012620
X017120Y-010620
X015120Y-010620
X014130Y-010620
X014130Y-008000
X013120Y-008000
X013120Y-006000
X014130Y-006000
X015120Y-006000
X016130Y-006000
X017120Y-006000
X017120Y-008000
X016130Y-008000
X016130Y-001380
X017120Y-001380
X015120Y-001380
X014130Y-001380
X013120Y-001380
X007380Y-001380
X006370Y-001380
X005370Y-001380
X004380Y-001380
X003380Y-001380
X013120Y-014620
X014130Y-014620
X015120Y-014620
X016130Y-014620
X017120Y-014620
X017120Y-019250
X016130Y-019250
X015120Y-019250
X014130Y-019250
X013120Y-019250
X013120Y-021250
X014130Y-021250
X016130Y-021250
X017120Y-021250
X017120Y-023880
X015120Y-023880
X014130Y-023880
X014130Y-025870
X015120Y-025870
X016130Y-025870
X017120Y-025870
X013120Y-025870
X022880Y-025870
X023880Y-025870
X024870Y-025870
X025870Y-025870
X026880Y-025870
X026880Y-023880
X024870Y-023880
X023880Y-023880
X023880Y-021250
X022880Y-021250
X022880Y-019250
X023880Y-019250
X024870Y-019250
X025870Y-019250
X026880Y-019250
X026880Y-021250
X025870Y-021250
X025870Y-014620
X026880Y-014620
X026880Y-012620
X025870Y-012620
X024870Y-012620
X023880Y-012620
X022880Y-012620
X022880Y-014620
X023880Y-014620
X024870Y-014620
X024870Y-010620
X023880Y-010620
X023880Y-008000
X022880Y-008000
X022880Y-006000
X023880Y-006000
X024870Y-006000
X025870Y-006000
X026880Y-006000
X026880Y-008000
X025870Y-008000
X026880Y-010620
X026880Y-001380
X025870Y-001380
X024870Y-001380
X023880Y-001380
X022880Y-001380
T03
X003380Y-023880
X006370Y-023880
X005370Y-021250
X006130Y-017000
X004120Y-017000
X008120Y-017000
X013870Y-017000
X015870Y-017000
X017880Y-017000
X015120Y-021250
X016130Y-023880
X013120Y-023880
X022880Y-023880
X025870Y-023880
X024870Y-021250
X025620Y-017000
X023620Y-017000
X027630Y-017000
X025870Y-010620
X024870Y-008000
X022880Y-010620
X016130Y-010620
X015120Y-008000
X013120Y-010620
X006370Y-010620
X005370Y-008000
X003380Y-010620
X004120Y-003750
X006130Y-003750
X008120Y-003750
X013870Y-003750
X015870Y-003750
X017880Y-003750
X023620Y-003750
X025620Y-003750
X027630Y-003750
T04
X001250Y-023560
X009500Y-023560
X011000Y-023560
X019250Y-023560
X020750Y-023560
X029000Y-023560
X029000Y-010310
X020750Y-010310
X019250Y-010310
X011000Y-010310
X009500Y-010310
X001250Y-010310
M30
