%FSLAX34Y34*%
%MOMM*%
%LNSILK_BOTTOM*%
G71*
G01*
%ADD10C, 0.100*%
%ADD11C, 0.111*%
%ADD12C, 0.150*%
%LPD*%
G54D10*
X34925Y-180975D02*
X34925Y-225425D01*
X238125Y-225425D01*
X238125Y-180975D01*
X34925Y-180975D01*
G54D10*
G75*
G01X69850Y-203200D02*
G03X69850Y-203200I-15875J0D01*
G01*
G54D10*
G75*
G01X234950Y-203200D02*
G03X234950Y-203200I-15875J0D01*
G01*
G54D10*
X34925Y-298450D02*
X34925Y-342900D01*
X238125Y-342900D01*
X238125Y-298450D01*
X34925Y-298450D01*
G54D10*
G75*
G01X69850Y-320675D02*
G03X69850Y-320675I-15875J0D01*
G01*
G54D10*
G75*
G01X234950Y-320675D02*
G03X234950Y-320675I-15875J0D01*
G01*
G54D10*
X34919Y-60980D02*
X85719Y-60980D01*
X85720Y-121305D01*
X79370Y-127655D01*
X34920Y-127655D01*
X34919Y-60980D01*
G54D11*
X41275Y-54769D02*
X37942Y-51436D01*
X37942Y-60325D01*
G54D11*
X35942Y-130175D02*
X41275Y-130175D01*
X41275Y-129619D01*
X40608Y-128508D01*
X36608Y-125175D01*
X35942Y-124064D01*
X35942Y-122953D01*
X36608Y-121842D01*
X37942Y-121286D01*
X39275Y-121286D01*
X40608Y-121842D01*
X41275Y-122953D01*
G54D11*
X85725Y-122953D02*
X85058Y-121842D01*
X83725Y-121286D01*
X82392Y-121286D01*
X81058Y-121842D01*
X80392Y-122953D01*
X80392Y-124064D01*
X81058Y-125175D01*
X82392Y-125731D01*
X81058Y-126286D01*
X80392Y-127397D01*
X80392Y-128508D01*
X81058Y-129619D01*
X82392Y-130175D01*
X83725Y-130175D01*
X85058Y-129619D01*
X85725Y-128508D01*
G54D11*
X78550Y-63500D02*
X78550Y-54611D01*
X82550Y-60167D01*
X82550Y-61278D01*
X77217Y-61278D01*
G54D10*
X88900Y-66675D02*
X88900Y-123825D01*
X222250Y-123825D01*
X222250Y-66675D01*
X88900Y-66675D01*
G54D10*
X130175Y-76200D02*
X130175Y-114300D01*
X142875Y-114300D01*
X142875Y-76200D01*
X130175Y-76200D01*
G54D11*
X102617Y-118983D02*
X103283Y-120094D01*
X104617Y-120650D01*
X105950Y-120650D01*
X107283Y-120094D01*
X107950Y-118983D01*
X107950Y-113428D01*
X107283Y-112317D01*
X105950Y-111761D01*
X104617Y-111761D01*
X103283Y-112317D01*
X102617Y-113428D01*
G54D11*
X174625Y-120650D02*
X174625Y-111761D01*
X169292Y-120650D01*
X169292Y-111761D01*
G54D11*
X161515Y-113428D02*
X161515Y-118983D01*
X162181Y-120094D01*
X163515Y-120650D01*
X164848Y-120650D01*
X166181Y-120094D01*
X166848Y-118983D01*
X166848Y-113428D01*
X166181Y-112317D01*
X164848Y-111761D01*
X163515Y-111761D01*
X162181Y-112317D01*
X161515Y-113428D01*
G54D11*
X222250Y-120650D02*
X222250Y-111761D01*
X216917Y-120650D01*
X216917Y-111761D01*
G54D11*
X209140Y-118983D02*
X209806Y-120094D01*
X211140Y-120650D01*
X212473Y-120650D01*
X213806Y-120094D01*
X214473Y-118983D01*
X214473Y-113428D01*
X213806Y-112317D01*
X212473Y-111761D01*
X211140Y-111761D01*
X209806Y-112317D01*
X209140Y-113428D01*
G54D12*
X63525Y-252300D02*
X63525Y-230300D01*
X101525Y-230300D01*
X101525Y-252300D01*
X63525Y-252300D01*
G54D12*
X107975Y-252300D02*
X107975Y-230300D01*
X145975Y-230300D01*
X145975Y-252300D01*
X107975Y-252300D01*
G54D11*
X26908Y-24383D02*
X28019Y-23717D01*
X28575Y-22383D01*
X28575Y-21050D01*
X28019Y-19717D01*
X26908Y-19050D01*
X21353Y-19050D01*
X20242Y-19717D01*
X19686Y-21050D01*
X19686Y-22383D01*
X20242Y-23717D01*
X21353Y-24383D01*
G54D11*
X28575Y-26827D02*
X19686Y-26827D01*
G54D11*
X25019Y-26827D02*
X23908Y-27494D01*
X23575Y-28827D01*
X23908Y-30160D01*
X25019Y-30827D01*
X28575Y-30827D01*
G54D11*
X28575Y-33271D02*
X23575Y-33271D01*
G54D11*
X21908Y-33271D02*
X21908Y-33271D01*
G54D11*
X28575Y-35715D02*
X23575Y-35715D01*
G54D11*
X24464Y-35715D02*
X23575Y-37048D01*
X23908Y-38382D01*
X24686Y-39048D01*
X28575Y-39048D01*
G54D11*
X24464Y-39048D02*
X23575Y-40382D01*
X23908Y-41715D01*
X24686Y-42382D01*
X28575Y-42382D01*
G54D11*
X28019Y-48826D02*
X28575Y-47759D01*
X28575Y-46426D01*
X28019Y-45093D01*
X26908Y-44826D01*
X25019Y-44826D01*
X23908Y-45493D01*
X23575Y-46826D01*
X23908Y-48159D01*
X24686Y-48826D01*
X25797Y-48826D01*
X25797Y-44826D01*
G54D11*
X28575Y-51270D02*
X23575Y-51270D01*
G54D11*
X24686Y-51270D02*
X23575Y-52603D01*
X23575Y-53937D01*
G54D11*
X24131Y-56381D02*
X23575Y-57714D01*
X23575Y-59314D01*
X24686Y-60381D01*
X28575Y-60381D01*
G54D11*
X26908Y-60381D02*
X25797Y-59714D01*
X25575Y-58381D01*
X25797Y-57048D01*
X26908Y-56381D01*
X28019Y-56648D01*
X28575Y-57714D01*
X28575Y-58381D01*
X28575Y-58648D01*
X28019Y-59714D01*
X26908Y-60381D01*
G54D11*
X28575Y-65402D02*
X19686Y-65402D01*
X19686Y-68735D01*
X20242Y-70069D01*
X21353Y-70735D01*
X22464Y-70735D01*
X23575Y-70069D01*
X24131Y-68735D01*
X24131Y-65402D01*
G54D11*
X28575Y-73179D02*
X23575Y-73179D01*
G54D11*
X24686Y-73179D02*
X23575Y-74512D01*
X23575Y-75846D01*
G54D11*
X27242Y-82290D02*
X25019Y-82290D01*
X23908Y-81623D01*
X23575Y-80290D01*
X23908Y-78957D01*
X25019Y-78290D01*
X27242Y-78290D01*
X28353Y-78957D01*
X28575Y-80290D01*
X28353Y-81623D01*
X27242Y-82290D01*
G54D11*
X28575Y-84734D02*
X19686Y-84734D01*
G54D11*
X25019Y-84734D02*
X23908Y-85401D01*
X23575Y-86734D01*
X23908Y-88067D01*
X25019Y-88734D01*
X27242Y-88734D01*
X28353Y-88067D01*
X28575Y-86734D01*
X28353Y-85401D01*
X27242Y-84734D01*
G54D11*
X28019Y-95178D02*
X28575Y-94111D01*
X28575Y-92778D01*
X28019Y-91445D01*
X26908Y-91178D01*
X25019Y-91178D01*
X23908Y-91845D01*
X23575Y-93178D01*
X23908Y-94511D01*
X24686Y-95178D01*
X25797Y-95178D01*
X25797Y-91178D01*
G54D11*
X229617Y-293608D02*
X230283Y-294720D01*
X231617Y-295275D01*
X232950Y-295275D01*
X234283Y-294720D01*
X234950Y-293608D01*
X234950Y-288053D01*
X234283Y-286942D01*
X232950Y-286386D01*
X231617Y-286386D01*
X230283Y-286942D01*
X229617Y-288053D01*
G54D11*
X227173Y-295275D02*
X227173Y-286386D01*
G54D11*
X227173Y-291720D02*
X226506Y-290608D01*
X225173Y-290275D01*
X223840Y-290608D01*
X223173Y-291720D01*
X223173Y-295275D01*
G54D11*
X220729Y-295275D02*
X220729Y-290275D01*
G54D11*
X220729Y-288608D02*
X220729Y-288608D01*
G54D11*
X218285Y-295275D02*
X218285Y-290275D01*
G54D11*
X218285Y-291164D02*
X216952Y-290275D01*
X215618Y-290608D01*
X214952Y-291386D01*
X214952Y-295275D01*
G54D11*
X214952Y-291164D02*
X213618Y-290275D01*
X212285Y-290608D01*
X211618Y-291386D01*
X211618Y-295275D01*
G54D11*
X205174Y-294720D02*
X206241Y-295275D01*
X207574Y-295275D01*
X208907Y-294720D01*
X209174Y-293608D01*
X209174Y-291720D01*
X208507Y-290608D01*
X207174Y-290275D01*
X205841Y-290608D01*
X205174Y-291386D01*
X205174Y-292497D01*
X209174Y-292497D01*
G54D11*
X202730Y-295275D02*
X202730Y-290275D01*
G54D11*
X202730Y-291386D02*
X201397Y-290275D01*
X200063Y-290275D01*
G54D11*
X197619Y-290830D02*
X196286Y-290275D01*
X194686Y-290275D01*
X193619Y-291386D01*
X193619Y-295275D01*
G54D11*
X193619Y-293608D02*
X194286Y-292497D01*
X195619Y-292275D01*
X196952Y-292497D01*
X197619Y-293608D01*
X197352Y-294720D01*
X196286Y-295275D01*
X195619Y-295275D01*
X195352Y-295275D01*
X194286Y-294720D01*
X193619Y-293608D01*
G54D11*
X188598Y-295275D02*
X188598Y-286386D01*
X185265Y-286386D01*
X183931Y-286942D01*
X183265Y-288053D01*
X183265Y-289164D01*
X183931Y-290275D01*
X185265Y-290830D01*
X188598Y-290830D01*
G54D11*
X180821Y-295275D02*
X180821Y-290275D01*
G54D11*
X180821Y-291386D02*
X179488Y-290275D01*
X178154Y-290275D01*
G54D11*
X171710Y-293942D02*
X171710Y-291720D01*
X172377Y-290608D01*
X173710Y-290275D01*
X175043Y-290608D01*
X175710Y-291720D01*
X175710Y-293942D01*
X175043Y-295053D01*
X173710Y-295275D01*
X172377Y-295053D01*
X171710Y-293942D01*
G54D11*
X169266Y-295275D02*
X169266Y-286386D01*
G54D11*
X169266Y-291720D02*
X168599Y-290608D01*
X167266Y-290275D01*
X165933Y-290608D01*
X165266Y-291720D01*
X165266Y-293942D01*
X165933Y-295053D01*
X167266Y-295275D01*
X168599Y-295053D01*
X169266Y-293942D01*
G54D11*
X158822Y-294720D02*
X159889Y-295275D01*
X161222Y-295275D01*
X162555Y-294720D01*
X162822Y-293608D01*
X162822Y-291720D01*
X162155Y-290608D01*
X160822Y-290275D01*
X159489Y-290608D01*
X158822Y-291386D01*
X158822Y-292497D01*
X162822Y-292497D01*
G54D11*
X60833Y-290830D02*
X58833Y-291942D01*
X58167Y-293053D01*
X58167Y-295275D01*
G54D11*
X63500Y-295275D02*
X63500Y-286386D01*
X60167Y-286386D01*
X58833Y-286942D01*
X58167Y-288053D01*
X58167Y-289164D01*
X58833Y-290275D01*
X60167Y-290830D01*
X63500Y-290830D01*
G54D11*
X51723Y-294720D02*
X52790Y-295275D01*
X54123Y-295275D01*
X55456Y-294720D01*
X55723Y-293608D01*
X55723Y-291720D01*
X55056Y-290608D01*
X53723Y-290275D01*
X52390Y-290608D01*
X51723Y-291386D01*
X51723Y-292497D01*
X55723Y-292497D01*
G54D11*
X49279Y-290275D02*
X46612Y-295275D01*
X43946Y-290275D01*
G54D11*
X41502Y-295275D02*
X41502Y-295275D01*
G54D11*
X39058Y-289720D02*
X35725Y-286386D01*
X35725Y-295275D01*
G54D11*
X27306Y-148717D02*
X28417Y-150717D01*
X29528Y-151383D01*
X31750Y-151383D01*
G54D11*
X31750Y-146050D02*
X22861Y-146050D01*
X22861Y-149383D01*
X23417Y-150717D01*
X24528Y-151383D01*
X25639Y-151383D01*
X26750Y-150717D01*
X27306Y-149383D01*
X27306Y-146050D01*
G54D11*
X31194Y-157827D02*
X31750Y-156760D01*
X31750Y-155427D01*
X31194Y-154094D01*
X30083Y-153827D01*
X28194Y-153827D01*
X27083Y-154494D01*
X26750Y-155827D01*
X27083Y-157160D01*
X27861Y-157827D01*
X28972Y-157827D01*
X28972Y-153827D01*
G54D11*
X26750Y-160271D02*
X31750Y-162938D01*
X26750Y-165604D01*
G54D11*
X31750Y-168048D02*
X31750Y-168048D01*
G54D11*
X26194Y-170492D02*
X22861Y-173825D01*
X31750Y-173825D01*
G54D10*
X282575Y-180975D02*
X282575Y-225425D01*
X485775Y-225425D01*
X485775Y-180975D01*
X282575Y-180975D01*
G54D10*
G75*
G01X317500Y-203200D02*
G03X317500Y-203200I-15875J0D01*
G01*
G54D10*
G75*
G01X482600Y-203200D02*
G03X482600Y-203200I-15875J0D01*
G01*
G54D10*
X282575Y-298450D02*
X282575Y-342900D01*
X485775Y-342900D01*
X485775Y-298450D01*
X282575Y-298450D01*
G54D10*
G75*
G01X317500Y-320675D02*
G03X317500Y-320675I-15875J0D01*
G01*
G54D10*
G75*
G01X482600Y-320675D02*
G03X482600Y-320675I-15875J0D01*
G01*
G54D10*
X282569Y-60980D02*
X333369Y-60980D01*
X333370Y-121305D01*
X327020Y-127655D01*
X282570Y-127655D01*
X282569Y-60980D01*
G54D11*
X288925Y-54769D02*
X285592Y-51436D01*
X285592Y-60325D01*
G54D11*
X283592Y-130175D02*
X288925Y-130175D01*
X288925Y-129619D01*
X288258Y-128508D01*
X284258Y-125175D01*
X283592Y-124064D01*
X283592Y-122953D01*
X284258Y-121842D01*
X285592Y-121286D01*
X286925Y-121286D01*
X288258Y-121842D01*
X288925Y-122953D01*
G54D11*
X333375Y-122953D02*
X332708Y-121842D01*
X331375Y-121286D01*
X330042Y-121286D01*
X328708Y-121842D01*
X328042Y-122953D01*
X328042Y-124064D01*
X328708Y-125175D01*
X330042Y-125731D01*
X328708Y-126286D01*
X328042Y-127397D01*
X328042Y-128508D01*
X328708Y-129619D01*
X330042Y-130175D01*
X331375Y-130175D01*
X332708Y-129619D01*
X333375Y-128508D01*
G54D11*
X326200Y-63500D02*
X326200Y-54611D01*
X330200Y-60167D01*
X330200Y-61278D01*
X324867Y-61278D01*
G54D10*
X336550Y-66675D02*
X336550Y-123825D01*
X469900Y-123825D01*
X469900Y-66675D01*
X336550Y-66675D01*
G54D10*
X377825Y-76200D02*
X377825Y-114300D01*
X390525Y-114300D01*
X390525Y-76200D01*
X377825Y-76200D01*
G54D11*
X350267Y-118983D02*
X350933Y-120094D01*
X352267Y-120650D01*
X353600Y-120650D01*
X354933Y-120094D01*
X355600Y-118983D01*
X355600Y-113428D01*
X354933Y-112317D01*
X353600Y-111761D01*
X352267Y-111761D01*
X350933Y-112317D01*
X350267Y-113428D01*
G54D11*
X422275Y-120650D02*
X422275Y-111761D01*
X416942Y-120650D01*
X416942Y-111761D01*
G54D11*
X409165Y-113428D02*
X409165Y-118983D01*
X409831Y-120094D01*
X411165Y-120650D01*
X412498Y-120650D01*
X413831Y-120094D01*
X414498Y-118983D01*
X414498Y-113428D01*
X413831Y-112317D01*
X412498Y-111761D01*
X411165Y-111761D01*
X409831Y-112317D01*
X409165Y-113428D01*
G54D11*
X469900Y-120650D02*
X469900Y-111761D01*
X464567Y-120650D01*
X464567Y-111761D01*
G54D11*
X456790Y-118983D02*
X457456Y-120094D01*
X458790Y-120650D01*
X460123Y-120650D01*
X461456Y-120094D01*
X462123Y-118983D01*
X462123Y-113428D01*
X461456Y-112317D01*
X460123Y-111761D01*
X458790Y-111761D01*
X457456Y-112317D01*
X456790Y-113428D01*
G54D12*
X311175Y-252300D02*
X311175Y-230300D01*
X349175Y-230300D01*
X349175Y-252300D01*
X311175Y-252300D01*
G54D12*
X355625Y-252300D02*
X355625Y-230300D01*
X393625Y-230300D01*
X393625Y-252300D01*
X355625Y-252300D01*
G54D11*
X274558Y-24383D02*
X275669Y-23717D01*
X276225Y-22383D01*
X276225Y-21050D01*
X275669Y-19717D01*
X274558Y-19050D01*
X269003Y-19050D01*
X267892Y-19717D01*
X267336Y-21050D01*
X267336Y-22383D01*
X267892Y-23717D01*
X269003Y-24383D01*
G54D11*
X276225Y-26827D02*
X267336Y-26827D01*
G54D11*
X272669Y-26827D02*
X271558Y-27494D01*
X271225Y-28827D01*
X271558Y-30160D01*
X272669Y-30827D01*
X276225Y-30827D01*
G54D11*
X276225Y-33271D02*
X271225Y-33271D01*
G54D11*
X269558Y-33271D02*
X269558Y-33271D01*
G54D11*
X276225Y-35715D02*
X271225Y-35715D01*
G54D11*
X272114Y-35715D02*
X271225Y-37048D01*
X271558Y-38382D01*
X272336Y-39048D01*
X276225Y-39048D01*
G54D11*
X272114Y-39048D02*
X271225Y-40382D01*
X271558Y-41715D01*
X272336Y-42382D01*
X276225Y-42382D01*
G54D11*
X275669Y-48826D02*
X276225Y-47759D01*
X276225Y-46426D01*
X275669Y-45093D01*
X274558Y-44826D01*
X272669Y-44826D01*
X271558Y-45493D01*
X271225Y-46826D01*
X271558Y-48159D01*
X272336Y-48826D01*
X273447Y-48826D01*
X273447Y-44826D01*
G54D11*
X276225Y-51270D02*
X271225Y-51270D01*
G54D11*
X272336Y-51270D02*
X271225Y-52603D01*
X271225Y-53937D01*
G54D11*
X271781Y-56381D02*
X271225Y-57714D01*
X271225Y-59314D01*
X272336Y-60381D01*
X276225Y-60381D01*
G54D11*
X274558Y-60381D02*
X273447Y-59714D01*
X273225Y-58381D01*
X273447Y-57048D01*
X274558Y-56381D01*
X275669Y-56648D01*
X276225Y-57714D01*
X276225Y-58381D01*
X276225Y-58648D01*
X275669Y-59714D01*
X274558Y-60381D01*
G54D11*
X276225Y-65402D02*
X267336Y-65402D01*
X267336Y-68735D01*
X267892Y-70069D01*
X269003Y-70735D01*
X270114Y-70735D01*
X271225Y-70069D01*
X271781Y-68735D01*
X271781Y-65402D01*
G54D11*
X276225Y-73179D02*
X271225Y-73179D01*
G54D11*
X272336Y-73179D02*
X271225Y-74512D01*
X271225Y-75846D01*
G54D11*
X274892Y-82290D02*
X272669Y-82290D01*
X271558Y-81623D01*
X271225Y-80290D01*
X271558Y-78957D01*
X272669Y-78290D01*
X274892Y-78290D01*
X276003Y-78957D01*
X276225Y-80290D01*
X276003Y-81623D01*
X274892Y-82290D01*
G54D11*
X276225Y-84734D02*
X267336Y-84734D01*
G54D11*
X272669Y-84734D02*
X271558Y-85401D01*
X271225Y-86734D01*
X271558Y-88067D01*
X272669Y-88734D01*
X274892Y-88734D01*
X276003Y-88067D01*
X276225Y-86734D01*
X276003Y-85401D01*
X274892Y-84734D01*
G54D11*
X275669Y-95178D02*
X276225Y-94111D01*
X276225Y-92778D01*
X275669Y-91445D01*
X274558Y-91178D01*
X272669Y-91178D01*
X271558Y-91845D01*
X271225Y-93178D01*
X271558Y-94511D01*
X272336Y-95178D01*
X273447Y-95178D01*
X273447Y-91178D01*
G54D11*
X477267Y-293608D02*
X477933Y-294720D01*
X479267Y-295275D01*
X480600Y-295275D01*
X481933Y-294720D01*
X482600Y-293608D01*
X482600Y-288053D01*
X481933Y-286942D01*
X480600Y-286386D01*
X479267Y-286386D01*
X477933Y-286942D01*
X477267Y-288053D01*
G54D11*
X474823Y-295275D02*
X474823Y-286386D01*
G54D11*
X474823Y-291720D02*
X474156Y-290608D01*
X472823Y-290275D01*
X471490Y-290608D01*
X470823Y-291720D01*
X470823Y-295275D01*
G54D11*
X468379Y-295275D02*
X468379Y-290275D01*
G54D11*
X468379Y-288608D02*
X468379Y-288608D01*
G54D11*
X465935Y-295275D02*
X465935Y-290275D01*
G54D11*
X465935Y-291164D02*
X464602Y-290275D01*
X463268Y-290608D01*
X462602Y-291386D01*
X462602Y-295275D01*
G54D11*
X462602Y-291164D02*
X461268Y-290275D01*
X459935Y-290608D01*
X459268Y-291386D01*
X459268Y-295275D01*
G54D11*
X452824Y-294720D02*
X453891Y-295275D01*
X455224Y-295275D01*
X456557Y-294720D01*
X456824Y-293608D01*
X456824Y-291720D01*
X456157Y-290608D01*
X454824Y-290275D01*
X453491Y-290608D01*
X452824Y-291386D01*
X452824Y-292497D01*
X456824Y-292497D01*
G54D11*
X450380Y-295275D02*
X450380Y-290275D01*
G54D11*
X450380Y-291386D02*
X449047Y-290275D01*
X447713Y-290275D01*
G54D11*
X445269Y-290830D02*
X443936Y-290275D01*
X442336Y-290275D01*
X441269Y-291386D01*
X441269Y-295275D01*
G54D11*
X441269Y-293608D02*
X441936Y-292497D01*
X443269Y-292275D01*
X444602Y-292497D01*
X445269Y-293608D01*
X445002Y-294720D01*
X443936Y-295275D01*
X443269Y-295275D01*
X443002Y-295275D01*
X441936Y-294720D01*
X441269Y-293608D01*
G54D11*
X436248Y-295275D02*
X436248Y-286386D01*
X432915Y-286386D01*
X431581Y-286942D01*
X430915Y-288053D01*
X430915Y-289164D01*
X431581Y-290275D01*
X432915Y-290830D01*
X436248Y-290830D01*
G54D11*
X428471Y-295275D02*
X428471Y-290275D01*
G54D11*
X428471Y-291386D02*
X427138Y-290275D01*
X425804Y-290275D01*
G54D11*
X419360Y-293942D02*
X419360Y-291720D01*
X420027Y-290608D01*
X421360Y-290275D01*
X422693Y-290608D01*
X423360Y-291720D01*
X423360Y-293942D01*
X422693Y-295053D01*
X421360Y-295275D01*
X420027Y-295053D01*
X419360Y-293942D01*
G54D11*
X416916Y-295275D02*
X416916Y-286386D01*
G54D11*
X416916Y-291720D02*
X416249Y-290608D01*
X414916Y-290275D01*
X413583Y-290608D01*
X412916Y-291720D01*
X412916Y-293942D01*
X413583Y-295053D01*
X414916Y-295275D01*
X416249Y-295053D01*
X416916Y-293942D01*
G54D11*
X406472Y-294720D02*
X407539Y-295275D01*
X408872Y-295275D01*
X410205Y-294720D01*
X410472Y-293608D01*
X410472Y-291720D01*
X409805Y-290608D01*
X408472Y-290275D01*
X407139Y-290608D01*
X406472Y-291386D01*
X406472Y-292497D01*
X410472Y-292497D01*
G54D11*
X308483Y-290830D02*
X306483Y-291942D01*
X305817Y-293053D01*
X305817Y-295275D01*
G54D11*
X311150Y-295275D02*
X311150Y-286386D01*
X307817Y-286386D01*
X306483Y-286942D01*
X305817Y-288053D01*
X305817Y-289164D01*
X306483Y-290275D01*
X307817Y-290830D01*
X311150Y-290830D01*
G54D11*
X299373Y-294720D02*
X300440Y-295275D01*
X301773Y-295275D01*
X303106Y-294720D01*
X303373Y-293608D01*
X303373Y-291720D01*
X302706Y-290608D01*
X301373Y-290275D01*
X300040Y-290608D01*
X299373Y-291386D01*
X299373Y-292497D01*
X303373Y-292497D01*
G54D11*
X296929Y-290275D02*
X294262Y-295275D01*
X291596Y-290275D01*
G54D11*
X289152Y-295275D02*
X289152Y-295275D01*
G54D11*
X286708Y-289720D02*
X283375Y-286386D01*
X283375Y-295275D01*
G54D11*
X274956Y-148717D02*
X276067Y-150717D01*
X277178Y-151383D01*
X279400Y-151383D01*
G54D11*
X279400Y-146050D02*
X270511Y-146050D01*
X270511Y-149383D01*
X271067Y-150717D01*
X272178Y-151383D01*
X273289Y-151383D01*
X274400Y-150717D01*
X274956Y-149383D01*
X274956Y-146050D01*
G54D11*
X278844Y-157827D02*
X279400Y-156760D01*
X279400Y-155427D01*
X278844Y-154094D01*
X277733Y-153827D01*
X275844Y-153827D01*
X274733Y-154494D01*
X274400Y-155827D01*
X274733Y-157160D01*
X275511Y-157827D01*
X276622Y-157827D01*
X276622Y-153827D01*
G54D11*
X274400Y-160271D02*
X279400Y-162938D01*
X274400Y-165604D01*
G54D11*
X279400Y-168048D02*
X279400Y-168048D01*
G54D11*
X273844Y-170492D02*
X270511Y-173825D01*
X279400Y-173825D01*
G54D10*
X530225Y-180975D02*
X530225Y-225425D01*
X733425Y-225425D01*
X733425Y-180975D01*
X530225Y-180975D01*
G54D10*
G75*
G01X565150Y-203200D02*
G03X565150Y-203200I-15875J0D01*
G01*
G54D10*
G75*
G01X730250Y-203200D02*
G03X730250Y-203200I-15875J0D01*
G01*
G54D10*
X530225Y-298450D02*
X530225Y-342900D01*
X733425Y-342900D01*
X733425Y-298450D01*
X530225Y-298450D01*
G54D10*
G75*
G01X565150Y-320675D02*
G03X565150Y-320675I-15875J0D01*
G01*
G54D10*
G75*
G01X730250Y-320675D02*
G03X730250Y-320675I-15875J0D01*
G01*
G54D10*
X530219Y-60980D02*
X581019Y-60980D01*
X581020Y-121305D01*
X574670Y-127655D01*
X530220Y-127655D01*
X530219Y-60980D01*
G54D11*
X536575Y-54769D02*
X533242Y-51436D01*
X533242Y-60325D01*
G54D11*
X531242Y-130175D02*
X536575Y-130175D01*
X536575Y-129619D01*
X535908Y-128508D01*
X531908Y-125175D01*
X531242Y-124064D01*
X531242Y-122953D01*
X531908Y-121842D01*
X533242Y-121286D01*
X534575Y-121286D01*
X535908Y-121842D01*
X536575Y-122953D01*
G54D11*
X581025Y-122953D02*
X580358Y-121842D01*
X579025Y-121286D01*
X577692Y-121286D01*
X576358Y-121842D01*
X575692Y-122953D01*
X575692Y-124064D01*
X576358Y-125175D01*
X577692Y-125731D01*
X576358Y-126286D01*
X575692Y-127397D01*
X575692Y-128508D01*
X576358Y-129619D01*
X577692Y-130175D01*
X579025Y-130175D01*
X580358Y-129619D01*
X581025Y-128508D01*
G54D11*
X573850Y-63500D02*
X573850Y-54611D01*
X577850Y-60167D01*
X577850Y-61278D01*
X572517Y-61278D01*
G54D10*
X584200Y-66675D02*
X584200Y-123825D01*
X717550Y-123825D01*
X717550Y-66675D01*
X584200Y-66675D01*
G54D10*
X625475Y-76200D02*
X625475Y-114300D01*
X638175Y-114300D01*
X638175Y-76200D01*
X625475Y-76200D01*
G54D11*
X597917Y-118983D02*
X598583Y-120094D01*
X599917Y-120650D01*
X601250Y-120650D01*
X602583Y-120094D01*
X603250Y-118983D01*
X603250Y-113428D01*
X602583Y-112317D01*
X601250Y-111761D01*
X599917Y-111761D01*
X598583Y-112317D01*
X597917Y-113428D01*
G54D11*
X669925Y-120650D02*
X669925Y-111761D01*
X664592Y-120650D01*
X664592Y-111761D01*
G54D11*
X656815Y-113428D02*
X656815Y-118983D01*
X657481Y-120094D01*
X658815Y-120650D01*
X660148Y-120650D01*
X661481Y-120094D01*
X662148Y-118983D01*
X662148Y-113428D01*
X661481Y-112317D01*
X660148Y-111761D01*
X658815Y-111761D01*
X657481Y-112317D01*
X656815Y-113428D01*
G54D11*
X717550Y-120650D02*
X717550Y-111761D01*
X712217Y-120650D01*
X712217Y-111761D01*
G54D11*
X704440Y-118983D02*
X705106Y-120094D01*
X706440Y-120650D01*
X707773Y-120650D01*
X709106Y-120094D01*
X709773Y-118983D01*
X709773Y-113428D01*
X709106Y-112317D01*
X707773Y-111761D01*
X706440Y-111761D01*
X705106Y-112317D01*
X704440Y-113428D01*
G54D12*
X558825Y-252300D02*
X558825Y-230300D01*
X596825Y-230300D01*
X596825Y-252300D01*
X558825Y-252300D01*
G54D12*
X603275Y-252300D02*
X603275Y-230300D01*
X641275Y-230300D01*
X641275Y-252300D01*
X603275Y-252300D01*
G54D11*
X522208Y-24383D02*
X523319Y-23717D01*
X523875Y-22383D01*
X523875Y-21050D01*
X523319Y-19717D01*
X522208Y-19050D01*
X516653Y-19050D01*
X515542Y-19717D01*
X514986Y-21050D01*
X514986Y-22383D01*
X515542Y-23717D01*
X516653Y-24383D01*
G54D11*
X523875Y-26827D02*
X514986Y-26827D01*
G54D11*
X520319Y-26827D02*
X519208Y-27494D01*
X518875Y-28827D01*
X519208Y-30160D01*
X520319Y-30827D01*
X523875Y-30827D01*
G54D11*
X523875Y-33271D02*
X518875Y-33271D01*
G54D11*
X517208Y-33271D02*
X517208Y-33271D01*
G54D11*
X523875Y-35715D02*
X518875Y-35715D01*
G54D11*
X519764Y-35715D02*
X518875Y-37048D01*
X519208Y-38382D01*
X519986Y-39048D01*
X523875Y-39048D01*
G54D11*
X519764Y-39048D02*
X518875Y-40382D01*
X519208Y-41715D01*
X519986Y-42382D01*
X523875Y-42382D01*
G54D11*
X523319Y-48826D02*
X523875Y-47759D01*
X523875Y-46426D01*
X523319Y-45093D01*
X522208Y-44826D01*
X520319Y-44826D01*
X519208Y-45493D01*
X518875Y-46826D01*
X519208Y-48159D01*
X519986Y-48826D01*
X521097Y-48826D01*
X521097Y-44826D01*
G54D11*
X523875Y-51270D02*
X518875Y-51270D01*
G54D11*
X519986Y-51270D02*
X518875Y-52603D01*
X518875Y-53937D01*
G54D11*
X519431Y-56381D02*
X518875Y-57714D01*
X518875Y-59314D01*
X519986Y-60381D01*
X523875Y-60381D01*
G54D11*
X522208Y-60381D02*
X521097Y-59714D01*
X520875Y-58381D01*
X521097Y-57048D01*
X522208Y-56381D01*
X523319Y-56648D01*
X523875Y-57714D01*
X523875Y-58381D01*
X523875Y-58648D01*
X523319Y-59714D01*
X522208Y-60381D01*
G54D11*
X523875Y-65402D02*
X514986Y-65402D01*
X514986Y-68735D01*
X515542Y-70069D01*
X516653Y-70735D01*
X517764Y-70735D01*
X518875Y-70069D01*
X519431Y-68735D01*
X519431Y-65402D01*
G54D11*
X523875Y-73179D02*
X518875Y-73179D01*
G54D11*
X519986Y-73179D02*
X518875Y-74512D01*
X518875Y-75846D01*
G54D11*
X522542Y-82290D02*
X520319Y-82290D01*
X519208Y-81623D01*
X518875Y-80290D01*
X519208Y-78957D01*
X520319Y-78290D01*
X522542Y-78290D01*
X523653Y-78957D01*
X523875Y-80290D01*
X523653Y-81623D01*
X522542Y-82290D01*
G54D11*
X523875Y-84734D02*
X514986Y-84734D01*
G54D11*
X520319Y-84734D02*
X519208Y-85401D01*
X518875Y-86734D01*
X519208Y-88067D01*
X520319Y-88734D01*
X522542Y-88734D01*
X523653Y-88067D01*
X523875Y-86734D01*
X523653Y-85401D01*
X522542Y-84734D01*
G54D11*
X523319Y-95178D02*
X523875Y-94111D01*
X523875Y-92778D01*
X523319Y-91445D01*
X522208Y-91178D01*
X520319Y-91178D01*
X519208Y-91845D01*
X518875Y-93178D01*
X519208Y-94511D01*
X519986Y-95178D01*
X521097Y-95178D01*
X521097Y-91178D01*
G54D11*
X724917Y-293608D02*
X725583Y-294720D01*
X726917Y-295275D01*
X728250Y-295275D01*
X729583Y-294720D01*
X730250Y-293608D01*
X730250Y-288053D01*
X729583Y-286942D01*
X728250Y-286386D01*
X726917Y-286386D01*
X725583Y-286942D01*
X724917Y-288053D01*
G54D11*
X722473Y-295275D02*
X722473Y-286386D01*
G54D11*
X722473Y-291720D02*
X721806Y-290608D01*
X720473Y-290275D01*
X719140Y-290608D01*
X718473Y-291720D01*
X718473Y-295275D01*
G54D11*
X716029Y-295275D02*
X716029Y-290275D01*
G54D11*
X716029Y-288608D02*
X716029Y-288608D01*
G54D11*
X713585Y-295275D02*
X713585Y-290275D01*
G54D11*
X713585Y-291164D02*
X712252Y-290275D01*
X710918Y-290608D01*
X710252Y-291386D01*
X710252Y-295275D01*
G54D11*
X710252Y-291164D02*
X708918Y-290275D01*
X707585Y-290608D01*
X706918Y-291386D01*
X706918Y-295275D01*
G54D11*
X700474Y-294720D02*
X701541Y-295275D01*
X702874Y-295275D01*
X704207Y-294720D01*
X704474Y-293608D01*
X704474Y-291720D01*
X703807Y-290608D01*
X702474Y-290275D01*
X701141Y-290608D01*
X700474Y-291386D01*
X700474Y-292497D01*
X704474Y-292497D01*
G54D11*
X698030Y-295275D02*
X698030Y-290275D01*
G54D11*
X698030Y-291386D02*
X696697Y-290275D01*
X695363Y-290275D01*
G54D11*
X692919Y-290830D02*
X691586Y-290275D01*
X689986Y-290275D01*
X688919Y-291386D01*
X688919Y-295275D01*
G54D11*
X688919Y-293608D02*
X689586Y-292497D01*
X690919Y-292275D01*
X692252Y-292497D01*
X692919Y-293608D01*
X692652Y-294720D01*
X691586Y-295275D01*
X690919Y-295275D01*
X690652Y-295275D01*
X689586Y-294720D01*
X688919Y-293608D01*
G54D11*
X683898Y-295275D02*
X683898Y-286386D01*
X680565Y-286386D01*
X679231Y-286942D01*
X678565Y-288053D01*
X678565Y-289164D01*
X679231Y-290275D01*
X680565Y-290830D01*
X683898Y-290830D01*
G54D11*
X676121Y-295275D02*
X676121Y-290275D01*
G54D11*
X676121Y-291386D02*
X674788Y-290275D01*
X673454Y-290275D01*
G54D11*
X667010Y-293942D02*
X667010Y-291720D01*
X667677Y-290608D01*
X669010Y-290275D01*
X670343Y-290608D01*
X671010Y-291720D01*
X671010Y-293942D01*
X670343Y-295053D01*
X669010Y-295275D01*
X667677Y-295053D01*
X667010Y-293942D01*
G54D11*
X664566Y-295275D02*
X664566Y-286386D01*
G54D11*
X664566Y-291720D02*
X663899Y-290608D01*
X662566Y-290275D01*
X661233Y-290608D01*
X660566Y-291720D01*
X660566Y-293942D01*
X661233Y-295053D01*
X662566Y-295275D01*
X663899Y-295053D01*
X664566Y-293942D01*
G54D11*
X654122Y-294720D02*
X655189Y-295275D01*
X656522Y-295275D01*
X657855Y-294720D01*
X658122Y-293608D01*
X658122Y-291720D01*
X657455Y-290608D01*
X656122Y-290275D01*
X654789Y-290608D01*
X654122Y-291386D01*
X654122Y-292497D01*
X658122Y-292497D01*
G54D11*
X556133Y-290830D02*
X554133Y-291942D01*
X553467Y-293053D01*
X553467Y-295275D01*
G54D11*
X558800Y-295275D02*
X558800Y-286386D01*
X555467Y-286386D01*
X554133Y-286942D01*
X553467Y-288053D01*
X553467Y-289164D01*
X554133Y-290275D01*
X555467Y-290830D01*
X558800Y-290830D01*
G54D11*
X547023Y-294720D02*
X548090Y-295275D01*
X549423Y-295275D01*
X550756Y-294720D01*
X551023Y-293608D01*
X551023Y-291720D01*
X550356Y-290608D01*
X549023Y-290275D01*
X547690Y-290608D01*
X547023Y-291386D01*
X547023Y-292497D01*
X551023Y-292497D01*
G54D11*
X544579Y-290275D02*
X541912Y-295275D01*
X539246Y-290275D01*
G54D11*
X536802Y-295275D02*
X536802Y-295275D01*
G54D11*
X534358Y-289720D02*
X531025Y-286386D01*
X531025Y-295275D01*
G54D11*
X522606Y-148717D02*
X523717Y-150717D01*
X524828Y-151383D01*
X527050Y-151383D01*
G54D11*
X527050Y-146050D02*
X518161Y-146050D01*
X518161Y-149383D01*
X518717Y-150717D01*
X519828Y-151383D01*
X520939Y-151383D01*
X522050Y-150717D01*
X522606Y-149383D01*
X522606Y-146050D01*
G54D11*
X526494Y-157827D02*
X527050Y-156760D01*
X527050Y-155427D01*
X526494Y-154094D01*
X525383Y-153827D01*
X523494Y-153827D01*
X522383Y-154494D01*
X522050Y-155827D01*
X522383Y-157160D01*
X523161Y-157827D01*
X524272Y-157827D01*
X524272Y-153827D01*
G54D11*
X522050Y-160271D02*
X527050Y-162938D01*
X522050Y-165604D01*
G54D11*
X527050Y-168048D02*
X527050Y-168048D01*
G54D11*
X521494Y-170492D02*
X518161Y-173825D01*
X527050Y-173825D01*
G54D10*
X34925Y-517525D02*
X34925Y-561975D01*
X238125Y-561975D01*
X238125Y-517525D01*
X34925Y-517525D01*
G54D10*
G75*
G01X69850Y-539750D02*
G03X69850Y-539750I-15875J0D01*
G01*
G54D10*
G75*
G01X234950Y-539750D02*
G03X234950Y-539750I-15875J0D01*
G01*
G54D10*
X34925Y-635000D02*
X34925Y-679450D01*
X238125Y-679450D01*
X238125Y-635000D01*
X34925Y-635000D01*
G54D10*
G75*
G01X69850Y-657225D02*
G03X69850Y-657225I-15875J0D01*
G01*
G54D10*
G75*
G01X234950Y-657225D02*
G03X234950Y-657225I-15875J0D01*
G01*
G54D10*
X34919Y-397530D02*
X85719Y-397530D01*
X85720Y-457855D01*
X79370Y-464205D01*
X34920Y-464205D01*
X34919Y-397530D01*
G54D11*
X41275Y-391320D02*
X37942Y-387986D01*
X37942Y-396875D01*
G54D11*
X35942Y-466725D02*
X41275Y-466725D01*
X41275Y-466170D01*
X40608Y-465058D01*
X36608Y-461725D01*
X35942Y-460614D01*
X35942Y-459503D01*
X36608Y-458392D01*
X37942Y-457836D01*
X39275Y-457836D01*
X40608Y-458392D01*
X41275Y-459503D01*
G54D11*
X85725Y-459503D02*
X85058Y-458392D01*
X83725Y-457836D01*
X82392Y-457836D01*
X81058Y-458392D01*
X80392Y-459503D01*
X80392Y-460614D01*
X81058Y-461725D01*
X82392Y-462280D01*
X81058Y-462836D01*
X80392Y-463947D01*
X80392Y-465058D01*
X81058Y-466170D01*
X82392Y-466725D01*
X83725Y-466725D01*
X85058Y-466170D01*
X85725Y-465058D01*
G54D11*
X78550Y-400050D02*
X78550Y-391161D01*
X82550Y-396717D01*
X82550Y-397828D01*
X77217Y-397828D01*
G54D10*
X88900Y-403225D02*
X88900Y-460375D01*
X222250Y-460375D01*
X222250Y-403225D01*
X88900Y-403225D01*
G54D10*
X130175Y-412750D02*
X130175Y-450850D01*
X142875Y-450850D01*
X142875Y-412750D01*
X130175Y-412750D01*
G54D11*
X102617Y-455533D02*
X103283Y-456644D01*
X104617Y-457200D01*
X105950Y-457200D01*
X107283Y-456644D01*
X107950Y-455533D01*
X107950Y-449978D01*
X107283Y-448867D01*
X105950Y-448311D01*
X104617Y-448311D01*
X103283Y-448867D01*
X102617Y-449978D01*
G54D11*
X174625Y-457200D02*
X174625Y-448311D01*
X169292Y-457200D01*
X169292Y-448311D01*
G54D11*
X161515Y-449978D02*
X161515Y-455533D01*
X162181Y-456644D01*
X163515Y-457200D01*
X164848Y-457200D01*
X166181Y-456644D01*
X166848Y-455533D01*
X166848Y-449978D01*
X166181Y-448867D01*
X164848Y-448311D01*
X163515Y-448311D01*
X162181Y-448867D01*
X161515Y-449978D01*
G54D11*
X222250Y-457200D02*
X222250Y-448311D01*
X216917Y-457200D01*
X216917Y-448311D01*
G54D11*
X209140Y-455533D02*
X209806Y-456644D01*
X211140Y-457200D01*
X212473Y-457200D01*
X213806Y-456644D01*
X214473Y-455533D01*
X214473Y-449978D01*
X213806Y-448867D01*
X212473Y-448311D01*
X211140Y-448311D01*
X209806Y-448867D01*
X209140Y-449978D01*
G54D12*
X63525Y-588850D02*
X63525Y-566850D01*
X101525Y-566850D01*
X101525Y-588850D01*
X63525Y-588850D01*
G54D12*
X107975Y-588850D02*
X107975Y-566850D01*
X145975Y-566850D01*
X145975Y-588850D01*
X107975Y-588850D01*
G54D11*
X26908Y-360933D02*
X28019Y-360267D01*
X28575Y-358933D01*
X28575Y-357600D01*
X28019Y-356267D01*
X26908Y-355600D01*
X21353Y-355600D01*
X20242Y-356267D01*
X19686Y-357600D01*
X19686Y-358933D01*
X20242Y-360267D01*
X21353Y-360933D01*
G54D11*
X28575Y-363377D02*
X19686Y-363377D01*
G54D11*
X25019Y-363377D02*
X23908Y-364044D01*
X23575Y-365377D01*
X23908Y-366710D01*
X25019Y-367377D01*
X28575Y-367377D01*
G54D11*
X28575Y-369821D02*
X23575Y-369821D01*
G54D11*
X21908Y-369821D02*
X21908Y-369821D01*
G54D11*
X28575Y-372265D02*
X23575Y-372265D01*
G54D11*
X24464Y-372265D02*
X23575Y-373598D01*
X23908Y-374932D01*
X24686Y-375598D01*
X28575Y-375598D01*
G54D11*
X24464Y-375598D02*
X23575Y-376932D01*
X23908Y-378265D01*
X24686Y-378932D01*
X28575Y-378932D01*
G54D11*
X28019Y-385376D02*
X28575Y-384309D01*
X28575Y-382976D01*
X28019Y-381643D01*
X26908Y-381376D01*
X25019Y-381376D01*
X23908Y-382043D01*
X23575Y-383376D01*
X23908Y-384709D01*
X24686Y-385376D01*
X25797Y-385376D01*
X25797Y-381376D01*
G54D11*
X28575Y-387820D02*
X23575Y-387820D01*
G54D11*
X24686Y-387820D02*
X23575Y-389153D01*
X23575Y-390487D01*
G54D11*
X24131Y-392931D02*
X23575Y-394264D01*
X23575Y-395864D01*
X24686Y-396931D01*
X28575Y-396931D01*
G54D11*
X26908Y-396931D02*
X25797Y-396264D01*
X25575Y-394931D01*
X25797Y-393598D01*
X26908Y-392931D01*
X28019Y-393198D01*
X28575Y-394264D01*
X28575Y-394931D01*
X28575Y-395198D01*
X28019Y-396264D01*
X26908Y-396931D01*
G54D11*
X28575Y-401952D02*
X19686Y-401952D01*
X19686Y-405285D01*
X20242Y-406619D01*
X21353Y-407285D01*
X22464Y-407285D01*
X23575Y-406619D01*
X24131Y-405285D01*
X24131Y-401952D01*
G54D11*
X28575Y-409729D02*
X23575Y-409729D01*
G54D11*
X24686Y-409729D02*
X23575Y-411062D01*
X23575Y-412396D01*
G54D11*
X27242Y-418840D02*
X25019Y-418840D01*
X23908Y-418173D01*
X23575Y-416840D01*
X23908Y-415507D01*
X25019Y-414840D01*
X27242Y-414840D01*
X28353Y-415507D01*
X28575Y-416840D01*
X28353Y-418173D01*
X27242Y-418840D01*
G54D11*
X28575Y-421284D02*
X19686Y-421284D01*
G54D11*
X25019Y-421284D02*
X23908Y-421951D01*
X23575Y-423284D01*
X23908Y-424617D01*
X25019Y-425284D01*
X27242Y-425284D01*
X28353Y-424617D01*
X28575Y-423284D01*
X28353Y-421951D01*
X27242Y-421284D01*
G54D11*
X28019Y-431728D02*
X28575Y-430661D01*
X28575Y-429328D01*
X28019Y-427995D01*
X26908Y-427728D01*
X25019Y-427728D01*
X23908Y-428395D01*
X23575Y-429728D01*
X23908Y-431061D01*
X24686Y-431728D01*
X25797Y-431728D01*
X25797Y-427728D01*
G54D11*
X229617Y-630158D02*
X230283Y-631270D01*
X231617Y-631825D01*
X232950Y-631825D01*
X234283Y-631270D01*
X234950Y-630158D01*
X234950Y-624603D01*
X234283Y-623492D01*
X232950Y-622936D01*
X231617Y-622936D01*
X230283Y-623492D01*
X229617Y-624603D01*
G54D11*
X227173Y-631825D02*
X227173Y-622936D01*
G54D11*
X227173Y-628270D02*
X226506Y-627158D01*
X225173Y-626825D01*
X223840Y-627158D01*
X223173Y-628270D01*
X223173Y-631825D01*
G54D11*
X220729Y-631825D02*
X220729Y-626825D01*
G54D11*
X220729Y-625158D02*
X220729Y-625158D01*
G54D11*
X218285Y-631825D02*
X218285Y-626825D01*
G54D11*
X218285Y-627714D02*
X216952Y-626825D01*
X215618Y-627158D01*
X214952Y-627936D01*
X214952Y-631825D01*
G54D11*
X214952Y-627714D02*
X213618Y-626825D01*
X212285Y-627158D01*
X211618Y-627936D01*
X211618Y-631825D01*
G54D11*
X205174Y-631270D02*
X206241Y-631825D01*
X207574Y-631825D01*
X208907Y-631270D01*
X209174Y-630158D01*
X209174Y-628270D01*
X208507Y-627158D01*
X207174Y-626825D01*
X205841Y-627158D01*
X205174Y-627936D01*
X205174Y-629047D01*
X209174Y-629047D01*
G54D11*
X202730Y-631825D02*
X202730Y-626825D01*
G54D11*
X202730Y-627936D02*
X201397Y-626825D01*
X200063Y-626825D01*
G54D11*
X197619Y-627380D02*
X196286Y-626825D01*
X194686Y-626825D01*
X193619Y-627936D01*
X193619Y-631825D01*
G54D11*
X193619Y-630158D02*
X194286Y-629047D01*
X195619Y-628825D01*
X196952Y-629047D01*
X197619Y-630158D01*
X197352Y-631270D01*
X196286Y-631825D01*
X195619Y-631825D01*
X195352Y-631825D01*
X194286Y-631270D01*
X193619Y-630158D01*
G54D11*
X188598Y-631825D02*
X188598Y-622936D01*
X185265Y-622936D01*
X183931Y-623492D01*
X183265Y-624603D01*
X183265Y-625714D01*
X183931Y-626825D01*
X185265Y-627380D01*
X188598Y-627380D01*
G54D11*
X180821Y-631825D02*
X180821Y-626825D01*
G54D11*
X180821Y-627936D02*
X179488Y-626825D01*
X178154Y-626825D01*
G54D11*
X171710Y-630492D02*
X171710Y-628270D01*
X172377Y-627158D01*
X173710Y-626825D01*
X175043Y-627158D01*
X175710Y-628270D01*
X175710Y-630492D01*
X175043Y-631603D01*
X173710Y-631825D01*
X172377Y-631603D01*
X171710Y-630492D01*
G54D11*
X169266Y-631825D02*
X169266Y-622936D01*
G54D11*
X169266Y-628270D02*
X168599Y-627158D01*
X167266Y-626825D01*
X165933Y-627158D01*
X165266Y-628270D01*
X165266Y-630492D01*
X165933Y-631603D01*
X167266Y-631825D01*
X168599Y-631603D01*
X169266Y-630492D01*
G54D11*
X158822Y-631270D02*
X159889Y-631825D01*
X161222Y-631825D01*
X162555Y-631270D01*
X162822Y-630158D01*
X162822Y-628270D01*
X162155Y-627158D01*
X160822Y-626825D01*
X159489Y-627158D01*
X158822Y-627936D01*
X158822Y-629047D01*
X162822Y-629047D01*
G54D11*
X60833Y-627380D02*
X58833Y-628492D01*
X58167Y-629603D01*
X58167Y-631825D01*
G54D11*
X63500Y-631825D02*
X63500Y-622936D01*
X60167Y-622936D01*
X58833Y-623492D01*
X58167Y-624603D01*
X58167Y-625714D01*
X58833Y-626825D01*
X60167Y-627380D01*
X63500Y-627380D01*
G54D11*
X51723Y-631270D02*
X52790Y-631825D01*
X54123Y-631825D01*
X55456Y-631270D01*
X55723Y-630158D01*
X55723Y-628270D01*
X55056Y-627158D01*
X53723Y-626825D01*
X52390Y-627158D01*
X51723Y-627936D01*
X51723Y-629047D01*
X55723Y-629047D01*
G54D11*
X49279Y-626825D02*
X46612Y-631825D01*
X43946Y-626825D01*
G54D11*
X41502Y-631825D02*
X41502Y-631825D01*
G54D11*
X39058Y-626270D02*
X35725Y-622936D01*
X35725Y-631825D01*
G54D11*
X27306Y-485267D02*
X28417Y-487267D01*
X29528Y-487933D01*
X31750Y-487933D01*
G54D11*
X31750Y-482600D02*
X22861Y-482600D01*
X22861Y-485933D01*
X23417Y-487267D01*
X24528Y-487933D01*
X25639Y-487933D01*
X26750Y-487267D01*
X27306Y-485933D01*
X27306Y-482600D01*
G54D11*
X31194Y-494377D02*
X31750Y-493310D01*
X31750Y-491977D01*
X31194Y-490644D01*
X30083Y-490377D01*
X28194Y-490377D01*
X27083Y-491044D01*
X26750Y-492377D01*
X27083Y-493710D01*
X27861Y-494377D01*
X28972Y-494377D01*
X28972Y-490377D01*
G54D11*
X26750Y-496821D02*
X31750Y-499488D01*
X26750Y-502154D01*
G54D11*
X31750Y-504598D02*
X31750Y-504598D01*
G54D11*
X26194Y-507042D02*
X22861Y-510375D01*
X31750Y-510375D01*
G54D10*
X282575Y-517525D02*
X282575Y-561975D01*
X485775Y-561975D01*
X485775Y-517525D01*
X282575Y-517525D01*
G54D10*
G75*
G01X317500Y-539750D02*
G03X317500Y-539750I-15875J0D01*
G01*
G54D10*
G75*
G01X482600Y-539750D02*
G03X482600Y-539750I-15875J0D01*
G01*
G54D10*
X282575Y-635000D02*
X282575Y-679450D01*
X485775Y-679450D01*
X485775Y-635000D01*
X282575Y-635000D01*
G54D10*
G75*
G01X317500Y-657225D02*
G03X317500Y-657225I-15875J0D01*
G01*
G54D10*
G75*
G01X482600Y-657225D02*
G03X482600Y-657225I-15875J0D01*
G01*
G54D10*
X282569Y-397530D02*
X333369Y-397530D01*
X333370Y-457855D01*
X327020Y-464205D01*
X282570Y-464205D01*
X282569Y-397530D01*
G54D11*
X288925Y-391320D02*
X285592Y-387986D01*
X285592Y-396875D01*
G54D11*
X283592Y-466725D02*
X288925Y-466725D01*
X288925Y-466170D01*
X288258Y-465058D01*
X284258Y-461725D01*
X283592Y-460614D01*
X283592Y-459503D01*
X284258Y-458392D01*
X285592Y-457836D01*
X286925Y-457836D01*
X288258Y-458392D01*
X288925Y-459503D01*
G54D11*
X333375Y-459503D02*
X332708Y-458392D01*
X331375Y-457836D01*
X330042Y-457836D01*
X328708Y-458392D01*
X328042Y-459503D01*
X328042Y-460614D01*
X328708Y-461725D01*
X330042Y-462280D01*
X328708Y-462836D01*
X328042Y-463947D01*
X328042Y-465058D01*
X328708Y-466170D01*
X330042Y-466725D01*
X331375Y-466725D01*
X332708Y-466170D01*
X333375Y-465058D01*
G54D11*
X326200Y-400050D02*
X326200Y-391161D01*
X330200Y-396717D01*
X330200Y-397828D01*
X324867Y-397828D01*
G54D10*
X336550Y-403225D02*
X336550Y-460375D01*
X469900Y-460375D01*
X469900Y-403225D01*
X336550Y-403225D01*
G54D10*
X377825Y-412750D02*
X377825Y-450850D01*
X390525Y-450850D01*
X390525Y-412750D01*
X377825Y-412750D01*
G54D11*
X350267Y-455533D02*
X350933Y-456644D01*
X352267Y-457200D01*
X353600Y-457200D01*
X354933Y-456644D01*
X355600Y-455533D01*
X355600Y-449978D01*
X354933Y-448867D01*
X353600Y-448311D01*
X352267Y-448311D01*
X350933Y-448867D01*
X350267Y-449978D01*
G54D11*
X422275Y-457200D02*
X422275Y-448311D01*
X416942Y-457200D01*
X416942Y-448311D01*
G54D11*
X409165Y-449978D02*
X409165Y-455533D01*
X409831Y-456644D01*
X411165Y-457200D01*
X412498Y-457200D01*
X413831Y-456644D01*
X414498Y-455533D01*
X414498Y-449978D01*
X413831Y-448867D01*
X412498Y-448311D01*
X411165Y-448311D01*
X409831Y-448867D01*
X409165Y-449978D01*
G54D11*
X469900Y-457200D02*
X469900Y-448311D01*
X464567Y-457200D01*
X464567Y-448311D01*
G54D11*
X456790Y-455533D02*
X457456Y-456644D01*
X458790Y-457200D01*
X460123Y-457200D01*
X461456Y-456644D01*
X462123Y-455533D01*
X462123Y-449978D01*
X461456Y-448867D01*
X460123Y-448311D01*
X458790Y-448311D01*
X457456Y-448867D01*
X456790Y-449978D01*
G54D12*
X311175Y-588850D02*
X311175Y-566850D01*
X349175Y-566850D01*
X349175Y-588850D01*
X311175Y-588850D01*
G54D12*
X355625Y-588850D02*
X355625Y-566850D01*
X393625Y-566850D01*
X393625Y-588850D01*
X355625Y-588850D01*
G54D11*
X274558Y-360933D02*
X275669Y-360267D01*
X276225Y-358933D01*
X276225Y-357600D01*
X275669Y-356267D01*
X274558Y-355600D01*
X269003Y-355600D01*
X267892Y-356267D01*
X267336Y-357600D01*
X267336Y-358933D01*
X267892Y-360267D01*
X269003Y-360933D01*
G54D11*
X276225Y-363377D02*
X267336Y-363377D01*
G54D11*
X272669Y-363377D02*
X271558Y-364044D01*
X271225Y-365377D01*
X271558Y-366710D01*
X272669Y-367377D01*
X276225Y-367377D01*
G54D11*
X276225Y-369821D02*
X271225Y-369821D01*
G54D11*
X269558Y-369821D02*
X269558Y-369821D01*
G54D11*
X276225Y-372265D02*
X271225Y-372265D01*
G54D11*
X272114Y-372265D02*
X271225Y-373598D01*
X271558Y-374932D01*
X272336Y-375598D01*
X276225Y-375598D01*
G54D11*
X272114Y-375598D02*
X271225Y-376932D01*
X271558Y-378265D01*
X272336Y-378932D01*
X276225Y-378932D01*
G54D11*
X275669Y-385376D02*
X276225Y-384309D01*
X276225Y-382976D01*
X275669Y-381643D01*
X274558Y-381376D01*
X272669Y-381376D01*
X271558Y-382043D01*
X271225Y-383376D01*
X271558Y-384709D01*
X272336Y-385376D01*
X273447Y-385376D01*
X273447Y-381376D01*
G54D11*
X276225Y-387820D02*
X271225Y-387820D01*
G54D11*
X272336Y-387820D02*
X271225Y-389153D01*
X271225Y-390487D01*
G54D11*
X271781Y-392931D02*
X271225Y-394264D01*
X271225Y-395864D01*
X272336Y-396931D01*
X276225Y-396931D01*
G54D11*
X274558Y-396931D02*
X273447Y-396264D01*
X273225Y-394931D01*
X273447Y-393598D01*
X274558Y-392931D01*
X275669Y-393198D01*
X276225Y-394264D01*
X276225Y-394931D01*
X276225Y-395198D01*
X275669Y-396264D01*
X274558Y-396931D01*
G54D11*
X276225Y-401952D02*
X267336Y-401952D01*
X267336Y-405285D01*
X267892Y-406619D01*
X269003Y-407285D01*
X270114Y-407285D01*
X271225Y-406619D01*
X271781Y-405285D01*
X271781Y-401952D01*
G54D11*
X276225Y-409729D02*
X271225Y-409729D01*
G54D11*
X272336Y-409729D02*
X271225Y-411062D01*
X271225Y-412396D01*
G54D11*
X274892Y-418840D02*
X272669Y-418840D01*
X271558Y-418173D01*
X271225Y-416840D01*
X271558Y-415507D01*
X272669Y-414840D01*
X274892Y-414840D01*
X276003Y-415507D01*
X276225Y-416840D01*
X276003Y-418173D01*
X274892Y-418840D01*
G54D11*
X276225Y-421284D02*
X267336Y-421284D01*
G54D11*
X272669Y-421284D02*
X271558Y-421951D01*
X271225Y-423284D01*
X271558Y-424617D01*
X272669Y-425284D01*
X274892Y-425284D01*
X276003Y-424617D01*
X276225Y-423284D01*
X276003Y-421951D01*
X274892Y-421284D01*
G54D11*
X275669Y-431728D02*
X276225Y-430661D01*
X276225Y-429328D01*
X275669Y-427995D01*
X274558Y-427728D01*
X272669Y-427728D01*
X271558Y-428395D01*
X271225Y-429728D01*
X271558Y-431061D01*
X272336Y-431728D01*
X273447Y-431728D01*
X273447Y-427728D01*
G54D11*
X477267Y-630158D02*
X477933Y-631270D01*
X479267Y-631825D01*
X480600Y-631825D01*
X481933Y-631270D01*
X482600Y-630158D01*
X482600Y-624603D01*
X481933Y-623492D01*
X480600Y-622936D01*
X479267Y-622936D01*
X477933Y-623492D01*
X477267Y-624603D01*
G54D11*
X474823Y-631825D02*
X474823Y-622936D01*
G54D11*
X474823Y-628270D02*
X474156Y-627158D01*
X472823Y-626825D01*
X471490Y-627158D01*
X470823Y-628270D01*
X470823Y-631825D01*
G54D11*
X468379Y-631825D02*
X468379Y-626825D01*
G54D11*
X468379Y-625158D02*
X468379Y-625158D01*
G54D11*
X465935Y-631825D02*
X465935Y-626825D01*
G54D11*
X465935Y-627714D02*
X464602Y-626825D01*
X463268Y-627158D01*
X462602Y-627936D01*
X462602Y-631825D01*
G54D11*
X462602Y-627714D02*
X461268Y-626825D01*
X459935Y-627158D01*
X459268Y-627936D01*
X459268Y-631825D01*
G54D11*
X452824Y-631270D02*
X453891Y-631825D01*
X455224Y-631825D01*
X456557Y-631270D01*
X456824Y-630158D01*
X456824Y-628270D01*
X456157Y-627158D01*
X454824Y-626825D01*
X453491Y-627158D01*
X452824Y-627936D01*
X452824Y-629047D01*
X456824Y-629047D01*
G54D11*
X450380Y-631825D02*
X450380Y-626825D01*
G54D11*
X450380Y-627936D02*
X449047Y-626825D01*
X447713Y-626825D01*
G54D11*
X445269Y-627380D02*
X443936Y-626825D01*
X442336Y-626825D01*
X441269Y-627936D01*
X441269Y-631825D01*
G54D11*
X441269Y-630158D02*
X441936Y-629047D01*
X443269Y-628825D01*
X444602Y-629047D01*
X445269Y-630158D01*
X445002Y-631270D01*
X443936Y-631825D01*
X443269Y-631825D01*
X443002Y-631825D01*
X441936Y-631270D01*
X441269Y-630158D01*
G54D11*
X436248Y-631825D02*
X436248Y-622936D01*
X432915Y-622936D01*
X431581Y-623492D01*
X430915Y-624603D01*
X430915Y-625714D01*
X431581Y-626825D01*
X432915Y-627380D01*
X436248Y-627380D01*
G54D11*
X428471Y-631825D02*
X428471Y-626825D01*
G54D11*
X428471Y-627936D02*
X427138Y-626825D01*
X425804Y-626825D01*
G54D11*
X419360Y-630492D02*
X419360Y-628270D01*
X420027Y-627158D01*
X421360Y-626825D01*
X422693Y-627158D01*
X423360Y-628270D01*
X423360Y-630492D01*
X422693Y-631603D01*
X421360Y-631825D01*
X420027Y-631603D01*
X419360Y-630492D01*
G54D11*
X416916Y-631825D02*
X416916Y-622936D01*
G54D11*
X416916Y-628270D02*
X416249Y-627158D01*
X414916Y-626825D01*
X413583Y-627158D01*
X412916Y-628270D01*
X412916Y-630492D01*
X413583Y-631603D01*
X414916Y-631825D01*
X416249Y-631603D01*
X416916Y-630492D01*
G54D11*
X406472Y-631270D02*
X407539Y-631825D01*
X408872Y-631825D01*
X410205Y-631270D01*
X410472Y-630158D01*
X410472Y-628270D01*
X409805Y-627158D01*
X408472Y-626825D01*
X407139Y-627158D01*
X406472Y-627936D01*
X406472Y-629047D01*
X410472Y-629047D01*
G54D11*
X308483Y-627380D02*
X306483Y-628492D01*
X305817Y-629603D01*
X305817Y-631825D01*
G54D11*
X311150Y-631825D02*
X311150Y-622936D01*
X307817Y-622936D01*
X306483Y-623492D01*
X305817Y-624603D01*
X305817Y-625714D01*
X306483Y-626825D01*
X307817Y-627380D01*
X311150Y-627380D01*
G54D11*
X299373Y-631270D02*
X300440Y-631825D01*
X301773Y-631825D01*
X303106Y-631270D01*
X303373Y-630158D01*
X303373Y-628270D01*
X302706Y-627158D01*
X301373Y-626825D01*
X300040Y-627158D01*
X299373Y-627936D01*
X299373Y-629047D01*
X303373Y-629047D01*
G54D11*
X296929Y-626825D02*
X294262Y-631825D01*
X291596Y-626825D01*
G54D11*
X289152Y-631825D02*
X289152Y-631825D01*
G54D11*
X286708Y-626270D02*
X283375Y-622936D01*
X283375Y-631825D01*
G54D11*
X274956Y-485267D02*
X276067Y-487267D01*
X277178Y-487933D01*
X279400Y-487933D01*
G54D11*
X279400Y-482600D02*
X270511Y-482600D01*
X270511Y-485933D01*
X271067Y-487267D01*
X272178Y-487933D01*
X273289Y-487933D01*
X274400Y-487267D01*
X274956Y-485933D01*
X274956Y-482600D01*
G54D11*
X278844Y-494377D02*
X279400Y-493310D01*
X279400Y-491977D01*
X278844Y-490644D01*
X277733Y-490377D01*
X275844Y-490377D01*
X274733Y-491044D01*
X274400Y-492377D01*
X274733Y-493710D01*
X275511Y-494377D01*
X276622Y-494377D01*
X276622Y-490377D01*
G54D11*
X274400Y-496821D02*
X279400Y-499488D01*
X274400Y-502154D01*
G54D11*
X279400Y-504598D02*
X279400Y-504598D01*
G54D11*
X273844Y-507042D02*
X270511Y-510375D01*
X279400Y-510375D01*
G54D10*
X530225Y-517525D02*
X530225Y-561975D01*
X733425Y-561975D01*
X733425Y-517525D01*
X530225Y-517525D01*
G54D10*
G75*
G01X565150Y-539750D02*
G03X565150Y-539750I-15875J0D01*
G01*
G54D10*
G75*
G01X730250Y-539750D02*
G03X730250Y-539750I-15875J0D01*
G01*
G54D10*
X530225Y-635000D02*
X530225Y-679450D01*
X733425Y-679450D01*
X733425Y-635000D01*
X530225Y-635000D01*
G54D10*
G75*
G01X565150Y-657225D02*
G03X565150Y-657225I-15875J0D01*
G01*
G54D10*
G75*
G01X730250Y-657225D02*
G03X730250Y-657225I-15875J0D01*
G01*
G54D10*
X530219Y-397530D02*
X581019Y-397530D01*
X581020Y-457855D01*
X574670Y-464205D01*
X530220Y-464205D01*
X530219Y-397530D01*
G54D11*
X536575Y-391320D02*
X533242Y-387986D01*
X533242Y-396875D01*
G54D11*
X531242Y-466725D02*
X536575Y-466725D01*
X536575Y-466170D01*
X535908Y-465058D01*
X531908Y-461725D01*
X531242Y-460614D01*
X531242Y-459503D01*
X531908Y-458392D01*
X533242Y-457836D01*
X534575Y-457836D01*
X535908Y-458392D01*
X536575Y-459503D01*
G54D11*
X581025Y-459503D02*
X580358Y-458392D01*
X579025Y-457836D01*
X577692Y-457836D01*
X576358Y-458392D01*
X575692Y-459503D01*
X575692Y-460614D01*
X576358Y-461725D01*
X577692Y-462280D01*
X576358Y-462836D01*
X575692Y-463947D01*
X575692Y-465058D01*
X576358Y-466170D01*
X577692Y-466725D01*
X579025Y-466725D01*
X580358Y-466170D01*
X581025Y-465058D01*
G54D11*
X573850Y-400050D02*
X573850Y-391161D01*
X577850Y-396717D01*
X577850Y-397828D01*
X572517Y-397828D01*
G54D10*
X584200Y-403225D02*
X584200Y-460375D01*
X717550Y-460375D01*
X717550Y-403225D01*
X584200Y-403225D01*
G54D10*
X625475Y-412750D02*
X625475Y-450850D01*
X638175Y-450850D01*
X638175Y-412750D01*
X625475Y-412750D01*
G54D11*
X597917Y-455533D02*
X598583Y-456644D01*
X599917Y-457200D01*
X601250Y-457200D01*
X602583Y-456644D01*
X603250Y-455533D01*
X603250Y-449978D01*
X602583Y-448867D01*
X601250Y-448311D01*
X599917Y-448311D01*
X598583Y-448867D01*
X597917Y-449978D01*
G54D11*
X669925Y-457200D02*
X669925Y-448311D01*
X664592Y-457200D01*
X664592Y-448311D01*
G54D11*
X656815Y-449978D02*
X656815Y-455533D01*
X657481Y-456644D01*
X658815Y-457200D01*
X660148Y-457200D01*
X661481Y-456644D01*
X662148Y-455533D01*
X662148Y-449978D01*
X661481Y-448867D01*
X660148Y-448311D01*
X658815Y-448311D01*
X657481Y-448867D01*
X656815Y-449978D01*
G54D11*
X717550Y-457200D02*
X717550Y-448311D01*
X712217Y-457200D01*
X712217Y-448311D01*
G54D11*
X704440Y-455533D02*
X705106Y-456644D01*
X706440Y-457200D01*
X707773Y-457200D01*
X709106Y-456644D01*
X709773Y-455533D01*
X709773Y-449978D01*
X709106Y-448867D01*
X707773Y-448311D01*
X706440Y-448311D01*
X705106Y-448867D01*
X704440Y-449978D01*
G54D12*
X558825Y-588850D02*
X558825Y-566850D01*
X596825Y-566850D01*
X596825Y-588850D01*
X558825Y-588850D01*
G54D12*
X603275Y-588850D02*
X603275Y-566850D01*
X641275Y-566850D01*
X641275Y-588850D01*
X603275Y-588850D01*
G54D11*
X522208Y-360933D02*
X523319Y-360267D01*
X523875Y-358933D01*
X523875Y-357600D01*
X523319Y-356267D01*
X522208Y-355600D01*
X516653Y-355600D01*
X515542Y-356267D01*
X514986Y-357600D01*
X514986Y-358933D01*
X515542Y-360267D01*
X516653Y-360933D01*
G54D11*
X523875Y-363377D02*
X514986Y-363377D01*
G54D11*
X520319Y-363377D02*
X519208Y-364044D01*
X518875Y-365377D01*
X519208Y-366710D01*
X520319Y-367377D01*
X523875Y-367377D01*
G54D11*
X523875Y-369821D02*
X518875Y-369821D01*
G54D11*
X517208Y-369821D02*
X517208Y-369821D01*
G54D11*
X523875Y-372265D02*
X518875Y-372265D01*
G54D11*
X519764Y-372265D02*
X518875Y-373598D01*
X519208Y-374932D01*
X519986Y-375598D01*
X523875Y-375598D01*
G54D11*
X519764Y-375598D02*
X518875Y-376932D01*
X519208Y-378265D01*
X519986Y-378932D01*
X523875Y-378932D01*
G54D11*
X523319Y-385376D02*
X523875Y-384309D01*
X523875Y-382976D01*
X523319Y-381643D01*
X522208Y-381376D01*
X520319Y-381376D01*
X519208Y-382043D01*
X518875Y-383376D01*
X519208Y-384709D01*
X519986Y-385376D01*
X521097Y-385376D01*
X521097Y-381376D01*
G54D11*
X523875Y-387820D02*
X518875Y-387820D01*
G54D11*
X519986Y-387820D02*
X518875Y-389153D01*
X518875Y-390487D01*
G54D11*
X519431Y-392931D02*
X518875Y-394264D01*
X518875Y-395864D01*
X519986Y-396931D01*
X523875Y-396931D01*
G54D11*
X522208Y-396931D02*
X521097Y-396264D01*
X520875Y-394931D01*
X521097Y-393598D01*
X522208Y-392931D01*
X523319Y-393198D01*
X523875Y-394264D01*
X523875Y-394931D01*
X523875Y-395198D01*
X523319Y-396264D01*
X522208Y-396931D01*
G54D11*
X523875Y-401952D02*
X514986Y-401952D01*
X514986Y-405285D01*
X515542Y-406619D01*
X516653Y-407285D01*
X517764Y-407285D01*
X518875Y-406619D01*
X519431Y-405285D01*
X519431Y-401952D01*
G54D11*
X523875Y-409729D02*
X518875Y-409729D01*
G54D11*
X519986Y-409729D02*
X518875Y-411062D01*
X518875Y-412396D01*
G54D11*
X522542Y-418840D02*
X520319Y-418840D01*
X519208Y-418173D01*
X518875Y-416840D01*
X519208Y-415507D01*
X520319Y-414840D01*
X522542Y-414840D01*
X523653Y-415507D01*
X523875Y-416840D01*
X523653Y-418173D01*
X522542Y-418840D01*
G54D11*
X523875Y-421284D02*
X514986Y-421284D01*
G54D11*
X520319Y-421284D02*
X519208Y-421951D01*
X518875Y-423284D01*
X519208Y-424617D01*
X520319Y-425284D01*
X522542Y-425284D01*
X523653Y-424617D01*
X523875Y-423284D01*
X523653Y-421951D01*
X522542Y-421284D01*
G54D11*
X523319Y-431728D02*
X523875Y-430661D01*
X523875Y-429328D01*
X523319Y-427995D01*
X522208Y-427728D01*
X520319Y-427728D01*
X519208Y-428395D01*
X518875Y-429728D01*
X519208Y-431061D01*
X519986Y-431728D01*
X521097Y-431728D01*
X521097Y-427728D01*
G54D11*
X724917Y-630158D02*
X725583Y-631270D01*
X726917Y-631825D01*
X728250Y-631825D01*
X729583Y-631270D01*
X730250Y-630158D01*
X730250Y-624603D01*
X729583Y-623492D01*
X728250Y-622936D01*
X726917Y-622936D01*
X725583Y-623492D01*
X724917Y-624603D01*
G54D11*
X722473Y-631825D02*
X722473Y-622936D01*
G54D11*
X722473Y-628270D02*
X721806Y-627158D01*
X720473Y-626825D01*
X719140Y-627158D01*
X718473Y-628270D01*
X718473Y-631825D01*
G54D11*
X716029Y-631825D02*
X716029Y-626825D01*
G54D11*
X716029Y-625158D02*
X716029Y-625158D01*
G54D11*
X713585Y-631825D02*
X713585Y-626825D01*
G54D11*
X713585Y-627714D02*
X712252Y-626825D01*
X710918Y-627158D01*
X710252Y-627936D01*
X710252Y-631825D01*
G54D11*
X710252Y-627714D02*
X708918Y-626825D01*
X707585Y-627158D01*
X706918Y-627936D01*
X706918Y-631825D01*
G54D11*
X700474Y-631270D02*
X701541Y-631825D01*
X702874Y-631825D01*
X704207Y-631270D01*
X704474Y-630158D01*
X704474Y-628270D01*
X703807Y-627158D01*
X702474Y-626825D01*
X701141Y-627158D01*
X700474Y-627936D01*
X700474Y-629047D01*
X704474Y-629047D01*
G54D11*
X698030Y-631825D02*
X698030Y-626825D01*
G54D11*
X698030Y-627936D02*
X696697Y-626825D01*
X695363Y-626825D01*
G54D11*
X692919Y-627380D02*
X691586Y-626825D01*
X689986Y-626825D01*
X688919Y-627936D01*
X688919Y-631825D01*
G54D11*
X688919Y-630158D02*
X689586Y-629047D01*
X690919Y-628825D01*
X692252Y-629047D01*
X692919Y-630158D01*
X692652Y-631270D01*
X691586Y-631825D01*
X690919Y-631825D01*
X690652Y-631825D01*
X689586Y-631270D01*
X688919Y-630158D01*
G54D11*
X683898Y-631825D02*
X683898Y-622936D01*
X680565Y-622936D01*
X679231Y-623492D01*
X678565Y-624603D01*
X678565Y-625714D01*
X679231Y-626825D01*
X680565Y-627380D01*
X683898Y-627380D01*
G54D11*
X676121Y-631825D02*
X676121Y-626825D01*
G54D11*
X676121Y-627936D02*
X674788Y-626825D01*
X673454Y-626825D01*
G54D11*
X667010Y-630492D02*
X667010Y-628270D01*
X667677Y-627158D01*
X669010Y-626825D01*
X670343Y-627158D01*
X671010Y-628270D01*
X671010Y-630492D01*
X670343Y-631603D01*
X669010Y-631825D01*
X667677Y-631603D01*
X667010Y-630492D01*
G54D11*
X664566Y-631825D02*
X664566Y-622936D01*
G54D11*
X664566Y-628270D02*
X663899Y-627158D01*
X662566Y-626825D01*
X661233Y-627158D01*
X660566Y-628270D01*
X660566Y-630492D01*
X661233Y-631603D01*
X662566Y-631825D01*
X663899Y-631603D01*
X664566Y-630492D01*
G54D11*
X654122Y-631270D02*
X655189Y-631825D01*
X656522Y-631825D01*
X657855Y-631270D01*
X658122Y-630158D01*
X658122Y-628270D01*
X657455Y-627158D01*
X656122Y-626825D01*
X654789Y-627158D01*
X654122Y-627936D01*
X654122Y-629047D01*
X658122Y-629047D01*
G54D11*
X556133Y-627380D02*
X554133Y-628492D01*
X553467Y-629603D01*
X553467Y-631825D01*
G54D11*
X558800Y-631825D02*
X558800Y-622936D01*
X555467Y-622936D01*
X554133Y-623492D01*
X553467Y-624603D01*
X553467Y-625714D01*
X554133Y-626825D01*
X555467Y-627380D01*
X558800Y-627380D01*
G54D11*
X547023Y-631270D02*
X548090Y-631825D01*
X549423Y-631825D01*
X550756Y-631270D01*
X551023Y-630158D01*
X551023Y-628270D01*
X550356Y-627158D01*
X549023Y-626825D01*
X547690Y-627158D01*
X547023Y-627936D01*
X547023Y-629047D01*
X551023Y-629047D01*
G54D11*
X544579Y-626825D02*
X541912Y-631825D01*
X539246Y-626825D01*
G54D11*
X536802Y-631825D02*
X536802Y-631825D01*
G54D11*
X534358Y-626270D02*
X531025Y-622936D01*
X531025Y-631825D01*
G54D11*
X522606Y-485267D02*
X523717Y-487267D01*
X524828Y-487933D01*
X527050Y-487933D01*
G54D11*
X527050Y-482600D02*
X518161Y-482600D01*
X518161Y-485933D01*
X518717Y-487267D01*
X519828Y-487933D01*
X520939Y-487933D01*
X522050Y-487267D01*
X522606Y-485933D01*
X522606Y-482600D01*
G54D11*
X526494Y-494377D02*
X527050Y-493310D01*
X527050Y-491977D01*
X526494Y-490644D01*
X525383Y-490377D01*
X523494Y-490377D01*
X522383Y-491044D01*
X522050Y-492377D01*
X522383Y-493710D01*
X523161Y-494377D01*
X524272Y-494377D01*
X524272Y-490377D01*
G54D11*
X522050Y-496821D02*
X527050Y-499488D01*
X522050Y-502154D01*
G54D11*
X527050Y-504598D02*
X527050Y-504598D01*
G54D11*
X521494Y-507042D02*
X518161Y-510375D01*
X527050Y-510375D01*
M02*
