%FSLAX34Y34*%
%MOMM*%
%LNSILK_TOP*%
G71*
G01*
%ADD10C, 0.100*%
%ADD11C, 0.111*%
%ADD12C, 0.150*%
%LPD*%
G54D10*
X34925Y-12700D02*
X34925Y-57150D01*
X238125Y-57150D01*
X238125Y-12700D01*
X34925Y-12700D01*
G54D10*
G75*
G01X69850Y-34925D02*
G03X69850Y-34925I-15875J0D01*
G01*
G54D10*
G75*
G01X234950Y-34925D02*
G03X234950Y-34925I-15875J0D01*
G01*
G54D10*
X34925Y-130175D02*
X34925Y-174625D01*
X238125Y-174625D01*
X238125Y-130175D01*
X34925Y-130175D01*
G54D10*
G75*
G01X69850Y-152400D02*
G03X69850Y-152400I-15875J0D01*
G01*
G54D10*
G75*
G01X234950Y-152400D02*
G03X234950Y-152400I-15875J0D01*
G01*
G54D10*
X60325Y-244475D02*
X60325Y-304800D01*
G54D10*
X212725Y-244475D02*
X212725Y-304800D01*
X60325Y-304800D01*
G54D10*
X60325Y-244475D02*
X212725Y-244475D01*
G54D10*
X85725Y-244475D02*
X85725Y-250825D01*
X187325Y-250825D01*
X187325Y-244475D01*
G54D11*
X82550Y-178436D02*
X82550Y-187325D01*
X87217Y-187325D01*
G54D11*
X107950Y-187325D02*
X107950Y-178436D01*
G54D11*
X113061Y-182881D02*
X115061Y-183992D01*
X115727Y-185103D01*
X115727Y-187325D01*
G54D11*
X110394Y-187325D02*
X110394Y-178436D01*
X113727Y-178436D01*
X115061Y-178992D01*
X115727Y-180103D01*
X115727Y-181214D01*
X115061Y-182325D01*
X113727Y-182881D01*
X110394Y-182881D01*
G54D11*
X139192Y-182881D02*
X141858Y-182881D01*
X141858Y-185658D01*
X141192Y-186769D01*
X139858Y-187325D01*
X138525Y-187325D01*
X137192Y-186769D01*
X136525Y-185658D01*
X136525Y-180103D01*
X137192Y-178992D01*
X138525Y-178436D01*
X139858Y-178436D01*
X141192Y-178992D01*
X141858Y-180103D01*
G54D11*
X187325Y-178436D02*
X192658Y-178436D01*
X187325Y-187325D01*
X192658Y-187325D01*
G54D11*
X158750Y-185658D02*
X159417Y-186769D01*
X160750Y-187325D01*
X162083Y-187325D01*
X163417Y-186769D01*
X164083Y-185658D01*
X164083Y-184547D01*
X163417Y-183436D01*
X162083Y-182881D01*
X160750Y-182881D01*
X159417Y-182325D01*
X158750Y-181214D01*
X158750Y-180103D01*
X159417Y-178992D01*
X160750Y-178436D01*
X162083Y-178436D01*
X163417Y-178992D01*
X164083Y-180103D01*
G54D11*
X85217Y-236856D02*
X87883Y-236856D01*
X87883Y-239633D01*
X87217Y-240744D01*
X85883Y-241300D01*
X84550Y-241300D01*
X83217Y-240744D01*
X82550Y-239633D01*
X82550Y-234078D01*
X83217Y-232967D01*
X84550Y-232411D01*
X85883Y-232411D01*
X87217Y-232967D01*
X87883Y-234078D01*
G54D11*
X107950Y-232411D02*
X111283Y-241300D01*
X114617Y-232411D01*
G54D11*
X130175Y-241300D02*
X130175Y-232411D01*
G54D11*
X135286Y-236856D02*
X137286Y-237967D01*
X137952Y-239078D01*
X137952Y-241300D01*
G54D11*
X132619Y-241300D02*
X132619Y-232411D01*
X135952Y-232411D01*
X137286Y-232967D01*
X137952Y-234078D01*
X137952Y-235189D01*
X137286Y-236300D01*
X135952Y-236856D01*
X132619Y-236856D01*
G54D11*
X158750Y-239633D02*
X159417Y-240744D01*
X160750Y-241300D01*
X162083Y-241300D01*
X163417Y-240744D01*
X164083Y-239633D01*
X164083Y-238522D01*
X163417Y-237411D01*
X162083Y-236856D01*
X160750Y-236856D01*
X159417Y-236300D01*
X158750Y-235189D01*
X158750Y-234078D01*
X159417Y-232967D01*
X160750Y-232411D01*
X162083Y-232411D01*
X163417Y-232967D01*
X164083Y-234078D01*
G54D11*
X187325Y-232411D02*
X192658Y-232411D01*
X187325Y-241300D01*
X192658Y-241300D01*
G54D11*
X82550Y-60961D02*
X82550Y-69850D01*
X87217Y-69850D01*
G54D11*
X107950Y-69850D02*
X107950Y-60961D01*
G54D11*
X113061Y-65406D02*
X115061Y-66517D01*
X115727Y-67628D01*
X115727Y-69850D01*
G54D11*
X110394Y-69850D02*
X110394Y-60961D01*
X113727Y-60961D01*
X115061Y-61517D01*
X115727Y-62628D01*
X115727Y-63739D01*
X115061Y-64850D01*
X113727Y-65406D01*
X110394Y-65406D01*
G54D11*
X136017Y-65406D02*
X138683Y-65406D01*
X138683Y-68183D01*
X138017Y-69294D01*
X136683Y-69850D01*
X135350Y-69850D01*
X134017Y-69294D01*
X133350Y-68183D01*
X133350Y-62628D01*
X134017Y-61517D01*
X135350Y-60961D01*
X136683Y-60961D01*
X138017Y-61517D01*
X138683Y-62628D01*
G54D11*
X158750Y-68183D02*
X159417Y-69294D01*
X160750Y-69850D01*
X162083Y-69850D01*
X163417Y-69294D01*
X164083Y-68183D01*
X164083Y-67072D01*
X163417Y-65961D01*
X162083Y-65406D01*
X160750Y-65406D01*
X159417Y-64850D01*
X158750Y-63739D01*
X158750Y-62628D01*
X159417Y-61517D01*
X160750Y-60961D01*
X162083Y-60961D01*
X163417Y-61517D01*
X164083Y-62628D01*
G54D11*
X184150Y-60961D02*
X189483Y-60961D01*
X184150Y-69850D01*
X189483Y-69850D01*
G54D12*
X169950Y-76250D02*
X191950Y-76250D01*
X191950Y-114250D01*
X169950Y-114250D01*
X169950Y-76250D01*
G54D12*
X223925Y-76250D02*
X245925Y-76250D01*
X245925Y-114250D01*
X223925Y-114250D01*
X223925Y-76250D01*
G54D11*
X26908Y-156592D02*
X28019Y-157258D01*
X28575Y-158592D01*
X28575Y-159925D01*
X28019Y-161258D01*
X26908Y-161925D01*
X21353Y-161925D01*
X20242Y-161258D01*
X19686Y-159925D01*
X19686Y-158592D01*
X20242Y-157258D01*
X21353Y-156592D01*
G54D11*
X28575Y-154148D02*
X19686Y-154148D01*
G54D11*
X25019Y-154148D02*
X23908Y-153481D01*
X23575Y-152148D01*
X23908Y-150815D01*
X25019Y-150148D01*
X28575Y-150148D01*
G54D11*
X28575Y-147704D02*
X23575Y-147704D01*
G54D11*
X21908Y-147704D02*
X21908Y-147704D01*
G54D11*
X28575Y-145260D02*
X23575Y-145260D01*
G54D11*
X24464Y-145260D02*
X23575Y-143927D01*
X23908Y-142593D01*
X24686Y-141927D01*
X28575Y-141927D01*
G54D11*
X24464Y-141927D02*
X23575Y-140593D01*
X23908Y-139260D01*
X24686Y-138593D01*
X28575Y-138593D01*
G54D11*
X28019Y-132149D02*
X28575Y-133216D01*
X28575Y-134549D01*
X28019Y-135882D01*
X26908Y-136149D01*
X25019Y-136149D01*
X23908Y-135482D01*
X23575Y-134149D01*
X23908Y-132816D01*
X24686Y-132149D01*
X25797Y-132149D01*
X25797Y-136149D01*
G54D11*
X28575Y-129705D02*
X23575Y-129705D01*
G54D11*
X24686Y-129705D02*
X23575Y-128372D01*
X23575Y-127038D01*
G54D11*
X24131Y-124594D02*
X23575Y-123261D01*
X23575Y-121661D01*
X24686Y-120594D01*
X28575Y-120594D01*
G54D11*
X26908Y-120594D02*
X25797Y-121261D01*
X25575Y-122594D01*
X25797Y-123927D01*
X26908Y-124594D01*
X28019Y-124327D01*
X28575Y-123261D01*
X28575Y-122594D01*
X28575Y-122327D01*
X28019Y-121261D01*
X26908Y-120594D01*
G54D11*
X28575Y-115573D02*
X19686Y-115573D01*
X19686Y-112240D01*
X20242Y-110906D01*
X21353Y-110240D01*
X22464Y-110240D01*
X23575Y-110906D01*
X24131Y-112240D01*
X24131Y-115573D01*
G54D11*
X28575Y-107796D02*
X23575Y-107796D01*
G54D11*
X24686Y-107796D02*
X23575Y-106463D01*
X23575Y-105129D01*
G54D11*
X27242Y-98685D02*
X25019Y-98685D01*
X23908Y-99352D01*
X23575Y-100685D01*
X23908Y-102018D01*
X25019Y-102685D01*
X27242Y-102685D01*
X28353Y-102018D01*
X28575Y-100685D01*
X28353Y-99352D01*
X27242Y-98685D01*
G54D11*
X28575Y-96241D02*
X19686Y-96241D01*
G54D11*
X25019Y-96241D02*
X23908Y-95574D01*
X23575Y-94241D01*
X23908Y-92908D01*
X25019Y-92241D01*
X27242Y-92241D01*
X28353Y-92908D01*
X28575Y-94241D01*
X28353Y-95574D01*
X27242Y-96241D01*
G54D11*
X28019Y-85797D02*
X28575Y-86864D01*
X28575Y-88197D01*
X28019Y-89530D01*
X26908Y-89797D01*
X25019Y-89797D01*
X23908Y-89130D01*
X23575Y-87797D01*
X23908Y-86464D01*
X24686Y-85797D01*
X25797Y-85797D01*
X25797Y-89797D01*
G54D11*
X24131Y-44958D02*
X25242Y-42958D01*
X26353Y-42292D01*
X28575Y-42292D01*
G54D11*
X28575Y-47625D02*
X19686Y-47625D01*
X19686Y-44292D01*
X20242Y-42958D01*
X21353Y-42292D01*
X22464Y-42292D01*
X23575Y-42958D01*
X24131Y-44292D01*
X24131Y-47625D01*
G54D11*
X28019Y-35848D02*
X28575Y-36915D01*
X28575Y-38248D01*
X28019Y-39581D01*
X26908Y-39848D01*
X25019Y-39848D01*
X23908Y-39181D01*
X23575Y-37848D01*
X23908Y-36515D01*
X24686Y-35848D01*
X25797Y-35848D01*
X25797Y-39848D01*
G54D11*
X23575Y-33404D02*
X28575Y-30737D01*
X23575Y-28071D01*
G54D11*
X28575Y-25627D02*
X28575Y-25627D01*
G54D11*
X23019Y-23183D02*
X19686Y-19850D01*
X28575Y-19850D01*
G54D11*
X85217Y-122556D02*
X87883Y-122556D01*
X87883Y-125333D01*
X87217Y-126444D01*
X85883Y-127000D01*
X84550Y-127000D01*
X83217Y-126444D01*
X82550Y-125333D01*
X82550Y-119778D01*
X83217Y-118667D01*
X84550Y-118111D01*
X85883Y-118111D01*
X87217Y-118667D01*
X87883Y-119778D01*
G54D11*
X186817Y-122556D02*
X189483Y-122556D01*
X189483Y-125333D01*
X188817Y-126444D01*
X187483Y-127000D01*
X186150Y-127000D01*
X184817Y-126444D01*
X184150Y-125333D01*
X184150Y-119778D01*
X184817Y-118667D01*
X186150Y-118111D01*
X187483Y-118111D01*
X188817Y-118667D01*
X189483Y-119778D01*
G54D11*
X107950Y-118111D02*
X111283Y-127000D01*
X114617Y-118111D01*
G54D11*
X85217Y-338456D02*
X87883Y-338456D01*
X87883Y-341233D01*
X87217Y-342344D01*
X85883Y-342900D01*
X84550Y-342900D01*
X83217Y-342344D01*
X82550Y-341233D01*
X82550Y-335678D01*
X83217Y-334567D01*
X84550Y-334011D01*
X85883Y-334011D01*
X87217Y-334567D01*
X87883Y-335678D01*
G54D11*
X186817Y-338456D02*
X189483Y-338456D01*
X189483Y-341233D01*
X188817Y-342344D01*
X187483Y-342900D01*
X186150Y-342900D01*
X184817Y-342344D01*
X184150Y-341233D01*
X184150Y-335678D01*
X184817Y-334567D01*
X186150Y-334011D01*
X187483Y-334011D01*
X188817Y-334567D01*
X189483Y-335678D01*
G54D11*
X107950Y-334011D02*
X111283Y-342900D01*
X114617Y-334011D01*
G54D10*
X282575Y-12700D02*
X282575Y-57150D01*
X485775Y-57150D01*
X485775Y-12700D01*
X282575Y-12700D01*
G54D10*
G75*
G01X317500Y-34925D02*
G03X317500Y-34925I-15875J0D01*
G01*
G54D10*
G75*
G01X482600Y-34925D02*
G03X482600Y-34925I-15875J0D01*
G01*
G54D10*
X282575Y-130175D02*
X282575Y-174625D01*
X485775Y-174625D01*
X485775Y-130175D01*
X282575Y-130175D01*
G54D10*
G75*
G01X317500Y-152400D02*
G03X317500Y-152400I-15875J0D01*
G01*
G54D10*
G75*
G01X482600Y-152400D02*
G03X482600Y-152400I-15875J0D01*
G01*
G54D10*
X307975Y-244475D02*
X307975Y-304800D01*
G54D10*
X460375Y-244475D02*
X460375Y-304800D01*
X307975Y-304800D01*
G54D10*
X307975Y-244475D02*
X460375Y-244475D01*
G54D10*
X333375Y-244475D02*
X333375Y-250825D01*
X434975Y-250825D01*
X434975Y-244475D01*
G54D11*
X330200Y-178436D02*
X330200Y-187325D01*
X334867Y-187325D01*
G54D11*
X355600Y-187325D02*
X355600Y-178436D01*
G54D11*
X360711Y-182881D02*
X362711Y-183992D01*
X363377Y-185103D01*
X363377Y-187325D01*
G54D11*
X358044Y-187325D02*
X358044Y-178436D01*
X361377Y-178436D01*
X362711Y-178992D01*
X363377Y-180103D01*
X363377Y-181214D01*
X362711Y-182325D01*
X361377Y-182881D01*
X358044Y-182881D01*
G54D11*
X386842Y-182881D02*
X389508Y-182881D01*
X389508Y-185658D01*
X388842Y-186769D01*
X387508Y-187325D01*
X386175Y-187325D01*
X384842Y-186769D01*
X384175Y-185658D01*
X384175Y-180103D01*
X384842Y-178992D01*
X386175Y-178436D01*
X387508Y-178436D01*
X388842Y-178992D01*
X389508Y-180103D01*
G54D11*
X434975Y-178436D02*
X440308Y-178436D01*
X434975Y-187325D01*
X440308Y-187325D01*
G54D11*
X406400Y-185658D02*
X407067Y-186769D01*
X408400Y-187325D01*
X409733Y-187325D01*
X411067Y-186769D01*
X411733Y-185658D01*
X411733Y-184547D01*
X411067Y-183436D01*
X409733Y-182881D01*
X408400Y-182881D01*
X407067Y-182325D01*
X406400Y-181214D01*
X406400Y-180103D01*
X407067Y-178992D01*
X408400Y-178436D01*
X409733Y-178436D01*
X411067Y-178992D01*
X411733Y-180103D01*
G54D11*
X332867Y-236856D02*
X335533Y-236856D01*
X335533Y-239633D01*
X334867Y-240744D01*
X333533Y-241300D01*
X332200Y-241300D01*
X330867Y-240744D01*
X330200Y-239633D01*
X330200Y-234078D01*
X330867Y-232967D01*
X332200Y-232411D01*
X333533Y-232411D01*
X334867Y-232967D01*
X335533Y-234078D01*
G54D11*
X355600Y-232411D02*
X358933Y-241300D01*
X362267Y-232411D01*
G54D11*
X377825Y-241300D02*
X377825Y-232411D01*
G54D11*
X382936Y-236856D02*
X384936Y-237967D01*
X385602Y-239078D01*
X385602Y-241300D01*
G54D11*
X380269Y-241300D02*
X380269Y-232411D01*
X383602Y-232411D01*
X384936Y-232967D01*
X385602Y-234078D01*
X385602Y-235189D01*
X384936Y-236300D01*
X383602Y-236856D01*
X380269Y-236856D01*
G54D11*
X406400Y-239633D02*
X407067Y-240744D01*
X408400Y-241300D01*
X409733Y-241300D01*
X411067Y-240744D01*
X411733Y-239633D01*
X411733Y-238522D01*
X411067Y-237411D01*
X409733Y-236856D01*
X408400Y-236856D01*
X407067Y-236300D01*
X406400Y-235189D01*
X406400Y-234078D01*
X407067Y-232967D01*
X408400Y-232411D01*
X409733Y-232411D01*
X411067Y-232967D01*
X411733Y-234078D01*
G54D11*
X434975Y-232411D02*
X440308Y-232411D01*
X434975Y-241300D01*
X440308Y-241300D01*
G54D11*
X330200Y-60961D02*
X330200Y-69850D01*
X334867Y-69850D01*
G54D11*
X355600Y-69850D02*
X355600Y-60961D01*
G54D11*
X360711Y-65406D02*
X362711Y-66517D01*
X363377Y-67628D01*
X363377Y-69850D01*
G54D11*
X358044Y-69850D02*
X358044Y-60961D01*
X361377Y-60961D01*
X362711Y-61517D01*
X363377Y-62628D01*
X363377Y-63739D01*
X362711Y-64850D01*
X361377Y-65406D01*
X358044Y-65406D01*
G54D11*
X383667Y-65406D02*
X386333Y-65406D01*
X386333Y-68183D01*
X385667Y-69294D01*
X384333Y-69850D01*
X383000Y-69850D01*
X381667Y-69294D01*
X381000Y-68183D01*
X381000Y-62628D01*
X381667Y-61517D01*
X383000Y-60961D01*
X384333Y-60961D01*
X385667Y-61517D01*
X386333Y-62628D01*
G54D11*
X406400Y-68183D02*
X407067Y-69294D01*
X408400Y-69850D01*
X409733Y-69850D01*
X411067Y-69294D01*
X411733Y-68183D01*
X411733Y-67072D01*
X411067Y-65961D01*
X409733Y-65406D01*
X408400Y-65406D01*
X407067Y-64850D01*
X406400Y-63739D01*
X406400Y-62628D01*
X407067Y-61517D01*
X408400Y-60961D01*
X409733Y-60961D01*
X411067Y-61517D01*
X411733Y-62628D01*
G54D11*
X431800Y-60961D02*
X437133Y-60961D01*
X431800Y-69850D01*
X437133Y-69850D01*
G54D12*
X417600Y-76250D02*
X439600Y-76250D01*
X439600Y-114250D01*
X417600Y-114250D01*
X417600Y-76250D01*
G54D12*
X471575Y-76250D02*
X493575Y-76250D01*
X493575Y-114250D01*
X471575Y-114250D01*
X471575Y-76250D01*
G54D11*
X274558Y-156592D02*
X275669Y-157258D01*
X276225Y-158592D01*
X276225Y-159925D01*
X275669Y-161258D01*
X274558Y-161925D01*
X269003Y-161925D01*
X267892Y-161258D01*
X267336Y-159925D01*
X267336Y-158592D01*
X267892Y-157258D01*
X269003Y-156592D01*
G54D11*
X276225Y-154148D02*
X267336Y-154148D01*
G54D11*
X272669Y-154148D02*
X271558Y-153481D01*
X271225Y-152148D01*
X271558Y-150815D01*
X272669Y-150148D01*
X276225Y-150148D01*
G54D11*
X276225Y-147704D02*
X271225Y-147704D01*
G54D11*
X269558Y-147704D02*
X269558Y-147704D01*
G54D11*
X276225Y-145260D02*
X271225Y-145260D01*
G54D11*
X272114Y-145260D02*
X271225Y-143927D01*
X271558Y-142593D01*
X272336Y-141927D01*
X276225Y-141927D01*
G54D11*
X272114Y-141927D02*
X271225Y-140593D01*
X271558Y-139260D01*
X272336Y-138593D01*
X276225Y-138593D01*
G54D11*
X275669Y-132149D02*
X276225Y-133216D01*
X276225Y-134549D01*
X275669Y-135882D01*
X274558Y-136149D01*
X272669Y-136149D01*
X271558Y-135482D01*
X271225Y-134149D01*
X271558Y-132816D01*
X272336Y-132149D01*
X273447Y-132149D01*
X273447Y-136149D01*
G54D11*
X276225Y-129705D02*
X271225Y-129705D01*
G54D11*
X272336Y-129705D02*
X271225Y-128372D01*
X271225Y-127038D01*
G54D11*
X271781Y-124594D02*
X271225Y-123261D01*
X271225Y-121661D01*
X272336Y-120594D01*
X276225Y-120594D01*
G54D11*
X274558Y-120594D02*
X273447Y-121261D01*
X273225Y-122594D01*
X273447Y-123927D01*
X274558Y-124594D01*
X275669Y-124327D01*
X276225Y-123261D01*
X276225Y-122594D01*
X276225Y-122327D01*
X275669Y-121261D01*
X274558Y-120594D01*
G54D11*
X276225Y-115573D02*
X267336Y-115573D01*
X267336Y-112240D01*
X267892Y-110906D01*
X269003Y-110240D01*
X270114Y-110240D01*
X271225Y-110906D01*
X271781Y-112240D01*
X271781Y-115573D01*
G54D11*
X276225Y-107796D02*
X271225Y-107796D01*
G54D11*
X272336Y-107796D02*
X271225Y-106463D01*
X271225Y-105129D01*
G54D11*
X274892Y-98685D02*
X272669Y-98685D01*
X271558Y-99352D01*
X271225Y-100685D01*
X271558Y-102018D01*
X272669Y-102685D01*
X274892Y-102685D01*
X276003Y-102018D01*
X276225Y-100685D01*
X276003Y-99352D01*
X274892Y-98685D01*
G54D11*
X276225Y-96241D02*
X267336Y-96241D01*
G54D11*
X272669Y-96241D02*
X271558Y-95574D01*
X271225Y-94241D01*
X271558Y-92908D01*
X272669Y-92241D01*
X274892Y-92241D01*
X276003Y-92908D01*
X276225Y-94241D01*
X276003Y-95574D01*
X274892Y-96241D01*
G54D11*
X275669Y-85797D02*
X276225Y-86864D01*
X276225Y-88197D01*
X275669Y-89530D01*
X274558Y-89797D01*
X272669Y-89797D01*
X271558Y-89130D01*
X271225Y-87797D01*
X271558Y-86464D01*
X272336Y-85797D01*
X273447Y-85797D01*
X273447Y-89797D01*
G54D11*
X271781Y-44958D02*
X272892Y-42958D01*
X274003Y-42292D01*
X276225Y-42292D01*
G54D11*
X276225Y-47625D02*
X267336Y-47625D01*
X267336Y-44292D01*
X267892Y-42958D01*
X269003Y-42292D01*
X270114Y-42292D01*
X271225Y-42958D01*
X271781Y-44292D01*
X271781Y-47625D01*
G54D11*
X275669Y-35848D02*
X276225Y-36915D01*
X276225Y-38248D01*
X275669Y-39581D01*
X274558Y-39848D01*
X272669Y-39848D01*
X271558Y-39181D01*
X271225Y-37848D01*
X271558Y-36515D01*
X272336Y-35848D01*
X273447Y-35848D01*
X273447Y-39848D01*
G54D11*
X271225Y-33404D02*
X276225Y-30737D01*
X271225Y-28071D01*
G54D11*
X276225Y-25627D02*
X276225Y-25627D01*
G54D11*
X270669Y-23183D02*
X267336Y-19850D01*
X276225Y-19850D01*
G54D11*
X332867Y-122556D02*
X335533Y-122556D01*
X335533Y-125333D01*
X334867Y-126444D01*
X333533Y-127000D01*
X332200Y-127000D01*
X330867Y-126444D01*
X330200Y-125333D01*
X330200Y-119778D01*
X330867Y-118667D01*
X332200Y-118111D01*
X333533Y-118111D01*
X334867Y-118667D01*
X335533Y-119778D01*
G54D11*
X434467Y-122556D02*
X437133Y-122556D01*
X437133Y-125333D01*
X436467Y-126444D01*
X435133Y-127000D01*
X433800Y-127000D01*
X432467Y-126444D01*
X431800Y-125333D01*
X431800Y-119778D01*
X432467Y-118667D01*
X433800Y-118111D01*
X435133Y-118111D01*
X436467Y-118667D01*
X437133Y-119778D01*
G54D11*
X355600Y-118111D02*
X358933Y-127000D01*
X362267Y-118111D01*
G54D11*
X332867Y-338456D02*
X335533Y-338456D01*
X335533Y-341233D01*
X334867Y-342344D01*
X333533Y-342900D01*
X332200Y-342900D01*
X330867Y-342344D01*
X330200Y-341233D01*
X330200Y-335678D01*
X330867Y-334567D01*
X332200Y-334011D01*
X333533Y-334011D01*
X334867Y-334567D01*
X335533Y-335678D01*
G54D11*
X434467Y-338456D02*
X437133Y-338456D01*
X437133Y-341233D01*
X436467Y-342344D01*
X435133Y-342900D01*
X433800Y-342900D01*
X432467Y-342344D01*
X431800Y-341233D01*
X431800Y-335678D01*
X432467Y-334567D01*
X433800Y-334011D01*
X435133Y-334011D01*
X436467Y-334567D01*
X437133Y-335678D01*
G54D11*
X355600Y-334011D02*
X358933Y-342900D01*
X362267Y-334011D01*
G54D10*
X530225Y-12700D02*
X530225Y-57150D01*
X733425Y-57150D01*
X733425Y-12700D01*
X530225Y-12700D01*
G54D10*
G75*
G01X565150Y-34925D02*
G03X565150Y-34925I-15875J0D01*
G01*
G54D10*
G75*
G01X730250Y-34925D02*
G03X730250Y-34925I-15875J0D01*
G01*
G54D10*
X530225Y-130175D02*
X530225Y-174625D01*
X733425Y-174625D01*
X733425Y-130175D01*
X530225Y-130175D01*
G54D10*
G75*
G01X565150Y-152400D02*
G03X565150Y-152400I-15875J0D01*
G01*
G54D10*
G75*
G01X730250Y-152400D02*
G03X730250Y-152400I-15875J0D01*
G01*
G54D10*
X555625Y-244475D02*
X555625Y-304800D01*
G54D10*
X708025Y-244475D02*
X708025Y-304800D01*
X555625Y-304800D01*
G54D10*
X555625Y-244475D02*
X708025Y-244475D01*
G54D10*
X581025Y-244475D02*
X581025Y-250825D01*
X682625Y-250825D01*
X682625Y-244475D01*
G54D11*
X577850Y-178436D02*
X577850Y-187325D01*
X582517Y-187325D01*
G54D11*
X603250Y-187325D02*
X603250Y-178436D01*
G54D11*
X608361Y-182881D02*
X610361Y-183992D01*
X611027Y-185103D01*
X611027Y-187325D01*
G54D11*
X605694Y-187325D02*
X605694Y-178436D01*
X609027Y-178436D01*
X610361Y-178992D01*
X611027Y-180103D01*
X611027Y-181214D01*
X610361Y-182325D01*
X609027Y-182881D01*
X605694Y-182881D01*
G54D11*
X634492Y-182881D02*
X637158Y-182881D01*
X637158Y-185658D01*
X636492Y-186769D01*
X635158Y-187325D01*
X633825Y-187325D01*
X632492Y-186769D01*
X631825Y-185658D01*
X631825Y-180103D01*
X632492Y-178992D01*
X633825Y-178436D01*
X635158Y-178436D01*
X636492Y-178992D01*
X637158Y-180103D01*
G54D11*
X682625Y-178436D02*
X687958Y-178436D01*
X682625Y-187325D01*
X687958Y-187325D01*
G54D11*
X654050Y-185658D02*
X654717Y-186769D01*
X656050Y-187325D01*
X657383Y-187325D01*
X658717Y-186769D01*
X659383Y-185658D01*
X659383Y-184547D01*
X658717Y-183436D01*
X657383Y-182881D01*
X656050Y-182881D01*
X654717Y-182325D01*
X654050Y-181214D01*
X654050Y-180103D01*
X654717Y-178992D01*
X656050Y-178436D01*
X657383Y-178436D01*
X658717Y-178992D01*
X659383Y-180103D01*
G54D11*
X580517Y-236856D02*
X583183Y-236856D01*
X583183Y-239633D01*
X582517Y-240744D01*
X581183Y-241300D01*
X579850Y-241300D01*
X578517Y-240744D01*
X577850Y-239633D01*
X577850Y-234078D01*
X578517Y-232967D01*
X579850Y-232411D01*
X581183Y-232411D01*
X582517Y-232967D01*
X583183Y-234078D01*
G54D11*
X603250Y-232411D02*
X606583Y-241300D01*
X609917Y-232411D01*
G54D11*
X625475Y-241300D02*
X625475Y-232411D01*
G54D11*
X630586Y-236856D02*
X632586Y-237967D01*
X633252Y-239078D01*
X633252Y-241300D01*
G54D11*
X627919Y-241300D02*
X627919Y-232411D01*
X631252Y-232411D01*
X632586Y-232967D01*
X633252Y-234078D01*
X633252Y-235189D01*
X632586Y-236300D01*
X631252Y-236856D01*
X627919Y-236856D01*
G54D11*
X654050Y-239633D02*
X654717Y-240744D01*
X656050Y-241300D01*
X657383Y-241300D01*
X658717Y-240744D01*
X659383Y-239633D01*
X659383Y-238522D01*
X658717Y-237411D01*
X657383Y-236856D01*
X656050Y-236856D01*
X654717Y-236300D01*
X654050Y-235189D01*
X654050Y-234078D01*
X654717Y-232967D01*
X656050Y-232411D01*
X657383Y-232411D01*
X658717Y-232967D01*
X659383Y-234078D01*
G54D11*
X682625Y-232411D02*
X687958Y-232411D01*
X682625Y-241300D01*
X687958Y-241300D01*
G54D11*
X577850Y-60961D02*
X577850Y-69850D01*
X582517Y-69850D01*
G54D11*
X603250Y-69850D02*
X603250Y-60961D01*
G54D11*
X608361Y-65406D02*
X610361Y-66517D01*
X611027Y-67628D01*
X611027Y-69850D01*
G54D11*
X605694Y-69850D02*
X605694Y-60961D01*
X609027Y-60961D01*
X610361Y-61517D01*
X611027Y-62628D01*
X611027Y-63739D01*
X610361Y-64850D01*
X609027Y-65406D01*
X605694Y-65406D01*
G54D11*
X631317Y-65406D02*
X633983Y-65406D01*
X633983Y-68183D01*
X633317Y-69294D01*
X631983Y-69850D01*
X630650Y-69850D01*
X629317Y-69294D01*
X628650Y-68183D01*
X628650Y-62628D01*
X629317Y-61517D01*
X630650Y-60961D01*
X631983Y-60961D01*
X633317Y-61517D01*
X633983Y-62628D01*
G54D11*
X654050Y-68183D02*
X654717Y-69294D01*
X656050Y-69850D01*
X657383Y-69850D01*
X658717Y-69294D01*
X659383Y-68183D01*
X659383Y-67072D01*
X658717Y-65961D01*
X657383Y-65406D01*
X656050Y-65406D01*
X654717Y-64850D01*
X654050Y-63739D01*
X654050Y-62628D01*
X654717Y-61517D01*
X656050Y-60961D01*
X657383Y-60961D01*
X658717Y-61517D01*
X659383Y-62628D01*
G54D11*
X679450Y-60961D02*
X684783Y-60961D01*
X679450Y-69850D01*
X684783Y-69850D01*
G54D12*
X665250Y-76250D02*
X687250Y-76250D01*
X687250Y-114250D01*
X665250Y-114250D01*
X665250Y-76250D01*
G54D12*
X719225Y-76250D02*
X741225Y-76250D01*
X741225Y-114250D01*
X719225Y-114250D01*
X719225Y-76250D01*
G54D11*
X522208Y-156592D02*
X523319Y-157258D01*
X523875Y-158592D01*
X523875Y-159925D01*
X523319Y-161258D01*
X522208Y-161925D01*
X516653Y-161925D01*
X515542Y-161258D01*
X514986Y-159925D01*
X514986Y-158592D01*
X515542Y-157258D01*
X516653Y-156592D01*
G54D11*
X523875Y-154148D02*
X514986Y-154148D01*
G54D11*
X520319Y-154148D02*
X519208Y-153481D01*
X518875Y-152148D01*
X519208Y-150815D01*
X520319Y-150148D01*
X523875Y-150148D01*
G54D11*
X523875Y-147704D02*
X518875Y-147704D01*
G54D11*
X517208Y-147704D02*
X517208Y-147704D01*
G54D11*
X523875Y-145260D02*
X518875Y-145260D01*
G54D11*
X519764Y-145260D02*
X518875Y-143927D01*
X519208Y-142593D01*
X519986Y-141927D01*
X523875Y-141927D01*
G54D11*
X519764Y-141927D02*
X518875Y-140593D01*
X519208Y-139260D01*
X519986Y-138593D01*
X523875Y-138593D01*
G54D11*
X523319Y-132149D02*
X523875Y-133216D01*
X523875Y-134549D01*
X523319Y-135882D01*
X522208Y-136149D01*
X520319Y-136149D01*
X519208Y-135482D01*
X518875Y-134149D01*
X519208Y-132816D01*
X519986Y-132149D01*
X521097Y-132149D01*
X521097Y-136149D01*
G54D11*
X523875Y-129705D02*
X518875Y-129705D01*
G54D11*
X519986Y-129705D02*
X518875Y-128372D01*
X518875Y-127038D01*
G54D11*
X519431Y-124594D02*
X518875Y-123261D01*
X518875Y-121661D01*
X519986Y-120594D01*
X523875Y-120594D01*
G54D11*
X522208Y-120594D02*
X521097Y-121261D01*
X520875Y-122594D01*
X521097Y-123927D01*
X522208Y-124594D01*
X523319Y-124327D01*
X523875Y-123261D01*
X523875Y-122594D01*
X523875Y-122327D01*
X523319Y-121261D01*
X522208Y-120594D01*
G54D11*
X523875Y-115573D02*
X514986Y-115573D01*
X514986Y-112240D01*
X515542Y-110906D01*
X516653Y-110240D01*
X517764Y-110240D01*
X518875Y-110906D01*
X519431Y-112240D01*
X519431Y-115573D01*
G54D11*
X523875Y-107796D02*
X518875Y-107796D01*
G54D11*
X519986Y-107796D02*
X518875Y-106463D01*
X518875Y-105129D01*
G54D11*
X522542Y-98685D02*
X520319Y-98685D01*
X519208Y-99352D01*
X518875Y-100685D01*
X519208Y-102018D01*
X520319Y-102685D01*
X522542Y-102685D01*
X523653Y-102018D01*
X523875Y-100685D01*
X523653Y-99352D01*
X522542Y-98685D01*
G54D11*
X523875Y-96241D02*
X514986Y-96241D01*
G54D11*
X520319Y-96241D02*
X519208Y-95574D01*
X518875Y-94241D01*
X519208Y-92908D01*
X520319Y-92241D01*
X522542Y-92241D01*
X523653Y-92908D01*
X523875Y-94241D01*
X523653Y-95574D01*
X522542Y-96241D01*
G54D11*
X523319Y-85797D02*
X523875Y-86864D01*
X523875Y-88197D01*
X523319Y-89530D01*
X522208Y-89797D01*
X520319Y-89797D01*
X519208Y-89130D01*
X518875Y-87797D01*
X519208Y-86464D01*
X519986Y-85797D01*
X521097Y-85797D01*
X521097Y-89797D01*
G54D11*
X519431Y-44958D02*
X520542Y-42958D01*
X521653Y-42292D01*
X523875Y-42292D01*
G54D11*
X523875Y-47625D02*
X514986Y-47625D01*
X514986Y-44292D01*
X515542Y-42958D01*
X516653Y-42292D01*
X517764Y-42292D01*
X518875Y-42958D01*
X519431Y-44292D01*
X519431Y-47625D01*
G54D11*
X523319Y-35848D02*
X523875Y-36915D01*
X523875Y-38248D01*
X523319Y-39581D01*
X522208Y-39848D01*
X520319Y-39848D01*
X519208Y-39181D01*
X518875Y-37848D01*
X519208Y-36515D01*
X519986Y-35848D01*
X521097Y-35848D01*
X521097Y-39848D01*
G54D11*
X518875Y-33404D02*
X523875Y-30737D01*
X518875Y-28071D01*
G54D11*
X523875Y-25627D02*
X523875Y-25627D01*
G54D11*
X518319Y-23183D02*
X514986Y-19850D01*
X523875Y-19850D01*
G54D11*
X580517Y-122556D02*
X583183Y-122556D01*
X583183Y-125333D01*
X582517Y-126444D01*
X581183Y-127000D01*
X579850Y-127000D01*
X578517Y-126444D01*
X577850Y-125333D01*
X577850Y-119778D01*
X578517Y-118667D01*
X579850Y-118111D01*
X581183Y-118111D01*
X582517Y-118667D01*
X583183Y-119778D01*
G54D11*
X682117Y-122556D02*
X684783Y-122556D01*
X684783Y-125333D01*
X684117Y-126444D01*
X682783Y-127000D01*
X681450Y-127000D01*
X680117Y-126444D01*
X679450Y-125333D01*
X679450Y-119778D01*
X680117Y-118667D01*
X681450Y-118111D01*
X682783Y-118111D01*
X684117Y-118667D01*
X684783Y-119778D01*
G54D11*
X603250Y-118111D02*
X606583Y-127000D01*
X609917Y-118111D01*
G54D11*
X580517Y-338456D02*
X583183Y-338456D01*
X583183Y-341233D01*
X582517Y-342344D01*
X581183Y-342900D01*
X579850Y-342900D01*
X578517Y-342344D01*
X577850Y-341233D01*
X577850Y-335678D01*
X578517Y-334567D01*
X579850Y-334011D01*
X581183Y-334011D01*
X582517Y-334567D01*
X583183Y-335678D01*
G54D11*
X682117Y-338456D02*
X684783Y-338456D01*
X684783Y-341233D01*
X684117Y-342344D01*
X682783Y-342900D01*
X681450Y-342900D01*
X680117Y-342344D01*
X679450Y-341233D01*
X679450Y-335678D01*
X680117Y-334567D01*
X681450Y-334011D01*
X682783Y-334011D01*
X684117Y-334567D01*
X684783Y-335678D01*
G54D11*
X603250Y-334011D02*
X606583Y-342900D01*
X609917Y-334011D01*
G54D10*
X34925Y-349250D02*
X34925Y-393700D01*
X238125Y-393700D01*
X238125Y-349250D01*
X34925Y-349250D01*
G54D10*
G75*
G01X69850Y-371475D02*
G03X69850Y-371475I-15875J0D01*
G01*
G54D10*
G75*
G01X234950Y-371475D02*
G03X234950Y-371475I-15875J0D01*
G01*
G54D10*
X34925Y-466725D02*
X34925Y-511175D01*
X238125Y-511175D01*
X238125Y-466725D01*
X34925Y-466725D01*
G54D10*
G75*
G01X69850Y-488950D02*
G03X69850Y-488950I-15875J0D01*
G01*
G54D10*
G75*
G01X234950Y-488950D02*
G03X234950Y-488950I-15875J0D01*
G01*
G54D10*
X60325Y-581025D02*
X60325Y-641350D01*
G54D10*
X212725Y-581025D02*
X212725Y-641350D01*
X60325Y-641350D01*
G54D10*
X60325Y-581025D02*
X212725Y-581025D01*
G54D10*
X85725Y-581025D02*
X85725Y-587375D01*
X187325Y-587375D01*
X187325Y-581025D01*
G54D11*
X82550Y-514986D02*
X82550Y-523875D01*
X87217Y-523875D01*
G54D11*
X107950Y-523875D02*
X107950Y-514986D01*
G54D11*
X113061Y-519430D02*
X115061Y-520542D01*
X115727Y-521653D01*
X115727Y-523875D01*
G54D11*
X110394Y-523875D02*
X110394Y-514986D01*
X113727Y-514986D01*
X115061Y-515542D01*
X115727Y-516653D01*
X115727Y-517764D01*
X115061Y-518875D01*
X113727Y-519430D01*
X110394Y-519430D01*
G54D11*
X139192Y-519430D02*
X141858Y-519430D01*
X141858Y-522208D01*
X141192Y-523320D01*
X139858Y-523875D01*
X138525Y-523875D01*
X137192Y-523320D01*
X136525Y-522208D01*
X136525Y-516653D01*
X137192Y-515542D01*
X138525Y-514986D01*
X139858Y-514986D01*
X141192Y-515542D01*
X141858Y-516653D01*
G54D11*
X187325Y-514986D02*
X192658Y-514986D01*
X187325Y-523875D01*
X192658Y-523875D01*
G54D11*
X158750Y-522208D02*
X159417Y-523320D01*
X160750Y-523875D01*
X162083Y-523875D01*
X163417Y-523320D01*
X164083Y-522208D01*
X164083Y-521097D01*
X163417Y-519986D01*
X162083Y-519430D01*
X160750Y-519430D01*
X159417Y-518875D01*
X158750Y-517764D01*
X158750Y-516653D01*
X159417Y-515542D01*
X160750Y-514986D01*
X162083Y-514986D01*
X163417Y-515542D01*
X164083Y-516653D01*
G54D11*
X85217Y-573406D02*
X87883Y-573406D01*
X87883Y-576183D01*
X87217Y-577294D01*
X85883Y-577850D01*
X84550Y-577850D01*
X83217Y-577294D01*
X82550Y-576183D01*
X82550Y-570628D01*
X83217Y-569517D01*
X84550Y-568961D01*
X85883Y-568961D01*
X87217Y-569517D01*
X87883Y-570628D01*
G54D11*
X107950Y-568961D02*
X111283Y-577850D01*
X114617Y-568961D01*
G54D11*
X130175Y-577850D02*
X130175Y-568961D01*
G54D11*
X135286Y-573406D02*
X137286Y-574517D01*
X137952Y-575628D01*
X137952Y-577850D01*
G54D11*
X132619Y-577850D02*
X132619Y-568961D01*
X135952Y-568961D01*
X137286Y-569517D01*
X137952Y-570628D01*
X137952Y-571739D01*
X137286Y-572850D01*
X135952Y-573406D01*
X132619Y-573406D01*
G54D11*
X158750Y-576183D02*
X159417Y-577294D01*
X160750Y-577850D01*
X162083Y-577850D01*
X163417Y-577294D01*
X164083Y-576183D01*
X164083Y-575072D01*
X163417Y-573961D01*
X162083Y-573406D01*
X160750Y-573406D01*
X159417Y-572850D01*
X158750Y-571739D01*
X158750Y-570628D01*
X159417Y-569517D01*
X160750Y-568961D01*
X162083Y-568961D01*
X163417Y-569517D01*
X164083Y-570628D01*
G54D11*
X187325Y-568961D02*
X192658Y-568961D01*
X187325Y-577850D01*
X192658Y-577850D01*
G54D11*
X82550Y-397511D02*
X82550Y-406400D01*
X87217Y-406400D01*
G54D11*
X107950Y-406400D02*
X107950Y-397511D01*
G54D11*
X113061Y-401956D02*
X115061Y-403067D01*
X115727Y-404178D01*
X115727Y-406400D01*
G54D11*
X110394Y-406400D02*
X110394Y-397511D01*
X113727Y-397511D01*
X115061Y-398067D01*
X115727Y-399178D01*
X115727Y-400289D01*
X115061Y-401400D01*
X113727Y-401956D01*
X110394Y-401956D01*
G54D11*
X136017Y-401956D02*
X138683Y-401956D01*
X138683Y-404733D01*
X138017Y-405844D01*
X136683Y-406400D01*
X135350Y-406400D01*
X134017Y-405844D01*
X133350Y-404733D01*
X133350Y-399178D01*
X134017Y-398067D01*
X135350Y-397511D01*
X136683Y-397511D01*
X138017Y-398067D01*
X138683Y-399178D01*
G54D11*
X158750Y-404733D02*
X159417Y-405844D01*
X160750Y-406400D01*
X162083Y-406400D01*
X163417Y-405844D01*
X164083Y-404733D01*
X164083Y-403622D01*
X163417Y-402511D01*
X162083Y-401956D01*
X160750Y-401956D01*
X159417Y-401400D01*
X158750Y-400289D01*
X158750Y-399178D01*
X159417Y-398067D01*
X160750Y-397511D01*
X162083Y-397511D01*
X163417Y-398067D01*
X164083Y-399178D01*
G54D11*
X184150Y-397511D02*
X189483Y-397511D01*
X184150Y-406400D01*
X189483Y-406400D01*
G54D12*
X169950Y-412800D02*
X191950Y-412800D01*
X191950Y-450800D01*
X169950Y-450800D01*
X169950Y-412800D01*
G54D12*
X223925Y-412800D02*
X245925Y-412800D01*
X245925Y-450800D01*
X223925Y-450800D01*
X223925Y-412800D01*
G54D11*
X26908Y-493142D02*
X28019Y-493808D01*
X28575Y-495142D01*
X28575Y-496475D01*
X28019Y-497808D01*
X26908Y-498475D01*
X21353Y-498475D01*
X20242Y-497808D01*
X19686Y-496475D01*
X19686Y-495142D01*
X20242Y-493808D01*
X21353Y-493142D01*
G54D11*
X28575Y-490698D02*
X19686Y-490698D01*
G54D11*
X25019Y-490698D02*
X23908Y-490031D01*
X23575Y-488698D01*
X23908Y-487365D01*
X25019Y-486698D01*
X28575Y-486698D01*
G54D11*
X28575Y-484254D02*
X23575Y-484254D01*
G54D11*
X21908Y-484254D02*
X21908Y-484254D01*
G54D11*
X28575Y-481810D02*
X23575Y-481810D01*
G54D11*
X24464Y-481810D02*
X23575Y-480477D01*
X23908Y-479143D01*
X24686Y-478477D01*
X28575Y-478477D01*
G54D11*
X24464Y-478477D02*
X23575Y-477143D01*
X23908Y-475810D01*
X24686Y-475143D01*
X28575Y-475143D01*
G54D11*
X28019Y-468699D02*
X28575Y-469766D01*
X28575Y-471099D01*
X28019Y-472432D01*
X26908Y-472699D01*
X25019Y-472699D01*
X23908Y-472032D01*
X23575Y-470699D01*
X23908Y-469366D01*
X24686Y-468699D01*
X25797Y-468699D01*
X25797Y-472699D01*
G54D11*
X28575Y-466255D02*
X23575Y-466255D01*
G54D11*
X24686Y-466255D02*
X23575Y-464922D01*
X23575Y-463588D01*
G54D11*
X24131Y-461144D02*
X23575Y-459811D01*
X23575Y-458211D01*
X24686Y-457144D01*
X28575Y-457144D01*
G54D11*
X26908Y-457144D02*
X25797Y-457811D01*
X25575Y-459144D01*
X25797Y-460477D01*
X26908Y-461144D01*
X28019Y-460877D01*
X28575Y-459811D01*
X28575Y-459144D01*
X28575Y-458877D01*
X28019Y-457811D01*
X26908Y-457144D01*
G54D11*
X28575Y-452123D02*
X19686Y-452123D01*
X19686Y-448790D01*
X20242Y-447456D01*
X21353Y-446790D01*
X22464Y-446790D01*
X23575Y-447456D01*
X24131Y-448790D01*
X24131Y-452123D01*
G54D11*
X28575Y-444346D02*
X23575Y-444346D01*
G54D11*
X24686Y-444346D02*
X23575Y-443013D01*
X23575Y-441679D01*
G54D11*
X27242Y-435235D02*
X25019Y-435235D01*
X23908Y-435902D01*
X23575Y-437235D01*
X23908Y-438568D01*
X25019Y-439235D01*
X27242Y-439235D01*
X28353Y-438568D01*
X28575Y-437235D01*
X28353Y-435902D01*
X27242Y-435235D01*
G54D11*
X28575Y-432791D02*
X19686Y-432791D01*
G54D11*
X25019Y-432791D02*
X23908Y-432124D01*
X23575Y-430791D01*
X23908Y-429458D01*
X25019Y-428791D01*
X27242Y-428791D01*
X28353Y-429458D01*
X28575Y-430791D01*
X28353Y-432124D01*
X27242Y-432791D01*
G54D11*
X28019Y-422347D02*
X28575Y-423414D01*
X28575Y-424747D01*
X28019Y-426080D01*
X26908Y-426347D01*
X25019Y-426347D01*
X23908Y-425680D01*
X23575Y-424347D01*
X23908Y-423014D01*
X24686Y-422347D01*
X25797Y-422347D01*
X25797Y-426347D01*
G54D11*
X24131Y-381508D02*
X25242Y-379508D01*
X26353Y-378842D01*
X28575Y-378842D01*
G54D11*
X28575Y-384175D02*
X19686Y-384175D01*
X19686Y-380842D01*
X20242Y-379508D01*
X21353Y-378842D01*
X22464Y-378842D01*
X23575Y-379508D01*
X24131Y-380842D01*
X24131Y-384175D01*
G54D11*
X28019Y-372398D02*
X28575Y-373465D01*
X28575Y-374798D01*
X28019Y-376131D01*
X26908Y-376398D01*
X25019Y-376398D01*
X23908Y-375731D01*
X23575Y-374398D01*
X23908Y-373065D01*
X24686Y-372398D01*
X25797Y-372398D01*
X25797Y-376398D01*
G54D11*
X23575Y-369954D02*
X28575Y-367287D01*
X23575Y-364621D01*
G54D11*
X28575Y-362177D02*
X28575Y-362177D01*
G54D11*
X23019Y-359733D02*
X19686Y-356400D01*
X28575Y-356400D01*
G54D11*
X85217Y-459106D02*
X87883Y-459106D01*
X87883Y-461883D01*
X87217Y-462994D01*
X85883Y-463550D01*
X84550Y-463550D01*
X83217Y-462994D01*
X82550Y-461883D01*
X82550Y-456328D01*
X83217Y-455217D01*
X84550Y-454661D01*
X85883Y-454661D01*
X87217Y-455217D01*
X87883Y-456328D01*
G54D11*
X186817Y-459106D02*
X189483Y-459106D01*
X189483Y-461883D01*
X188817Y-462994D01*
X187483Y-463550D01*
X186150Y-463550D01*
X184817Y-462994D01*
X184150Y-461883D01*
X184150Y-456328D01*
X184817Y-455217D01*
X186150Y-454661D01*
X187483Y-454661D01*
X188817Y-455217D01*
X189483Y-456328D01*
G54D11*
X107950Y-454661D02*
X111283Y-463550D01*
X114617Y-454661D01*
G54D11*
X85217Y-675006D02*
X87883Y-675006D01*
X87883Y-677783D01*
X87217Y-678894D01*
X85883Y-679450D01*
X84550Y-679450D01*
X83217Y-678894D01*
X82550Y-677783D01*
X82550Y-672228D01*
X83217Y-671117D01*
X84550Y-670561D01*
X85883Y-670561D01*
X87217Y-671117D01*
X87883Y-672228D01*
G54D11*
X186817Y-675006D02*
X189483Y-675006D01*
X189483Y-677783D01*
X188817Y-678894D01*
X187483Y-679450D01*
X186150Y-679450D01*
X184817Y-678894D01*
X184150Y-677783D01*
X184150Y-672228D01*
X184817Y-671117D01*
X186150Y-670561D01*
X187483Y-670561D01*
X188817Y-671117D01*
X189483Y-672228D01*
G54D11*
X107950Y-670561D02*
X111283Y-679450D01*
X114617Y-670561D01*
G54D10*
X282575Y-349250D02*
X282575Y-393700D01*
X485775Y-393700D01*
X485775Y-349250D01*
X282575Y-349250D01*
G54D10*
G75*
G01X317500Y-371475D02*
G03X317500Y-371475I-15875J0D01*
G01*
G54D10*
G75*
G01X482600Y-371475D02*
G03X482600Y-371475I-15875J0D01*
G01*
G54D10*
X282575Y-466725D02*
X282575Y-511175D01*
X485775Y-511175D01*
X485775Y-466725D01*
X282575Y-466725D01*
G54D10*
G75*
G01X317500Y-488950D02*
G03X317500Y-488950I-15875J0D01*
G01*
G54D10*
G75*
G01X482600Y-488950D02*
G03X482600Y-488950I-15875J0D01*
G01*
G54D10*
X307975Y-581025D02*
X307975Y-641350D01*
G54D10*
X460375Y-581025D02*
X460375Y-641350D01*
X307975Y-641350D01*
G54D10*
X307975Y-581025D02*
X460375Y-581025D01*
G54D10*
X333375Y-581025D02*
X333375Y-587375D01*
X434975Y-587375D01*
X434975Y-581025D01*
G54D11*
X330200Y-514986D02*
X330200Y-523875D01*
X334867Y-523875D01*
G54D11*
X355600Y-523875D02*
X355600Y-514986D01*
G54D11*
X360711Y-519430D02*
X362711Y-520542D01*
X363377Y-521653D01*
X363377Y-523875D01*
G54D11*
X358044Y-523875D02*
X358044Y-514986D01*
X361377Y-514986D01*
X362711Y-515542D01*
X363377Y-516653D01*
X363377Y-517764D01*
X362711Y-518875D01*
X361377Y-519430D01*
X358044Y-519430D01*
G54D11*
X386842Y-519430D02*
X389508Y-519430D01*
X389508Y-522208D01*
X388842Y-523320D01*
X387508Y-523875D01*
X386175Y-523875D01*
X384842Y-523320D01*
X384175Y-522208D01*
X384175Y-516653D01*
X384842Y-515542D01*
X386175Y-514986D01*
X387508Y-514986D01*
X388842Y-515542D01*
X389508Y-516653D01*
G54D11*
X434975Y-514986D02*
X440308Y-514986D01*
X434975Y-523875D01*
X440308Y-523875D01*
G54D11*
X406400Y-522208D02*
X407067Y-523320D01*
X408400Y-523875D01*
X409733Y-523875D01*
X411067Y-523320D01*
X411733Y-522208D01*
X411733Y-521097D01*
X411067Y-519986D01*
X409733Y-519430D01*
X408400Y-519430D01*
X407067Y-518875D01*
X406400Y-517764D01*
X406400Y-516653D01*
X407067Y-515542D01*
X408400Y-514986D01*
X409733Y-514986D01*
X411067Y-515542D01*
X411733Y-516653D01*
G54D11*
X332867Y-573406D02*
X335533Y-573406D01*
X335533Y-576183D01*
X334867Y-577294D01*
X333533Y-577850D01*
X332200Y-577850D01*
X330867Y-577294D01*
X330200Y-576183D01*
X330200Y-570628D01*
X330867Y-569517D01*
X332200Y-568961D01*
X333533Y-568961D01*
X334867Y-569517D01*
X335533Y-570628D01*
G54D11*
X355600Y-568961D02*
X358933Y-577850D01*
X362267Y-568961D01*
G54D11*
X377825Y-577850D02*
X377825Y-568961D01*
G54D11*
X382936Y-573406D02*
X384936Y-574517D01*
X385602Y-575628D01*
X385602Y-577850D01*
G54D11*
X380269Y-577850D02*
X380269Y-568961D01*
X383602Y-568961D01*
X384936Y-569517D01*
X385602Y-570628D01*
X385602Y-571739D01*
X384936Y-572850D01*
X383602Y-573406D01*
X380269Y-573406D01*
G54D11*
X406400Y-576183D02*
X407067Y-577294D01*
X408400Y-577850D01*
X409733Y-577850D01*
X411067Y-577294D01*
X411733Y-576183D01*
X411733Y-575072D01*
X411067Y-573961D01*
X409733Y-573406D01*
X408400Y-573406D01*
X407067Y-572850D01*
X406400Y-571739D01*
X406400Y-570628D01*
X407067Y-569517D01*
X408400Y-568961D01*
X409733Y-568961D01*
X411067Y-569517D01*
X411733Y-570628D01*
G54D11*
X434975Y-568961D02*
X440308Y-568961D01*
X434975Y-577850D01*
X440308Y-577850D01*
G54D11*
X330200Y-397511D02*
X330200Y-406400D01*
X334867Y-406400D01*
G54D11*
X355600Y-406400D02*
X355600Y-397511D01*
G54D11*
X360711Y-401956D02*
X362711Y-403067D01*
X363377Y-404178D01*
X363377Y-406400D01*
G54D11*
X358044Y-406400D02*
X358044Y-397511D01*
X361377Y-397511D01*
X362711Y-398067D01*
X363377Y-399178D01*
X363377Y-400289D01*
X362711Y-401400D01*
X361377Y-401956D01*
X358044Y-401956D01*
G54D11*
X383667Y-401956D02*
X386333Y-401956D01*
X386333Y-404733D01*
X385667Y-405844D01*
X384333Y-406400D01*
X383000Y-406400D01*
X381667Y-405844D01*
X381000Y-404733D01*
X381000Y-399178D01*
X381667Y-398067D01*
X383000Y-397511D01*
X384333Y-397511D01*
X385667Y-398067D01*
X386333Y-399178D01*
G54D11*
X406400Y-404733D02*
X407067Y-405844D01*
X408400Y-406400D01*
X409733Y-406400D01*
X411067Y-405844D01*
X411733Y-404733D01*
X411733Y-403622D01*
X411067Y-402511D01*
X409733Y-401956D01*
X408400Y-401956D01*
X407067Y-401400D01*
X406400Y-400289D01*
X406400Y-399178D01*
X407067Y-398067D01*
X408400Y-397511D01*
X409733Y-397511D01*
X411067Y-398067D01*
X411733Y-399178D01*
G54D11*
X431800Y-397511D02*
X437133Y-397511D01*
X431800Y-406400D01*
X437133Y-406400D01*
G54D12*
X417600Y-412800D02*
X439600Y-412800D01*
X439600Y-450800D01*
X417600Y-450800D01*
X417600Y-412800D01*
G54D12*
X471575Y-412800D02*
X493575Y-412800D01*
X493575Y-450800D01*
X471575Y-450800D01*
X471575Y-412800D01*
G54D11*
X274558Y-493142D02*
X275669Y-493808D01*
X276225Y-495142D01*
X276225Y-496475D01*
X275669Y-497808D01*
X274558Y-498475D01*
X269003Y-498475D01*
X267892Y-497808D01*
X267336Y-496475D01*
X267336Y-495142D01*
X267892Y-493808D01*
X269003Y-493142D01*
G54D11*
X276225Y-490698D02*
X267336Y-490698D01*
G54D11*
X272669Y-490698D02*
X271558Y-490031D01*
X271225Y-488698D01*
X271558Y-487365D01*
X272669Y-486698D01*
X276225Y-486698D01*
G54D11*
X276225Y-484254D02*
X271225Y-484254D01*
G54D11*
X269558Y-484254D02*
X269558Y-484254D01*
G54D11*
X276225Y-481810D02*
X271225Y-481810D01*
G54D11*
X272114Y-481810D02*
X271225Y-480477D01*
X271558Y-479143D01*
X272336Y-478477D01*
X276225Y-478477D01*
G54D11*
X272114Y-478477D02*
X271225Y-477143D01*
X271558Y-475810D01*
X272336Y-475143D01*
X276225Y-475143D01*
G54D11*
X275669Y-468699D02*
X276225Y-469766D01*
X276225Y-471099D01*
X275669Y-472432D01*
X274558Y-472699D01*
X272669Y-472699D01*
X271558Y-472032D01*
X271225Y-470699D01*
X271558Y-469366D01*
X272336Y-468699D01*
X273447Y-468699D01*
X273447Y-472699D01*
G54D11*
X276225Y-466255D02*
X271225Y-466255D01*
G54D11*
X272336Y-466255D02*
X271225Y-464922D01*
X271225Y-463588D01*
G54D11*
X271781Y-461144D02*
X271225Y-459811D01*
X271225Y-458211D01*
X272336Y-457144D01*
X276225Y-457144D01*
G54D11*
X274558Y-457144D02*
X273447Y-457811D01*
X273225Y-459144D01*
X273447Y-460477D01*
X274558Y-461144D01*
X275669Y-460877D01*
X276225Y-459811D01*
X276225Y-459144D01*
X276225Y-458877D01*
X275669Y-457811D01*
X274558Y-457144D01*
G54D11*
X276225Y-452123D02*
X267336Y-452123D01*
X267336Y-448790D01*
X267892Y-447456D01*
X269003Y-446790D01*
X270114Y-446790D01*
X271225Y-447456D01*
X271781Y-448790D01*
X271781Y-452123D01*
G54D11*
X276225Y-444346D02*
X271225Y-444346D01*
G54D11*
X272336Y-444346D02*
X271225Y-443013D01*
X271225Y-441679D01*
G54D11*
X274892Y-435235D02*
X272669Y-435235D01*
X271558Y-435902D01*
X271225Y-437235D01*
X271558Y-438568D01*
X272669Y-439235D01*
X274892Y-439235D01*
X276003Y-438568D01*
X276225Y-437235D01*
X276003Y-435902D01*
X274892Y-435235D01*
G54D11*
X276225Y-432791D02*
X267336Y-432791D01*
G54D11*
X272669Y-432791D02*
X271558Y-432124D01*
X271225Y-430791D01*
X271558Y-429458D01*
X272669Y-428791D01*
X274892Y-428791D01*
X276003Y-429458D01*
X276225Y-430791D01*
X276003Y-432124D01*
X274892Y-432791D01*
G54D11*
X275669Y-422347D02*
X276225Y-423414D01*
X276225Y-424747D01*
X275669Y-426080D01*
X274558Y-426347D01*
X272669Y-426347D01*
X271558Y-425680D01*
X271225Y-424347D01*
X271558Y-423014D01*
X272336Y-422347D01*
X273447Y-422347D01*
X273447Y-426347D01*
G54D11*
X271781Y-381508D02*
X272892Y-379508D01*
X274003Y-378842D01*
X276225Y-378842D01*
G54D11*
X276225Y-384175D02*
X267336Y-384175D01*
X267336Y-380842D01*
X267892Y-379508D01*
X269003Y-378842D01*
X270114Y-378842D01*
X271225Y-379508D01*
X271781Y-380842D01*
X271781Y-384175D01*
G54D11*
X275669Y-372398D02*
X276225Y-373465D01*
X276225Y-374798D01*
X275669Y-376131D01*
X274558Y-376398D01*
X272669Y-376398D01*
X271558Y-375731D01*
X271225Y-374398D01*
X271558Y-373065D01*
X272336Y-372398D01*
X273447Y-372398D01*
X273447Y-376398D01*
G54D11*
X271225Y-369954D02*
X276225Y-367287D01*
X271225Y-364621D01*
G54D11*
X276225Y-362177D02*
X276225Y-362177D01*
G54D11*
X270669Y-359733D02*
X267336Y-356400D01*
X276225Y-356400D01*
G54D11*
X332867Y-459106D02*
X335533Y-459106D01*
X335533Y-461883D01*
X334867Y-462994D01*
X333533Y-463550D01*
X332200Y-463550D01*
X330867Y-462994D01*
X330200Y-461883D01*
X330200Y-456328D01*
X330867Y-455217D01*
X332200Y-454661D01*
X333533Y-454661D01*
X334867Y-455217D01*
X335533Y-456328D01*
G54D11*
X434467Y-459106D02*
X437133Y-459106D01*
X437133Y-461883D01*
X436467Y-462994D01*
X435133Y-463550D01*
X433800Y-463550D01*
X432467Y-462994D01*
X431800Y-461883D01*
X431800Y-456328D01*
X432467Y-455217D01*
X433800Y-454661D01*
X435133Y-454661D01*
X436467Y-455217D01*
X437133Y-456328D01*
G54D11*
X355600Y-454661D02*
X358933Y-463550D01*
X362267Y-454661D01*
G54D11*
X332867Y-675006D02*
X335533Y-675006D01*
X335533Y-677783D01*
X334867Y-678894D01*
X333533Y-679450D01*
X332200Y-679450D01*
X330867Y-678894D01*
X330200Y-677783D01*
X330200Y-672228D01*
X330867Y-671117D01*
X332200Y-670561D01*
X333533Y-670561D01*
X334867Y-671117D01*
X335533Y-672228D01*
G54D11*
X434467Y-675006D02*
X437133Y-675006D01*
X437133Y-677783D01*
X436467Y-678894D01*
X435133Y-679450D01*
X433800Y-679450D01*
X432467Y-678894D01*
X431800Y-677783D01*
X431800Y-672228D01*
X432467Y-671117D01*
X433800Y-670561D01*
X435133Y-670561D01*
X436467Y-671117D01*
X437133Y-672228D01*
G54D11*
X355600Y-670561D02*
X358933Y-679450D01*
X362267Y-670561D01*
G54D10*
X530225Y-349250D02*
X530225Y-393700D01*
X733425Y-393700D01*
X733425Y-349250D01*
X530225Y-349250D01*
G54D10*
G75*
G01X565150Y-371475D02*
G03X565150Y-371475I-15875J0D01*
G01*
G54D10*
G75*
G01X730250Y-371475D02*
G03X730250Y-371475I-15875J0D01*
G01*
G54D10*
X530225Y-466725D02*
X530225Y-511175D01*
X733425Y-511175D01*
X733425Y-466725D01*
X530225Y-466725D01*
G54D10*
G75*
G01X565150Y-488950D02*
G03X565150Y-488950I-15875J0D01*
G01*
G54D10*
G75*
G01X730250Y-488950D02*
G03X730250Y-488950I-15875J0D01*
G01*
G54D10*
X555625Y-581025D02*
X555625Y-641350D01*
G54D10*
X708025Y-581025D02*
X708025Y-641350D01*
X555625Y-641350D01*
G54D10*
X555625Y-581025D02*
X708025Y-581025D01*
G54D10*
X581025Y-581025D02*
X581025Y-587375D01*
X682625Y-587375D01*
X682625Y-581025D01*
G54D11*
X577850Y-514986D02*
X577850Y-523875D01*
X582517Y-523875D01*
G54D11*
X603250Y-523875D02*
X603250Y-514986D01*
G54D11*
X608361Y-519430D02*
X610361Y-520542D01*
X611027Y-521653D01*
X611027Y-523875D01*
G54D11*
X605694Y-523875D02*
X605694Y-514986D01*
X609027Y-514986D01*
X610361Y-515542D01*
X611027Y-516653D01*
X611027Y-517764D01*
X610361Y-518875D01*
X609027Y-519430D01*
X605694Y-519430D01*
G54D11*
X634492Y-519430D02*
X637158Y-519430D01*
X637158Y-522208D01*
X636492Y-523320D01*
X635158Y-523875D01*
X633825Y-523875D01*
X632492Y-523320D01*
X631825Y-522208D01*
X631825Y-516653D01*
X632492Y-515542D01*
X633825Y-514986D01*
X635158Y-514986D01*
X636492Y-515542D01*
X637158Y-516653D01*
G54D11*
X682625Y-514986D02*
X687958Y-514986D01*
X682625Y-523875D01*
X687958Y-523875D01*
G54D11*
X654050Y-522208D02*
X654717Y-523320D01*
X656050Y-523875D01*
X657383Y-523875D01*
X658717Y-523320D01*
X659383Y-522208D01*
X659383Y-521097D01*
X658717Y-519986D01*
X657383Y-519430D01*
X656050Y-519430D01*
X654717Y-518875D01*
X654050Y-517764D01*
X654050Y-516653D01*
X654717Y-515542D01*
X656050Y-514986D01*
X657383Y-514986D01*
X658717Y-515542D01*
X659383Y-516653D01*
G54D11*
X580517Y-573406D02*
X583183Y-573406D01*
X583183Y-576183D01*
X582517Y-577294D01*
X581183Y-577850D01*
X579850Y-577850D01*
X578517Y-577294D01*
X577850Y-576183D01*
X577850Y-570628D01*
X578517Y-569517D01*
X579850Y-568961D01*
X581183Y-568961D01*
X582517Y-569517D01*
X583183Y-570628D01*
G54D11*
X603250Y-568961D02*
X606583Y-577850D01*
X609917Y-568961D01*
G54D11*
X625475Y-577850D02*
X625475Y-568961D01*
G54D11*
X630586Y-573406D02*
X632586Y-574517D01*
X633252Y-575628D01*
X633252Y-577850D01*
G54D11*
X627919Y-577850D02*
X627919Y-568961D01*
X631252Y-568961D01*
X632586Y-569517D01*
X633252Y-570628D01*
X633252Y-571739D01*
X632586Y-572850D01*
X631252Y-573406D01*
X627919Y-573406D01*
G54D11*
X654050Y-576183D02*
X654717Y-577294D01*
X656050Y-577850D01*
X657383Y-577850D01*
X658717Y-577294D01*
X659383Y-576183D01*
X659383Y-575072D01*
X658717Y-573961D01*
X657383Y-573406D01*
X656050Y-573406D01*
X654717Y-572850D01*
X654050Y-571739D01*
X654050Y-570628D01*
X654717Y-569517D01*
X656050Y-568961D01*
X657383Y-568961D01*
X658717Y-569517D01*
X659383Y-570628D01*
G54D11*
X682625Y-568961D02*
X687958Y-568961D01*
X682625Y-577850D01*
X687958Y-577850D01*
G54D11*
X577850Y-397511D02*
X577850Y-406400D01*
X582517Y-406400D01*
G54D11*
X603250Y-406400D02*
X603250Y-397511D01*
G54D11*
X608361Y-401956D02*
X610361Y-403067D01*
X611027Y-404178D01*
X611027Y-406400D01*
G54D11*
X605694Y-406400D02*
X605694Y-397511D01*
X609027Y-397511D01*
X610361Y-398067D01*
X611027Y-399178D01*
X611027Y-400289D01*
X610361Y-401400D01*
X609027Y-401956D01*
X605694Y-401956D01*
G54D11*
X631317Y-401956D02*
X633983Y-401956D01*
X633983Y-404733D01*
X633317Y-405844D01*
X631983Y-406400D01*
X630650Y-406400D01*
X629317Y-405844D01*
X628650Y-404733D01*
X628650Y-399178D01*
X629317Y-398067D01*
X630650Y-397511D01*
X631983Y-397511D01*
X633317Y-398067D01*
X633983Y-399178D01*
G54D11*
X654050Y-404733D02*
X654717Y-405844D01*
X656050Y-406400D01*
X657383Y-406400D01*
X658717Y-405844D01*
X659383Y-404733D01*
X659383Y-403622D01*
X658717Y-402511D01*
X657383Y-401956D01*
X656050Y-401956D01*
X654717Y-401400D01*
X654050Y-400289D01*
X654050Y-399178D01*
X654717Y-398067D01*
X656050Y-397511D01*
X657383Y-397511D01*
X658717Y-398067D01*
X659383Y-399178D01*
G54D11*
X679450Y-397511D02*
X684783Y-397511D01*
X679450Y-406400D01*
X684783Y-406400D01*
G54D12*
X665250Y-412800D02*
X687250Y-412800D01*
X687250Y-450800D01*
X665250Y-450800D01*
X665250Y-412800D01*
G54D12*
X719225Y-412800D02*
X741225Y-412800D01*
X741225Y-450800D01*
X719225Y-450800D01*
X719225Y-412800D01*
G54D11*
X522208Y-493142D02*
X523319Y-493808D01*
X523875Y-495142D01*
X523875Y-496475D01*
X523319Y-497808D01*
X522208Y-498475D01*
X516653Y-498475D01*
X515542Y-497808D01*
X514986Y-496475D01*
X514986Y-495142D01*
X515542Y-493808D01*
X516653Y-493142D01*
G54D11*
X523875Y-490698D02*
X514986Y-490698D01*
G54D11*
X520319Y-490698D02*
X519208Y-490031D01*
X518875Y-488698D01*
X519208Y-487365D01*
X520319Y-486698D01*
X523875Y-486698D01*
G54D11*
X523875Y-484254D02*
X518875Y-484254D01*
G54D11*
X517208Y-484254D02*
X517208Y-484254D01*
G54D11*
X523875Y-481810D02*
X518875Y-481810D01*
G54D11*
X519764Y-481810D02*
X518875Y-480477D01*
X519208Y-479143D01*
X519986Y-478477D01*
X523875Y-478477D01*
G54D11*
X519764Y-478477D02*
X518875Y-477143D01*
X519208Y-475810D01*
X519986Y-475143D01*
X523875Y-475143D01*
G54D11*
X523319Y-468699D02*
X523875Y-469766D01*
X523875Y-471099D01*
X523319Y-472432D01*
X522208Y-472699D01*
X520319Y-472699D01*
X519208Y-472032D01*
X518875Y-470699D01*
X519208Y-469366D01*
X519986Y-468699D01*
X521097Y-468699D01*
X521097Y-472699D01*
G54D11*
X523875Y-466255D02*
X518875Y-466255D01*
G54D11*
X519986Y-466255D02*
X518875Y-464922D01*
X518875Y-463588D01*
G54D11*
X519431Y-461144D02*
X518875Y-459811D01*
X518875Y-458211D01*
X519986Y-457144D01*
X523875Y-457144D01*
G54D11*
X522208Y-457144D02*
X521097Y-457811D01*
X520875Y-459144D01*
X521097Y-460477D01*
X522208Y-461144D01*
X523319Y-460877D01*
X523875Y-459811D01*
X523875Y-459144D01*
X523875Y-458877D01*
X523319Y-457811D01*
X522208Y-457144D01*
G54D11*
X523875Y-452123D02*
X514986Y-452123D01*
X514986Y-448790D01*
X515542Y-447456D01*
X516653Y-446790D01*
X517764Y-446790D01*
X518875Y-447456D01*
X519431Y-448790D01*
X519431Y-452123D01*
G54D11*
X523875Y-444346D02*
X518875Y-444346D01*
G54D11*
X519986Y-444346D02*
X518875Y-443013D01*
X518875Y-441679D01*
G54D11*
X522542Y-435235D02*
X520319Y-435235D01*
X519208Y-435902D01*
X518875Y-437235D01*
X519208Y-438568D01*
X520319Y-439235D01*
X522542Y-439235D01*
X523653Y-438568D01*
X523875Y-437235D01*
X523653Y-435902D01*
X522542Y-435235D01*
G54D11*
X523875Y-432791D02*
X514986Y-432791D01*
G54D11*
X520319Y-432791D02*
X519208Y-432124D01*
X518875Y-430791D01*
X519208Y-429458D01*
X520319Y-428791D01*
X522542Y-428791D01*
X523653Y-429458D01*
X523875Y-430791D01*
X523653Y-432124D01*
X522542Y-432791D01*
G54D11*
X523319Y-422347D02*
X523875Y-423414D01*
X523875Y-424747D01*
X523319Y-426080D01*
X522208Y-426347D01*
X520319Y-426347D01*
X519208Y-425680D01*
X518875Y-424347D01*
X519208Y-423014D01*
X519986Y-422347D01*
X521097Y-422347D01*
X521097Y-426347D01*
G54D11*
X519431Y-381508D02*
X520542Y-379508D01*
X521653Y-378842D01*
X523875Y-378842D01*
G54D11*
X523875Y-384175D02*
X514986Y-384175D01*
X514986Y-380842D01*
X515542Y-379508D01*
X516653Y-378842D01*
X517764Y-378842D01*
X518875Y-379508D01*
X519431Y-380842D01*
X519431Y-384175D01*
G54D11*
X523319Y-372398D02*
X523875Y-373465D01*
X523875Y-374798D01*
X523319Y-376131D01*
X522208Y-376398D01*
X520319Y-376398D01*
X519208Y-375731D01*
X518875Y-374398D01*
X519208Y-373065D01*
X519986Y-372398D01*
X521097Y-372398D01*
X521097Y-376398D01*
G54D11*
X518875Y-369954D02*
X523875Y-367287D01*
X518875Y-364621D01*
G54D11*
X523875Y-362177D02*
X523875Y-362177D01*
G54D11*
X518319Y-359733D02*
X514986Y-356400D01*
X523875Y-356400D01*
G54D11*
X580517Y-459106D02*
X583183Y-459106D01*
X583183Y-461883D01*
X582517Y-462994D01*
X581183Y-463550D01*
X579850Y-463550D01*
X578517Y-462994D01*
X577850Y-461883D01*
X577850Y-456328D01*
X578517Y-455217D01*
X579850Y-454661D01*
X581183Y-454661D01*
X582517Y-455217D01*
X583183Y-456328D01*
G54D11*
X682117Y-459106D02*
X684783Y-459106D01*
X684783Y-461883D01*
X684117Y-462994D01*
X682783Y-463550D01*
X681450Y-463550D01*
X680117Y-462994D01*
X679450Y-461883D01*
X679450Y-456328D01*
X680117Y-455217D01*
X681450Y-454661D01*
X682783Y-454661D01*
X684117Y-455217D01*
X684783Y-456328D01*
G54D11*
X603250Y-454661D02*
X606583Y-463550D01*
X609917Y-454661D01*
G54D11*
X580517Y-675006D02*
X583183Y-675006D01*
X583183Y-677783D01*
X582517Y-678894D01*
X581183Y-679450D01*
X579850Y-679450D01*
X578517Y-678894D01*
X577850Y-677783D01*
X577850Y-672228D01*
X578517Y-671117D01*
X579850Y-670561D01*
X581183Y-670561D01*
X582517Y-671117D01*
X583183Y-672228D01*
G54D11*
X682117Y-675006D02*
X684783Y-675006D01*
X684783Y-677783D01*
X684117Y-678894D01*
X682783Y-679450D01*
X681450Y-679450D01*
X680117Y-678894D01*
X679450Y-677783D01*
X679450Y-672228D01*
X680117Y-671117D01*
X681450Y-670561D01*
X682783Y-670561D01*
X684117Y-671117D01*
X684783Y-672228D01*
G54D11*
X603250Y-670561D02*
X606583Y-679450D01*
X609917Y-670561D01*
M02*
