%FSLAX34Y34*%
%MOMM*%
%LNSMDMASK_TOP*%
G71*
G01*
%ADD10R, 1.300X1.600*%
%LPD*%
X126950Y981075D02*
G54D10*
D03*
X107950Y981075D02*
G54D10*
D03*
X126950Y917575D02*
G54D10*
D03*
X107950Y917575D02*
G54D10*
D03*
X266650Y981075D02*
G54D10*
D03*
X247650Y981075D02*
G54D10*
D03*
X266650Y917575D02*
G54D10*
D03*
X247650Y917575D02*
G54D10*
D03*
X406350Y981075D02*
G54D10*
D03*
X387350Y981075D02*
G54D10*
D03*
X406350Y917575D02*
G54D10*
D03*
X387350Y917575D02*
G54D10*
D03*
X546050Y981075D02*
G54D10*
D03*
X527050Y981075D02*
G54D10*
D03*
X546050Y917575D02*
G54D10*
D03*
X527050Y917575D02*
G54D10*
D03*
X685750Y981075D02*
G54D10*
D03*
X666750Y981075D02*
G54D10*
D03*
X685750Y917575D02*
G54D10*
D03*
X666750Y917575D02*
G54D10*
D03*
X825450Y981075D02*
G54D10*
D03*
X806450Y981075D02*
G54D10*
D03*
X825450Y917575D02*
G54D10*
D03*
X806450Y917575D02*
G54D10*
D03*
X126950Y892175D02*
G54D10*
D03*
X107950Y892175D02*
G54D10*
D03*
X126950Y828675D02*
G54D10*
D03*
X107950Y828675D02*
G54D10*
D03*
X266650Y892175D02*
G54D10*
D03*
X247650Y892175D02*
G54D10*
D03*
X266650Y828675D02*
G54D10*
D03*
X247650Y828675D02*
G54D10*
D03*
X406350Y892175D02*
G54D10*
D03*
X387350Y892175D02*
G54D10*
D03*
X406350Y828675D02*
G54D10*
D03*
X387350Y828675D02*
G54D10*
D03*
X546050Y892175D02*
G54D10*
D03*
X527050Y892175D02*
G54D10*
D03*
X546050Y828675D02*
G54D10*
D03*
X527050Y828675D02*
G54D10*
D03*
X685750Y892175D02*
G54D10*
D03*
X666750Y892175D02*
G54D10*
D03*
X685750Y828675D02*
G54D10*
D03*
X666750Y828675D02*
G54D10*
D03*
X825450Y892175D02*
G54D10*
D03*
X806450Y892175D02*
G54D10*
D03*
X825450Y828675D02*
G54D10*
D03*
X806450Y828675D02*
G54D10*
D03*
X126950Y803275D02*
G54D10*
D03*
X107950Y803275D02*
G54D10*
D03*
X126950Y739775D02*
G54D10*
D03*
X107950Y739775D02*
G54D10*
D03*
X266650Y803275D02*
G54D10*
D03*
X247650Y803275D02*
G54D10*
D03*
X266650Y739775D02*
G54D10*
D03*
X247650Y739775D02*
G54D10*
D03*
X406350Y803275D02*
G54D10*
D03*
X387350Y803275D02*
G54D10*
D03*
X406350Y739775D02*
G54D10*
D03*
X387350Y739775D02*
G54D10*
D03*
X546050Y803275D02*
G54D10*
D03*
X527050Y803275D02*
G54D10*
D03*
X546050Y739775D02*
G54D10*
D03*
X527050Y739775D02*
G54D10*
D03*
X685750Y803275D02*
G54D10*
D03*
X666750Y803275D02*
G54D10*
D03*
X685750Y739775D02*
G54D10*
D03*
X666750Y739775D02*
G54D10*
D03*
X825450Y803275D02*
G54D10*
D03*
X806450Y803275D02*
G54D10*
D03*
X825450Y739775D02*
G54D10*
D03*
X806450Y739775D02*
G54D10*
D03*
X126950Y714375D02*
G54D10*
D03*
X107950Y714375D02*
G54D10*
D03*
X126950Y650875D02*
G54D10*
D03*
X107950Y650875D02*
G54D10*
D03*
X266650Y714375D02*
G54D10*
D03*
X247650Y714375D02*
G54D10*
D03*
X266650Y650875D02*
G54D10*
D03*
X247650Y650875D02*
G54D10*
D03*
X406350Y714375D02*
G54D10*
D03*
X387350Y714375D02*
G54D10*
D03*
X406350Y650875D02*
G54D10*
D03*
X387350Y650875D02*
G54D10*
D03*
X546050Y714375D02*
G54D10*
D03*
X527050Y714375D02*
G54D10*
D03*
X546050Y650875D02*
G54D10*
D03*
X527050Y650875D02*
G54D10*
D03*
X685750Y714375D02*
G54D10*
D03*
X666750Y714375D02*
G54D10*
D03*
X685750Y650875D02*
G54D10*
D03*
X666750Y650875D02*
G54D10*
D03*
X825450Y714375D02*
G54D10*
D03*
X806450Y714375D02*
G54D10*
D03*
X825450Y650875D02*
G54D10*
D03*
X806450Y650875D02*
G54D10*
D03*
X126950Y625475D02*
G54D10*
D03*
X107950Y625475D02*
G54D10*
D03*
X126950Y561975D02*
G54D10*
D03*
X107950Y561975D02*
G54D10*
D03*
X266650Y625475D02*
G54D10*
D03*
X247650Y625475D02*
G54D10*
D03*
X266650Y561975D02*
G54D10*
D03*
X247650Y561975D02*
G54D10*
D03*
X406350Y625475D02*
G54D10*
D03*
X387350Y625475D02*
G54D10*
D03*
X406350Y561975D02*
G54D10*
D03*
X387350Y561975D02*
G54D10*
D03*
X546050Y625475D02*
G54D10*
D03*
X527050Y625475D02*
G54D10*
D03*
X546050Y561975D02*
G54D10*
D03*
X527050Y561975D02*
G54D10*
D03*
X685750Y625475D02*
G54D10*
D03*
X666750Y625475D02*
G54D10*
D03*
X685750Y561975D02*
G54D10*
D03*
X666750Y561975D02*
G54D10*
D03*
X825450Y625475D02*
G54D10*
D03*
X806450Y625475D02*
G54D10*
D03*
X825450Y561975D02*
G54D10*
D03*
X806450Y561975D02*
G54D10*
D03*
X126950Y536575D02*
G54D10*
D03*
X107950Y536575D02*
G54D10*
D03*
X126950Y473075D02*
G54D10*
D03*
X107950Y473075D02*
G54D10*
D03*
X266650Y536575D02*
G54D10*
D03*
X247650Y536575D02*
G54D10*
D03*
X266650Y473075D02*
G54D10*
D03*
X247650Y473075D02*
G54D10*
D03*
X406350Y536575D02*
G54D10*
D03*
X387350Y536575D02*
G54D10*
D03*
X406350Y473075D02*
G54D10*
D03*
X387350Y473075D02*
G54D10*
D03*
X546050Y536575D02*
G54D10*
D03*
X527050Y536575D02*
G54D10*
D03*
X546050Y473075D02*
G54D10*
D03*
X527050Y473075D02*
G54D10*
D03*
X685750Y536575D02*
G54D10*
D03*
X666750Y536575D02*
G54D10*
D03*
X685750Y473075D02*
G54D10*
D03*
X666750Y473075D02*
G54D10*
D03*
X825450Y536575D02*
G54D10*
D03*
X806450Y536575D02*
G54D10*
D03*
X825450Y473075D02*
G54D10*
D03*
X806450Y473075D02*
G54D10*
D03*
X126950Y447675D02*
G54D10*
D03*
X107950Y447675D02*
G54D10*
D03*
X126950Y384175D02*
G54D10*
D03*
X107950Y384175D02*
G54D10*
D03*
X266650Y447675D02*
G54D10*
D03*
X247650Y447675D02*
G54D10*
D03*
X266650Y384175D02*
G54D10*
D03*
X247650Y384175D02*
G54D10*
D03*
X406350Y447675D02*
G54D10*
D03*
X387350Y447675D02*
G54D10*
D03*
X406350Y384175D02*
G54D10*
D03*
X387350Y384175D02*
G54D10*
D03*
X546050Y447675D02*
G54D10*
D03*
X527050Y447675D02*
G54D10*
D03*
X546050Y384175D02*
G54D10*
D03*
X527050Y384175D02*
G54D10*
D03*
X685750Y447675D02*
G54D10*
D03*
X666750Y447675D02*
G54D10*
D03*
X685750Y384175D02*
G54D10*
D03*
X666750Y384175D02*
G54D10*
D03*
X825450Y447675D02*
G54D10*
D03*
X806450Y447675D02*
G54D10*
D03*
X825450Y384175D02*
G54D10*
D03*
X806450Y384175D02*
G54D10*
D03*
X126950Y358775D02*
G54D10*
D03*
X107950Y358775D02*
G54D10*
D03*
X126950Y295275D02*
G54D10*
D03*
X107950Y295275D02*
G54D10*
D03*
X266650Y358775D02*
G54D10*
D03*
X247650Y358775D02*
G54D10*
D03*
X266650Y295275D02*
G54D10*
D03*
X247650Y295275D02*
G54D10*
D03*
X406350Y358775D02*
G54D10*
D03*
X387350Y358775D02*
G54D10*
D03*
X406350Y295275D02*
G54D10*
D03*
X387350Y295275D02*
G54D10*
D03*
X546050Y358775D02*
G54D10*
D03*
X527050Y358775D02*
G54D10*
D03*
X546050Y295275D02*
G54D10*
D03*
X527050Y295275D02*
G54D10*
D03*
X685750Y358775D02*
G54D10*
D03*
X666750Y358775D02*
G54D10*
D03*
X685750Y295275D02*
G54D10*
D03*
X666750Y295275D02*
G54D10*
D03*
X825450Y358775D02*
G54D10*
D03*
X806450Y358775D02*
G54D10*
D03*
X825450Y295275D02*
G54D10*
D03*
X806450Y295275D02*
G54D10*
D03*
X126950Y269875D02*
G54D10*
D03*
X107950Y269875D02*
G54D10*
D03*
X126950Y206375D02*
G54D10*
D03*
X107950Y206375D02*
G54D10*
D03*
X266650Y269875D02*
G54D10*
D03*
X247650Y269875D02*
G54D10*
D03*
X266650Y206375D02*
G54D10*
D03*
X247650Y206375D02*
G54D10*
D03*
X406350Y269875D02*
G54D10*
D03*
X387350Y269875D02*
G54D10*
D03*
X406350Y206375D02*
G54D10*
D03*
X387350Y206375D02*
G54D10*
D03*
X546050Y269875D02*
G54D10*
D03*
X527050Y269875D02*
G54D10*
D03*
X546050Y206375D02*
G54D10*
D03*
X527050Y206375D02*
G54D10*
D03*
X685750Y269875D02*
G54D10*
D03*
X666750Y269875D02*
G54D10*
D03*
X685750Y206375D02*
G54D10*
D03*
X666750Y206375D02*
G54D10*
D03*
X825450Y269875D02*
G54D10*
D03*
X806450Y269875D02*
G54D10*
D03*
X825450Y206375D02*
G54D10*
D03*
X806450Y206375D02*
G54D10*
D03*
X126950Y180975D02*
G54D10*
D03*
X107950Y180975D02*
G54D10*
D03*
X126950Y117475D02*
G54D10*
D03*
X107950Y117475D02*
G54D10*
D03*
X266650Y180975D02*
G54D10*
D03*
X247650Y180975D02*
G54D10*
D03*
X266650Y117475D02*
G54D10*
D03*
X247650Y117475D02*
G54D10*
D03*
X406350Y180975D02*
G54D10*
D03*
X387350Y180975D02*
G54D10*
D03*
X406350Y117475D02*
G54D10*
D03*
X387350Y117475D02*
G54D10*
D03*
X546050Y180975D02*
G54D10*
D03*
X527050Y180975D02*
G54D10*
D03*
X546050Y117475D02*
G54D10*
D03*
X527050Y117475D02*
G54D10*
D03*
X685750Y180975D02*
G54D10*
D03*
X666750Y180975D02*
G54D10*
D03*
X685750Y117475D02*
G54D10*
D03*
X666750Y117475D02*
G54D10*
D03*
X825450Y180975D02*
G54D10*
D03*
X806450Y180975D02*
G54D10*
D03*
X825450Y117475D02*
G54D10*
D03*
X806450Y117475D02*
G54D10*
D03*
M02*
