%FSLAX34Y34*%
%MOMM*%
%LNCOPPER_TOP*%
G71*
G01*
%ADD10C, 1.400*%
%ADD11R, 1.300X1.600*%
%ADD12C, 0.250*%
%ADD13C, 2.000*%
%ADD14C, 6.000*%
%LPD*%
X114300Y962025D02*
G54D10*
D03*
X127000Y949325D02*
G54D10*
D03*
X114300Y936625D02*
G54D10*
D03*
X126950Y981075D02*
G54D11*
D03*
X107950Y981075D02*
G54D11*
D03*
X126950Y917575D02*
G54D11*
D03*
X107950Y917575D02*
G54D11*
D03*
G54D12*
X107950Y981075D02*
X107950Y968375D01*
X114300Y962025D01*
G54D12*
X126950Y981075D02*
X133350Y981075D01*
X139700Y974725D01*
X139700Y930325D01*
X126950Y917575D01*
G54D12*
X107950Y917575D02*
X107950Y930275D01*
X114300Y936625D01*
X22225Y949325D02*
G54D13*
D03*
X22225Y974725D02*
G54D13*
D03*
X22225Y923925D02*
G54D13*
D03*
X66675Y949325D02*
G54D14*
D03*
G54D12*
X15875Y949325D02*
X63500Y949325D01*
G54D12*
X63500Y949325D02*
X127000Y949325D01*
X254000Y962025D02*
G54D10*
D03*
X266700Y949325D02*
G54D10*
D03*
X254000Y936625D02*
G54D10*
D03*
X266650Y981075D02*
G54D11*
D03*
X247650Y981075D02*
G54D11*
D03*
X266650Y917575D02*
G54D11*
D03*
X247650Y917575D02*
G54D11*
D03*
G54D12*
X247650Y981075D02*
X247650Y968375D01*
X254000Y962025D01*
G54D12*
X266650Y981075D02*
X273050Y981075D01*
X279400Y974725D01*
X279400Y930325D01*
X266650Y917575D01*
G54D12*
X247650Y917575D02*
X247650Y930275D01*
X254000Y936625D01*
X161925Y949325D02*
G54D13*
D03*
X161925Y974725D02*
G54D13*
D03*
X161925Y923925D02*
G54D13*
D03*
X206375Y949325D02*
G54D14*
D03*
G54D12*
X155575Y949325D02*
X203200Y949325D01*
G54D12*
X203200Y949325D02*
X266700Y949325D01*
X393700Y962025D02*
G54D10*
D03*
X406400Y949325D02*
G54D10*
D03*
X393700Y936625D02*
G54D10*
D03*
X406350Y981075D02*
G54D11*
D03*
X387350Y981075D02*
G54D11*
D03*
X406350Y917575D02*
G54D11*
D03*
X387350Y917575D02*
G54D11*
D03*
G54D12*
X387350Y981075D02*
X387350Y968375D01*
X393700Y962025D01*
G54D12*
X406350Y981075D02*
X412750Y981075D01*
X419100Y974725D01*
X419100Y930325D01*
X406350Y917575D01*
G54D12*
X387350Y917575D02*
X387350Y930275D01*
X393700Y936625D01*
X301625Y949325D02*
G54D13*
D03*
X301625Y974725D02*
G54D13*
D03*
X301625Y923925D02*
G54D13*
D03*
X346075Y949325D02*
G54D14*
D03*
G54D12*
X295275Y949325D02*
X342900Y949325D01*
G54D12*
X342900Y949325D02*
X406400Y949325D01*
X533400Y962025D02*
G54D10*
D03*
X546100Y949325D02*
G54D10*
D03*
X533400Y936625D02*
G54D10*
D03*
X546050Y981075D02*
G54D11*
D03*
X527050Y981075D02*
G54D11*
D03*
X546050Y917575D02*
G54D11*
D03*
X527050Y917575D02*
G54D11*
D03*
G54D12*
X527050Y981075D02*
X527050Y968375D01*
X533400Y962025D01*
G54D12*
X546050Y981075D02*
X552450Y981075D01*
X558800Y974725D01*
X558800Y930325D01*
X546050Y917575D01*
G54D12*
X527050Y917575D02*
X527050Y930275D01*
X533400Y936625D01*
X441325Y949325D02*
G54D13*
D03*
X441325Y974725D02*
G54D13*
D03*
X441325Y923925D02*
G54D13*
D03*
X485775Y949325D02*
G54D14*
D03*
G54D12*
X434975Y949325D02*
X482600Y949325D01*
G54D12*
X482600Y949325D02*
X546100Y949325D01*
X673100Y962025D02*
G54D10*
D03*
X685800Y949325D02*
G54D10*
D03*
X673100Y936625D02*
G54D10*
D03*
X685750Y981075D02*
G54D11*
D03*
X666750Y981075D02*
G54D11*
D03*
X685750Y917575D02*
G54D11*
D03*
X666750Y917575D02*
G54D11*
D03*
G54D12*
X666750Y981075D02*
X666750Y968375D01*
X673100Y962025D01*
G54D12*
X685750Y981075D02*
X692150Y981075D01*
X698500Y974725D01*
X698500Y930325D01*
X685750Y917575D01*
G54D12*
X666750Y917575D02*
X666750Y930275D01*
X673100Y936625D01*
X581025Y949325D02*
G54D13*
D03*
X581025Y974725D02*
G54D13*
D03*
X581025Y923925D02*
G54D13*
D03*
X625475Y949325D02*
G54D14*
D03*
G54D12*
X574675Y949325D02*
X622300Y949325D01*
G54D12*
X622300Y949325D02*
X685800Y949325D01*
X812800Y962025D02*
G54D10*
D03*
X825500Y949325D02*
G54D10*
D03*
X812800Y936625D02*
G54D10*
D03*
X825450Y981075D02*
G54D11*
D03*
X806450Y981075D02*
G54D11*
D03*
X825450Y917575D02*
G54D11*
D03*
X806450Y917575D02*
G54D11*
D03*
G54D12*
X806450Y981075D02*
X806450Y968375D01*
X812800Y962025D01*
G54D12*
X825450Y981075D02*
X831850Y981075D01*
X838200Y974725D01*
X838200Y930325D01*
X825450Y917575D01*
G54D12*
X806450Y917575D02*
X806450Y930275D01*
X812800Y936625D01*
X720725Y949325D02*
G54D13*
D03*
X720725Y974725D02*
G54D13*
D03*
X720725Y923925D02*
G54D13*
D03*
X765175Y949325D02*
G54D14*
D03*
G54D12*
X714375Y949325D02*
X762000Y949325D01*
G54D12*
X762000Y949325D02*
X825500Y949325D01*
X114300Y873125D02*
G54D10*
D03*
X127000Y860425D02*
G54D10*
D03*
X114300Y847725D02*
G54D10*
D03*
X126950Y892175D02*
G54D11*
D03*
X107950Y892175D02*
G54D11*
D03*
X126950Y828675D02*
G54D11*
D03*
X107950Y828675D02*
G54D11*
D03*
G54D12*
X107950Y892175D02*
X107950Y879475D01*
X114300Y873125D01*
G54D12*
X126950Y892175D02*
X133350Y892175D01*
X139700Y885825D01*
X139700Y841425D01*
X126950Y828675D01*
G54D12*
X107950Y828675D02*
X107950Y841375D01*
X114300Y847725D01*
X22225Y860425D02*
G54D13*
D03*
X22225Y885825D02*
G54D13*
D03*
X22225Y835025D02*
G54D13*
D03*
X66675Y860425D02*
G54D14*
D03*
G54D12*
X15875Y860425D02*
X63500Y860425D01*
G54D12*
X63500Y860425D02*
X127000Y860425D01*
X254000Y873125D02*
G54D10*
D03*
X266700Y860425D02*
G54D10*
D03*
X254000Y847725D02*
G54D10*
D03*
X266650Y892175D02*
G54D11*
D03*
X247650Y892175D02*
G54D11*
D03*
X266650Y828675D02*
G54D11*
D03*
X247650Y828675D02*
G54D11*
D03*
G54D12*
X247650Y892175D02*
X247650Y879475D01*
X254000Y873125D01*
G54D12*
X266650Y892175D02*
X273050Y892175D01*
X279400Y885825D01*
X279400Y841425D01*
X266650Y828675D01*
G54D12*
X247650Y828675D02*
X247650Y841375D01*
X254000Y847725D01*
X161925Y860425D02*
G54D13*
D03*
X161925Y885825D02*
G54D13*
D03*
X161925Y835025D02*
G54D13*
D03*
X206375Y860425D02*
G54D14*
D03*
G54D12*
X155575Y860425D02*
X203200Y860425D01*
G54D12*
X203200Y860425D02*
X266700Y860425D01*
X393700Y873125D02*
G54D10*
D03*
X406400Y860425D02*
G54D10*
D03*
X393700Y847725D02*
G54D10*
D03*
X406350Y892175D02*
G54D11*
D03*
X387350Y892175D02*
G54D11*
D03*
X406350Y828675D02*
G54D11*
D03*
X387350Y828675D02*
G54D11*
D03*
G54D12*
X387350Y892175D02*
X387350Y879475D01*
X393700Y873125D01*
G54D12*
X406350Y892175D02*
X412750Y892175D01*
X419100Y885825D01*
X419100Y841425D01*
X406350Y828675D01*
G54D12*
X387350Y828675D02*
X387350Y841375D01*
X393700Y847725D01*
X301625Y860425D02*
G54D13*
D03*
X301625Y885825D02*
G54D13*
D03*
X301625Y835025D02*
G54D13*
D03*
X346075Y860425D02*
G54D14*
D03*
G54D12*
X295275Y860425D02*
X342900Y860425D01*
G54D12*
X342900Y860425D02*
X406400Y860425D01*
X533400Y873125D02*
G54D10*
D03*
X546100Y860425D02*
G54D10*
D03*
X533400Y847725D02*
G54D10*
D03*
X546050Y892175D02*
G54D11*
D03*
X527050Y892175D02*
G54D11*
D03*
X546050Y828675D02*
G54D11*
D03*
X527050Y828675D02*
G54D11*
D03*
G54D12*
X527050Y892175D02*
X527050Y879475D01*
X533400Y873125D01*
G54D12*
X546050Y892175D02*
X552450Y892175D01*
X558800Y885825D01*
X558800Y841425D01*
X546050Y828675D01*
G54D12*
X527050Y828675D02*
X527050Y841375D01*
X533400Y847725D01*
X441325Y860425D02*
G54D13*
D03*
X441325Y885825D02*
G54D13*
D03*
X441325Y835025D02*
G54D13*
D03*
X485775Y860425D02*
G54D14*
D03*
G54D12*
X434975Y860425D02*
X482600Y860425D01*
G54D12*
X482600Y860425D02*
X546100Y860425D01*
X673100Y873125D02*
G54D10*
D03*
X685800Y860425D02*
G54D10*
D03*
X673100Y847725D02*
G54D10*
D03*
X685750Y892175D02*
G54D11*
D03*
X666750Y892175D02*
G54D11*
D03*
X685750Y828675D02*
G54D11*
D03*
X666750Y828675D02*
G54D11*
D03*
G54D12*
X666750Y892175D02*
X666750Y879475D01*
X673100Y873125D01*
G54D12*
X685750Y892175D02*
X692150Y892175D01*
X698500Y885825D01*
X698500Y841425D01*
X685750Y828675D01*
G54D12*
X666750Y828675D02*
X666750Y841375D01*
X673100Y847725D01*
X581025Y860425D02*
G54D13*
D03*
X581025Y885825D02*
G54D13*
D03*
X581025Y835025D02*
G54D13*
D03*
X625475Y860425D02*
G54D14*
D03*
G54D12*
X574675Y860425D02*
X622300Y860425D01*
G54D12*
X622300Y860425D02*
X685800Y860425D01*
X812800Y873125D02*
G54D10*
D03*
X825500Y860425D02*
G54D10*
D03*
X812800Y847725D02*
G54D10*
D03*
X825450Y892175D02*
G54D11*
D03*
X806450Y892175D02*
G54D11*
D03*
X825450Y828675D02*
G54D11*
D03*
X806450Y828675D02*
G54D11*
D03*
G54D12*
X806450Y892175D02*
X806450Y879475D01*
X812800Y873125D01*
G54D12*
X825450Y892175D02*
X831850Y892175D01*
X838200Y885825D01*
X838200Y841425D01*
X825450Y828675D01*
G54D12*
X806450Y828675D02*
X806450Y841375D01*
X812800Y847725D01*
X720725Y860425D02*
G54D13*
D03*
X720725Y885825D02*
G54D13*
D03*
X720725Y835025D02*
G54D13*
D03*
X765175Y860425D02*
G54D14*
D03*
G54D12*
X714375Y860425D02*
X762000Y860425D01*
G54D12*
X762000Y860425D02*
X825500Y860425D01*
X114300Y784225D02*
G54D10*
D03*
X127000Y771525D02*
G54D10*
D03*
X114300Y758825D02*
G54D10*
D03*
X126950Y803275D02*
G54D11*
D03*
X107950Y803275D02*
G54D11*
D03*
X126950Y739775D02*
G54D11*
D03*
X107950Y739775D02*
G54D11*
D03*
G54D12*
X107950Y803275D02*
X107950Y790575D01*
X114300Y784225D01*
G54D12*
X126950Y803275D02*
X133350Y803275D01*
X139700Y796925D01*
X139700Y752525D01*
X126950Y739775D01*
G54D12*
X107950Y739775D02*
X107950Y752475D01*
X114300Y758825D01*
X22225Y771525D02*
G54D13*
D03*
X22225Y796925D02*
G54D13*
D03*
X22225Y746125D02*
G54D13*
D03*
X66675Y771525D02*
G54D14*
D03*
G54D12*
X15875Y771525D02*
X63500Y771525D01*
G54D12*
X63500Y771525D02*
X127000Y771525D01*
X254000Y784225D02*
G54D10*
D03*
X266700Y771525D02*
G54D10*
D03*
X254000Y758825D02*
G54D10*
D03*
X266650Y803275D02*
G54D11*
D03*
X247650Y803275D02*
G54D11*
D03*
X266650Y739775D02*
G54D11*
D03*
X247650Y739775D02*
G54D11*
D03*
G54D12*
X247650Y803275D02*
X247650Y790575D01*
X254000Y784225D01*
G54D12*
X266650Y803275D02*
X273050Y803275D01*
X279400Y796925D01*
X279400Y752525D01*
X266650Y739775D01*
G54D12*
X247650Y739775D02*
X247650Y752475D01*
X254000Y758825D01*
X161925Y771525D02*
G54D13*
D03*
X161925Y796925D02*
G54D13*
D03*
X161925Y746125D02*
G54D13*
D03*
X206375Y771525D02*
G54D14*
D03*
G54D12*
X155575Y771525D02*
X203200Y771525D01*
G54D12*
X203200Y771525D02*
X266700Y771525D01*
X393700Y784225D02*
G54D10*
D03*
X406400Y771525D02*
G54D10*
D03*
X393700Y758825D02*
G54D10*
D03*
X406350Y803275D02*
G54D11*
D03*
X387350Y803275D02*
G54D11*
D03*
X406350Y739775D02*
G54D11*
D03*
X387350Y739775D02*
G54D11*
D03*
G54D12*
X387350Y803275D02*
X387350Y790575D01*
X393700Y784225D01*
G54D12*
X406350Y803275D02*
X412750Y803275D01*
X419100Y796925D01*
X419100Y752525D01*
X406350Y739775D01*
G54D12*
X387350Y739775D02*
X387350Y752475D01*
X393700Y758825D01*
X301625Y771525D02*
G54D13*
D03*
X301625Y796925D02*
G54D13*
D03*
X301625Y746125D02*
G54D13*
D03*
X346075Y771525D02*
G54D14*
D03*
G54D12*
X295275Y771525D02*
X342900Y771525D01*
G54D12*
X342900Y771525D02*
X406400Y771525D01*
X533400Y784225D02*
G54D10*
D03*
X546100Y771525D02*
G54D10*
D03*
X533400Y758825D02*
G54D10*
D03*
X546050Y803275D02*
G54D11*
D03*
X527050Y803275D02*
G54D11*
D03*
X546050Y739775D02*
G54D11*
D03*
X527050Y739775D02*
G54D11*
D03*
G54D12*
X527050Y803275D02*
X527050Y790575D01*
X533400Y784225D01*
G54D12*
X546050Y803275D02*
X552450Y803275D01*
X558800Y796925D01*
X558800Y752525D01*
X546050Y739775D01*
G54D12*
X527050Y739775D02*
X527050Y752475D01*
X533400Y758825D01*
X441325Y771525D02*
G54D13*
D03*
X441325Y796925D02*
G54D13*
D03*
X441325Y746125D02*
G54D13*
D03*
X485775Y771525D02*
G54D14*
D03*
G54D12*
X434975Y771525D02*
X482600Y771525D01*
G54D12*
X482600Y771525D02*
X546100Y771525D01*
X673100Y784225D02*
G54D10*
D03*
X685800Y771525D02*
G54D10*
D03*
X673100Y758825D02*
G54D10*
D03*
X685750Y803275D02*
G54D11*
D03*
X666750Y803275D02*
G54D11*
D03*
X685750Y739775D02*
G54D11*
D03*
X666750Y739775D02*
G54D11*
D03*
G54D12*
X666750Y803275D02*
X666750Y790575D01*
X673100Y784225D01*
G54D12*
X685750Y803275D02*
X692150Y803275D01*
X698500Y796925D01*
X698500Y752525D01*
X685750Y739775D01*
G54D12*
X666750Y739775D02*
X666750Y752475D01*
X673100Y758825D01*
X581025Y771525D02*
G54D13*
D03*
X581025Y796925D02*
G54D13*
D03*
X581025Y746125D02*
G54D13*
D03*
X625475Y771525D02*
G54D14*
D03*
G54D12*
X574675Y771525D02*
X622300Y771525D01*
G54D12*
X622300Y771525D02*
X685800Y771525D01*
X812800Y784225D02*
G54D10*
D03*
X825500Y771525D02*
G54D10*
D03*
X812800Y758825D02*
G54D10*
D03*
X825450Y803275D02*
G54D11*
D03*
X806450Y803275D02*
G54D11*
D03*
X825450Y739775D02*
G54D11*
D03*
X806450Y739775D02*
G54D11*
D03*
G54D12*
X806450Y803275D02*
X806450Y790575D01*
X812800Y784225D01*
G54D12*
X825450Y803275D02*
X831850Y803275D01*
X838200Y796925D01*
X838200Y752525D01*
X825450Y739775D01*
G54D12*
X806450Y739775D02*
X806450Y752475D01*
X812800Y758825D01*
X720725Y771525D02*
G54D13*
D03*
X720725Y796925D02*
G54D13*
D03*
X720725Y746125D02*
G54D13*
D03*
X765175Y771525D02*
G54D14*
D03*
G54D12*
X714375Y771525D02*
X762000Y771525D01*
G54D12*
X762000Y771525D02*
X825500Y771525D01*
X114300Y695325D02*
G54D10*
D03*
X127000Y682625D02*
G54D10*
D03*
X114300Y669925D02*
G54D10*
D03*
X126950Y714375D02*
G54D11*
D03*
X107950Y714375D02*
G54D11*
D03*
X126950Y650875D02*
G54D11*
D03*
X107950Y650875D02*
G54D11*
D03*
G54D12*
X107950Y714375D02*
X107950Y701675D01*
X114300Y695325D01*
G54D12*
X126950Y714375D02*
X133350Y714375D01*
X139700Y708025D01*
X139700Y663625D01*
X126950Y650875D01*
G54D12*
X107950Y650875D02*
X107950Y663575D01*
X114300Y669925D01*
X22225Y682625D02*
G54D13*
D03*
X22225Y708025D02*
G54D13*
D03*
X22225Y657225D02*
G54D13*
D03*
X66675Y682625D02*
G54D14*
D03*
G54D12*
X15875Y682625D02*
X63500Y682625D01*
G54D12*
X63500Y682625D02*
X127000Y682625D01*
X254000Y695325D02*
G54D10*
D03*
X266700Y682625D02*
G54D10*
D03*
X254000Y669925D02*
G54D10*
D03*
X266650Y714375D02*
G54D11*
D03*
X247650Y714375D02*
G54D11*
D03*
X266650Y650875D02*
G54D11*
D03*
X247650Y650875D02*
G54D11*
D03*
G54D12*
X247650Y714375D02*
X247650Y701675D01*
X254000Y695325D01*
G54D12*
X266650Y714375D02*
X273050Y714375D01*
X279400Y708025D01*
X279400Y663625D01*
X266650Y650875D01*
G54D12*
X247650Y650875D02*
X247650Y663575D01*
X254000Y669925D01*
X161925Y682625D02*
G54D13*
D03*
X161925Y708025D02*
G54D13*
D03*
X161925Y657225D02*
G54D13*
D03*
X206375Y682625D02*
G54D14*
D03*
G54D12*
X155575Y682625D02*
X203200Y682625D01*
G54D12*
X203200Y682625D02*
X266700Y682625D01*
X393700Y695325D02*
G54D10*
D03*
X406400Y682625D02*
G54D10*
D03*
X393700Y669925D02*
G54D10*
D03*
X406350Y714375D02*
G54D11*
D03*
X387350Y714375D02*
G54D11*
D03*
X406350Y650875D02*
G54D11*
D03*
X387350Y650875D02*
G54D11*
D03*
G54D12*
X387350Y714375D02*
X387350Y701675D01*
X393700Y695325D01*
G54D12*
X406350Y714375D02*
X412750Y714375D01*
X419100Y708025D01*
X419100Y663625D01*
X406350Y650875D01*
G54D12*
X387350Y650875D02*
X387350Y663575D01*
X393700Y669925D01*
X301625Y682625D02*
G54D13*
D03*
X301625Y708025D02*
G54D13*
D03*
X301625Y657225D02*
G54D13*
D03*
X346075Y682625D02*
G54D14*
D03*
G54D12*
X295275Y682625D02*
X342900Y682625D01*
G54D12*
X342900Y682625D02*
X406400Y682625D01*
X533400Y695325D02*
G54D10*
D03*
X546100Y682625D02*
G54D10*
D03*
X533400Y669925D02*
G54D10*
D03*
X546050Y714375D02*
G54D11*
D03*
X527050Y714375D02*
G54D11*
D03*
X546050Y650875D02*
G54D11*
D03*
X527050Y650875D02*
G54D11*
D03*
G54D12*
X527050Y714375D02*
X527050Y701675D01*
X533400Y695325D01*
G54D12*
X546050Y714375D02*
X552450Y714375D01*
X558800Y708025D01*
X558800Y663625D01*
X546050Y650875D01*
G54D12*
X527050Y650875D02*
X527050Y663575D01*
X533400Y669925D01*
X441325Y682625D02*
G54D13*
D03*
X441325Y708025D02*
G54D13*
D03*
X441325Y657225D02*
G54D13*
D03*
X485775Y682625D02*
G54D14*
D03*
G54D12*
X434975Y682625D02*
X482600Y682625D01*
G54D12*
X482600Y682625D02*
X546100Y682625D01*
X673100Y695325D02*
G54D10*
D03*
X685800Y682625D02*
G54D10*
D03*
X673100Y669925D02*
G54D10*
D03*
X685750Y714375D02*
G54D11*
D03*
X666750Y714375D02*
G54D11*
D03*
X685750Y650875D02*
G54D11*
D03*
X666750Y650875D02*
G54D11*
D03*
G54D12*
X666750Y714375D02*
X666750Y701675D01*
X673100Y695325D01*
G54D12*
X685750Y714375D02*
X692150Y714375D01*
X698500Y708025D01*
X698500Y663625D01*
X685750Y650875D01*
G54D12*
X666750Y650875D02*
X666750Y663575D01*
X673100Y669925D01*
X581025Y682625D02*
G54D13*
D03*
X581025Y708025D02*
G54D13*
D03*
X581025Y657225D02*
G54D13*
D03*
X625475Y682625D02*
G54D14*
D03*
G54D12*
X574675Y682625D02*
X622300Y682625D01*
G54D12*
X622300Y682625D02*
X685800Y682625D01*
X812800Y695325D02*
G54D10*
D03*
X825500Y682625D02*
G54D10*
D03*
X812800Y669925D02*
G54D10*
D03*
X825450Y714375D02*
G54D11*
D03*
X806450Y714375D02*
G54D11*
D03*
X825450Y650875D02*
G54D11*
D03*
X806450Y650875D02*
G54D11*
D03*
G54D12*
X806450Y714375D02*
X806450Y701675D01*
X812800Y695325D01*
G54D12*
X825450Y714375D02*
X831850Y714375D01*
X838200Y708025D01*
X838200Y663625D01*
X825450Y650875D01*
G54D12*
X806450Y650875D02*
X806450Y663575D01*
X812800Y669925D01*
X720725Y682625D02*
G54D13*
D03*
X720725Y708025D02*
G54D13*
D03*
X720725Y657225D02*
G54D13*
D03*
X765175Y682625D02*
G54D14*
D03*
G54D12*
X714375Y682625D02*
X762000Y682625D01*
G54D12*
X762000Y682625D02*
X825500Y682625D01*
X114300Y606425D02*
G54D10*
D03*
X127000Y593725D02*
G54D10*
D03*
X114300Y581025D02*
G54D10*
D03*
X126950Y625475D02*
G54D11*
D03*
X107950Y625475D02*
G54D11*
D03*
X126950Y561975D02*
G54D11*
D03*
X107950Y561975D02*
G54D11*
D03*
G54D12*
X107950Y625475D02*
X107950Y612775D01*
X114300Y606425D01*
G54D12*
X126950Y625475D02*
X133350Y625475D01*
X139700Y619125D01*
X139700Y574725D01*
X126950Y561975D01*
G54D12*
X107950Y561975D02*
X107950Y574675D01*
X114300Y581025D01*
X22225Y593725D02*
G54D13*
D03*
X22225Y619125D02*
G54D13*
D03*
X22225Y568325D02*
G54D13*
D03*
X66675Y593725D02*
G54D14*
D03*
G54D12*
X15875Y593725D02*
X63500Y593725D01*
G54D12*
X63500Y593725D02*
X127000Y593725D01*
X254000Y606425D02*
G54D10*
D03*
X266700Y593725D02*
G54D10*
D03*
X254000Y581025D02*
G54D10*
D03*
X266650Y625475D02*
G54D11*
D03*
X247650Y625475D02*
G54D11*
D03*
X266650Y561975D02*
G54D11*
D03*
X247650Y561975D02*
G54D11*
D03*
G54D12*
X247650Y625475D02*
X247650Y612775D01*
X254000Y606425D01*
G54D12*
X266650Y625475D02*
X273050Y625475D01*
X279400Y619125D01*
X279400Y574725D01*
X266650Y561975D01*
G54D12*
X247650Y561975D02*
X247650Y574675D01*
X254000Y581025D01*
X161925Y593725D02*
G54D13*
D03*
X161925Y619125D02*
G54D13*
D03*
X161925Y568325D02*
G54D13*
D03*
X206375Y593725D02*
G54D14*
D03*
G54D12*
X155575Y593725D02*
X203200Y593725D01*
G54D12*
X203200Y593725D02*
X266700Y593725D01*
X393700Y606425D02*
G54D10*
D03*
X406400Y593725D02*
G54D10*
D03*
X393700Y581025D02*
G54D10*
D03*
X406350Y625475D02*
G54D11*
D03*
X387350Y625475D02*
G54D11*
D03*
X406350Y561975D02*
G54D11*
D03*
X387350Y561975D02*
G54D11*
D03*
G54D12*
X387350Y625475D02*
X387350Y612775D01*
X393700Y606425D01*
G54D12*
X406350Y625475D02*
X412750Y625475D01*
X419100Y619125D01*
X419100Y574725D01*
X406350Y561975D01*
G54D12*
X387350Y561975D02*
X387350Y574675D01*
X393700Y581025D01*
X301625Y593725D02*
G54D13*
D03*
X301625Y619125D02*
G54D13*
D03*
X301625Y568325D02*
G54D13*
D03*
X346075Y593725D02*
G54D14*
D03*
G54D12*
X295275Y593725D02*
X342900Y593725D01*
G54D12*
X342900Y593725D02*
X406400Y593725D01*
X533400Y606425D02*
G54D10*
D03*
X546100Y593725D02*
G54D10*
D03*
X533400Y581025D02*
G54D10*
D03*
X546050Y625475D02*
G54D11*
D03*
X527050Y625475D02*
G54D11*
D03*
X546050Y561975D02*
G54D11*
D03*
X527050Y561975D02*
G54D11*
D03*
G54D12*
X527050Y625475D02*
X527050Y612775D01*
X533400Y606425D01*
G54D12*
X546050Y625475D02*
X552450Y625475D01*
X558800Y619125D01*
X558800Y574725D01*
X546050Y561975D01*
G54D12*
X527050Y561975D02*
X527050Y574675D01*
X533400Y581025D01*
X441325Y593725D02*
G54D13*
D03*
X441325Y619125D02*
G54D13*
D03*
X441325Y568325D02*
G54D13*
D03*
X485775Y593725D02*
G54D14*
D03*
G54D12*
X434975Y593725D02*
X482600Y593725D01*
G54D12*
X482600Y593725D02*
X546100Y593725D01*
X673100Y606425D02*
G54D10*
D03*
X685800Y593725D02*
G54D10*
D03*
X673100Y581025D02*
G54D10*
D03*
X685750Y625475D02*
G54D11*
D03*
X666750Y625475D02*
G54D11*
D03*
X685750Y561975D02*
G54D11*
D03*
X666750Y561975D02*
G54D11*
D03*
G54D12*
X666750Y625475D02*
X666750Y612775D01*
X673100Y606425D01*
G54D12*
X685750Y625475D02*
X692150Y625475D01*
X698500Y619125D01*
X698500Y574725D01*
X685750Y561975D01*
G54D12*
X666750Y561975D02*
X666750Y574675D01*
X673100Y581025D01*
X581025Y593725D02*
G54D13*
D03*
X581025Y619125D02*
G54D13*
D03*
X581025Y568325D02*
G54D13*
D03*
X625475Y593725D02*
G54D14*
D03*
G54D12*
X574675Y593725D02*
X622300Y593725D01*
G54D12*
X622300Y593725D02*
X685800Y593725D01*
X812800Y606425D02*
G54D10*
D03*
X825500Y593725D02*
G54D10*
D03*
X812800Y581025D02*
G54D10*
D03*
X825450Y625475D02*
G54D11*
D03*
X806450Y625475D02*
G54D11*
D03*
X825450Y561975D02*
G54D11*
D03*
X806450Y561975D02*
G54D11*
D03*
G54D12*
X806450Y625475D02*
X806450Y612775D01*
X812800Y606425D01*
G54D12*
X825450Y625475D02*
X831850Y625475D01*
X838200Y619125D01*
X838200Y574725D01*
X825450Y561975D01*
G54D12*
X806450Y561975D02*
X806450Y574675D01*
X812800Y581025D01*
X720725Y593725D02*
G54D13*
D03*
X720725Y619125D02*
G54D13*
D03*
X720725Y568325D02*
G54D13*
D03*
X765175Y593725D02*
G54D14*
D03*
G54D12*
X714375Y593725D02*
X762000Y593725D01*
G54D12*
X762000Y593725D02*
X825500Y593725D01*
X114300Y517525D02*
G54D10*
D03*
X127000Y504825D02*
G54D10*
D03*
X114300Y492125D02*
G54D10*
D03*
X126950Y536575D02*
G54D11*
D03*
X107950Y536575D02*
G54D11*
D03*
X126950Y473075D02*
G54D11*
D03*
X107950Y473075D02*
G54D11*
D03*
G54D12*
X107950Y536575D02*
X107950Y523875D01*
X114300Y517525D01*
G54D12*
X126950Y536575D02*
X133350Y536575D01*
X139700Y530225D01*
X139700Y485825D01*
X126950Y473075D01*
G54D12*
X107950Y473075D02*
X107950Y485775D01*
X114300Y492125D01*
X22225Y504825D02*
G54D13*
D03*
X22225Y530225D02*
G54D13*
D03*
X22225Y479425D02*
G54D13*
D03*
X66675Y504825D02*
G54D14*
D03*
G54D12*
X15875Y504825D02*
X63500Y504825D01*
G54D12*
X63500Y504825D02*
X127000Y504825D01*
X254000Y517525D02*
G54D10*
D03*
X266700Y504825D02*
G54D10*
D03*
X254000Y492125D02*
G54D10*
D03*
X266650Y536575D02*
G54D11*
D03*
X247650Y536575D02*
G54D11*
D03*
X266650Y473075D02*
G54D11*
D03*
X247650Y473075D02*
G54D11*
D03*
G54D12*
X247650Y536575D02*
X247650Y523875D01*
X254000Y517525D01*
G54D12*
X266650Y536575D02*
X273050Y536575D01*
X279400Y530225D01*
X279400Y485825D01*
X266650Y473075D01*
G54D12*
X247650Y473075D02*
X247650Y485775D01*
X254000Y492125D01*
X161925Y504825D02*
G54D13*
D03*
X161925Y530225D02*
G54D13*
D03*
X161925Y479425D02*
G54D13*
D03*
X206375Y504825D02*
G54D14*
D03*
G54D12*
X155575Y504825D02*
X203200Y504825D01*
G54D12*
X203200Y504825D02*
X266700Y504825D01*
X393700Y517525D02*
G54D10*
D03*
X406400Y504825D02*
G54D10*
D03*
X393700Y492125D02*
G54D10*
D03*
X406350Y536575D02*
G54D11*
D03*
X387350Y536575D02*
G54D11*
D03*
X406350Y473075D02*
G54D11*
D03*
X387350Y473075D02*
G54D11*
D03*
G54D12*
X387350Y536575D02*
X387350Y523875D01*
X393700Y517525D01*
G54D12*
X406350Y536575D02*
X412750Y536575D01*
X419100Y530225D01*
X419100Y485825D01*
X406350Y473075D01*
G54D12*
X387350Y473075D02*
X387350Y485775D01*
X393700Y492125D01*
X301625Y504825D02*
G54D13*
D03*
X301625Y530225D02*
G54D13*
D03*
X301625Y479425D02*
G54D13*
D03*
X346075Y504825D02*
G54D14*
D03*
G54D12*
X295275Y504825D02*
X342900Y504825D01*
G54D12*
X342900Y504825D02*
X406400Y504825D01*
X533400Y517525D02*
G54D10*
D03*
X546100Y504825D02*
G54D10*
D03*
X533400Y492125D02*
G54D10*
D03*
X546050Y536575D02*
G54D11*
D03*
X527050Y536575D02*
G54D11*
D03*
X546050Y473075D02*
G54D11*
D03*
X527050Y473075D02*
G54D11*
D03*
G54D12*
X527050Y536575D02*
X527050Y523875D01*
X533400Y517525D01*
G54D12*
X546050Y536575D02*
X552450Y536575D01*
X558800Y530225D01*
X558800Y485825D01*
X546050Y473075D01*
G54D12*
X527050Y473075D02*
X527050Y485775D01*
X533400Y492125D01*
X441325Y504825D02*
G54D13*
D03*
X441325Y530225D02*
G54D13*
D03*
X441325Y479425D02*
G54D13*
D03*
X485775Y504825D02*
G54D14*
D03*
G54D12*
X434975Y504825D02*
X482600Y504825D01*
G54D12*
X482600Y504825D02*
X546100Y504825D01*
X673100Y517525D02*
G54D10*
D03*
X685800Y504825D02*
G54D10*
D03*
X673100Y492125D02*
G54D10*
D03*
X685750Y536575D02*
G54D11*
D03*
X666750Y536575D02*
G54D11*
D03*
X685750Y473075D02*
G54D11*
D03*
X666750Y473075D02*
G54D11*
D03*
G54D12*
X666750Y536575D02*
X666750Y523875D01*
X673100Y517525D01*
G54D12*
X685750Y536575D02*
X692150Y536575D01*
X698500Y530225D01*
X698500Y485825D01*
X685750Y473075D01*
G54D12*
X666750Y473075D02*
X666750Y485775D01*
X673100Y492125D01*
X581025Y504825D02*
G54D13*
D03*
X581025Y530225D02*
G54D13*
D03*
X581025Y479425D02*
G54D13*
D03*
X625475Y504825D02*
G54D14*
D03*
G54D12*
X574675Y504825D02*
X622300Y504825D01*
G54D12*
X622300Y504825D02*
X685800Y504825D01*
X812800Y517525D02*
G54D10*
D03*
X825500Y504825D02*
G54D10*
D03*
X812800Y492125D02*
G54D10*
D03*
X825450Y536575D02*
G54D11*
D03*
X806450Y536575D02*
G54D11*
D03*
X825450Y473075D02*
G54D11*
D03*
X806450Y473075D02*
G54D11*
D03*
G54D12*
X806450Y536575D02*
X806450Y523875D01*
X812800Y517525D01*
G54D12*
X825450Y536575D02*
X831850Y536575D01*
X838200Y530225D01*
X838200Y485825D01*
X825450Y473075D01*
G54D12*
X806450Y473075D02*
X806450Y485775D01*
X812800Y492125D01*
X720725Y504825D02*
G54D13*
D03*
X720725Y530225D02*
G54D13*
D03*
X720725Y479425D02*
G54D13*
D03*
X765175Y504825D02*
G54D14*
D03*
G54D12*
X714375Y504825D02*
X762000Y504825D01*
G54D12*
X762000Y504825D02*
X825500Y504825D01*
X114300Y428625D02*
G54D10*
D03*
X127000Y415925D02*
G54D10*
D03*
X114300Y403225D02*
G54D10*
D03*
X126950Y447675D02*
G54D11*
D03*
X107950Y447675D02*
G54D11*
D03*
X126950Y384175D02*
G54D11*
D03*
X107950Y384175D02*
G54D11*
D03*
G54D12*
X107950Y447675D02*
X107950Y434975D01*
X114300Y428625D01*
G54D12*
X126950Y447675D02*
X133350Y447675D01*
X139700Y441325D01*
X139700Y396925D01*
X126950Y384175D01*
G54D12*
X107950Y384175D02*
X107950Y396875D01*
X114300Y403225D01*
X22225Y415925D02*
G54D13*
D03*
X22225Y441325D02*
G54D13*
D03*
X22225Y390525D02*
G54D13*
D03*
X66675Y415925D02*
G54D14*
D03*
G54D12*
X15875Y415925D02*
X63500Y415925D01*
G54D12*
X63500Y415925D02*
X127000Y415925D01*
X254000Y428625D02*
G54D10*
D03*
X266700Y415925D02*
G54D10*
D03*
X254000Y403225D02*
G54D10*
D03*
X266650Y447675D02*
G54D11*
D03*
X247650Y447675D02*
G54D11*
D03*
X266650Y384175D02*
G54D11*
D03*
X247650Y384175D02*
G54D11*
D03*
G54D12*
X247650Y447675D02*
X247650Y434975D01*
X254000Y428625D01*
G54D12*
X266650Y447675D02*
X273050Y447675D01*
X279400Y441325D01*
X279400Y396925D01*
X266650Y384175D01*
G54D12*
X247650Y384175D02*
X247650Y396875D01*
X254000Y403225D01*
X161925Y415925D02*
G54D13*
D03*
X161925Y441325D02*
G54D13*
D03*
X161925Y390525D02*
G54D13*
D03*
X206375Y415925D02*
G54D14*
D03*
G54D12*
X155575Y415925D02*
X203200Y415925D01*
G54D12*
X203200Y415925D02*
X266700Y415925D01*
X393700Y428625D02*
G54D10*
D03*
X406400Y415925D02*
G54D10*
D03*
X393700Y403225D02*
G54D10*
D03*
X406350Y447675D02*
G54D11*
D03*
X387350Y447675D02*
G54D11*
D03*
X406350Y384175D02*
G54D11*
D03*
X387350Y384175D02*
G54D11*
D03*
G54D12*
X387350Y447675D02*
X387350Y434975D01*
X393700Y428625D01*
G54D12*
X406350Y447675D02*
X412750Y447675D01*
X419100Y441325D01*
X419100Y396925D01*
X406350Y384175D01*
G54D12*
X387350Y384175D02*
X387350Y396875D01*
X393700Y403225D01*
X301625Y415925D02*
G54D13*
D03*
X301625Y441325D02*
G54D13*
D03*
X301625Y390525D02*
G54D13*
D03*
X346075Y415925D02*
G54D14*
D03*
G54D12*
X295275Y415925D02*
X342900Y415925D01*
G54D12*
X342900Y415925D02*
X406400Y415925D01*
X533400Y428625D02*
G54D10*
D03*
X546100Y415925D02*
G54D10*
D03*
X533400Y403225D02*
G54D10*
D03*
X546050Y447675D02*
G54D11*
D03*
X527050Y447675D02*
G54D11*
D03*
X546050Y384175D02*
G54D11*
D03*
X527050Y384175D02*
G54D11*
D03*
G54D12*
X527050Y447675D02*
X527050Y434975D01*
X533400Y428625D01*
G54D12*
X546050Y447675D02*
X552450Y447675D01*
X558800Y441325D01*
X558800Y396925D01*
X546050Y384175D01*
G54D12*
X527050Y384175D02*
X527050Y396875D01*
X533400Y403225D01*
X441325Y415925D02*
G54D13*
D03*
X441325Y441325D02*
G54D13*
D03*
X441325Y390525D02*
G54D13*
D03*
X485775Y415925D02*
G54D14*
D03*
G54D12*
X434975Y415925D02*
X482600Y415925D01*
G54D12*
X482600Y415925D02*
X546100Y415925D01*
X673100Y428625D02*
G54D10*
D03*
X685800Y415925D02*
G54D10*
D03*
X673100Y403225D02*
G54D10*
D03*
X685750Y447675D02*
G54D11*
D03*
X666750Y447675D02*
G54D11*
D03*
X685750Y384175D02*
G54D11*
D03*
X666750Y384175D02*
G54D11*
D03*
G54D12*
X666750Y447675D02*
X666750Y434975D01*
X673100Y428625D01*
G54D12*
X685750Y447675D02*
X692150Y447675D01*
X698500Y441325D01*
X698500Y396925D01*
X685750Y384175D01*
G54D12*
X666750Y384175D02*
X666750Y396875D01*
X673100Y403225D01*
X581025Y415925D02*
G54D13*
D03*
X581025Y441325D02*
G54D13*
D03*
X581025Y390525D02*
G54D13*
D03*
X625475Y415925D02*
G54D14*
D03*
G54D12*
X574675Y415925D02*
X622300Y415925D01*
G54D12*
X622300Y415925D02*
X685800Y415925D01*
X812800Y428625D02*
G54D10*
D03*
X825500Y415925D02*
G54D10*
D03*
X812800Y403225D02*
G54D10*
D03*
X825450Y447675D02*
G54D11*
D03*
X806450Y447675D02*
G54D11*
D03*
X825450Y384175D02*
G54D11*
D03*
X806450Y384175D02*
G54D11*
D03*
G54D12*
X806450Y447675D02*
X806450Y434975D01*
X812800Y428625D01*
G54D12*
X825450Y447675D02*
X831850Y447675D01*
X838200Y441325D01*
X838200Y396925D01*
X825450Y384175D01*
G54D12*
X806450Y384175D02*
X806450Y396875D01*
X812800Y403225D01*
X720725Y415925D02*
G54D13*
D03*
X720725Y441325D02*
G54D13*
D03*
X720725Y390525D02*
G54D13*
D03*
X765175Y415925D02*
G54D14*
D03*
G54D12*
X714375Y415925D02*
X762000Y415925D01*
G54D12*
X762000Y415925D02*
X825500Y415925D01*
X114300Y339725D02*
G54D10*
D03*
X127000Y327025D02*
G54D10*
D03*
X114300Y314325D02*
G54D10*
D03*
X126950Y358775D02*
G54D11*
D03*
X107950Y358775D02*
G54D11*
D03*
X126950Y295275D02*
G54D11*
D03*
X107950Y295275D02*
G54D11*
D03*
G54D12*
X107950Y358775D02*
X107950Y346075D01*
X114300Y339725D01*
G54D12*
X126950Y358775D02*
X133350Y358775D01*
X139700Y352425D01*
X139700Y308025D01*
X126950Y295275D01*
G54D12*
X107950Y295275D02*
X107950Y307975D01*
X114300Y314325D01*
X22225Y327025D02*
G54D13*
D03*
X22225Y352425D02*
G54D13*
D03*
X22225Y301625D02*
G54D13*
D03*
X66675Y327025D02*
G54D14*
D03*
G54D12*
X15875Y327025D02*
X63500Y327025D01*
G54D12*
X63500Y327025D02*
X127000Y327025D01*
X254000Y339725D02*
G54D10*
D03*
X266700Y327025D02*
G54D10*
D03*
X254000Y314325D02*
G54D10*
D03*
X266650Y358775D02*
G54D11*
D03*
X247650Y358775D02*
G54D11*
D03*
X266650Y295275D02*
G54D11*
D03*
X247650Y295275D02*
G54D11*
D03*
G54D12*
X247650Y358775D02*
X247650Y346075D01*
X254000Y339725D01*
G54D12*
X266650Y358775D02*
X273050Y358775D01*
X279400Y352425D01*
X279400Y308025D01*
X266650Y295275D01*
G54D12*
X247650Y295275D02*
X247650Y307975D01*
X254000Y314325D01*
X161925Y327025D02*
G54D13*
D03*
X161925Y352425D02*
G54D13*
D03*
X161925Y301625D02*
G54D13*
D03*
X206375Y327025D02*
G54D14*
D03*
G54D12*
X155575Y327025D02*
X203200Y327025D01*
G54D12*
X203200Y327025D02*
X266700Y327025D01*
X393700Y339725D02*
G54D10*
D03*
X406400Y327025D02*
G54D10*
D03*
X393700Y314325D02*
G54D10*
D03*
X406350Y358775D02*
G54D11*
D03*
X387350Y358775D02*
G54D11*
D03*
X406350Y295275D02*
G54D11*
D03*
X387350Y295275D02*
G54D11*
D03*
G54D12*
X387350Y358775D02*
X387350Y346075D01*
X393700Y339725D01*
G54D12*
X406350Y358775D02*
X412750Y358775D01*
X419100Y352425D01*
X419100Y308025D01*
X406350Y295275D01*
G54D12*
X387350Y295275D02*
X387350Y307975D01*
X393700Y314325D01*
X301625Y327025D02*
G54D13*
D03*
X301625Y352425D02*
G54D13*
D03*
X301625Y301625D02*
G54D13*
D03*
X346075Y327025D02*
G54D14*
D03*
G54D12*
X295275Y327025D02*
X342900Y327025D01*
G54D12*
X342900Y327025D02*
X406400Y327025D01*
X533400Y339725D02*
G54D10*
D03*
X546100Y327025D02*
G54D10*
D03*
X533400Y314325D02*
G54D10*
D03*
X546050Y358775D02*
G54D11*
D03*
X527050Y358775D02*
G54D11*
D03*
X546050Y295275D02*
G54D11*
D03*
X527050Y295275D02*
G54D11*
D03*
G54D12*
X527050Y358775D02*
X527050Y346075D01*
X533400Y339725D01*
G54D12*
X546050Y358775D02*
X552450Y358775D01*
X558800Y352425D01*
X558800Y308025D01*
X546050Y295275D01*
G54D12*
X527050Y295275D02*
X527050Y307975D01*
X533400Y314325D01*
X441325Y327025D02*
G54D13*
D03*
X441325Y352425D02*
G54D13*
D03*
X441325Y301625D02*
G54D13*
D03*
X485775Y327025D02*
G54D14*
D03*
G54D12*
X434975Y327025D02*
X482600Y327025D01*
G54D12*
X482600Y327025D02*
X546100Y327025D01*
X673100Y339725D02*
G54D10*
D03*
X685800Y327025D02*
G54D10*
D03*
X673100Y314325D02*
G54D10*
D03*
X685750Y358775D02*
G54D11*
D03*
X666750Y358775D02*
G54D11*
D03*
X685750Y295275D02*
G54D11*
D03*
X666750Y295275D02*
G54D11*
D03*
G54D12*
X666750Y358775D02*
X666750Y346075D01*
X673100Y339725D01*
G54D12*
X685750Y358775D02*
X692150Y358775D01*
X698500Y352425D01*
X698500Y308025D01*
X685750Y295275D01*
G54D12*
X666750Y295275D02*
X666750Y307975D01*
X673100Y314325D01*
X581025Y327025D02*
G54D13*
D03*
X581025Y352425D02*
G54D13*
D03*
X581025Y301625D02*
G54D13*
D03*
X625475Y327025D02*
G54D14*
D03*
G54D12*
X574675Y327025D02*
X622300Y327025D01*
G54D12*
X622300Y327025D02*
X685800Y327025D01*
X812800Y339725D02*
G54D10*
D03*
X825500Y327025D02*
G54D10*
D03*
X812800Y314325D02*
G54D10*
D03*
X825450Y358775D02*
G54D11*
D03*
X806450Y358775D02*
G54D11*
D03*
X825450Y295275D02*
G54D11*
D03*
X806450Y295275D02*
G54D11*
D03*
G54D12*
X806450Y358775D02*
X806450Y346075D01*
X812800Y339725D01*
G54D12*
X825450Y358775D02*
X831850Y358775D01*
X838200Y352425D01*
X838200Y308025D01*
X825450Y295275D01*
G54D12*
X806450Y295275D02*
X806450Y307975D01*
X812800Y314325D01*
X720725Y327025D02*
G54D13*
D03*
X720725Y352425D02*
G54D13*
D03*
X720725Y301625D02*
G54D13*
D03*
X765175Y327025D02*
G54D14*
D03*
G54D12*
X714375Y327025D02*
X762000Y327025D01*
G54D12*
X762000Y327025D02*
X825500Y327025D01*
X114300Y250825D02*
G54D10*
D03*
X127000Y238125D02*
G54D10*
D03*
X114300Y225425D02*
G54D10*
D03*
X126950Y269875D02*
G54D11*
D03*
X107950Y269875D02*
G54D11*
D03*
X126950Y206375D02*
G54D11*
D03*
X107950Y206375D02*
G54D11*
D03*
G54D12*
X107950Y269875D02*
X107950Y257175D01*
X114300Y250825D01*
G54D12*
X126950Y269875D02*
X133350Y269875D01*
X139700Y263525D01*
X139700Y219125D01*
X126950Y206375D01*
G54D12*
X107950Y206375D02*
X107950Y219075D01*
X114300Y225425D01*
X22225Y238125D02*
G54D13*
D03*
X22225Y263525D02*
G54D13*
D03*
X22225Y212725D02*
G54D13*
D03*
X66675Y238125D02*
G54D14*
D03*
G54D12*
X15875Y238125D02*
X63500Y238125D01*
G54D12*
X63500Y238125D02*
X127000Y238125D01*
X254000Y250825D02*
G54D10*
D03*
X266700Y238125D02*
G54D10*
D03*
X254000Y225425D02*
G54D10*
D03*
X266650Y269875D02*
G54D11*
D03*
X247650Y269875D02*
G54D11*
D03*
X266650Y206375D02*
G54D11*
D03*
X247650Y206375D02*
G54D11*
D03*
G54D12*
X247650Y269875D02*
X247650Y257175D01*
X254000Y250825D01*
G54D12*
X266650Y269875D02*
X273050Y269875D01*
X279400Y263525D01*
X279400Y219125D01*
X266650Y206375D01*
G54D12*
X247650Y206375D02*
X247650Y219075D01*
X254000Y225425D01*
X161925Y238125D02*
G54D13*
D03*
X161925Y263525D02*
G54D13*
D03*
X161925Y212725D02*
G54D13*
D03*
X206375Y238125D02*
G54D14*
D03*
G54D12*
X155575Y238125D02*
X203200Y238125D01*
G54D12*
X203200Y238125D02*
X266700Y238125D01*
X393700Y250825D02*
G54D10*
D03*
X406400Y238125D02*
G54D10*
D03*
X393700Y225425D02*
G54D10*
D03*
X406350Y269875D02*
G54D11*
D03*
X387350Y269875D02*
G54D11*
D03*
X406350Y206375D02*
G54D11*
D03*
X387350Y206375D02*
G54D11*
D03*
G54D12*
X387350Y269875D02*
X387350Y257175D01*
X393700Y250825D01*
G54D12*
X406350Y269875D02*
X412750Y269875D01*
X419100Y263525D01*
X419100Y219125D01*
X406350Y206375D01*
G54D12*
X387350Y206375D02*
X387350Y219075D01*
X393700Y225425D01*
X301625Y238125D02*
G54D13*
D03*
X301625Y263525D02*
G54D13*
D03*
X301625Y212725D02*
G54D13*
D03*
X346075Y238125D02*
G54D14*
D03*
G54D12*
X295275Y238125D02*
X342900Y238125D01*
G54D12*
X342900Y238125D02*
X406400Y238125D01*
X533400Y250825D02*
G54D10*
D03*
X546100Y238125D02*
G54D10*
D03*
X533400Y225425D02*
G54D10*
D03*
X546050Y269875D02*
G54D11*
D03*
X527050Y269875D02*
G54D11*
D03*
X546050Y206375D02*
G54D11*
D03*
X527050Y206375D02*
G54D11*
D03*
G54D12*
X527050Y269875D02*
X527050Y257175D01*
X533400Y250825D01*
G54D12*
X546050Y269875D02*
X552450Y269875D01*
X558800Y263525D01*
X558800Y219125D01*
X546050Y206375D01*
G54D12*
X527050Y206375D02*
X527050Y219075D01*
X533400Y225425D01*
X441325Y238125D02*
G54D13*
D03*
X441325Y263525D02*
G54D13*
D03*
X441325Y212725D02*
G54D13*
D03*
X485775Y238125D02*
G54D14*
D03*
G54D12*
X434975Y238125D02*
X482600Y238125D01*
G54D12*
X482600Y238125D02*
X546100Y238125D01*
X673100Y250825D02*
G54D10*
D03*
X685800Y238125D02*
G54D10*
D03*
X673100Y225425D02*
G54D10*
D03*
X685750Y269875D02*
G54D11*
D03*
X666750Y269875D02*
G54D11*
D03*
X685750Y206375D02*
G54D11*
D03*
X666750Y206375D02*
G54D11*
D03*
G54D12*
X666750Y269875D02*
X666750Y257175D01*
X673100Y250825D01*
G54D12*
X685750Y269875D02*
X692150Y269875D01*
X698500Y263525D01*
X698500Y219125D01*
X685750Y206375D01*
G54D12*
X666750Y206375D02*
X666750Y219075D01*
X673100Y225425D01*
X581025Y238125D02*
G54D13*
D03*
X581025Y263525D02*
G54D13*
D03*
X581025Y212725D02*
G54D13*
D03*
X625475Y238125D02*
G54D14*
D03*
G54D12*
X574675Y238125D02*
X622300Y238125D01*
G54D12*
X622300Y238125D02*
X685800Y238125D01*
X812800Y250825D02*
G54D10*
D03*
X825500Y238125D02*
G54D10*
D03*
X812800Y225425D02*
G54D10*
D03*
X825450Y269875D02*
G54D11*
D03*
X806450Y269875D02*
G54D11*
D03*
X825450Y206375D02*
G54D11*
D03*
X806450Y206375D02*
G54D11*
D03*
G54D12*
X806450Y269875D02*
X806450Y257175D01*
X812800Y250825D01*
G54D12*
X825450Y269875D02*
X831850Y269875D01*
X838200Y263525D01*
X838200Y219125D01*
X825450Y206375D01*
G54D12*
X806450Y206375D02*
X806450Y219075D01*
X812800Y225425D01*
X720725Y238125D02*
G54D13*
D03*
X720725Y263525D02*
G54D13*
D03*
X720725Y212725D02*
G54D13*
D03*
X765175Y238125D02*
G54D14*
D03*
G54D12*
X714375Y238125D02*
X762000Y238125D01*
G54D12*
X762000Y238125D02*
X825500Y238125D01*
X114300Y161925D02*
G54D10*
D03*
X127000Y149225D02*
G54D10*
D03*
X114300Y136525D02*
G54D10*
D03*
X126950Y180975D02*
G54D11*
D03*
X107950Y180975D02*
G54D11*
D03*
X126950Y117475D02*
G54D11*
D03*
X107950Y117475D02*
G54D11*
D03*
G54D12*
X107950Y180975D02*
X107950Y168275D01*
X114300Y161925D01*
G54D12*
X126950Y180975D02*
X133350Y180975D01*
X139700Y174625D01*
X139700Y130225D01*
X126950Y117475D01*
G54D12*
X107950Y117475D02*
X107950Y130175D01*
X114300Y136525D01*
X22225Y149225D02*
G54D13*
D03*
X22225Y174625D02*
G54D13*
D03*
X22225Y123825D02*
G54D13*
D03*
X66675Y149225D02*
G54D14*
D03*
G54D12*
X15875Y149225D02*
X63500Y149225D01*
G54D12*
X63500Y149225D02*
X127000Y149225D01*
X254000Y161925D02*
G54D10*
D03*
X266700Y149225D02*
G54D10*
D03*
X254000Y136525D02*
G54D10*
D03*
X266650Y180975D02*
G54D11*
D03*
X247650Y180975D02*
G54D11*
D03*
X266650Y117475D02*
G54D11*
D03*
X247650Y117475D02*
G54D11*
D03*
G54D12*
X247650Y180975D02*
X247650Y168275D01*
X254000Y161925D01*
G54D12*
X266650Y180975D02*
X273050Y180975D01*
X279400Y174625D01*
X279400Y130225D01*
X266650Y117475D01*
G54D12*
X247650Y117475D02*
X247650Y130175D01*
X254000Y136525D01*
X161925Y149225D02*
G54D13*
D03*
X161925Y174625D02*
G54D13*
D03*
X161925Y123825D02*
G54D13*
D03*
X206375Y149225D02*
G54D14*
D03*
G54D12*
X155575Y149225D02*
X203200Y149225D01*
G54D12*
X203200Y149225D02*
X266700Y149225D01*
X393700Y161925D02*
G54D10*
D03*
X406400Y149225D02*
G54D10*
D03*
X393700Y136525D02*
G54D10*
D03*
X406350Y180975D02*
G54D11*
D03*
X387350Y180975D02*
G54D11*
D03*
X406350Y117475D02*
G54D11*
D03*
X387350Y117475D02*
G54D11*
D03*
G54D12*
X387350Y180975D02*
X387350Y168275D01*
X393700Y161925D01*
G54D12*
X406350Y180975D02*
X412750Y180975D01*
X419100Y174625D01*
X419100Y130225D01*
X406350Y117475D01*
G54D12*
X387350Y117475D02*
X387350Y130175D01*
X393700Y136525D01*
X301625Y149225D02*
G54D13*
D03*
X301625Y174625D02*
G54D13*
D03*
X301625Y123825D02*
G54D13*
D03*
X346075Y149225D02*
G54D14*
D03*
G54D12*
X295275Y149225D02*
X342900Y149225D01*
G54D12*
X342900Y149225D02*
X406400Y149225D01*
X533400Y161925D02*
G54D10*
D03*
X546100Y149225D02*
G54D10*
D03*
X533400Y136525D02*
G54D10*
D03*
X546050Y180975D02*
G54D11*
D03*
X527050Y180975D02*
G54D11*
D03*
X546050Y117475D02*
G54D11*
D03*
X527050Y117475D02*
G54D11*
D03*
G54D12*
X527050Y180975D02*
X527050Y168275D01*
X533400Y161925D01*
G54D12*
X546050Y180975D02*
X552450Y180975D01*
X558800Y174625D01*
X558800Y130225D01*
X546050Y117475D01*
G54D12*
X527050Y117475D02*
X527050Y130175D01*
X533400Y136525D01*
X441325Y149225D02*
G54D13*
D03*
X441325Y174625D02*
G54D13*
D03*
X441325Y123825D02*
G54D13*
D03*
X485775Y149225D02*
G54D14*
D03*
G54D12*
X434975Y149225D02*
X482600Y149225D01*
G54D12*
X482600Y149225D02*
X546100Y149225D01*
X673100Y161925D02*
G54D10*
D03*
X685800Y149225D02*
G54D10*
D03*
X673100Y136525D02*
G54D10*
D03*
X685750Y180975D02*
G54D11*
D03*
X666750Y180975D02*
G54D11*
D03*
X685750Y117475D02*
G54D11*
D03*
X666750Y117475D02*
G54D11*
D03*
G54D12*
X666750Y180975D02*
X666750Y168275D01*
X673100Y161925D01*
G54D12*
X685750Y180975D02*
X692150Y180975D01*
X698500Y174625D01*
X698500Y130225D01*
X685750Y117475D01*
G54D12*
X666750Y117475D02*
X666750Y130175D01*
X673100Y136525D01*
X581025Y149225D02*
G54D13*
D03*
X581025Y174625D02*
G54D13*
D03*
X581025Y123825D02*
G54D13*
D03*
X625475Y149225D02*
G54D14*
D03*
G54D12*
X574675Y149225D02*
X622300Y149225D01*
G54D12*
X622300Y149225D02*
X685800Y149225D01*
X812800Y161925D02*
G54D10*
D03*
X825500Y149225D02*
G54D10*
D03*
X812800Y136525D02*
G54D10*
D03*
X825450Y180975D02*
G54D11*
D03*
X806450Y180975D02*
G54D11*
D03*
X825450Y117475D02*
G54D11*
D03*
X806450Y117475D02*
G54D11*
D03*
G54D12*
X806450Y180975D02*
X806450Y168275D01*
X812800Y161925D01*
G54D12*
X825450Y180975D02*
X831850Y180975D01*
X838200Y174625D01*
X838200Y130225D01*
X825450Y117475D01*
G54D12*
X806450Y117475D02*
X806450Y130175D01*
X812800Y136525D01*
X720725Y149225D02*
G54D13*
D03*
X720725Y174625D02*
G54D13*
D03*
X720725Y123825D02*
G54D13*
D03*
X765175Y149225D02*
G54D14*
D03*
G54D12*
X714375Y149225D02*
X762000Y149225D01*
G54D12*
X762000Y149225D02*
X825500Y149225D01*
M02*
