; Drill file
; Format: 2.4 (00.0000)
M48
INCH
T01C0.0236
T02C0.0354
T03C0.126
%
G05
G90
T01
X004500Y005370
X005000Y005880
X004500Y006370
X004500Y008870
X005000Y009380
X004500Y009880
X004500Y012380
X005000Y012880
X004500Y013370
X004500Y015870
X005000Y016370
X004500Y016880
X004500Y019380
X005000Y019880
X004500Y020380
X004500Y022880
X005000Y023370
X004500Y023880
X004500Y026380
X005000Y026880
X004500Y027370
X004500Y029870
X005000Y030380
X004500Y030870
X004500Y033370
X005000Y033880
X004500Y034380
X004500Y036880
X005000Y037370
X004500Y037880
X010000Y037880
X010500Y037370
X010000Y036880
X010000Y034380
X010500Y033880
X010000Y033370
X010000Y030870
X010500Y030380
X010000Y029870
X010000Y027370
X010500Y026880
X010000Y026380
X010000Y023880
X010500Y023370
X010000Y022880
X010000Y020380
X010500Y019880
X010000Y019380
X010000Y016880
X010500Y016370
X010000Y015870
X010000Y013370
X010500Y012880
X010000Y012380
X010000Y009880
X010500Y009380
X010000Y008870
X010000Y006370
X010500Y005880
X010000Y005370
X015500Y005370
X016000Y005880
X015500Y006370
X015500Y008870
X016000Y009380
X015500Y009880
X015500Y012380
X016000Y012880
X015500Y013370
X015500Y015870
X016000Y016370
X015500Y016880
X015500Y019380
X016000Y019880
X015500Y020380
X015500Y022880
X016000Y023370
X015500Y023880
X015500Y026380
X016000Y026880
X015500Y027370
X015500Y029870
X016000Y030380
X015500Y030870
X015500Y033370
X016000Y033880
X015500Y034380
X015500Y036880
X016000Y037370
X015500Y037880
X021000Y037880
X021500Y037370
X021000Y036880
X021000Y034380
X021500Y033880
X021000Y033370
X021000Y030870
X021500Y030380
X021000Y029870
X021000Y027370
X021500Y026880
X021000Y026380
X021000Y023880
X021500Y023370
X021000Y022880
X021000Y020380
X021500Y019880
X021000Y019380
X021000Y016880
X021500Y016370
X021000Y015870
X021000Y013370
X021500Y012880
X021000Y012380
X021000Y009880
X021500Y009380
X021000Y008870
X021000Y006370
X021500Y005880
X021000Y005370
X026500Y005370
X027000Y005880
X026500Y006370
X026500Y008870
X027000Y009380
X026500Y009880
X026500Y012380
X027000Y012880
X026500Y013370
X026500Y015870
X027000Y016370
X026500Y016880
X026500Y019380
X027000Y019880
X026500Y020380
X026500Y022880
X027000Y023370
X026500Y023880
X026500Y026380
X027000Y026880
X026500Y027370
X026500Y029870
X027000Y030380
X026500Y030870
X026500Y033370
X027000Y033880
X026500Y034380
X026500Y036880
X027000Y037370
X026500Y037880
X032000Y037880
X032500Y037370
X032000Y036880
X032000Y034380
X032500Y033880
X032000Y033370
X032000Y030870
X032500Y030380
X032000Y029870
X032000Y027370
X032500Y026880
X032000Y026380
X032000Y023880
X032500Y023370
X032000Y022880
X032000Y020380
X032500Y019880
X032000Y019380
X032000Y016880
X032500Y016370
X032000Y015870
X032000Y013370
X032500Y012880
X032000Y012380
X032000Y009880
X032500Y009380
X032000Y008870
X032000Y006370
X032500Y005880
X032000Y005370
T02
X000870Y004870
X000870Y005880
X000870Y006880
X000870Y008380
X000870Y009380
X000870Y010380
X000870Y011880
X000870Y012880
X000870Y013870
X000870Y015380
X000870Y016370
X000870Y017380
X000870Y018870
X000870Y019880
X000870Y020870
X000870Y022370
X000870Y023370
X000870Y024380
X000870Y025870
X000870Y026880
X000870Y027880
X000870Y029380
X000870Y030380
X000870Y031380
X000870Y032880
X000870Y033880
X000870Y034870
X000870Y036380
X000870Y037370
X000870Y038370
X006370Y038370
X006370Y037370
X006370Y036380
X006370Y034870
X006370Y033880
X006370Y032880
X006370Y031380
X006370Y030380
X006370Y029380
X006370Y027880
X006370Y026880
X006370Y025870
X006370Y024380
X006370Y023370
X006370Y022370
X006370Y020870
X006370Y019880
X006370Y018870
X006370Y017380
X006370Y016370
X006370Y015380
X006370Y013870
X006370Y012880
X006370Y011880
X006370Y010380
X006370Y009380
X006370Y008380
X006370Y006880
X006370Y005880
X006370Y004870
X011880Y004870
X011880Y005880
X011880Y006880
X011880Y008380
X011880Y009380
X011880Y010380
X011880Y011880
X011880Y012880
X011880Y013870
X011880Y015380
X011880Y016370
X011880Y017380
X011880Y018870
X011880Y019880
X011880Y020870
X011880Y022370
X011880Y023370
X011880Y024380
X011880Y025870
X011880Y026880
X011880Y027880
X011880Y029380
X011880Y030380
X011880Y031380
X011880Y032880
X011880Y033880
X011880Y034870
X011880Y036380
X011880Y037370
X011880Y038370
X017380Y038370
X017380Y037370
X017380Y036380
X017380Y034870
X017380Y033880
X017380Y032880
X017380Y031380
X017380Y030380
X017380Y029380
X017380Y027880
X017380Y026880
X017380Y025870
X017380Y024380
X017380Y023370
X017380Y022370
X017380Y020870
X017380Y019880
X017380Y018870
X017380Y017380
X017380Y016370
X017380Y015380
X017380Y013870
X017380Y012880
X017380Y011880
X017380Y010380
X017380Y009380
X017380Y008380
X017380Y006880
X017380Y005880
X017380Y004870
X022880Y004870
X022880Y005880
X022880Y006880
X022880Y008380
X022880Y009380
X022880Y010380
X022880Y011880
X022880Y012880
X022880Y013870
X022880Y015380
X022880Y016370
X022880Y017380
X022880Y018870
X022880Y019880
X022880Y020870
X022880Y022370
X022880Y023370
X022880Y024380
X022880Y025870
X022880Y026880
X022880Y027880
X022880Y029380
X022880Y030380
X022880Y031380
X022880Y032880
X022880Y033880
X022880Y034870
X022880Y036380
X022880Y037370
X022880Y038370
X028370Y038370
X028370Y037370
X028370Y036380
X028370Y034870
X028370Y033880
X028370Y032880
X028370Y031380
X028370Y030380
X028370Y029380
X028370Y027880
X028370Y026880
X028370Y025870
X028370Y024380
X028370Y023370
X028370Y022370
X028370Y020870
X028370Y019880
X028370Y018870
X028370Y017380
X028370Y016370
X028370Y015380
X028370Y013870
X028370Y012880
X028370Y011880
X028370Y010380
X028370Y009380
X028370Y008380
X028370Y006880
X028370Y005880
X028370Y004870
T03
X002630Y005880
X002630Y009380
X002630Y012880
X002630Y016370
X002630Y019880
X002630Y023370
X002630Y026880
X002630Y030380
X002630Y033880
X002630Y037370
X008120Y037370
X008120Y033880
X008120Y030380
X008120Y026880
X008120Y023370
X008120Y019880
X008120Y016370
X008120Y012880
X008120Y009380
X008120Y005880
X013630Y005880
X013630Y009380
X013630Y012880
X013630Y016370
X013630Y019880
X013630Y023370
X013630Y026880
X013630Y030380
X013630Y033880
X013630Y037370
X019130Y037370
X019130Y033880
X019130Y030380
X019130Y026880
X019130Y023370
X019130Y019880
X019130Y016370
X019130Y012880
X019130Y009380
X019130Y005880
X024620Y005880
X024620Y009380
X024620Y012880
X024620Y016370
X024620Y019880
X024620Y023370
X024620Y026880
X024620Y030380
X024620Y033880
X024620Y037370
X030130Y037370
X030130Y033880
X030130Y030380
X030130Y026880
X030130Y023370
X030130Y019880
X030130Y016370
X030130Y012880
X030130Y009380
X030130Y005880
M30
