%FSLAX34Y34*%
%MOMM*%
%LNOUTLINE*%
G71*
G01*
%ADD10C, 0.100*%
%LPD*%
G54D10*
X4757Y994708D02*
X214312Y994708D01*
X214312Y928688D01*
X4757Y928688D01*
X4757Y994708D01*
G54D10*
X214307Y994708D02*
X423862Y994708D01*
X423862Y928688D01*
X214307Y928688D01*
X214307Y994708D01*
G54D10*
X423857Y994708D02*
X633412Y994708D01*
X633412Y928688D01*
X423857Y928688D01*
X423857Y994708D01*
G54D10*
X633407Y994708D02*
X842962Y994708D01*
X842962Y928688D01*
X633407Y928688D01*
X633407Y994708D01*
G54D10*
X4757Y928688D02*
X214312Y928688D01*
X214312Y862667D01*
X4757Y862667D01*
X4757Y928688D01*
G54D10*
X214307Y928688D02*
X423862Y928688D01*
X423862Y862667D01*
X214307Y862667D01*
X214307Y928688D01*
G54D10*
X423857Y928688D02*
X633412Y928688D01*
X633412Y862667D01*
X423857Y862667D01*
X423857Y928688D01*
G54D10*
X633407Y928688D02*
X842962Y928688D01*
X842962Y862667D01*
X633407Y862667D01*
X633407Y928688D01*
G54D10*
X4757Y862667D02*
X214312Y862667D01*
X214312Y796647D01*
X4757Y796647D01*
X4757Y862667D01*
G54D10*
X214307Y862667D02*
X423862Y862667D01*
X423862Y796647D01*
X214307Y796647D01*
X214307Y862667D01*
G54D10*
X423857Y862667D02*
X633412Y862667D01*
X633412Y796647D01*
X423857Y796647D01*
X423857Y862667D01*
G54D10*
X633407Y862667D02*
X842962Y862667D01*
X842962Y796647D01*
X633407Y796647D01*
X633407Y862667D01*
G54D10*
X4757Y796647D02*
X214312Y796647D01*
X214312Y730628D01*
X4757Y730628D01*
X4757Y796647D01*
G54D10*
X214307Y796647D02*
X423862Y796647D01*
X423862Y730628D01*
X214307Y730628D01*
X214307Y796647D01*
G54D10*
X423857Y796647D02*
X633412Y796647D01*
X633412Y730628D01*
X423857Y730628D01*
X423857Y796647D01*
G54D10*
X633407Y796647D02*
X842962Y796647D01*
X842962Y730628D01*
X633407Y730628D01*
X633407Y796647D01*
G54D10*
X4757Y730628D02*
X214312Y730628D01*
X214312Y664608D01*
X4757Y664608D01*
X4757Y730628D01*
G54D10*
X214307Y730628D02*
X423862Y730628D01*
X423862Y664608D01*
X214307Y664608D01*
X214307Y730628D01*
G54D10*
X423857Y730628D02*
X633412Y730628D01*
X633412Y664608D01*
X423857Y664608D01*
X423857Y730628D01*
G54D10*
X633407Y730628D02*
X842962Y730628D01*
X842962Y664608D01*
X633407Y664608D01*
X633407Y730628D01*
G54D10*
X4757Y664608D02*
X214312Y664608D01*
X214312Y598588D01*
X4757Y598588D01*
X4757Y664608D01*
G54D10*
X214307Y664608D02*
X423862Y664608D01*
X423862Y598588D01*
X214307Y598588D01*
X214307Y664608D01*
G54D10*
X423857Y664608D02*
X633412Y664608D01*
X633412Y598588D01*
X423857Y598588D01*
X423857Y664608D01*
G54D10*
X633407Y664608D02*
X842962Y664608D01*
X842962Y598588D01*
X633407Y598588D01*
X633407Y664608D01*
G54D10*
X4757Y598588D02*
X214312Y598588D01*
X214312Y532568D01*
X4757Y532568D01*
X4757Y598588D01*
G54D10*
X214307Y598588D02*
X423862Y598588D01*
X423862Y532568D01*
X214307Y532568D01*
X214307Y598588D01*
G54D10*
X423857Y598588D02*
X633412Y598588D01*
X633412Y532568D01*
X423857Y532568D01*
X423857Y598588D01*
G54D10*
X633407Y598588D02*
X842962Y598588D01*
X842962Y532568D01*
X633407Y532568D01*
X633407Y598588D01*
G54D10*
X4757Y532568D02*
X214312Y532568D01*
X214312Y466548D01*
X4757Y466548D01*
X4757Y532568D01*
G54D10*
X214307Y532568D02*
X423862Y532568D01*
X423862Y466548D01*
X214307Y466548D01*
X214307Y532568D01*
G54D10*
X423857Y532568D02*
X633412Y532568D01*
X633412Y466548D01*
X423857Y466548D01*
X423857Y532568D01*
G54D10*
X633407Y532568D02*
X842962Y532568D01*
X842962Y466548D01*
X633407Y466548D01*
X633407Y532568D01*
G54D10*
X4757Y466548D02*
X214312Y466548D01*
X214312Y400528D01*
X4757Y400528D01*
X4757Y466548D01*
G54D10*
X214307Y466548D02*
X423862Y466548D01*
X423862Y400528D01*
X214307Y400528D01*
X214307Y466548D01*
G54D10*
X423857Y466548D02*
X633412Y466548D01*
X633412Y400528D01*
X423857Y400528D01*
X423857Y466548D01*
G54D10*
X633407Y466548D02*
X842962Y466548D01*
X842962Y400528D01*
X633407Y400528D01*
X633407Y466548D01*
G54D10*
X4757Y400528D02*
X214312Y400528D01*
X214312Y334508D01*
X4757Y334508D01*
X4757Y400528D01*
G54D10*
X214307Y400528D02*
X423862Y400528D01*
X423862Y334508D01*
X214307Y334508D01*
X214307Y400528D01*
G54D10*
X423857Y400528D02*
X633412Y400528D01*
X633412Y334508D01*
X423857Y334508D01*
X423857Y400528D01*
G54D10*
X633407Y400528D02*
X842962Y400528D01*
X842962Y334508D01*
X633407Y334508D01*
X633407Y400528D01*
G54D10*
X4757Y334508D02*
X214312Y334508D01*
X214312Y268488D01*
X4757Y268488D01*
X4757Y334508D01*
G54D10*
X214307Y334508D02*
X423862Y334508D01*
X423862Y268488D01*
X214307Y268488D01*
X214307Y334508D01*
G54D10*
X423857Y334508D02*
X633412Y334508D01*
X633412Y268488D01*
X423857Y268488D01*
X423857Y334508D01*
G54D10*
X633407Y334508D02*
X842962Y334508D01*
X842962Y268488D01*
X633407Y268488D01*
X633407Y334508D01*
G54D10*
X4757Y268488D02*
X214312Y268488D01*
X214312Y202468D01*
X4757Y202468D01*
X4757Y268488D01*
G54D10*
X214307Y268488D02*
X423862Y268488D01*
X423862Y202468D01*
X214307Y202468D01*
X214307Y268488D01*
G54D10*
X423857Y268488D02*
X633412Y268488D01*
X633412Y202468D01*
X423857Y202468D01*
X423857Y268488D01*
G54D10*
X633407Y268488D02*
X842962Y268488D01*
X842962Y202468D01*
X633407Y202468D01*
X633407Y268488D01*
G54D10*
X4757Y202468D02*
X214312Y202468D01*
X214312Y136448D01*
X4757Y136448D01*
X4757Y202468D01*
G54D10*
X214307Y202468D02*
X423862Y202468D01*
X423862Y136448D01*
X214307Y136448D01*
X214307Y202468D01*
G54D10*
X423857Y202468D02*
X633412Y202468D01*
X633412Y136448D01*
X423857Y136448D01*
X423857Y202468D01*
G54D10*
X633407Y202468D02*
X842962Y202468D01*
X842962Y136448D01*
X633407Y136448D01*
X633407Y202468D01*
G54D10*
X4757Y136448D02*
X214312Y136448D01*
X214312Y70428D01*
X4757Y70428D01*
X4757Y136448D01*
G54D10*
X214307Y136448D02*
X423862Y136448D01*
X423862Y70428D01*
X214307Y70428D01*
X214307Y136448D01*
G54D10*
X423857Y136448D02*
X633412Y136448D01*
X633412Y70428D01*
X423857Y70428D01*
X423857Y136448D01*
G54D10*
X633407Y136448D02*
X842962Y136448D01*
X842962Y70428D01*
X633407Y70428D01*
X633407Y136448D01*
M02*
