%FSLAX34Y34*%
%MOMM*%
%LNSMDMASK_BOTTOM*%
G71*
G01*
%ADD10R, 5.000X2.000*%
%ADD11R, 1.300X1.600*%
%LPD*%
X33332Y947083D02*
G54D10*
D03*
X33332Y975658D02*
G54D10*
D03*
X80962Y974725D02*
G54D11*
D03*
X99962Y974725D02*
G54D11*
D03*
X80962Y947738D02*
G54D11*
D03*
X99962Y947738D02*
G54D11*
D03*
X185732Y947083D02*
G54D10*
D03*
X185732Y975658D02*
G54D10*
D03*
X242882Y947083D02*
G54D10*
D03*
X242882Y975658D02*
G54D10*
D03*
X290512Y974725D02*
G54D11*
D03*
X309512Y974725D02*
G54D11*
D03*
X290512Y947738D02*
G54D11*
D03*
X309512Y947738D02*
G54D11*
D03*
X395282Y947083D02*
G54D10*
D03*
X395282Y975658D02*
G54D10*
D03*
X452432Y947083D02*
G54D10*
D03*
X452432Y975658D02*
G54D10*
D03*
X500062Y974725D02*
G54D11*
D03*
X519062Y974725D02*
G54D11*
D03*
X500062Y947738D02*
G54D11*
D03*
X519062Y947738D02*
G54D11*
D03*
X604832Y947083D02*
G54D10*
D03*
X604832Y975658D02*
G54D10*
D03*
X661982Y947083D02*
G54D10*
D03*
X661982Y975658D02*
G54D10*
D03*
X709612Y974725D02*
G54D11*
D03*
X728612Y974725D02*
G54D11*
D03*
X709612Y947738D02*
G54D11*
D03*
X728612Y947738D02*
G54D11*
D03*
X814382Y947083D02*
G54D10*
D03*
X814382Y975658D02*
G54D10*
D03*
X33332Y881063D02*
G54D10*
D03*
X33332Y909638D02*
G54D10*
D03*
X80962Y908705D02*
G54D11*
D03*
X99962Y908705D02*
G54D11*
D03*
X80962Y881717D02*
G54D11*
D03*
X99962Y881717D02*
G54D11*
D03*
X185732Y881063D02*
G54D10*
D03*
X185732Y909638D02*
G54D10*
D03*
X242882Y881063D02*
G54D10*
D03*
X242882Y909638D02*
G54D10*
D03*
X290512Y908705D02*
G54D11*
D03*
X309512Y908705D02*
G54D11*
D03*
X290512Y881717D02*
G54D11*
D03*
X309512Y881717D02*
G54D11*
D03*
X395282Y881063D02*
G54D10*
D03*
X395282Y909638D02*
G54D10*
D03*
X452432Y881063D02*
G54D10*
D03*
X452432Y909638D02*
G54D10*
D03*
X500062Y908705D02*
G54D11*
D03*
X519062Y908705D02*
G54D11*
D03*
X500062Y881717D02*
G54D11*
D03*
X519062Y881717D02*
G54D11*
D03*
X604832Y881063D02*
G54D10*
D03*
X604832Y909638D02*
G54D10*
D03*
X661982Y881063D02*
G54D10*
D03*
X661982Y909638D02*
G54D10*
D03*
X709612Y908705D02*
G54D11*
D03*
X728612Y908705D02*
G54D11*
D03*
X709612Y881717D02*
G54D11*
D03*
X728612Y881717D02*
G54D11*
D03*
X814382Y881063D02*
G54D10*
D03*
X814382Y909638D02*
G54D10*
D03*
X33332Y815043D02*
G54D10*
D03*
X33332Y843617D02*
G54D10*
D03*
X80962Y842685D02*
G54D11*
D03*
X99962Y842685D02*
G54D11*
D03*
X80962Y815697D02*
G54D11*
D03*
X99962Y815697D02*
G54D11*
D03*
X185732Y815043D02*
G54D10*
D03*
X185732Y843617D02*
G54D10*
D03*
X242882Y815043D02*
G54D10*
D03*
X242882Y843617D02*
G54D10*
D03*
X290512Y842685D02*
G54D11*
D03*
X309512Y842685D02*
G54D11*
D03*
X290512Y815697D02*
G54D11*
D03*
X309512Y815697D02*
G54D11*
D03*
X395282Y815043D02*
G54D10*
D03*
X395282Y843617D02*
G54D10*
D03*
X452432Y815043D02*
G54D10*
D03*
X452432Y843617D02*
G54D10*
D03*
X500062Y842685D02*
G54D11*
D03*
X519062Y842685D02*
G54D11*
D03*
X500062Y815697D02*
G54D11*
D03*
X519062Y815697D02*
G54D11*
D03*
X604832Y815043D02*
G54D10*
D03*
X604832Y843617D02*
G54D10*
D03*
X661982Y815043D02*
G54D10*
D03*
X661982Y843617D02*
G54D10*
D03*
X709612Y842685D02*
G54D11*
D03*
X728612Y842685D02*
G54D11*
D03*
X709612Y815697D02*
G54D11*
D03*
X728612Y815697D02*
G54D11*
D03*
X814382Y815043D02*
G54D10*
D03*
X814382Y843617D02*
G54D10*
D03*
X33332Y749023D02*
G54D10*
D03*
X33332Y777597D02*
G54D10*
D03*
X80962Y776665D02*
G54D11*
D03*
X99962Y776665D02*
G54D11*
D03*
X80962Y749677D02*
G54D11*
D03*
X99962Y749677D02*
G54D11*
D03*
X185732Y749023D02*
G54D10*
D03*
X185732Y777597D02*
G54D10*
D03*
X242882Y749023D02*
G54D10*
D03*
X242882Y777597D02*
G54D10*
D03*
X290512Y776665D02*
G54D11*
D03*
X309512Y776665D02*
G54D11*
D03*
X290512Y749677D02*
G54D11*
D03*
X309512Y749677D02*
G54D11*
D03*
X395282Y749023D02*
G54D10*
D03*
X395282Y777597D02*
G54D10*
D03*
X452432Y749023D02*
G54D10*
D03*
X452432Y777597D02*
G54D10*
D03*
X500062Y776665D02*
G54D11*
D03*
X519062Y776665D02*
G54D11*
D03*
X500062Y749677D02*
G54D11*
D03*
X519062Y749677D02*
G54D11*
D03*
X604832Y749023D02*
G54D10*
D03*
X604832Y777597D02*
G54D10*
D03*
X661982Y749023D02*
G54D10*
D03*
X661982Y777597D02*
G54D10*
D03*
X709612Y776665D02*
G54D11*
D03*
X728612Y776665D02*
G54D11*
D03*
X709612Y749677D02*
G54D11*
D03*
X728612Y749677D02*
G54D11*
D03*
X814382Y749023D02*
G54D10*
D03*
X814382Y777597D02*
G54D10*
D03*
X33332Y683003D02*
G54D10*
D03*
X33332Y711578D02*
G54D10*
D03*
X80962Y710645D02*
G54D11*
D03*
X99962Y710645D02*
G54D11*
D03*
X80962Y683658D02*
G54D11*
D03*
X99962Y683658D02*
G54D11*
D03*
X185732Y683003D02*
G54D10*
D03*
X185732Y711578D02*
G54D10*
D03*
X242882Y683003D02*
G54D10*
D03*
X242882Y711578D02*
G54D10*
D03*
X290512Y710645D02*
G54D11*
D03*
X309512Y710645D02*
G54D11*
D03*
X290512Y683658D02*
G54D11*
D03*
X309512Y683658D02*
G54D11*
D03*
X395282Y683003D02*
G54D10*
D03*
X395282Y711578D02*
G54D10*
D03*
X452432Y683003D02*
G54D10*
D03*
X452432Y711578D02*
G54D10*
D03*
X500062Y710645D02*
G54D11*
D03*
X519062Y710645D02*
G54D11*
D03*
X500062Y683658D02*
G54D11*
D03*
X519062Y683658D02*
G54D11*
D03*
X604832Y683003D02*
G54D10*
D03*
X604832Y711578D02*
G54D10*
D03*
X661982Y683003D02*
G54D10*
D03*
X661982Y711578D02*
G54D10*
D03*
X709612Y710645D02*
G54D11*
D03*
X728612Y710645D02*
G54D11*
D03*
X709612Y683658D02*
G54D11*
D03*
X728612Y683658D02*
G54D11*
D03*
X814382Y683003D02*
G54D10*
D03*
X814382Y711578D02*
G54D10*
D03*
X33332Y616983D02*
G54D10*
D03*
X33332Y645558D02*
G54D10*
D03*
X80962Y644625D02*
G54D11*
D03*
X99962Y644625D02*
G54D11*
D03*
X80962Y617638D02*
G54D11*
D03*
X99962Y617638D02*
G54D11*
D03*
X185732Y616983D02*
G54D10*
D03*
X185732Y645558D02*
G54D10*
D03*
X242882Y616983D02*
G54D10*
D03*
X242882Y645558D02*
G54D10*
D03*
X290512Y644625D02*
G54D11*
D03*
X309512Y644625D02*
G54D11*
D03*
X290512Y617638D02*
G54D11*
D03*
X309512Y617638D02*
G54D11*
D03*
X395282Y616983D02*
G54D10*
D03*
X395282Y645558D02*
G54D10*
D03*
X452432Y616983D02*
G54D10*
D03*
X452432Y645558D02*
G54D10*
D03*
X500062Y644625D02*
G54D11*
D03*
X519062Y644625D02*
G54D11*
D03*
X500062Y617638D02*
G54D11*
D03*
X519062Y617638D02*
G54D11*
D03*
X604832Y616983D02*
G54D10*
D03*
X604832Y645558D02*
G54D10*
D03*
X661982Y616983D02*
G54D10*
D03*
X661982Y645558D02*
G54D10*
D03*
X709612Y644625D02*
G54D11*
D03*
X728612Y644625D02*
G54D11*
D03*
X709612Y617638D02*
G54D11*
D03*
X728612Y617638D02*
G54D11*
D03*
X814382Y616983D02*
G54D10*
D03*
X814382Y645558D02*
G54D10*
D03*
X33332Y550963D02*
G54D10*
D03*
X33332Y579538D02*
G54D10*
D03*
X80962Y578605D02*
G54D11*
D03*
X99962Y578605D02*
G54D11*
D03*
X80962Y551618D02*
G54D11*
D03*
X99962Y551618D02*
G54D11*
D03*
X185732Y550963D02*
G54D10*
D03*
X185732Y579538D02*
G54D10*
D03*
X242882Y550963D02*
G54D10*
D03*
X242882Y579538D02*
G54D10*
D03*
X290512Y578605D02*
G54D11*
D03*
X309512Y578605D02*
G54D11*
D03*
X290512Y551618D02*
G54D11*
D03*
X309512Y551618D02*
G54D11*
D03*
X395282Y550963D02*
G54D10*
D03*
X395282Y579538D02*
G54D10*
D03*
X452432Y550963D02*
G54D10*
D03*
X452432Y579538D02*
G54D10*
D03*
X500062Y578605D02*
G54D11*
D03*
X519062Y578605D02*
G54D11*
D03*
X500062Y551618D02*
G54D11*
D03*
X519062Y551618D02*
G54D11*
D03*
X604832Y550963D02*
G54D10*
D03*
X604832Y579538D02*
G54D10*
D03*
X661982Y550963D02*
G54D10*
D03*
X661982Y579538D02*
G54D10*
D03*
X709612Y578605D02*
G54D11*
D03*
X728612Y578605D02*
G54D11*
D03*
X709612Y551618D02*
G54D11*
D03*
X728612Y551618D02*
G54D11*
D03*
X814382Y550963D02*
G54D10*
D03*
X814382Y579538D02*
G54D10*
D03*
X33332Y484943D02*
G54D10*
D03*
X33332Y513518D02*
G54D10*
D03*
X80962Y512585D02*
G54D11*
D03*
X99962Y512585D02*
G54D11*
D03*
X80962Y485598D02*
G54D11*
D03*
X99962Y485598D02*
G54D11*
D03*
X185732Y484943D02*
G54D10*
D03*
X185732Y513518D02*
G54D10*
D03*
X242882Y484943D02*
G54D10*
D03*
X242882Y513518D02*
G54D10*
D03*
X290512Y512585D02*
G54D11*
D03*
X309512Y512585D02*
G54D11*
D03*
X290512Y485598D02*
G54D11*
D03*
X309512Y485598D02*
G54D11*
D03*
X395282Y484943D02*
G54D10*
D03*
X395282Y513518D02*
G54D10*
D03*
X452432Y484943D02*
G54D10*
D03*
X452432Y513518D02*
G54D10*
D03*
X500062Y512585D02*
G54D11*
D03*
X519062Y512585D02*
G54D11*
D03*
X500062Y485598D02*
G54D11*
D03*
X519062Y485598D02*
G54D11*
D03*
X604832Y484943D02*
G54D10*
D03*
X604832Y513518D02*
G54D10*
D03*
X661982Y484943D02*
G54D10*
D03*
X661982Y513518D02*
G54D10*
D03*
X709612Y512585D02*
G54D11*
D03*
X728612Y512585D02*
G54D11*
D03*
X709612Y485598D02*
G54D11*
D03*
X728612Y485598D02*
G54D11*
D03*
X814382Y484943D02*
G54D10*
D03*
X814382Y513518D02*
G54D10*
D03*
X33332Y418923D02*
G54D10*
D03*
X33332Y447498D02*
G54D10*
D03*
X80962Y446565D02*
G54D11*
D03*
X99962Y446565D02*
G54D11*
D03*
X80962Y419578D02*
G54D11*
D03*
X99962Y419578D02*
G54D11*
D03*
X185732Y418923D02*
G54D10*
D03*
X185732Y447498D02*
G54D10*
D03*
X242882Y418923D02*
G54D10*
D03*
X242882Y447498D02*
G54D10*
D03*
X290512Y446565D02*
G54D11*
D03*
X309512Y446565D02*
G54D11*
D03*
X290512Y419578D02*
G54D11*
D03*
X309512Y419578D02*
G54D11*
D03*
X395282Y418923D02*
G54D10*
D03*
X395282Y447498D02*
G54D10*
D03*
X452432Y418923D02*
G54D10*
D03*
X452432Y447498D02*
G54D10*
D03*
X500062Y446565D02*
G54D11*
D03*
X519062Y446565D02*
G54D11*
D03*
X500062Y419578D02*
G54D11*
D03*
X519062Y419578D02*
G54D11*
D03*
X604832Y418923D02*
G54D10*
D03*
X604832Y447498D02*
G54D10*
D03*
X661982Y418923D02*
G54D10*
D03*
X661982Y447498D02*
G54D10*
D03*
X709612Y446565D02*
G54D11*
D03*
X728612Y446565D02*
G54D11*
D03*
X709612Y419578D02*
G54D11*
D03*
X728612Y419578D02*
G54D11*
D03*
X814382Y418923D02*
G54D10*
D03*
X814382Y447498D02*
G54D10*
D03*
X33332Y352903D02*
G54D10*
D03*
X33332Y381478D02*
G54D10*
D03*
X80962Y380545D02*
G54D11*
D03*
X99962Y380545D02*
G54D11*
D03*
X80962Y353558D02*
G54D11*
D03*
X99962Y353558D02*
G54D11*
D03*
X185732Y352903D02*
G54D10*
D03*
X185732Y381478D02*
G54D10*
D03*
X242882Y352903D02*
G54D10*
D03*
X242882Y381478D02*
G54D10*
D03*
X290512Y380545D02*
G54D11*
D03*
X309512Y380545D02*
G54D11*
D03*
X290512Y353558D02*
G54D11*
D03*
X309512Y353558D02*
G54D11*
D03*
X395282Y352903D02*
G54D10*
D03*
X395282Y381478D02*
G54D10*
D03*
X452432Y352903D02*
G54D10*
D03*
X452432Y381478D02*
G54D10*
D03*
X500062Y380545D02*
G54D11*
D03*
X519062Y380545D02*
G54D11*
D03*
X500062Y353558D02*
G54D11*
D03*
X519062Y353558D02*
G54D11*
D03*
X604832Y352903D02*
G54D10*
D03*
X604832Y381478D02*
G54D10*
D03*
X661982Y352903D02*
G54D10*
D03*
X661982Y381478D02*
G54D10*
D03*
X709612Y380545D02*
G54D11*
D03*
X728612Y380545D02*
G54D11*
D03*
X709612Y353558D02*
G54D11*
D03*
X728612Y353558D02*
G54D11*
D03*
X814382Y352903D02*
G54D10*
D03*
X814382Y381478D02*
G54D10*
D03*
X33332Y286883D02*
G54D10*
D03*
X33332Y315458D02*
G54D10*
D03*
X80962Y314525D02*
G54D11*
D03*
X99962Y314525D02*
G54D11*
D03*
X80962Y287538D02*
G54D11*
D03*
X99962Y287538D02*
G54D11*
D03*
X185732Y286883D02*
G54D10*
D03*
X185732Y315458D02*
G54D10*
D03*
X242882Y286883D02*
G54D10*
D03*
X242882Y315458D02*
G54D10*
D03*
X290512Y314525D02*
G54D11*
D03*
X309512Y314525D02*
G54D11*
D03*
X290512Y287538D02*
G54D11*
D03*
X309512Y287538D02*
G54D11*
D03*
X395282Y286883D02*
G54D10*
D03*
X395282Y315458D02*
G54D10*
D03*
X452432Y286883D02*
G54D10*
D03*
X452432Y315458D02*
G54D10*
D03*
X500062Y314525D02*
G54D11*
D03*
X519062Y314525D02*
G54D11*
D03*
X500062Y287538D02*
G54D11*
D03*
X519062Y287538D02*
G54D11*
D03*
X604832Y286883D02*
G54D10*
D03*
X604832Y315458D02*
G54D10*
D03*
X661982Y286883D02*
G54D10*
D03*
X661982Y315458D02*
G54D10*
D03*
X709612Y314525D02*
G54D11*
D03*
X728612Y314525D02*
G54D11*
D03*
X709612Y287538D02*
G54D11*
D03*
X728612Y287538D02*
G54D11*
D03*
X814382Y286883D02*
G54D10*
D03*
X814382Y315458D02*
G54D10*
D03*
X33332Y220863D02*
G54D10*
D03*
X33332Y249438D02*
G54D10*
D03*
X80962Y248505D02*
G54D11*
D03*
X99962Y248505D02*
G54D11*
D03*
X80962Y221518D02*
G54D11*
D03*
X99962Y221518D02*
G54D11*
D03*
X185732Y220863D02*
G54D10*
D03*
X185732Y249438D02*
G54D10*
D03*
X242882Y220863D02*
G54D10*
D03*
X242882Y249438D02*
G54D10*
D03*
X290512Y248505D02*
G54D11*
D03*
X309512Y248505D02*
G54D11*
D03*
X290512Y221518D02*
G54D11*
D03*
X309512Y221518D02*
G54D11*
D03*
X395282Y220863D02*
G54D10*
D03*
X395282Y249438D02*
G54D10*
D03*
X452432Y220863D02*
G54D10*
D03*
X452432Y249438D02*
G54D10*
D03*
X500062Y248505D02*
G54D11*
D03*
X519062Y248505D02*
G54D11*
D03*
X500062Y221518D02*
G54D11*
D03*
X519062Y221518D02*
G54D11*
D03*
X604832Y220863D02*
G54D10*
D03*
X604832Y249438D02*
G54D10*
D03*
X661982Y220863D02*
G54D10*
D03*
X661982Y249438D02*
G54D10*
D03*
X709612Y248505D02*
G54D11*
D03*
X728612Y248505D02*
G54D11*
D03*
X709612Y221518D02*
G54D11*
D03*
X728612Y221518D02*
G54D11*
D03*
X814382Y220863D02*
G54D10*
D03*
X814382Y249438D02*
G54D10*
D03*
X33332Y154843D02*
G54D10*
D03*
X33332Y183418D02*
G54D10*
D03*
X80962Y182485D02*
G54D11*
D03*
X99962Y182485D02*
G54D11*
D03*
X80962Y155498D02*
G54D11*
D03*
X99962Y155498D02*
G54D11*
D03*
X185732Y154843D02*
G54D10*
D03*
X185732Y183418D02*
G54D10*
D03*
X242882Y154843D02*
G54D10*
D03*
X242882Y183418D02*
G54D10*
D03*
X290512Y182485D02*
G54D11*
D03*
X309512Y182485D02*
G54D11*
D03*
X290512Y155498D02*
G54D11*
D03*
X309512Y155498D02*
G54D11*
D03*
X395282Y154843D02*
G54D10*
D03*
X395282Y183418D02*
G54D10*
D03*
X452432Y154843D02*
G54D10*
D03*
X452432Y183418D02*
G54D10*
D03*
X500062Y182485D02*
G54D11*
D03*
X519062Y182485D02*
G54D11*
D03*
X500062Y155498D02*
G54D11*
D03*
X519062Y155498D02*
G54D11*
D03*
X604832Y154843D02*
G54D10*
D03*
X604832Y183418D02*
G54D10*
D03*
X661982Y154843D02*
G54D10*
D03*
X661982Y183418D02*
G54D10*
D03*
X709612Y182485D02*
G54D11*
D03*
X728612Y182485D02*
G54D11*
D03*
X709612Y155498D02*
G54D11*
D03*
X728612Y155498D02*
G54D11*
D03*
X814382Y154843D02*
G54D10*
D03*
X814382Y183418D02*
G54D10*
D03*
X33332Y88823D02*
G54D10*
D03*
X33332Y117398D02*
G54D10*
D03*
X80962Y116465D02*
G54D11*
D03*
X99962Y116465D02*
G54D11*
D03*
X80962Y89478D02*
G54D11*
D03*
X99962Y89478D02*
G54D11*
D03*
X185732Y88823D02*
G54D10*
D03*
X185732Y117398D02*
G54D10*
D03*
X242882Y88823D02*
G54D10*
D03*
X242882Y117398D02*
G54D10*
D03*
X290512Y116465D02*
G54D11*
D03*
X309512Y116465D02*
G54D11*
D03*
X290512Y89478D02*
G54D11*
D03*
X309512Y89478D02*
G54D11*
D03*
X395282Y88823D02*
G54D10*
D03*
X395282Y117398D02*
G54D10*
D03*
X452432Y88823D02*
G54D10*
D03*
X452432Y117398D02*
G54D10*
D03*
X500062Y116465D02*
G54D11*
D03*
X519062Y116465D02*
G54D11*
D03*
X500062Y89478D02*
G54D11*
D03*
X519062Y89478D02*
G54D11*
D03*
X604832Y88823D02*
G54D10*
D03*
X604832Y117398D02*
G54D10*
D03*
X661982Y88823D02*
G54D10*
D03*
X661982Y117398D02*
G54D10*
D03*
X709612Y116465D02*
G54D11*
D03*
X728612Y116465D02*
G54D11*
D03*
X709612Y89478D02*
G54D11*
D03*
X728612Y89478D02*
G54D11*
D03*
X814382Y88823D02*
G54D10*
D03*
X814382Y117398D02*
G54D10*
D03*
M02*
