%FSLAX34Y34*%
%MOMM*%
%LNSILK_BOTTOM*%
G71*
G01*
%ADD10C, 0.150*%
%ADD11C, 0.111*%
%LPD*%
G54D10*
X71462Y963725D02*
X71462Y985725D01*
X109462Y985725D01*
X109462Y963725D01*
X71462Y963725D01*
G54D10*
X71462Y936738D02*
X71462Y958738D01*
X109462Y958738D01*
X109462Y936738D01*
X71462Y936738D01*
G54D11*
X61088Y941388D02*
X61088Y950276D01*
X65088Y944721D01*
X65088Y943610D01*
X59754Y943610D01*
G54D11*
X65088Y978693D02*
X61754Y982026D01*
X61754Y973138D01*
G54D11*
X155575Y989964D02*
X152242Y981075D01*
X148908Y989964D01*
G54D11*
X153988Y935117D02*
X153321Y934006D01*
X151988Y933450D01*
X150654Y933450D01*
X149321Y934006D01*
X148654Y935117D01*
X148654Y936228D01*
X149321Y937339D01*
X150654Y937894D01*
X151988Y937894D01*
X153321Y938450D01*
X153988Y939561D01*
X153988Y940672D01*
X153321Y941783D01*
X151988Y942339D01*
X150654Y942339D01*
X149321Y941783D01*
X148654Y940672D01*
G54D10*
X281012Y963725D02*
X281012Y985725D01*
X319012Y985725D01*
X319012Y963725D01*
X281012Y963725D01*
G54D10*
X281012Y936738D02*
X281012Y958738D01*
X319012Y958738D01*
X319012Y936738D01*
X281012Y936738D01*
G54D11*
X270638Y941388D02*
X270638Y950276D01*
X274638Y944721D01*
X274638Y943610D01*
X269304Y943610D01*
G54D11*
X274638Y978693D02*
X271304Y982026D01*
X271304Y973138D01*
G54D11*
X365125Y989964D02*
X361792Y981075D01*
X358458Y989964D01*
G54D11*
X363538Y935117D02*
X362871Y934006D01*
X361538Y933450D01*
X360204Y933450D01*
X358871Y934006D01*
X358204Y935117D01*
X358204Y936228D01*
X358871Y937339D01*
X360204Y937894D01*
X361538Y937894D01*
X362871Y938450D01*
X363538Y939561D01*
X363538Y940672D01*
X362871Y941783D01*
X361538Y942339D01*
X360204Y942339D01*
X358871Y941783D01*
X358204Y940672D01*
G54D10*
X490562Y963725D02*
X490562Y985725D01*
X528562Y985725D01*
X528562Y963725D01*
X490562Y963725D01*
G54D10*
X490562Y936738D02*
X490562Y958738D01*
X528562Y958738D01*
X528562Y936738D01*
X490562Y936738D01*
G54D11*
X480188Y941388D02*
X480188Y950276D01*
X484188Y944721D01*
X484188Y943610D01*
X478854Y943610D01*
G54D11*
X484188Y978693D02*
X480854Y982026D01*
X480854Y973138D01*
G54D11*
X574675Y989964D02*
X571342Y981075D01*
X568008Y989964D01*
G54D11*
X573088Y935117D02*
X572421Y934006D01*
X571088Y933450D01*
X569754Y933450D01*
X568421Y934006D01*
X567754Y935117D01*
X567754Y936228D01*
X568421Y937339D01*
X569754Y937894D01*
X571088Y937894D01*
X572421Y938450D01*
X573088Y939561D01*
X573088Y940672D01*
X572421Y941783D01*
X571088Y942339D01*
X569754Y942339D01*
X568421Y941783D01*
X567754Y940672D01*
G54D10*
X700112Y963725D02*
X700112Y985725D01*
X738112Y985725D01*
X738112Y963725D01*
X700112Y963725D01*
G54D10*
X700112Y936738D02*
X700112Y958738D01*
X738112Y958738D01*
X738112Y936738D01*
X700112Y936738D01*
G54D11*
X689738Y941388D02*
X689738Y950276D01*
X693738Y944721D01*
X693738Y943610D01*
X688404Y943610D01*
G54D11*
X693738Y978693D02*
X690404Y982026D01*
X690404Y973138D01*
G54D11*
X784225Y989964D02*
X780892Y981075D01*
X777558Y989964D01*
G54D11*
X782638Y935117D02*
X781971Y934006D01*
X780638Y933450D01*
X779304Y933450D01*
X777971Y934006D01*
X777304Y935117D01*
X777304Y936228D01*
X777971Y937339D01*
X779304Y937894D01*
X780638Y937894D01*
X781971Y938450D01*
X782638Y939561D01*
X782638Y940672D01*
X781971Y941783D01*
X780638Y942339D01*
X779304Y942339D01*
X777971Y941783D01*
X777304Y940672D01*
G54D10*
X71462Y897705D02*
X71462Y919705D01*
X109462Y919705D01*
X109462Y897705D01*
X71462Y897705D01*
G54D10*
X71462Y870717D02*
X71462Y892717D01*
X109462Y892717D01*
X109462Y870717D01*
X71462Y870717D01*
G54D11*
X61088Y875367D02*
X61088Y884256D01*
X65088Y878701D01*
X65088Y877590D01*
X59754Y877590D01*
G54D11*
X65088Y912673D02*
X61754Y916006D01*
X61754Y907117D01*
G54D11*
X155575Y923944D02*
X152242Y915055D01*
X148908Y923944D01*
G54D11*
X153988Y869097D02*
X153321Y867986D01*
X151988Y867430D01*
X150654Y867430D01*
X149321Y867986D01*
X148654Y869097D01*
X148654Y870208D01*
X149321Y871319D01*
X150654Y871874D01*
X151988Y871874D01*
X153321Y872430D01*
X153988Y873541D01*
X153988Y874652D01*
X153321Y875763D01*
X151988Y876319D01*
X150654Y876319D01*
X149321Y875763D01*
X148654Y874652D01*
G54D10*
X281012Y897705D02*
X281012Y919705D01*
X319012Y919705D01*
X319012Y897705D01*
X281012Y897705D01*
G54D10*
X281012Y870717D02*
X281012Y892717D01*
X319012Y892717D01*
X319012Y870717D01*
X281012Y870717D01*
G54D11*
X270638Y875367D02*
X270638Y884256D01*
X274638Y878701D01*
X274638Y877590D01*
X269304Y877590D01*
G54D11*
X274638Y912673D02*
X271304Y916006D01*
X271304Y907117D01*
G54D11*
X365125Y923944D02*
X361792Y915055D01*
X358458Y923944D01*
G54D11*
X363538Y869097D02*
X362871Y867986D01*
X361538Y867430D01*
X360204Y867430D01*
X358871Y867986D01*
X358204Y869097D01*
X358204Y870208D01*
X358871Y871319D01*
X360204Y871874D01*
X361538Y871874D01*
X362871Y872430D01*
X363538Y873541D01*
X363538Y874652D01*
X362871Y875763D01*
X361538Y876319D01*
X360204Y876319D01*
X358871Y875763D01*
X358204Y874652D01*
G54D10*
X490562Y897705D02*
X490562Y919705D01*
X528562Y919705D01*
X528562Y897705D01*
X490562Y897705D01*
G54D10*
X490562Y870717D02*
X490562Y892717D01*
X528562Y892717D01*
X528562Y870717D01*
X490562Y870717D01*
G54D11*
X480188Y875367D02*
X480188Y884256D01*
X484188Y878701D01*
X484188Y877590D01*
X478854Y877590D01*
G54D11*
X484188Y912673D02*
X480854Y916006D01*
X480854Y907117D01*
G54D11*
X574675Y923944D02*
X571342Y915055D01*
X568008Y923944D01*
G54D11*
X573088Y869097D02*
X572421Y867986D01*
X571088Y867430D01*
X569754Y867430D01*
X568421Y867986D01*
X567754Y869097D01*
X567754Y870208D01*
X568421Y871319D01*
X569754Y871874D01*
X571088Y871874D01*
X572421Y872430D01*
X573088Y873541D01*
X573088Y874652D01*
X572421Y875763D01*
X571088Y876319D01*
X569754Y876319D01*
X568421Y875763D01*
X567754Y874652D01*
G54D10*
X700112Y897705D02*
X700112Y919705D01*
X738112Y919705D01*
X738112Y897705D01*
X700112Y897705D01*
G54D10*
X700112Y870717D02*
X700112Y892717D01*
X738112Y892717D01*
X738112Y870717D01*
X700112Y870717D01*
G54D11*
X689738Y875367D02*
X689738Y884256D01*
X693738Y878701D01*
X693738Y877590D01*
X688404Y877590D01*
G54D11*
X693738Y912673D02*
X690404Y916006D01*
X690404Y907117D01*
G54D11*
X784225Y923944D02*
X780892Y915055D01*
X777558Y923944D01*
G54D11*
X782638Y869097D02*
X781971Y867986D01*
X780638Y867430D01*
X779304Y867430D01*
X777971Y867986D01*
X777304Y869097D01*
X777304Y870208D01*
X777971Y871319D01*
X779304Y871874D01*
X780638Y871874D01*
X781971Y872430D01*
X782638Y873541D01*
X782638Y874652D01*
X781971Y875763D01*
X780638Y876319D01*
X779304Y876319D01*
X777971Y875763D01*
X777304Y874652D01*
G54D10*
X71462Y831685D02*
X71462Y853685D01*
X109462Y853685D01*
X109462Y831685D01*
X71462Y831685D01*
G54D10*
X71462Y804697D02*
X71462Y826697D01*
X109462Y826697D01*
X109462Y804697D01*
X71462Y804697D01*
G54D11*
X61088Y809347D02*
X61088Y818236D01*
X65088Y812681D01*
X65088Y811570D01*
X59754Y811570D01*
G54D11*
X65088Y846653D02*
X61754Y849986D01*
X61754Y841097D01*
G54D11*
X155575Y857924D02*
X152242Y849035D01*
X148908Y857924D01*
G54D11*
X153988Y803077D02*
X153321Y801966D01*
X151988Y801410D01*
X150654Y801410D01*
X149321Y801966D01*
X148654Y803077D01*
X148654Y804188D01*
X149321Y805299D01*
X150654Y805854D01*
X151988Y805854D01*
X153321Y806410D01*
X153988Y807521D01*
X153988Y808632D01*
X153321Y809743D01*
X151988Y810299D01*
X150654Y810299D01*
X149321Y809743D01*
X148654Y808632D01*
G54D10*
X281012Y831685D02*
X281012Y853685D01*
X319012Y853685D01*
X319012Y831685D01*
X281012Y831685D01*
G54D10*
X281012Y804697D02*
X281012Y826697D01*
X319012Y826697D01*
X319012Y804697D01*
X281012Y804697D01*
G54D11*
X270638Y809347D02*
X270638Y818236D01*
X274638Y812681D01*
X274638Y811570D01*
X269304Y811570D01*
G54D11*
X274638Y846653D02*
X271304Y849986D01*
X271304Y841097D01*
G54D11*
X365125Y857924D02*
X361792Y849035D01*
X358458Y857924D01*
G54D11*
X363538Y803077D02*
X362871Y801966D01*
X361538Y801410D01*
X360204Y801410D01*
X358871Y801966D01*
X358204Y803077D01*
X358204Y804188D01*
X358871Y805299D01*
X360204Y805854D01*
X361538Y805854D01*
X362871Y806410D01*
X363538Y807521D01*
X363538Y808632D01*
X362871Y809743D01*
X361538Y810299D01*
X360204Y810299D01*
X358871Y809743D01*
X358204Y808632D01*
G54D10*
X490562Y831685D02*
X490562Y853685D01*
X528562Y853685D01*
X528562Y831685D01*
X490562Y831685D01*
G54D10*
X490562Y804697D02*
X490562Y826697D01*
X528562Y826697D01*
X528562Y804697D01*
X490562Y804697D01*
G54D11*
X480188Y809347D02*
X480188Y818236D01*
X484188Y812681D01*
X484188Y811570D01*
X478854Y811570D01*
G54D11*
X484188Y846653D02*
X480854Y849986D01*
X480854Y841097D01*
G54D11*
X574675Y857924D02*
X571342Y849035D01*
X568008Y857924D01*
G54D11*
X573088Y803077D02*
X572421Y801966D01*
X571088Y801410D01*
X569754Y801410D01*
X568421Y801966D01*
X567754Y803077D01*
X567754Y804188D01*
X568421Y805299D01*
X569754Y805854D01*
X571088Y805854D01*
X572421Y806410D01*
X573088Y807521D01*
X573088Y808632D01*
X572421Y809743D01*
X571088Y810299D01*
X569754Y810299D01*
X568421Y809743D01*
X567754Y808632D01*
G54D10*
X700112Y831685D02*
X700112Y853685D01*
X738112Y853685D01*
X738112Y831685D01*
X700112Y831685D01*
G54D10*
X700112Y804697D02*
X700112Y826697D01*
X738112Y826697D01*
X738112Y804697D01*
X700112Y804697D01*
G54D11*
X689738Y809347D02*
X689738Y818236D01*
X693738Y812681D01*
X693738Y811570D01*
X688404Y811570D01*
G54D11*
X693738Y846653D02*
X690404Y849986D01*
X690404Y841097D01*
G54D11*
X784225Y857924D02*
X780892Y849035D01*
X777558Y857924D01*
G54D11*
X782638Y803077D02*
X781971Y801966D01*
X780638Y801410D01*
X779304Y801410D01*
X777971Y801966D01*
X777304Y803077D01*
X777304Y804188D01*
X777971Y805299D01*
X779304Y805854D01*
X780638Y805854D01*
X781971Y806410D01*
X782638Y807521D01*
X782638Y808632D01*
X781971Y809743D01*
X780638Y810299D01*
X779304Y810299D01*
X777971Y809743D01*
X777304Y808632D01*
G54D10*
X71462Y765665D02*
X71462Y787665D01*
X109462Y787665D01*
X109462Y765665D01*
X71462Y765665D01*
G54D10*
X71462Y738677D02*
X71462Y760677D01*
X109462Y760677D01*
X109462Y738677D01*
X71462Y738677D01*
G54D11*
X61088Y743327D02*
X61088Y752216D01*
X65088Y746661D01*
X65088Y745550D01*
X59754Y745550D01*
G54D11*
X65088Y780633D02*
X61754Y783966D01*
X61754Y775077D01*
G54D11*
X155575Y791904D02*
X152242Y783015D01*
X148908Y791904D01*
G54D11*
X153988Y737057D02*
X153321Y735946D01*
X151988Y735390D01*
X150654Y735390D01*
X149321Y735946D01*
X148654Y737057D01*
X148654Y738168D01*
X149321Y739279D01*
X150654Y739834D01*
X151988Y739834D01*
X153321Y740390D01*
X153988Y741501D01*
X153988Y742612D01*
X153321Y743723D01*
X151988Y744279D01*
X150654Y744279D01*
X149321Y743723D01*
X148654Y742612D01*
G54D10*
X281012Y765665D02*
X281012Y787665D01*
X319012Y787665D01*
X319012Y765665D01*
X281012Y765665D01*
G54D10*
X281012Y738677D02*
X281012Y760677D01*
X319012Y760677D01*
X319012Y738677D01*
X281012Y738677D01*
G54D11*
X270638Y743327D02*
X270638Y752216D01*
X274638Y746661D01*
X274638Y745550D01*
X269304Y745550D01*
G54D11*
X274638Y780633D02*
X271304Y783966D01*
X271304Y775077D01*
G54D11*
X365125Y791904D02*
X361792Y783015D01*
X358458Y791904D01*
G54D11*
X363538Y737057D02*
X362871Y735946D01*
X361538Y735390D01*
X360204Y735390D01*
X358871Y735946D01*
X358204Y737057D01*
X358204Y738168D01*
X358871Y739279D01*
X360204Y739834D01*
X361538Y739834D01*
X362871Y740390D01*
X363538Y741501D01*
X363538Y742612D01*
X362871Y743723D01*
X361538Y744279D01*
X360204Y744279D01*
X358871Y743723D01*
X358204Y742612D01*
G54D10*
X490562Y765665D02*
X490562Y787665D01*
X528562Y787665D01*
X528562Y765665D01*
X490562Y765665D01*
G54D10*
X490562Y738677D02*
X490562Y760677D01*
X528562Y760677D01*
X528562Y738677D01*
X490562Y738677D01*
G54D11*
X480188Y743327D02*
X480188Y752216D01*
X484188Y746661D01*
X484188Y745550D01*
X478854Y745550D01*
G54D11*
X484188Y780633D02*
X480854Y783966D01*
X480854Y775077D01*
G54D11*
X574675Y791904D02*
X571342Y783015D01*
X568008Y791904D01*
G54D11*
X573088Y737057D02*
X572421Y735946D01*
X571088Y735390D01*
X569754Y735390D01*
X568421Y735946D01*
X567754Y737057D01*
X567754Y738168D01*
X568421Y739279D01*
X569754Y739834D01*
X571088Y739834D01*
X572421Y740390D01*
X573088Y741501D01*
X573088Y742612D01*
X572421Y743723D01*
X571088Y744279D01*
X569754Y744279D01*
X568421Y743723D01*
X567754Y742612D01*
G54D10*
X700112Y765665D02*
X700112Y787665D01*
X738112Y787665D01*
X738112Y765665D01*
X700112Y765665D01*
G54D10*
X700112Y738677D02*
X700112Y760677D01*
X738112Y760677D01*
X738112Y738677D01*
X700112Y738677D01*
G54D11*
X689738Y743327D02*
X689738Y752216D01*
X693738Y746661D01*
X693738Y745550D01*
X688404Y745550D01*
G54D11*
X693738Y780633D02*
X690404Y783966D01*
X690404Y775077D01*
G54D11*
X784225Y791904D02*
X780892Y783015D01*
X777558Y791904D01*
G54D11*
X782638Y737057D02*
X781971Y735946D01*
X780638Y735390D01*
X779304Y735390D01*
X777971Y735946D01*
X777304Y737057D01*
X777304Y738168D01*
X777971Y739279D01*
X779304Y739834D01*
X780638Y739834D01*
X781971Y740390D01*
X782638Y741501D01*
X782638Y742612D01*
X781971Y743723D01*
X780638Y744279D01*
X779304Y744279D01*
X777971Y743723D01*
X777304Y742612D01*
G54D10*
X71462Y699645D02*
X71462Y721645D01*
X109462Y721645D01*
X109462Y699645D01*
X71462Y699645D01*
G54D10*
X71462Y672658D02*
X71462Y694658D01*
X109462Y694658D01*
X109462Y672658D01*
X71462Y672658D01*
G54D11*
X61088Y677308D02*
X61088Y686196D01*
X65088Y680641D01*
X65088Y679530D01*
X59754Y679530D01*
G54D11*
X65088Y714613D02*
X61754Y717946D01*
X61754Y709058D01*
G54D11*
X155575Y725884D02*
X152242Y716995D01*
X148908Y725884D01*
G54D11*
X153988Y671037D02*
X153321Y669926D01*
X151988Y669370D01*
X150654Y669370D01*
X149321Y669926D01*
X148654Y671037D01*
X148654Y672148D01*
X149321Y673259D01*
X150654Y673814D01*
X151988Y673814D01*
X153321Y674370D01*
X153988Y675481D01*
X153988Y676592D01*
X153321Y677703D01*
X151988Y678259D01*
X150654Y678259D01*
X149321Y677703D01*
X148654Y676592D01*
G54D10*
X281012Y699645D02*
X281012Y721645D01*
X319012Y721645D01*
X319012Y699645D01*
X281012Y699645D01*
G54D10*
X281012Y672658D02*
X281012Y694658D01*
X319012Y694658D01*
X319012Y672658D01*
X281012Y672658D01*
G54D11*
X270638Y677308D02*
X270638Y686196D01*
X274638Y680641D01*
X274638Y679530D01*
X269304Y679530D01*
G54D11*
X274638Y714613D02*
X271304Y717946D01*
X271304Y709058D01*
G54D11*
X365125Y725884D02*
X361792Y716995D01*
X358458Y725884D01*
G54D11*
X363538Y671037D02*
X362871Y669926D01*
X361538Y669370D01*
X360204Y669370D01*
X358871Y669926D01*
X358204Y671037D01*
X358204Y672148D01*
X358871Y673259D01*
X360204Y673814D01*
X361538Y673814D01*
X362871Y674370D01*
X363538Y675481D01*
X363538Y676592D01*
X362871Y677703D01*
X361538Y678259D01*
X360204Y678259D01*
X358871Y677703D01*
X358204Y676592D01*
G54D10*
X490562Y699645D02*
X490562Y721645D01*
X528562Y721645D01*
X528562Y699645D01*
X490562Y699645D01*
G54D10*
X490562Y672658D02*
X490562Y694658D01*
X528562Y694658D01*
X528562Y672658D01*
X490562Y672658D01*
G54D11*
X480188Y677308D02*
X480188Y686196D01*
X484188Y680641D01*
X484188Y679530D01*
X478854Y679530D01*
G54D11*
X484188Y714613D02*
X480854Y717946D01*
X480854Y709058D01*
G54D11*
X574675Y725884D02*
X571342Y716995D01*
X568008Y725884D01*
G54D11*
X573088Y671037D02*
X572421Y669926D01*
X571088Y669370D01*
X569754Y669370D01*
X568421Y669926D01*
X567754Y671037D01*
X567754Y672148D01*
X568421Y673259D01*
X569754Y673814D01*
X571088Y673814D01*
X572421Y674370D01*
X573088Y675481D01*
X573088Y676592D01*
X572421Y677703D01*
X571088Y678259D01*
X569754Y678259D01*
X568421Y677703D01*
X567754Y676592D01*
G54D10*
X700112Y699645D02*
X700112Y721645D01*
X738112Y721645D01*
X738112Y699645D01*
X700112Y699645D01*
G54D10*
X700112Y672658D02*
X700112Y694658D01*
X738112Y694658D01*
X738112Y672658D01*
X700112Y672658D01*
G54D11*
X689738Y677308D02*
X689738Y686196D01*
X693738Y680641D01*
X693738Y679530D01*
X688404Y679530D01*
G54D11*
X693738Y714613D02*
X690404Y717946D01*
X690404Y709058D01*
G54D11*
X784225Y725884D02*
X780892Y716995D01*
X777558Y725884D01*
G54D11*
X782638Y671037D02*
X781971Y669926D01*
X780638Y669370D01*
X779304Y669370D01*
X777971Y669926D01*
X777304Y671037D01*
X777304Y672148D01*
X777971Y673259D01*
X779304Y673814D01*
X780638Y673814D01*
X781971Y674370D01*
X782638Y675481D01*
X782638Y676592D01*
X781971Y677703D01*
X780638Y678259D01*
X779304Y678259D01*
X777971Y677703D01*
X777304Y676592D01*
G54D10*
X71462Y633625D02*
X71462Y655625D01*
X109462Y655625D01*
X109462Y633625D01*
X71462Y633625D01*
G54D10*
X71462Y606638D02*
X71462Y628638D01*
X109462Y628638D01*
X109462Y606638D01*
X71462Y606638D01*
G54D11*
X61088Y611288D02*
X61088Y620176D01*
X65088Y614621D01*
X65088Y613510D01*
X59754Y613510D01*
G54D11*
X65088Y648593D02*
X61754Y651926D01*
X61754Y643038D01*
G54D11*
X155575Y659864D02*
X152242Y650975D01*
X148908Y659864D01*
G54D11*
X153988Y605017D02*
X153321Y603906D01*
X151988Y603350D01*
X150654Y603350D01*
X149321Y603906D01*
X148654Y605017D01*
X148654Y606128D01*
X149321Y607239D01*
X150654Y607794D01*
X151988Y607794D01*
X153321Y608350D01*
X153988Y609461D01*
X153988Y610572D01*
X153321Y611683D01*
X151988Y612239D01*
X150654Y612239D01*
X149321Y611683D01*
X148654Y610572D01*
G54D10*
X281012Y633625D02*
X281012Y655625D01*
X319012Y655625D01*
X319012Y633625D01*
X281012Y633625D01*
G54D10*
X281012Y606638D02*
X281012Y628638D01*
X319012Y628638D01*
X319012Y606638D01*
X281012Y606638D01*
G54D11*
X270638Y611288D02*
X270638Y620176D01*
X274638Y614621D01*
X274638Y613510D01*
X269304Y613510D01*
G54D11*
X274638Y648593D02*
X271304Y651926D01*
X271304Y643038D01*
G54D11*
X365125Y659864D02*
X361792Y650975D01*
X358458Y659864D01*
G54D11*
X363538Y605017D02*
X362871Y603906D01*
X361538Y603350D01*
X360204Y603350D01*
X358871Y603906D01*
X358204Y605017D01*
X358204Y606128D01*
X358871Y607239D01*
X360204Y607794D01*
X361538Y607794D01*
X362871Y608350D01*
X363538Y609461D01*
X363538Y610572D01*
X362871Y611683D01*
X361538Y612239D01*
X360204Y612239D01*
X358871Y611683D01*
X358204Y610572D01*
G54D10*
X490562Y633625D02*
X490562Y655625D01*
X528562Y655625D01*
X528562Y633625D01*
X490562Y633625D01*
G54D10*
X490562Y606638D02*
X490562Y628638D01*
X528562Y628638D01*
X528562Y606638D01*
X490562Y606638D01*
G54D11*
X480188Y611288D02*
X480188Y620176D01*
X484188Y614621D01*
X484188Y613510D01*
X478854Y613510D01*
G54D11*
X484188Y648593D02*
X480854Y651926D01*
X480854Y643038D01*
G54D11*
X574675Y659864D02*
X571342Y650975D01*
X568008Y659864D01*
G54D11*
X573088Y605017D02*
X572421Y603906D01*
X571088Y603350D01*
X569754Y603350D01*
X568421Y603906D01*
X567754Y605017D01*
X567754Y606128D01*
X568421Y607239D01*
X569754Y607794D01*
X571088Y607794D01*
X572421Y608350D01*
X573088Y609461D01*
X573088Y610572D01*
X572421Y611683D01*
X571088Y612239D01*
X569754Y612239D01*
X568421Y611683D01*
X567754Y610572D01*
G54D10*
X700112Y633625D02*
X700112Y655625D01*
X738112Y655625D01*
X738112Y633625D01*
X700112Y633625D01*
G54D10*
X700112Y606638D02*
X700112Y628638D01*
X738112Y628638D01*
X738112Y606638D01*
X700112Y606638D01*
G54D11*
X689738Y611288D02*
X689738Y620176D01*
X693738Y614621D01*
X693738Y613510D01*
X688404Y613510D01*
G54D11*
X693738Y648593D02*
X690404Y651926D01*
X690404Y643038D01*
G54D11*
X784225Y659864D02*
X780892Y650975D01*
X777558Y659864D01*
G54D11*
X782638Y605017D02*
X781971Y603906D01*
X780638Y603350D01*
X779304Y603350D01*
X777971Y603906D01*
X777304Y605017D01*
X777304Y606128D01*
X777971Y607239D01*
X779304Y607794D01*
X780638Y607794D01*
X781971Y608350D01*
X782638Y609461D01*
X782638Y610572D01*
X781971Y611683D01*
X780638Y612239D01*
X779304Y612239D01*
X777971Y611683D01*
X777304Y610572D01*
G54D10*
X71462Y567605D02*
X71462Y589605D01*
X109462Y589605D01*
X109462Y567605D01*
X71462Y567605D01*
G54D10*
X71462Y540618D02*
X71462Y562618D01*
X109462Y562618D01*
X109462Y540618D01*
X71462Y540618D01*
G54D11*
X61088Y545268D02*
X61088Y554156D01*
X65088Y548601D01*
X65088Y547490D01*
X59754Y547490D01*
G54D11*
X65088Y582573D02*
X61754Y585906D01*
X61754Y577018D01*
G54D11*
X155575Y593844D02*
X152242Y584955D01*
X148908Y593844D01*
G54D11*
X153988Y538997D02*
X153321Y537886D01*
X151988Y537330D01*
X150654Y537330D01*
X149321Y537886D01*
X148654Y538997D01*
X148654Y540108D01*
X149321Y541219D01*
X150654Y541774D01*
X151988Y541774D01*
X153321Y542330D01*
X153988Y543441D01*
X153988Y544552D01*
X153321Y545663D01*
X151988Y546219D01*
X150654Y546219D01*
X149321Y545663D01*
X148654Y544552D01*
G54D10*
X281012Y567605D02*
X281012Y589605D01*
X319012Y589605D01*
X319012Y567605D01*
X281012Y567605D01*
G54D10*
X281012Y540618D02*
X281012Y562618D01*
X319012Y562618D01*
X319012Y540618D01*
X281012Y540618D01*
G54D11*
X270638Y545268D02*
X270638Y554156D01*
X274638Y548601D01*
X274638Y547490D01*
X269304Y547490D01*
G54D11*
X274638Y582573D02*
X271304Y585906D01*
X271304Y577018D01*
G54D11*
X365125Y593844D02*
X361792Y584955D01*
X358458Y593844D01*
G54D11*
X363538Y538997D02*
X362871Y537886D01*
X361538Y537330D01*
X360204Y537330D01*
X358871Y537886D01*
X358204Y538997D01*
X358204Y540108D01*
X358871Y541219D01*
X360204Y541774D01*
X361538Y541774D01*
X362871Y542330D01*
X363538Y543441D01*
X363538Y544552D01*
X362871Y545663D01*
X361538Y546219D01*
X360204Y546219D01*
X358871Y545663D01*
X358204Y544552D01*
G54D10*
X490562Y567605D02*
X490562Y589605D01*
X528562Y589605D01*
X528562Y567605D01*
X490562Y567605D01*
G54D10*
X490562Y540618D02*
X490562Y562618D01*
X528562Y562618D01*
X528562Y540618D01*
X490562Y540618D01*
G54D11*
X480188Y545268D02*
X480188Y554156D01*
X484188Y548601D01*
X484188Y547490D01*
X478854Y547490D01*
G54D11*
X484188Y582573D02*
X480854Y585906D01*
X480854Y577018D01*
G54D11*
X574675Y593844D02*
X571342Y584955D01*
X568008Y593844D01*
G54D11*
X573088Y538997D02*
X572421Y537886D01*
X571088Y537330D01*
X569754Y537330D01*
X568421Y537886D01*
X567754Y538997D01*
X567754Y540108D01*
X568421Y541219D01*
X569754Y541774D01*
X571088Y541774D01*
X572421Y542330D01*
X573088Y543441D01*
X573088Y544552D01*
X572421Y545663D01*
X571088Y546219D01*
X569754Y546219D01*
X568421Y545663D01*
X567754Y544552D01*
G54D10*
X700112Y567605D02*
X700112Y589605D01*
X738112Y589605D01*
X738112Y567605D01*
X700112Y567605D01*
G54D10*
X700112Y540618D02*
X700112Y562618D01*
X738112Y562618D01*
X738112Y540618D01*
X700112Y540618D01*
G54D11*
X689738Y545268D02*
X689738Y554156D01*
X693738Y548601D01*
X693738Y547490D01*
X688404Y547490D01*
G54D11*
X693738Y582573D02*
X690404Y585906D01*
X690404Y577018D01*
G54D11*
X784225Y593844D02*
X780892Y584955D01*
X777558Y593844D01*
G54D11*
X782638Y538997D02*
X781971Y537886D01*
X780638Y537330D01*
X779304Y537330D01*
X777971Y537886D01*
X777304Y538997D01*
X777304Y540108D01*
X777971Y541219D01*
X779304Y541774D01*
X780638Y541774D01*
X781971Y542330D01*
X782638Y543441D01*
X782638Y544552D01*
X781971Y545663D01*
X780638Y546219D01*
X779304Y546219D01*
X777971Y545663D01*
X777304Y544552D01*
G54D10*
X71462Y501585D02*
X71462Y523585D01*
X109462Y523585D01*
X109462Y501585D01*
X71462Y501585D01*
G54D10*
X71462Y474598D02*
X71462Y496598D01*
X109462Y496598D01*
X109462Y474598D01*
X71462Y474598D01*
G54D11*
X61088Y479248D02*
X61088Y488136D01*
X65088Y482581D01*
X65088Y481470D01*
X59754Y481470D01*
G54D11*
X65088Y516553D02*
X61754Y519886D01*
X61754Y510998D01*
G54D11*
X155575Y527824D02*
X152242Y518935D01*
X148908Y527824D01*
G54D11*
X153988Y472977D02*
X153321Y471866D01*
X151988Y471310D01*
X150654Y471310D01*
X149321Y471866D01*
X148654Y472977D01*
X148654Y474088D01*
X149321Y475199D01*
X150654Y475754D01*
X151988Y475754D01*
X153321Y476310D01*
X153988Y477421D01*
X153988Y478532D01*
X153321Y479643D01*
X151988Y480199D01*
X150654Y480199D01*
X149321Y479643D01*
X148654Y478532D01*
G54D10*
X281012Y501585D02*
X281012Y523585D01*
X319012Y523585D01*
X319012Y501585D01*
X281012Y501585D01*
G54D10*
X281012Y474598D02*
X281012Y496598D01*
X319012Y496598D01*
X319012Y474598D01*
X281012Y474598D01*
G54D11*
X270638Y479248D02*
X270638Y488136D01*
X274638Y482581D01*
X274638Y481470D01*
X269304Y481470D01*
G54D11*
X274638Y516553D02*
X271304Y519886D01*
X271304Y510998D01*
G54D11*
X365125Y527824D02*
X361792Y518935D01*
X358458Y527824D01*
G54D11*
X363538Y472977D02*
X362871Y471866D01*
X361538Y471310D01*
X360204Y471310D01*
X358871Y471866D01*
X358204Y472977D01*
X358204Y474088D01*
X358871Y475199D01*
X360204Y475754D01*
X361538Y475754D01*
X362871Y476310D01*
X363538Y477421D01*
X363538Y478532D01*
X362871Y479643D01*
X361538Y480199D01*
X360204Y480199D01*
X358871Y479643D01*
X358204Y478532D01*
G54D10*
X490562Y501585D02*
X490562Y523585D01*
X528562Y523585D01*
X528562Y501585D01*
X490562Y501585D01*
G54D10*
X490562Y474598D02*
X490562Y496598D01*
X528562Y496598D01*
X528562Y474598D01*
X490562Y474598D01*
G54D11*
X480188Y479248D02*
X480188Y488136D01*
X484188Y482581D01*
X484188Y481470D01*
X478854Y481470D01*
G54D11*
X484188Y516553D02*
X480854Y519886D01*
X480854Y510998D01*
G54D11*
X574675Y527824D02*
X571342Y518935D01*
X568008Y527824D01*
G54D11*
X573088Y472977D02*
X572421Y471866D01*
X571088Y471310D01*
X569754Y471310D01*
X568421Y471866D01*
X567754Y472977D01*
X567754Y474088D01*
X568421Y475199D01*
X569754Y475754D01*
X571088Y475754D01*
X572421Y476310D01*
X573088Y477421D01*
X573088Y478532D01*
X572421Y479643D01*
X571088Y480199D01*
X569754Y480199D01*
X568421Y479643D01*
X567754Y478532D01*
G54D10*
X700112Y501585D02*
X700112Y523585D01*
X738112Y523585D01*
X738112Y501585D01*
X700112Y501585D01*
G54D10*
X700112Y474598D02*
X700112Y496598D01*
X738112Y496598D01*
X738112Y474598D01*
X700112Y474598D01*
G54D11*
X689738Y479248D02*
X689738Y488136D01*
X693738Y482581D01*
X693738Y481470D01*
X688404Y481470D01*
G54D11*
X693738Y516553D02*
X690404Y519886D01*
X690404Y510998D01*
G54D11*
X784225Y527824D02*
X780892Y518935D01*
X777558Y527824D01*
G54D11*
X782638Y472977D02*
X781971Y471866D01*
X780638Y471310D01*
X779304Y471310D01*
X777971Y471866D01*
X777304Y472977D01*
X777304Y474088D01*
X777971Y475199D01*
X779304Y475754D01*
X780638Y475754D01*
X781971Y476310D01*
X782638Y477421D01*
X782638Y478532D01*
X781971Y479643D01*
X780638Y480199D01*
X779304Y480199D01*
X777971Y479643D01*
X777304Y478532D01*
G54D10*
X71462Y435565D02*
X71462Y457565D01*
X109462Y457565D01*
X109462Y435565D01*
X71462Y435565D01*
G54D10*
X71462Y408578D02*
X71462Y430578D01*
X109462Y430578D01*
X109462Y408578D01*
X71462Y408578D01*
G54D11*
X61088Y413228D02*
X61088Y422116D01*
X65088Y416561D01*
X65088Y415450D01*
X59754Y415450D01*
G54D11*
X65088Y450533D02*
X61754Y453866D01*
X61754Y444978D01*
G54D11*
X155575Y461804D02*
X152242Y452915D01*
X148908Y461804D01*
G54D11*
X153988Y406957D02*
X153321Y405846D01*
X151988Y405290D01*
X150654Y405290D01*
X149321Y405846D01*
X148654Y406957D01*
X148654Y408068D01*
X149321Y409179D01*
X150654Y409734D01*
X151988Y409734D01*
X153321Y410290D01*
X153988Y411401D01*
X153988Y412512D01*
X153321Y413623D01*
X151988Y414179D01*
X150654Y414179D01*
X149321Y413623D01*
X148654Y412512D01*
G54D10*
X281012Y435565D02*
X281012Y457565D01*
X319012Y457565D01*
X319012Y435565D01*
X281012Y435565D01*
G54D10*
X281012Y408578D02*
X281012Y430578D01*
X319012Y430578D01*
X319012Y408578D01*
X281012Y408578D01*
G54D11*
X270638Y413228D02*
X270638Y422116D01*
X274638Y416561D01*
X274638Y415450D01*
X269304Y415450D01*
G54D11*
X274638Y450533D02*
X271304Y453866D01*
X271304Y444978D01*
G54D11*
X365125Y461804D02*
X361792Y452915D01*
X358458Y461804D01*
G54D11*
X363538Y406957D02*
X362871Y405846D01*
X361538Y405290D01*
X360204Y405290D01*
X358871Y405846D01*
X358204Y406957D01*
X358204Y408068D01*
X358871Y409179D01*
X360204Y409734D01*
X361538Y409734D01*
X362871Y410290D01*
X363538Y411401D01*
X363538Y412512D01*
X362871Y413623D01*
X361538Y414179D01*
X360204Y414179D01*
X358871Y413623D01*
X358204Y412512D01*
G54D10*
X490562Y435565D02*
X490562Y457565D01*
X528562Y457565D01*
X528562Y435565D01*
X490562Y435565D01*
G54D10*
X490562Y408578D02*
X490562Y430578D01*
X528562Y430578D01*
X528562Y408578D01*
X490562Y408578D01*
G54D11*
X480188Y413228D02*
X480188Y422116D01*
X484188Y416561D01*
X484188Y415450D01*
X478854Y415450D01*
G54D11*
X484188Y450533D02*
X480854Y453866D01*
X480854Y444978D01*
G54D11*
X574675Y461804D02*
X571342Y452915D01*
X568008Y461804D01*
G54D11*
X573088Y406957D02*
X572421Y405846D01*
X571088Y405290D01*
X569754Y405290D01*
X568421Y405846D01*
X567754Y406957D01*
X567754Y408068D01*
X568421Y409179D01*
X569754Y409734D01*
X571088Y409734D01*
X572421Y410290D01*
X573088Y411401D01*
X573088Y412512D01*
X572421Y413623D01*
X571088Y414179D01*
X569754Y414179D01*
X568421Y413623D01*
X567754Y412512D01*
G54D10*
X700112Y435565D02*
X700112Y457565D01*
X738112Y457565D01*
X738112Y435565D01*
X700112Y435565D01*
G54D10*
X700112Y408578D02*
X700112Y430578D01*
X738112Y430578D01*
X738112Y408578D01*
X700112Y408578D01*
G54D11*
X689738Y413228D02*
X689738Y422116D01*
X693738Y416561D01*
X693738Y415450D01*
X688404Y415450D01*
G54D11*
X693738Y450533D02*
X690404Y453866D01*
X690404Y444978D01*
G54D11*
X784225Y461804D02*
X780892Y452915D01*
X777558Y461804D01*
G54D11*
X782638Y406957D02*
X781971Y405846D01*
X780638Y405290D01*
X779304Y405290D01*
X777971Y405846D01*
X777304Y406957D01*
X777304Y408068D01*
X777971Y409179D01*
X779304Y409734D01*
X780638Y409734D01*
X781971Y410290D01*
X782638Y411401D01*
X782638Y412512D01*
X781971Y413623D01*
X780638Y414179D01*
X779304Y414179D01*
X777971Y413623D01*
X777304Y412512D01*
G54D10*
X71462Y369545D02*
X71462Y391545D01*
X109462Y391545D01*
X109462Y369545D01*
X71462Y369545D01*
G54D10*
X71462Y342558D02*
X71462Y364558D01*
X109462Y364558D01*
X109462Y342558D01*
X71462Y342558D01*
G54D11*
X61088Y347208D02*
X61088Y356096D01*
X65088Y350541D01*
X65088Y349430D01*
X59754Y349430D01*
G54D11*
X65088Y384513D02*
X61754Y387846D01*
X61754Y378958D01*
G54D11*
X155575Y395784D02*
X152242Y386895D01*
X148908Y395784D01*
G54D11*
X153988Y340937D02*
X153321Y339826D01*
X151988Y339270D01*
X150654Y339270D01*
X149321Y339826D01*
X148654Y340937D01*
X148654Y342048D01*
X149321Y343159D01*
X150654Y343714D01*
X151988Y343714D01*
X153321Y344270D01*
X153988Y345381D01*
X153988Y346492D01*
X153321Y347603D01*
X151988Y348159D01*
X150654Y348159D01*
X149321Y347603D01*
X148654Y346492D01*
G54D10*
X281012Y369545D02*
X281012Y391545D01*
X319012Y391545D01*
X319012Y369545D01*
X281012Y369545D01*
G54D10*
X281012Y342558D02*
X281012Y364558D01*
X319012Y364558D01*
X319012Y342558D01*
X281012Y342558D01*
G54D11*
X270638Y347208D02*
X270638Y356096D01*
X274638Y350541D01*
X274638Y349430D01*
X269304Y349430D01*
G54D11*
X274638Y384513D02*
X271304Y387846D01*
X271304Y378958D01*
G54D11*
X365125Y395784D02*
X361792Y386895D01*
X358458Y395784D01*
G54D11*
X363538Y340937D02*
X362871Y339826D01*
X361538Y339270D01*
X360204Y339270D01*
X358871Y339826D01*
X358204Y340937D01*
X358204Y342048D01*
X358871Y343159D01*
X360204Y343714D01*
X361538Y343714D01*
X362871Y344270D01*
X363538Y345381D01*
X363538Y346492D01*
X362871Y347603D01*
X361538Y348159D01*
X360204Y348159D01*
X358871Y347603D01*
X358204Y346492D01*
G54D10*
X490562Y369545D02*
X490562Y391545D01*
X528562Y391545D01*
X528562Y369545D01*
X490562Y369545D01*
G54D10*
X490562Y342558D02*
X490562Y364558D01*
X528562Y364558D01*
X528562Y342558D01*
X490562Y342558D01*
G54D11*
X480188Y347208D02*
X480188Y356096D01*
X484188Y350541D01*
X484188Y349430D01*
X478854Y349430D01*
G54D11*
X484188Y384513D02*
X480854Y387846D01*
X480854Y378958D01*
G54D11*
X574675Y395784D02*
X571342Y386895D01*
X568008Y395784D01*
G54D11*
X573088Y340937D02*
X572421Y339826D01*
X571088Y339270D01*
X569754Y339270D01*
X568421Y339826D01*
X567754Y340937D01*
X567754Y342048D01*
X568421Y343159D01*
X569754Y343714D01*
X571088Y343714D01*
X572421Y344270D01*
X573088Y345381D01*
X573088Y346492D01*
X572421Y347603D01*
X571088Y348159D01*
X569754Y348159D01*
X568421Y347603D01*
X567754Y346492D01*
G54D10*
X700112Y369545D02*
X700112Y391545D01*
X738112Y391545D01*
X738112Y369545D01*
X700112Y369545D01*
G54D10*
X700112Y342558D02*
X700112Y364558D01*
X738112Y364558D01*
X738112Y342558D01*
X700112Y342558D01*
G54D11*
X689738Y347208D02*
X689738Y356096D01*
X693738Y350541D01*
X693738Y349430D01*
X688404Y349430D01*
G54D11*
X693738Y384513D02*
X690404Y387846D01*
X690404Y378958D01*
G54D11*
X784225Y395784D02*
X780892Y386895D01*
X777558Y395784D01*
G54D11*
X782638Y340937D02*
X781971Y339826D01*
X780638Y339270D01*
X779304Y339270D01*
X777971Y339826D01*
X777304Y340937D01*
X777304Y342048D01*
X777971Y343159D01*
X779304Y343714D01*
X780638Y343714D01*
X781971Y344270D01*
X782638Y345381D01*
X782638Y346492D01*
X781971Y347603D01*
X780638Y348159D01*
X779304Y348159D01*
X777971Y347603D01*
X777304Y346492D01*
G54D10*
X71462Y303525D02*
X71462Y325525D01*
X109462Y325525D01*
X109462Y303525D01*
X71462Y303525D01*
G54D10*
X71462Y276538D02*
X71462Y298538D01*
X109462Y298538D01*
X109462Y276538D01*
X71462Y276538D01*
G54D11*
X61088Y281188D02*
X61088Y290076D01*
X65088Y284521D01*
X65088Y283410D01*
X59754Y283410D01*
G54D11*
X65088Y318493D02*
X61754Y321826D01*
X61754Y312938D01*
G54D11*
X155575Y329764D02*
X152242Y320875D01*
X148908Y329764D01*
G54D11*
X153988Y274917D02*
X153321Y273806D01*
X151988Y273250D01*
X150654Y273250D01*
X149321Y273806D01*
X148654Y274917D01*
X148654Y276028D01*
X149321Y277139D01*
X150654Y277694D01*
X151988Y277694D01*
X153321Y278250D01*
X153988Y279361D01*
X153988Y280472D01*
X153321Y281583D01*
X151988Y282139D01*
X150654Y282139D01*
X149321Y281583D01*
X148654Y280472D01*
G54D10*
X281012Y303525D02*
X281012Y325525D01*
X319012Y325525D01*
X319012Y303525D01*
X281012Y303525D01*
G54D10*
X281012Y276538D02*
X281012Y298538D01*
X319012Y298538D01*
X319012Y276538D01*
X281012Y276538D01*
G54D11*
X270638Y281188D02*
X270638Y290076D01*
X274638Y284521D01*
X274638Y283410D01*
X269304Y283410D01*
G54D11*
X274638Y318493D02*
X271304Y321826D01*
X271304Y312938D01*
G54D11*
X365125Y329764D02*
X361792Y320875D01*
X358458Y329764D01*
G54D11*
X363538Y274917D02*
X362871Y273806D01*
X361538Y273250D01*
X360204Y273250D01*
X358871Y273806D01*
X358204Y274917D01*
X358204Y276028D01*
X358871Y277139D01*
X360204Y277694D01*
X361538Y277694D01*
X362871Y278250D01*
X363538Y279361D01*
X363538Y280472D01*
X362871Y281583D01*
X361538Y282139D01*
X360204Y282139D01*
X358871Y281583D01*
X358204Y280472D01*
G54D10*
X490562Y303525D02*
X490562Y325525D01*
X528562Y325525D01*
X528562Y303525D01*
X490562Y303525D01*
G54D10*
X490562Y276538D02*
X490562Y298538D01*
X528562Y298538D01*
X528562Y276538D01*
X490562Y276538D01*
G54D11*
X480187Y281188D02*
X480187Y290076D01*
X484188Y284521D01*
X484188Y283410D01*
X478854Y283410D01*
G54D11*
X484188Y318493D02*
X480854Y321826D01*
X480854Y312938D01*
G54D11*
X574675Y329764D02*
X571342Y320875D01*
X568008Y329764D01*
G54D11*
X573088Y274917D02*
X572421Y273806D01*
X571088Y273250D01*
X569754Y273250D01*
X568421Y273806D01*
X567754Y274917D01*
X567754Y276028D01*
X568421Y277139D01*
X569754Y277694D01*
X571088Y277694D01*
X572421Y278250D01*
X573088Y279361D01*
X573088Y280472D01*
X572421Y281583D01*
X571088Y282139D01*
X569754Y282139D01*
X568421Y281583D01*
X567754Y280472D01*
G54D10*
X700112Y303525D02*
X700112Y325525D01*
X738112Y325525D01*
X738112Y303525D01*
X700112Y303525D01*
G54D10*
X700112Y276538D02*
X700112Y298538D01*
X738112Y298538D01*
X738112Y276538D01*
X700112Y276538D01*
G54D11*
X689738Y281188D02*
X689738Y290076D01*
X693738Y284521D01*
X693738Y283410D01*
X688404Y283410D01*
G54D11*
X693738Y318493D02*
X690404Y321826D01*
X690404Y312938D01*
G54D11*
X784225Y329764D02*
X780892Y320875D01*
X777558Y329764D01*
G54D11*
X782638Y274917D02*
X781971Y273806D01*
X780638Y273250D01*
X779304Y273250D01*
X777971Y273806D01*
X777304Y274917D01*
X777304Y276028D01*
X777971Y277139D01*
X779304Y277694D01*
X780638Y277694D01*
X781971Y278250D01*
X782638Y279361D01*
X782638Y280472D01*
X781971Y281583D01*
X780638Y282139D01*
X779304Y282139D01*
X777971Y281583D01*
X777304Y280472D01*
G54D10*
X71462Y237505D02*
X71462Y259505D01*
X109462Y259505D01*
X109462Y237505D01*
X71462Y237505D01*
G54D10*
X71462Y210518D02*
X71462Y232518D01*
X109462Y232518D01*
X109462Y210518D01*
X71462Y210518D01*
G54D11*
X61088Y215168D02*
X61088Y224056D01*
X65088Y218501D01*
X65088Y217390D01*
X59754Y217390D01*
G54D11*
X65088Y252473D02*
X61754Y255806D01*
X61754Y246918D01*
G54D11*
X155575Y263744D02*
X152242Y254855D01*
X148908Y263744D01*
G54D11*
X153988Y208897D02*
X153321Y207786D01*
X151988Y207230D01*
X150654Y207230D01*
X149321Y207786D01*
X148654Y208897D01*
X148654Y210008D01*
X149321Y211119D01*
X150654Y211674D01*
X151988Y211674D01*
X153321Y212230D01*
X153988Y213341D01*
X153988Y214452D01*
X153321Y215563D01*
X151988Y216119D01*
X150654Y216119D01*
X149321Y215563D01*
X148654Y214452D01*
G54D10*
X281012Y237505D02*
X281012Y259505D01*
X319012Y259505D01*
X319012Y237505D01*
X281012Y237505D01*
G54D10*
X281012Y210518D02*
X281012Y232518D01*
X319012Y232518D01*
X319012Y210518D01*
X281012Y210518D01*
G54D11*
X270638Y215168D02*
X270638Y224056D01*
X274638Y218501D01*
X274638Y217390D01*
X269304Y217390D01*
G54D11*
X274638Y252473D02*
X271304Y255806D01*
X271304Y246918D01*
G54D11*
X365125Y263744D02*
X361792Y254855D01*
X358458Y263744D01*
G54D11*
X363538Y208897D02*
X362871Y207786D01*
X361538Y207230D01*
X360204Y207230D01*
X358871Y207786D01*
X358204Y208897D01*
X358204Y210008D01*
X358871Y211119D01*
X360204Y211674D01*
X361538Y211674D01*
X362871Y212230D01*
X363538Y213341D01*
X363538Y214452D01*
X362871Y215563D01*
X361538Y216119D01*
X360204Y216119D01*
X358871Y215563D01*
X358204Y214452D01*
G54D10*
X490562Y237505D02*
X490562Y259505D01*
X528562Y259505D01*
X528562Y237505D01*
X490562Y237505D01*
G54D10*
X490562Y210518D02*
X490562Y232518D01*
X528562Y232518D01*
X528562Y210518D01*
X490562Y210518D01*
G54D11*
X480187Y215168D02*
X480187Y224056D01*
X484188Y218501D01*
X484188Y217390D01*
X478854Y217390D01*
G54D11*
X484188Y252473D02*
X480854Y255806D01*
X480854Y246918D01*
G54D11*
X574675Y263744D02*
X571342Y254855D01*
X568008Y263744D01*
G54D11*
X573088Y208897D02*
X572421Y207786D01*
X571088Y207230D01*
X569754Y207230D01*
X568421Y207786D01*
X567754Y208897D01*
X567754Y210008D01*
X568421Y211119D01*
X569754Y211674D01*
X571088Y211674D01*
X572421Y212230D01*
X573088Y213341D01*
X573088Y214452D01*
X572421Y215563D01*
X571088Y216119D01*
X569754Y216119D01*
X568421Y215563D01*
X567754Y214452D01*
G54D10*
X700112Y237505D02*
X700112Y259505D01*
X738112Y259505D01*
X738112Y237505D01*
X700112Y237505D01*
G54D10*
X700112Y210518D02*
X700112Y232518D01*
X738112Y232518D01*
X738112Y210518D01*
X700112Y210518D01*
G54D11*
X689738Y215168D02*
X689738Y224056D01*
X693738Y218501D01*
X693738Y217390D01*
X688404Y217390D01*
G54D11*
X693738Y252473D02*
X690404Y255806D01*
X690404Y246918D01*
G54D11*
X784225Y263744D02*
X780892Y254855D01*
X777558Y263744D01*
G54D11*
X782638Y208897D02*
X781971Y207786D01*
X780638Y207230D01*
X779304Y207230D01*
X777971Y207786D01*
X777304Y208897D01*
X777304Y210008D01*
X777971Y211119D01*
X779304Y211674D01*
X780638Y211674D01*
X781971Y212230D01*
X782638Y213341D01*
X782638Y214452D01*
X781971Y215563D01*
X780638Y216119D01*
X779304Y216119D01*
X777971Y215563D01*
X777304Y214452D01*
G54D10*
X71462Y171485D02*
X71462Y193485D01*
X109462Y193485D01*
X109462Y171485D01*
X71462Y171485D01*
G54D10*
X71462Y144498D02*
X71462Y166498D01*
X109462Y166498D01*
X109462Y144498D01*
X71462Y144498D01*
G54D11*
X61088Y149148D02*
X61088Y158036D01*
X65088Y152481D01*
X65088Y151370D01*
X59754Y151370D01*
G54D11*
X65088Y186453D02*
X61754Y189786D01*
X61754Y180898D01*
G54D11*
X155575Y197724D02*
X152242Y188835D01*
X148908Y197724D01*
G54D11*
X153988Y142877D02*
X153321Y141766D01*
X151988Y141210D01*
X150654Y141210D01*
X149321Y141766D01*
X148654Y142877D01*
X148654Y143988D01*
X149321Y145099D01*
X150654Y145654D01*
X151988Y145654D01*
X153321Y146210D01*
X153988Y147321D01*
X153988Y148432D01*
X153321Y149543D01*
X151988Y150099D01*
X150654Y150099D01*
X149321Y149543D01*
X148654Y148432D01*
G54D10*
X281012Y171485D02*
X281012Y193485D01*
X319012Y193485D01*
X319012Y171485D01*
X281012Y171485D01*
G54D10*
X281012Y144498D02*
X281012Y166498D01*
X319012Y166498D01*
X319012Y144498D01*
X281012Y144498D01*
G54D11*
X270638Y149148D02*
X270638Y158036D01*
X274638Y152481D01*
X274638Y151370D01*
X269304Y151370D01*
G54D11*
X274638Y186453D02*
X271304Y189786D01*
X271304Y180898D01*
G54D11*
X365125Y197724D02*
X361792Y188835D01*
X358458Y197724D01*
G54D11*
X363538Y142877D02*
X362871Y141766D01*
X361538Y141210D01*
X360204Y141210D01*
X358871Y141766D01*
X358204Y142877D01*
X358204Y143988D01*
X358871Y145099D01*
X360204Y145654D01*
X361538Y145654D01*
X362871Y146210D01*
X363538Y147321D01*
X363538Y148432D01*
X362871Y149543D01*
X361538Y150099D01*
X360204Y150099D01*
X358871Y149543D01*
X358204Y148432D01*
G54D10*
X490562Y171485D02*
X490562Y193485D01*
X528562Y193485D01*
X528562Y171485D01*
X490562Y171485D01*
G54D10*
X490562Y144498D02*
X490562Y166498D01*
X528562Y166498D01*
X528562Y144498D01*
X490562Y144498D01*
G54D11*
X480187Y149148D02*
X480187Y158036D01*
X484188Y152481D01*
X484188Y151370D01*
X478854Y151370D01*
G54D11*
X484188Y186453D02*
X480854Y189786D01*
X480854Y180898D01*
G54D11*
X574675Y197724D02*
X571342Y188835D01*
X568008Y197724D01*
G54D11*
X573088Y142877D02*
X572421Y141766D01*
X571088Y141210D01*
X569754Y141210D01*
X568421Y141766D01*
X567754Y142877D01*
X567754Y143988D01*
X568421Y145099D01*
X569754Y145654D01*
X571088Y145654D01*
X572421Y146210D01*
X573088Y147321D01*
X573088Y148432D01*
X572421Y149543D01*
X571088Y150099D01*
X569754Y150099D01*
X568421Y149543D01*
X567754Y148432D01*
G54D10*
X700112Y171485D02*
X700112Y193485D01*
X738112Y193485D01*
X738112Y171485D01*
X700112Y171485D01*
G54D10*
X700112Y144498D02*
X700112Y166498D01*
X738112Y166498D01*
X738112Y144498D01*
X700112Y144498D01*
G54D11*
X689738Y149148D02*
X689738Y158036D01*
X693738Y152481D01*
X693738Y151370D01*
X688404Y151370D01*
G54D11*
X693738Y186453D02*
X690404Y189786D01*
X690404Y180898D01*
G54D11*
X784225Y197724D02*
X780892Y188835D01*
X777558Y197724D01*
G54D11*
X782638Y142877D02*
X781971Y141766D01*
X780638Y141210D01*
X779304Y141210D01*
X777971Y141766D01*
X777304Y142877D01*
X777304Y143988D01*
X777971Y145099D01*
X779304Y145654D01*
X780638Y145654D01*
X781971Y146210D01*
X782638Y147321D01*
X782638Y148432D01*
X781971Y149543D01*
X780638Y150099D01*
X779304Y150099D01*
X777971Y149543D01*
X777304Y148432D01*
G54D10*
X71462Y105465D02*
X71462Y127465D01*
X109462Y127465D01*
X109462Y105465D01*
X71462Y105465D01*
G54D10*
X71462Y78478D02*
X71462Y100478D01*
X109462Y100478D01*
X109462Y78478D01*
X71462Y78478D01*
G54D11*
X61088Y83128D02*
X61088Y92016D01*
X65088Y86461D01*
X65088Y85350D01*
X59754Y85350D01*
G54D11*
X65088Y120433D02*
X61754Y123766D01*
X61754Y114878D01*
G54D11*
X155575Y131704D02*
X152242Y122815D01*
X148908Y131704D01*
G54D11*
X153988Y76857D02*
X153321Y75746D01*
X151988Y75190D01*
X150654Y75190D01*
X149321Y75746D01*
X148654Y76857D01*
X148654Y77968D01*
X149321Y79079D01*
X150654Y79634D01*
X151988Y79634D01*
X153321Y80190D01*
X153988Y81301D01*
X153988Y82412D01*
X153321Y83523D01*
X151988Y84079D01*
X150654Y84079D01*
X149321Y83523D01*
X148654Y82412D01*
G54D10*
X281012Y105465D02*
X281012Y127465D01*
X319012Y127465D01*
X319012Y105465D01*
X281012Y105465D01*
G54D10*
X281012Y78478D02*
X281012Y100478D01*
X319012Y100478D01*
X319012Y78478D01*
X281012Y78478D01*
G54D11*
X270638Y83128D02*
X270638Y92016D01*
X274638Y86461D01*
X274638Y85350D01*
X269304Y85350D01*
G54D11*
X274638Y120433D02*
X271304Y123766D01*
X271304Y114878D01*
G54D11*
X365125Y131704D02*
X361792Y122815D01*
X358458Y131704D01*
G54D11*
X363538Y76857D02*
X362871Y75746D01*
X361538Y75190D01*
X360204Y75190D01*
X358871Y75746D01*
X358204Y76857D01*
X358204Y77968D01*
X358871Y79079D01*
X360204Y79634D01*
X361538Y79634D01*
X362871Y80190D01*
X363538Y81301D01*
X363538Y82412D01*
X362871Y83523D01*
X361538Y84079D01*
X360204Y84079D01*
X358871Y83523D01*
X358204Y82412D01*
G54D10*
X490562Y105465D02*
X490562Y127465D01*
X528562Y127465D01*
X528562Y105465D01*
X490562Y105465D01*
G54D10*
X490562Y78478D02*
X490562Y100478D01*
X528562Y100478D01*
X528562Y78478D01*
X490562Y78478D01*
G54D11*
X480188Y83128D02*
X480188Y92016D01*
X484188Y86461D01*
X484188Y85350D01*
X478854Y85350D01*
G54D11*
X484188Y120433D02*
X480854Y123766D01*
X480854Y114878D01*
G54D11*
X574675Y131704D02*
X571342Y122815D01*
X568008Y131704D01*
G54D11*
X573088Y76857D02*
X572421Y75746D01*
X571088Y75190D01*
X569754Y75190D01*
X568421Y75746D01*
X567754Y76857D01*
X567754Y77968D01*
X568421Y79079D01*
X569754Y79634D01*
X571088Y79634D01*
X572421Y80190D01*
X573088Y81301D01*
X573088Y82412D01*
X572421Y83523D01*
X571088Y84079D01*
X569754Y84079D01*
X568421Y83523D01*
X567754Y82412D01*
G54D10*
X700112Y105465D02*
X700112Y127465D01*
X738112Y127465D01*
X738112Y105465D01*
X700112Y105465D01*
G54D10*
X700112Y78478D02*
X700112Y100478D01*
X738112Y100478D01*
X738112Y78478D01*
X700112Y78478D01*
G54D11*
X689738Y83128D02*
X689738Y92016D01*
X693738Y86461D01*
X693738Y85350D01*
X688404Y85350D01*
G54D11*
X693738Y120433D02*
X690404Y123766D01*
X690404Y114878D01*
G54D11*
X784225Y131704D02*
X780892Y122815D01*
X777558Y131704D01*
G54D11*
X782638Y76857D02*
X781971Y75746D01*
X780638Y75190D01*
X779304Y75190D01*
X777971Y75746D01*
X777304Y76857D01*
X777304Y77968D01*
X777971Y79079D01*
X779304Y79634D01*
X780638Y79634D01*
X781971Y80190D01*
X782638Y81301D01*
X782638Y82412D01*
X781971Y83523D01*
X780638Y84079D01*
X779304Y84079D01*
X777971Y83523D01*
X777304Y82412D01*
M02*
