; Drill file
; Format: 2.4 (00.0000)
M48
INCH
T01C0.0866
%
G05
G90
T01
X005310Y004090
X005310Y006680
X005310Y009280
X005310Y011880
X005310Y014480
X005310Y017080
X005310Y019680
X005310Y022280
X005310Y024880
X005310Y027480
X005310Y030080
X005310Y032680
X005310Y035280
X005310Y037880
X013560Y037880
X013560Y035280
X013560Y032680
X013560Y030080
X013560Y027480
X013560Y024880
X013560Y022280
X013560Y019680
X013560Y017080
X013560Y014480
X013560Y011880
X013560Y009280
X013560Y006680
X013560Y004090
X021810Y004090
X021810Y006680
X021810Y009280
X021810Y011880
X021810Y014480
X021810Y017080
X021810Y019680
X021810Y022280
X021810Y024880
X021810Y027480
X021810Y030080
X021810Y032680
X021810Y035280
X021810Y037880
X030060Y037880
X030060Y035280
X030060Y032680
X030060Y030080
X030060Y027480
X030060Y024880
X030060Y022280
X030060Y019680
X030060Y017080
X030060Y014480
X030060Y011880
X030060Y009280
X030060Y006680
X030060Y004090
M30
