%FSLAX34Y34*%
%MOMM*%
%LNSILK_TOP*%
G71*
G01*
%ADD10C, 0.111*%
%LPD*%
G54D10*
X61912Y948610D02*
X62579Y949721D01*
X63912Y950276D01*
X65246Y950276D01*
X66579Y949721D01*
X67246Y948610D01*
X67246Y947499D01*
X66579Y946388D01*
X65246Y945832D01*
X66579Y945276D01*
X67246Y944165D01*
X67246Y943054D01*
X66579Y941943D01*
X65246Y941388D01*
X63912Y941388D01*
X62579Y941943D01*
X61912Y943054D01*
G54D10*
X67246Y973138D02*
X61912Y973138D01*
X61912Y973693D01*
X62579Y974804D01*
X66579Y978138D01*
X67246Y979249D01*
X67246Y980360D01*
X66579Y981471D01*
X65246Y982026D01*
X63912Y982026D01*
X62579Y981471D01*
X61912Y980360D01*
G54D10*
X151892Y985519D02*
X154558Y985519D01*
X154558Y982742D01*
X153892Y981631D01*
X152558Y981075D01*
X151225Y981075D01*
X149892Y981631D01*
X149225Y982742D01*
X149225Y988297D01*
X149892Y989408D01*
X151225Y989964D01*
X152558Y989964D01*
X153892Y989408D01*
X154558Y988297D01*
G54D10*
X151892Y937894D02*
X154558Y937894D01*
X154558Y935117D01*
X153892Y934006D01*
X152558Y933450D01*
X151225Y933450D01*
X149892Y934006D01*
X149225Y935117D01*
X149225Y940672D01*
X149892Y941783D01*
X151225Y942339D01*
X152558Y942339D01*
X153892Y941783D01*
X154558Y940672D01*
G54D10*
X271462Y948610D02*
X272129Y949721D01*
X273462Y950276D01*
X274796Y950276D01*
X276129Y949721D01*
X276796Y948610D01*
X276796Y947499D01*
X276129Y946388D01*
X274796Y945832D01*
X276129Y945276D01*
X276796Y944165D01*
X276796Y943054D01*
X276129Y941943D01*
X274796Y941388D01*
X273462Y941388D01*
X272129Y941943D01*
X271462Y943054D01*
G54D10*
X276796Y973138D02*
X271462Y973138D01*
X271462Y973693D01*
X272129Y974804D01*
X276129Y978138D01*
X276796Y979249D01*
X276796Y980360D01*
X276129Y981471D01*
X274796Y982026D01*
X273462Y982026D01*
X272129Y981471D01*
X271462Y980360D01*
G54D10*
X361442Y985519D02*
X364108Y985519D01*
X364108Y982742D01*
X363442Y981631D01*
X362108Y981075D01*
X360775Y981075D01*
X359442Y981631D01*
X358775Y982742D01*
X358775Y988297D01*
X359442Y989408D01*
X360775Y989964D01*
X362108Y989964D01*
X363442Y989408D01*
X364108Y988297D01*
G54D10*
X361442Y937894D02*
X364108Y937894D01*
X364108Y935117D01*
X363442Y934006D01*
X362108Y933450D01*
X360775Y933450D01*
X359442Y934006D01*
X358775Y935117D01*
X358775Y940672D01*
X359442Y941783D01*
X360775Y942339D01*
X362108Y942339D01*
X363442Y941783D01*
X364108Y940672D01*
G54D10*
X481012Y948610D02*
X481679Y949721D01*
X483012Y950276D01*
X484346Y950276D01*
X485679Y949721D01*
X486346Y948610D01*
X486346Y947499D01*
X485679Y946388D01*
X484346Y945832D01*
X485679Y945276D01*
X486346Y944165D01*
X486346Y943054D01*
X485679Y941943D01*
X484346Y941388D01*
X483012Y941388D01*
X481679Y941943D01*
X481012Y943054D01*
G54D10*
X486346Y973138D02*
X481012Y973138D01*
X481012Y973693D01*
X481679Y974804D01*
X485679Y978138D01*
X486346Y979249D01*
X486346Y980360D01*
X485679Y981471D01*
X484346Y982026D01*
X483012Y982026D01*
X481679Y981471D01*
X481012Y980360D01*
G54D10*
X570992Y985519D02*
X573658Y985519D01*
X573658Y982742D01*
X572992Y981631D01*
X571658Y981075D01*
X570325Y981075D01*
X568992Y981631D01*
X568325Y982742D01*
X568325Y988297D01*
X568992Y989408D01*
X570325Y989964D01*
X571658Y989964D01*
X572992Y989408D01*
X573658Y988297D01*
G54D10*
X570992Y937894D02*
X573658Y937894D01*
X573658Y935117D01*
X572992Y934006D01*
X571658Y933450D01*
X570325Y933450D01*
X568992Y934006D01*
X568325Y935117D01*
X568325Y940672D01*
X568992Y941783D01*
X570325Y942339D01*
X571658Y942339D01*
X572992Y941783D01*
X573658Y940672D01*
G54D10*
X690562Y948610D02*
X691229Y949721D01*
X692562Y950276D01*
X693896Y950276D01*
X695229Y949721D01*
X695896Y948610D01*
X695896Y947499D01*
X695229Y946388D01*
X693896Y945832D01*
X695229Y945276D01*
X695896Y944165D01*
X695896Y943054D01*
X695229Y941943D01*
X693896Y941388D01*
X692562Y941388D01*
X691229Y941943D01*
X690562Y943054D01*
G54D10*
X695896Y973138D02*
X690562Y973138D01*
X690562Y973693D01*
X691229Y974804D01*
X695229Y978138D01*
X695896Y979249D01*
X695896Y980360D01*
X695229Y981471D01*
X693896Y982026D01*
X692562Y982026D01*
X691229Y981471D01*
X690562Y980360D01*
G54D10*
X780542Y985519D02*
X783208Y985519D01*
X783208Y982742D01*
X782542Y981631D01*
X781208Y981075D01*
X779875Y981075D01*
X778542Y981631D01*
X777875Y982742D01*
X777875Y988297D01*
X778542Y989408D01*
X779875Y989964D01*
X781208Y989964D01*
X782542Y989408D01*
X783208Y988297D01*
G54D10*
X780542Y937894D02*
X783208Y937894D01*
X783208Y935117D01*
X782542Y934006D01*
X781208Y933450D01*
X779875Y933450D01*
X778542Y934006D01*
X777875Y935117D01*
X777875Y940672D01*
X778542Y941783D01*
X779875Y942339D01*
X781208Y942339D01*
X782542Y941783D01*
X783208Y940672D01*
G54D10*
X61912Y882590D02*
X62579Y883701D01*
X63912Y884256D01*
X65246Y884256D01*
X66579Y883701D01*
X67246Y882590D01*
X67246Y881479D01*
X66579Y880367D01*
X65246Y879812D01*
X66579Y879256D01*
X67246Y878145D01*
X67246Y877034D01*
X66579Y875923D01*
X65246Y875367D01*
X63912Y875367D01*
X62579Y875923D01*
X61912Y877034D01*
G54D10*
X67246Y907117D02*
X61912Y907117D01*
X61912Y907673D01*
X62579Y908784D01*
X66579Y912117D01*
X67246Y913229D01*
X67246Y914340D01*
X66579Y915451D01*
X65246Y916006D01*
X63912Y916006D01*
X62579Y915451D01*
X61912Y914340D01*
G54D10*
X151892Y919499D02*
X154558Y919499D01*
X154558Y916722D01*
X153892Y915611D01*
X152558Y915055D01*
X151225Y915055D01*
X149892Y915611D01*
X149225Y916722D01*
X149225Y922277D01*
X149892Y923388D01*
X151225Y923944D01*
X152558Y923944D01*
X153892Y923388D01*
X154558Y922277D01*
G54D10*
X151892Y871874D02*
X154558Y871874D01*
X154558Y869097D01*
X153892Y867986D01*
X152558Y867430D01*
X151225Y867430D01*
X149892Y867986D01*
X149225Y869097D01*
X149225Y874652D01*
X149892Y875763D01*
X151225Y876319D01*
X152558Y876319D01*
X153892Y875763D01*
X154558Y874652D01*
G54D10*
X271462Y882590D02*
X272129Y883701D01*
X273462Y884256D01*
X274796Y884256D01*
X276129Y883701D01*
X276796Y882590D01*
X276796Y881479D01*
X276129Y880367D01*
X274796Y879812D01*
X276129Y879256D01*
X276796Y878145D01*
X276796Y877034D01*
X276129Y875923D01*
X274796Y875367D01*
X273462Y875367D01*
X272129Y875923D01*
X271462Y877034D01*
G54D10*
X276796Y907117D02*
X271462Y907117D01*
X271462Y907673D01*
X272129Y908784D01*
X276129Y912117D01*
X276796Y913229D01*
X276796Y914340D01*
X276129Y915451D01*
X274796Y916006D01*
X273462Y916006D01*
X272129Y915451D01*
X271462Y914340D01*
G54D10*
X361442Y919499D02*
X364108Y919499D01*
X364108Y916722D01*
X363442Y915611D01*
X362108Y915055D01*
X360775Y915055D01*
X359442Y915611D01*
X358775Y916722D01*
X358775Y922277D01*
X359442Y923388D01*
X360775Y923944D01*
X362108Y923944D01*
X363442Y923388D01*
X364108Y922277D01*
G54D10*
X361442Y871874D02*
X364108Y871874D01*
X364108Y869097D01*
X363442Y867986D01*
X362108Y867430D01*
X360775Y867430D01*
X359442Y867986D01*
X358775Y869097D01*
X358775Y874652D01*
X359442Y875763D01*
X360775Y876319D01*
X362108Y876319D01*
X363442Y875763D01*
X364108Y874652D01*
G54D10*
X481012Y882590D02*
X481679Y883701D01*
X483012Y884256D01*
X484346Y884256D01*
X485679Y883701D01*
X486346Y882590D01*
X486346Y881479D01*
X485679Y880367D01*
X484346Y879812D01*
X485679Y879256D01*
X486346Y878145D01*
X486346Y877034D01*
X485679Y875923D01*
X484346Y875367D01*
X483012Y875367D01*
X481679Y875923D01*
X481012Y877034D01*
G54D10*
X486346Y907117D02*
X481012Y907117D01*
X481012Y907673D01*
X481679Y908784D01*
X485679Y912117D01*
X486346Y913229D01*
X486346Y914340D01*
X485679Y915451D01*
X484346Y916006D01*
X483012Y916006D01*
X481679Y915451D01*
X481012Y914340D01*
G54D10*
X570992Y919499D02*
X573658Y919499D01*
X573658Y916722D01*
X572992Y915611D01*
X571658Y915055D01*
X570325Y915055D01*
X568992Y915611D01*
X568325Y916722D01*
X568325Y922277D01*
X568992Y923388D01*
X570325Y923944D01*
X571658Y923944D01*
X572992Y923388D01*
X573658Y922277D01*
G54D10*
X570992Y871874D02*
X573658Y871874D01*
X573658Y869097D01*
X572992Y867986D01*
X571658Y867430D01*
X570325Y867430D01*
X568992Y867986D01*
X568325Y869097D01*
X568325Y874652D01*
X568992Y875763D01*
X570325Y876319D01*
X571658Y876319D01*
X572992Y875763D01*
X573658Y874652D01*
G54D10*
X690562Y882590D02*
X691229Y883701D01*
X692562Y884256D01*
X693896Y884256D01*
X695229Y883701D01*
X695896Y882590D01*
X695896Y881479D01*
X695229Y880367D01*
X693896Y879812D01*
X695229Y879256D01*
X695896Y878145D01*
X695896Y877034D01*
X695229Y875923D01*
X693896Y875367D01*
X692562Y875367D01*
X691229Y875923D01*
X690562Y877034D01*
G54D10*
X695896Y907117D02*
X690562Y907117D01*
X690562Y907673D01*
X691229Y908784D01*
X695229Y912117D01*
X695896Y913229D01*
X695896Y914340D01*
X695229Y915451D01*
X693896Y916006D01*
X692562Y916006D01*
X691229Y915451D01*
X690562Y914340D01*
G54D10*
X780542Y919499D02*
X783208Y919499D01*
X783208Y916722D01*
X782542Y915611D01*
X781208Y915055D01*
X779875Y915055D01*
X778542Y915611D01*
X777875Y916722D01*
X777875Y922277D01*
X778542Y923388D01*
X779875Y923944D01*
X781208Y923944D01*
X782542Y923388D01*
X783208Y922277D01*
G54D10*
X780542Y871874D02*
X783208Y871874D01*
X783208Y869097D01*
X782542Y867986D01*
X781208Y867430D01*
X779875Y867430D01*
X778542Y867986D01*
X777875Y869097D01*
X777875Y874652D01*
X778542Y875763D01*
X779875Y876319D01*
X781208Y876319D01*
X782542Y875763D01*
X783208Y874652D01*
G54D10*
X61912Y816570D02*
X62579Y817681D01*
X63912Y818236D01*
X65246Y818236D01*
X66579Y817681D01*
X67246Y816570D01*
X67246Y815459D01*
X66579Y814347D01*
X65246Y813792D01*
X66579Y813236D01*
X67246Y812125D01*
X67246Y811014D01*
X66579Y809903D01*
X65246Y809347D01*
X63912Y809347D01*
X62579Y809903D01*
X61912Y811014D01*
G54D10*
X67246Y841097D02*
X61912Y841097D01*
X61912Y841653D01*
X62579Y842764D01*
X66579Y846097D01*
X67246Y847209D01*
X67246Y848320D01*
X66579Y849431D01*
X65246Y849986D01*
X63912Y849986D01*
X62579Y849431D01*
X61912Y848320D01*
G54D10*
X151892Y853479D02*
X154558Y853479D01*
X154558Y850702D01*
X153892Y849591D01*
X152558Y849035D01*
X151225Y849035D01*
X149892Y849591D01*
X149225Y850702D01*
X149225Y856257D01*
X149892Y857368D01*
X151225Y857924D01*
X152558Y857924D01*
X153892Y857368D01*
X154558Y856257D01*
G54D10*
X151892Y805854D02*
X154558Y805854D01*
X154558Y803077D01*
X153892Y801966D01*
X152558Y801410D01*
X151225Y801410D01*
X149892Y801966D01*
X149225Y803077D01*
X149225Y808632D01*
X149892Y809743D01*
X151225Y810299D01*
X152558Y810299D01*
X153892Y809743D01*
X154558Y808632D01*
G54D10*
X271462Y816570D02*
X272129Y817681D01*
X273462Y818236D01*
X274796Y818236D01*
X276129Y817681D01*
X276796Y816570D01*
X276796Y815459D01*
X276129Y814347D01*
X274796Y813792D01*
X276129Y813236D01*
X276796Y812125D01*
X276796Y811014D01*
X276129Y809903D01*
X274796Y809347D01*
X273462Y809347D01*
X272129Y809903D01*
X271462Y811014D01*
G54D10*
X276796Y841097D02*
X271462Y841097D01*
X271462Y841653D01*
X272129Y842764D01*
X276129Y846097D01*
X276796Y847209D01*
X276796Y848320D01*
X276129Y849431D01*
X274796Y849986D01*
X273462Y849986D01*
X272129Y849431D01*
X271462Y848320D01*
G54D10*
X361442Y853479D02*
X364108Y853479D01*
X364108Y850702D01*
X363442Y849591D01*
X362108Y849035D01*
X360775Y849035D01*
X359442Y849591D01*
X358775Y850702D01*
X358775Y856257D01*
X359442Y857368D01*
X360775Y857924D01*
X362108Y857924D01*
X363442Y857368D01*
X364108Y856257D01*
G54D10*
X361442Y805854D02*
X364108Y805854D01*
X364108Y803077D01*
X363442Y801966D01*
X362108Y801410D01*
X360775Y801410D01*
X359442Y801966D01*
X358775Y803077D01*
X358775Y808632D01*
X359442Y809743D01*
X360775Y810299D01*
X362108Y810299D01*
X363442Y809743D01*
X364108Y808632D01*
G54D10*
X481012Y816570D02*
X481679Y817681D01*
X483012Y818236D01*
X484346Y818236D01*
X485679Y817681D01*
X486346Y816570D01*
X486346Y815459D01*
X485679Y814347D01*
X484346Y813792D01*
X485679Y813236D01*
X486346Y812125D01*
X486346Y811014D01*
X485679Y809903D01*
X484346Y809347D01*
X483012Y809347D01*
X481679Y809903D01*
X481012Y811014D01*
G54D10*
X486346Y841097D02*
X481012Y841097D01*
X481012Y841653D01*
X481679Y842764D01*
X485679Y846097D01*
X486346Y847209D01*
X486346Y848320D01*
X485679Y849431D01*
X484346Y849986D01*
X483012Y849986D01*
X481679Y849431D01*
X481012Y848320D01*
G54D10*
X570992Y853479D02*
X573658Y853479D01*
X573658Y850702D01*
X572992Y849591D01*
X571658Y849035D01*
X570325Y849035D01*
X568992Y849591D01*
X568325Y850702D01*
X568325Y856257D01*
X568992Y857368D01*
X570325Y857924D01*
X571658Y857924D01*
X572992Y857368D01*
X573658Y856257D01*
G54D10*
X570992Y805854D02*
X573658Y805854D01*
X573658Y803077D01*
X572992Y801966D01*
X571658Y801410D01*
X570325Y801410D01*
X568992Y801966D01*
X568325Y803077D01*
X568325Y808632D01*
X568992Y809743D01*
X570325Y810299D01*
X571658Y810299D01*
X572992Y809743D01*
X573658Y808632D01*
G54D10*
X690562Y816570D02*
X691229Y817681D01*
X692562Y818236D01*
X693896Y818236D01*
X695229Y817681D01*
X695896Y816570D01*
X695896Y815459D01*
X695229Y814347D01*
X693896Y813792D01*
X695229Y813236D01*
X695896Y812125D01*
X695896Y811014D01*
X695229Y809903D01*
X693896Y809347D01*
X692562Y809347D01*
X691229Y809903D01*
X690562Y811014D01*
G54D10*
X695896Y841097D02*
X690562Y841097D01*
X690562Y841653D01*
X691229Y842764D01*
X695229Y846097D01*
X695896Y847209D01*
X695896Y848320D01*
X695229Y849431D01*
X693896Y849986D01*
X692562Y849986D01*
X691229Y849431D01*
X690562Y848320D01*
G54D10*
X780542Y853479D02*
X783208Y853479D01*
X783208Y850702D01*
X782542Y849591D01*
X781208Y849035D01*
X779875Y849035D01*
X778542Y849591D01*
X777875Y850702D01*
X777875Y856257D01*
X778542Y857368D01*
X779875Y857924D01*
X781208Y857924D01*
X782542Y857368D01*
X783208Y856257D01*
G54D10*
X780542Y805854D02*
X783208Y805854D01*
X783208Y803077D01*
X782542Y801966D01*
X781208Y801410D01*
X779875Y801410D01*
X778542Y801966D01*
X777875Y803077D01*
X777875Y808632D01*
X778542Y809743D01*
X779875Y810299D01*
X781208Y810299D01*
X782542Y809743D01*
X783208Y808632D01*
G54D10*
X61912Y750550D02*
X62579Y751661D01*
X63912Y752216D01*
X65246Y752216D01*
X66579Y751661D01*
X67246Y750550D01*
X67246Y749439D01*
X66579Y748327D01*
X65246Y747772D01*
X66579Y747216D01*
X67246Y746105D01*
X67246Y744994D01*
X66579Y743883D01*
X65246Y743327D01*
X63912Y743327D01*
X62579Y743883D01*
X61912Y744994D01*
G54D10*
X67246Y775077D02*
X61912Y775077D01*
X61912Y775633D01*
X62579Y776744D01*
X66579Y780077D01*
X67246Y781189D01*
X67246Y782300D01*
X66579Y783411D01*
X65246Y783966D01*
X63912Y783966D01*
X62579Y783411D01*
X61912Y782300D01*
G54D10*
X151892Y787459D02*
X154558Y787459D01*
X154558Y784682D01*
X153892Y783571D01*
X152558Y783015D01*
X151225Y783015D01*
X149892Y783571D01*
X149225Y784682D01*
X149225Y790237D01*
X149892Y791348D01*
X151225Y791904D01*
X152558Y791904D01*
X153892Y791348D01*
X154558Y790237D01*
G54D10*
X151892Y739834D02*
X154558Y739834D01*
X154558Y737057D01*
X153892Y735946D01*
X152558Y735390D01*
X151225Y735390D01*
X149892Y735946D01*
X149225Y737057D01*
X149225Y742612D01*
X149892Y743723D01*
X151225Y744279D01*
X152558Y744279D01*
X153892Y743723D01*
X154558Y742612D01*
G54D10*
X271462Y750550D02*
X272129Y751661D01*
X273462Y752216D01*
X274796Y752216D01*
X276129Y751661D01*
X276796Y750550D01*
X276796Y749439D01*
X276129Y748327D01*
X274796Y747772D01*
X276129Y747216D01*
X276796Y746105D01*
X276796Y744994D01*
X276129Y743883D01*
X274796Y743327D01*
X273462Y743327D01*
X272129Y743883D01*
X271462Y744994D01*
G54D10*
X276796Y775077D02*
X271462Y775077D01*
X271462Y775633D01*
X272129Y776744D01*
X276129Y780077D01*
X276796Y781189D01*
X276796Y782300D01*
X276129Y783411D01*
X274796Y783966D01*
X273462Y783966D01*
X272129Y783411D01*
X271462Y782300D01*
G54D10*
X361442Y787459D02*
X364108Y787459D01*
X364108Y784682D01*
X363442Y783571D01*
X362108Y783015D01*
X360775Y783015D01*
X359442Y783571D01*
X358775Y784682D01*
X358775Y790237D01*
X359442Y791348D01*
X360775Y791904D01*
X362108Y791904D01*
X363442Y791348D01*
X364108Y790237D01*
G54D10*
X361442Y739834D02*
X364108Y739834D01*
X364108Y737057D01*
X363442Y735946D01*
X362108Y735390D01*
X360775Y735390D01*
X359442Y735946D01*
X358775Y737057D01*
X358775Y742612D01*
X359442Y743723D01*
X360775Y744279D01*
X362108Y744279D01*
X363442Y743723D01*
X364108Y742612D01*
G54D10*
X481012Y750550D02*
X481679Y751661D01*
X483012Y752216D01*
X484346Y752216D01*
X485679Y751661D01*
X486346Y750550D01*
X486346Y749439D01*
X485679Y748327D01*
X484346Y747772D01*
X485679Y747216D01*
X486346Y746105D01*
X486346Y744994D01*
X485679Y743883D01*
X484346Y743327D01*
X483012Y743327D01*
X481679Y743883D01*
X481012Y744994D01*
G54D10*
X486346Y775077D02*
X481012Y775077D01*
X481012Y775633D01*
X481679Y776744D01*
X485679Y780077D01*
X486346Y781189D01*
X486346Y782300D01*
X485679Y783411D01*
X484346Y783966D01*
X483012Y783966D01*
X481679Y783411D01*
X481012Y782300D01*
G54D10*
X570992Y787459D02*
X573658Y787459D01*
X573658Y784682D01*
X572992Y783571D01*
X571658Y783015D01*
X570325Y783015D01*
X568992Y783571D01*
X568325Y784682D01*
X568325Y790237D01*
X568992Y791348D01*
X570325Y791904D01*
X571658Y791904D01*
X572992Y791348D01*
X573658Y790237D01*
G54D10*
X570992Y739834D02*
X573658Y739834D01*
X573658Y737057D01*
X572992Y735946D01*
X571658Y735390D01*
X570325Y735390D01*
X568992Y735946D01*
X568325Y737057D01*
X568325Y742612D01*
X568992Y743723D01*
X570325Y744279D01*
X571658Y744279D01*
X572992Y743723D01*
X573658Y742612D01*
G54D10*
X690562Y750550D02*
X691229Y751661D01*
X692562Y752216D01*
X693896Y752216D01*
X695229Y751661D01*
X695896Y750550D01*
X695896Y749439D01*
X695229Y748327D01*
X693896Y747772D01*
X695229Y747216D01*
X695896Y746105D01*
X695896Y744994D01*
X695229Y743883D01*
X693896Y743327D01*
X692562Y743327D01*
X691229Y743883D01*
X690562Y744994D01*
G54D10*
X695896Y775077D02*
X690562Y775077D01*
X690562Y775633D01*
X691229Y776744D01*
X695229Y780077D01*
X695896Y781189D01*
X695896Y782300D01*
X695229Y783411D01*
X693896Y783966D01*
X692562Y783966D01*
X691229Y783411D01*
X690562Y782300D01*
G54D10*
X780542Y787459D02*
X783208Y787459D01*
X783208Y784682D01*
X782542Y783571D01*
X781208Y783015D01*
X779875Y783015D01*
X778542Y783571D01*
X777875Y784682D01*
X777875Y790237D01*
X778542Y791348D01*
X779875Y791904D01*
X781208Y791904D01*
X782542Y791348D01*
X783208Y790237D01*
G54D10*
X780542Y739834D02*
X783208Y739834D01*
X783208Y737057D01*
X782542Y735946D01*
X781208Y735390D01*
X779875Y735390D01*
X778542Y735946D01*
X777875Y737057D01*
X777875Y742612D01*
X778542Y743723D01*
X779875Y744279D01*
X781208Y744279D01*
X782542Y743723D01*
X783208Y742612D01*
G54D10*
X61912Y684530D02*
X62579Y685641D01*
X63912Y686196D01*
X65246Y686196D01*
X66579Y685641D01*
X67246Y684530D01*
X67246Y683419D01*
X66579Y682308D01*
X65246Y681752D01*
X66579Y681196D01*
X67246Y680085D01*
X67246Y678974D01*
X66579Y677863D01*
X65246Y677308D01*
X63912Y677308D01*
X62579Y677863D01*
X61912Y678974D01*
G54D10*
X67246Y709058D02*
X61912Y709058D01*
X61912Y709613D01*
X62579Y710724D01*
X66579Y714058D01*
X67246Y715169D01*
X67246Y716280D01*
X66579Y717391D01*
X65246Y717946D01*
X63912Y717946D01*
X62579Y717391D01*
X61912Y716280D01*
G54D10*
X151892Y721439D02*
X154558Y721439D01*
X154558Y718662D01*
X153892Y717551D01*
X152558Y716995D01*
X151225Y716995D01*
X149892Y717551D01*
X149225Y718662D01*
X149225Y724217D01*
X149892Y725328D01*
X151225Y725884D01*
X152558Y725884D01*
X153892Y725328D01*
X154558Y724217D01*
G54D10*
X151892Y673814D02*
X154558Y673814D01*
X154558Y671037D01*
X153892Y669926D01*
X152558Y669370D01*
X151225Y669370D01*
X149892Y669926D01*
X149225Y671037D01*
X149225Y676592D01*
X149892Y677703D01*
X151225Y678259D01*
X152558Y678259D01*
X153892Y677703D01*
X154558Y676592D01*
G54D10*
X271462Y684530D02*
X272129Y685641D01*
X273462Y686196D01*
X274796Y686196D01*
X276129Y685641D01*
X276796Y684530D01*
X276796Y683419D01*
X276129Y682308D01*
X274796Y681752D01*
X276129Y681196D01*
X276796Y680085D01*
X276796Y678974D01*
X276129Y677863D01*
X274796Y677308D01*
X273462Y677308D01*
X272129Y677863D01*
X271462Y678974D01*
G54D10*
X276796Y709058D02*
X271462Y709058D01*
X271462Y709613D01*
X272129Y710724D01*
X276129Y714058D01*
X276796Y715169D01*
X276796Y716280D01*
X276129Y717391D01*
X274796Y717946D01*
X273462Y717946D01*
X272129Y717391D01*
X271462Y716280D01*
G54D10*
X361442Y721439D02*
X364108Y721439D01*
X364108Y718662D01*
X363442Y717551D01*
X362108Y716995D01*
X360775Y716995D01*
X359442Y717551D01*
X358775Y718662D01*
X358775Y724217D01*
X359442Y725328D01*
X360775Y725884D01*
X362108Y725884D01*
X363442Y725328D01*
X364108Y724217D01*
G54D10*
X361442Y673814D02*
X364108Y673814D01*
X364108Y671037D01*
X363442Y669926D01*
X362108Y669370D01*
X360775Y669370D01*
X359442Y669926D01*
X358775Y671037D01*
X358775Y676592D01*
X359442Y677703D01*
X360775Y678259D01*
X362108Y678259D01*
X363442Y677703D01*
X364108Y676592D01*
G54D10*
X481012Y684530D02*
X481679Y685641D01*
X483012Y686196D01*
X484346Y686196D01*
X485679Y685641D01*
X486346Y684530D01*
X486346Y683419D01*
X485679Y682308D01*
X484346Y681752D01*
X485679Y681196D01*
X486346Y680085D01*
X486346Y678974D01*
X485679Y677863D01*
X484346Y677308D01*
X483012Y677308D01*
X481679Y677863D01*
X481012Y678974D01*
G54D10*
X486346Y709058D02*
X481012Y709058D01*
X481012Y709613D01*
X481679Y710724D01*
X485679Y714058D01*
X486346Y715169D01*
X486346Y716280D01*
X485679Y717391D01*
X484346Y717946D01*
X483012Y717946D01*
X481679Y717391D01*
X481012Y716280D01*
G54D10*
X570992Y721439D02*
X573658Y721439D01*
X573658Y718662D01*
X572992Y717551D01*
X571658Y716995D01*
X570325Y716995D01*
X568992Y717551D01*
X568325Y718662D01*
X568325Y724217D01*
X568992Y725328D01*
X570325Y725884D01*
X571658Y725884D01*
X572992Y725328D01*
X573658Y724217D01*
G54D10*
X570992Y673814D02*
X573658Y673814D01*
X573658Y671037D01*
X572992Y669926D01*
X571658Y669370D01*
X570325Y669370D01*
X568992Y669926D01*
X568325Y671037D01*
X568325Y676592D01*
X568992Y677703D01*
X570325Y678259D01*
X571658Y678259D01*
X572992Y677703D01*
X573658Y676592D01*
G54D10*
X690562Y684530D02*
X691229Y685641D01*
X692562Y686196D01*
X693896Y686196D01*
X695229Y685641D01*
X695896Y684530D01*
X695896Y683419D01*
X695229Y682308D01*
X693896Y681752D01*
X695229Y681196D01*
X695896Y680085D01*
X695896Y678974D01*
X695229Y677863D01*
X693896Y677308D01*
X692562Y677308D01*
X691229Y677863D01*
X690562Y678974D01*
G54D10*
X695896Y709058D02*
X690562Y709058D01*
X690562Y709613D01*
X691229Y710724D01*
X695229Y714058D01*
X695896Y715169D01*
X695896Y716280D01*
X695229Y717391D01*
X693896Y717946D01*
X692562Y717946D01*
X691229Y717391D01*
X690562Y716280D01*
G54D10*
X780542Y721439D02*
X783208Y721439D01*
X783208Y718662D01*
X782542Y717551D01*
X781208Y716995D01*
X779875Y716995D01*
X778542Y717551D01*
X777875Y718662D01*
X777875Y724217D01*
X778542Y725328D01*
X779875Y725884D01*
X781208Y725884D01*
X782542Y725328D01*
X783208Y724217D01*
G54D10*
X780542Y673814D02*
X783208Y673814D01*
X783208Y671037D01*
X782542Y669926D01*
X781208Y669370D01*
X779875Y669370D01*
X778542Y669926D01*
X777875Y671037D01*
X777875Y676592D01*
X778542Y677703D01*
X779875Y678259D01*
X781208Y678259D01*
X782542Y677703D01*
X783208Y676592D01*
G54D10*
X61912Y618510D02*
X62579Y619621D01*
X63912Y620176D01*
X65246Y620176D01*
X66579Y619621D01*
X67246Y618510D01*
X67246Y617399D01*
X66579Y616288D01*
X65246Y615732D01*
X66579Y615176D01*
X67246Y614065D01*
X67246Y612954D01*
X66579Y611843D01*
X65246Y611288D01*
X63912Y611288D01*
X62579Y611843D01*
X61912Y612954D01*
G54D10*
X67246Y643038D02*
X61912Y643038D01*
X61912Y643593D01*
X62579Y644704D01*
X66579Y648038D01*
X67246Y649149D01*
X67246Y650260D01*
X66579Y651371D01*
X65246Y651926D01*
X63912Y651926D01*
X62579Y651371D01*
X61912Y650260D01*
G54D10*
X151892Y655419D02*
X154558Y655419D01*
X154558Y652642D01*
X153892Y651531D01*
X152558Y650975D01*
X151225Y650975D01*
X149892Y651531D01*
X149225Y652642D01*
X149225Y658197D01*
X149892Y659308D01*
X151225Y659864D01*
X152558Y659864D01*
X153892Y659308D01*
X154558Y658197D01*
G54D10*
X151892Y607794D02*
X154558Y607794D01*
X154558Y605017D01*
X153892Y603906D01*
X152558Y603350D01*
X151225Y603350D01*
X149892Y603906D01*
X149225Y605017D01*
X149225Y610572D01*
X149892Y611683D01*
X151225Y612239D01*
X152558Y612239D01*
X153892Y611683D01*
X154558Y610572D01*
G54D10*
X271462Y618510D02*
X272129Y619621D01*
X273462Y620176D01*
X274796Y620176D01*
X276129Y619621D01*
X276796Y618510D01*
X276796Y617399D01*
X276129Y616288D01*
X274796Y615732D01*
X276129Y615176D01*
X276796Y614065D01*
X276796Y612954D01*
X276129Y611843D01*
X274796Y611288D01*
X273462Y611288D01*
X272129Y611843D01*
X271462Y612954D01*
G54D10*
X276796Y643038D02*
X271462Y643038D01*
X271462Y643593D01*
X272129Y644704D01*
X276129Y648038D01*
X276796Y649149D01*
X276796Y650260D01*
X276129Y651371D01*
X274796Y651926D01*
X273462Y651926D01*
X272129Y651371D01*
X271462Y650260D01*
G54D10*
X361442Y655419D02*
X364108Y655419D01*
X364108Y652642D01*
X363442Y651531D01*
X362108Y650975D01*
X360775Y650975D01*
X359442Y651531D01*
X358775Y652642D01*
X358775Y658197D01*
X359442Y659308D01*
X360775Y659864D01*
X362108Y659864D01*
X363442Y659308D01*
X364108Y658197D01*
G54D10*
X361442Y607794D02*
X364108Y607794D01*
X364108Y605017D01*
X363442Y603906D01*
X362108Y603350D01*
X360775Y603350D01*
X359442Y603906D01*
X358775Y605017D01*
X358775Y610572D01*
X359442Y611683D01*
X360775Y612239D01*
X362108Y612239D01*
X363442Y611683D01*
X364108Y610572D01*
G54D10*
X481012Y618510D02*
X481679Y619621D01*
X483012Y620176D01*
X484346Y620176D01*
X485679Y619621D01*
X486346Y618510D01*
X486346Y617399D01*
X485679Y616288D01*
X484346Y615732D01*
X485679Y615176D01*
X486346Y614065D01*
X486346Y612954D01*
X485679Y611843D01*
X484346Y611288D01*
X483012Y611288D01*
X481679Y611843D01*
X481012Y612954D01*
G54D10*
X486346Y643038D02*
X481012Y643038D01*
X481012Y643593D01*
X481679Y644704D01*
X485679Y648038D01*
X486346Y649149D01*
X486346Y650260D01*
X485679Y651371D01*
X484346Y651926D01*
X483012Y651926D01*
X481679Y651371D01*
X481012Y650260D01*
G54D10*
X570992Y655419D02*
X573658Y655419D01*
X573658Y652642D01*
X572992Y651531D01*
X571658Y650975D01*
X570325Y650975D01*
X568992Y651531D01*
X568325Y652642D01*
X568325Y658197D01*
X568992Y659308D01*
X570325Y659864D01*
X571658Y659864D01*
X572992Y659308D01*
X573658Y658197D01*
G54D10*
X570992Y607794D02*
X573658Y607794D01*
X573658Y605017D01*
X572992Y603906D01*
X571658Y603350D01*
X570325Y603350D01*
X568992Y603906D01*
X568325Y605017D01*
X568325Y610572D01*
X568992Y611683D01*
X570325Y612239D01*
X571658Y612239D01*
X572992Y611683D01*
X573658Y610572D01*
G54D10*
X690562Y618510D02*
X691229Y619621D01*
X692562Y620176D01*
X693896Y620176D01*
X695229Y619621D01*
X695896Y618510D01*
X695896Y617399D01*
X695229Y616288D01*
X693896Y615732D01*
X695229Y615176D01*
X695896Y614065D01*
X695896Y612954D01*
X695229Y611843D01*
X693896Y611288D01*
X692562Y611288D01*
X691229Y611843D01*
X690562Y612954D01*
G54D10*
X695896Y643038D02*
X690562Y643038D01*
X690562Y643593D01*
X691229Y644704D01*
X695229Y648038D01*
X695896Y649149D01*
X695896Y650260D01*
X695229Y651371D01*
X693896Y651926D01*
X692562Y651926D01*
X691229Y651371D01*
X690562Y650260D01*
G54D10*
X780542Y655419D02*
X783208Y655419D01*
X783208Y652642D01*
X782542Y651531D01*
X781208Y650975D01*
X779875Y650975D01*
X778542Y651531D01*
X777875Y652642D01*
X777875Y658197D01*
X778542Y659308D01*
X779875Y659864D01*
X781208Y659864D01*
X782542Y659308D01*
X783208Y658197D01*
G54D10*
X780542Y607794D02*
X783208Y607794D01*
X783208Y605017D01*
X782542Y603906D01*
X781208Y603350D01*
X779875Y603350D01*
X778542Y603906D01*
X777875Y605017D01*
X777875Y610572D01*
X778542Y611683D01*
X779875Y612239D01*
X781208Y612239D01*
X782542Y611683D01*
X783208Y610572D01*
G54D10*
X61912Y552490D02*
X62579Y553601D01*
X63912Y554156D01*
X65246Y554156D01*
X66579Y553601D01*
X67246Y552490D01*
X67246Y551379D01*
X66579Y550268D01*
X65246Y549712D01*
X66579Y549156D01*
X67246Y548045D01*
X67246Y546934D01*
X66579Y545823D01*
X65246Y545268D01*
X63912Y545268D01*
X62579Y545823D01*
X61912Y546934D01*
G54D10*
X67246Y577018D02*
X61912Y577018D01*
X61912Y577573D01*
X62579Y578684D01*
X66579Y582018D01*
X67246Y583129D01*
X67246Y584240D01*
X66579Y585351D01*
X65246Y585906D01*
X63912Y585906D01*
X62579Y585351D01*
X61912Y584240D01*
G54D10*
X151892Y589399D02*
X154558Y589399D01*
X154558Y586622D01*
X153892Y585511D01*
X152558Y584955D01*
X151225Y584955D01*
X149892Y585511D01*
X149225Y586622D01*
X149225Y592177D01*
X149892Y593288D01*
X151225Y593844D01*
X152558Y593844D01*
X153892Y593288D01*
X154558Y592177D01*
G54D10*
X151892Y541774D02*
X154558Y541774D01*
X154558Y538997D01*
X153892Y537886D01*
X152558Y537330D01*
X151225Y537330D01*
X149892Y537886D01*
X149225Y538997D01*
X149225Y544552D01*
X149892Y545663D01*
X151225Y546219D01*
X152558Y546219D01*
X153892Y545663D01*
X154558Y544552D01*
G54D10*
X271462Y552490D02*
X272129Y553601D01*
X273462Y554156D01*
X274796Y554156D01*
X276129Y553601D01*
X276796Y552490D01*
X276796Y551379D01*
X276129Y550268D01*
X274796Y549712D01*
X276129Y549156D01*
X276796Y548045D01*
X276796Y546934D01*
X276129Y545823D01*
X274796Y545268D01*
X273462Y545268D01*
X272129Y545823D01*
X271462Y546934D01*
G54D10*
X276796Y577018D02*
X271462Y577018D01*
X271462Y577573D01*
X272129Y578684D01*
X276129Y582018D01*
X276796Y583129D01*
X276796Y584240D01*
X276129Y585351D01*
X274796Y585906D01*
X273462Y585906D01*
X272129Y585351D01*
X271462Y584240D01*
G54D10*
X361442Y589399D02*
X364108Y589399D01*
X364108Y586622D01*
X363442Y585511D01*
X362108Y584955D01*
X360775Y584955D01*
X359442Y585511D01*
X358775Y586622D01*
X358775Y592177D01*
X359442Y593288D01*
X360775Y593844D01*
X362108Y593844D01*
X363442Y593288D01*
X364108Y592177D01*
G54D10*
X361442Y541774D02*
X364108Y541774D01*
X364108Y538997D01*
X363442Y537886D01*
X362108Y537330D01*
X360775Y537330D01*
X359442Y537886D01*
X358775Y538997D01*
X358775Y544552D01*
X359442Y545663D01*
X360775Y546219D01*
X362108Y546219D01*
X363442Y545663D01*
X364108Y544552D01*
G54D10*
X481012Y552490D02*
X481679Y553601D01*
X483012Y554156D01*
X484346Y554156D01*
X485679Y553601D01*
X486346Y552490D01*
X486346Y551379D01*
X485679Y550268D01*
X484346Y549712D01*
X485679Y549156D01*
X486346Y548045D01*
X486346Y546934D01*
X485679Y545823D01*
X484346Y545268D01*
X483012Y545268D01*
X481679Y545823D01*
X481012Y546934D01*
G54D10*
X486346Y577018D02*
X481012Y577018D01*
X481012Y577573D01*
X481679Y578684D01*
X485679Y582018D01*
X486346Y583129D01*
X486346Y584240D01*
X485679Y585351D01*
X484346Y585906D01*
X483012Y585906D01*
X481679Y585351D01*
X481012Y584240D01*
G54D10*
X570992Y589399D02*
X573658Y589399D01*
X573658Y586622D01*
X572992Y585511D01*
X571658Y584955D01*
X570325Y584955D01*
X568992Y585511D01*
X568325Y586622D01*
X568325Y592177D01*
X568992Y593288D01*
X570325Y593844D01*
X571658Y593844D01*
X572992Y593288D01*
X573658Y592177D01*
G54D10*
X570992Y541774D02*
X573658Y541774D01*
X573658Y538997D01*
X572992Y537886D01*
X571658Y537330D01*
X570325Y537330D01*
X568992Y537886D01*
X568325Y538997D01*
X568325Y544552D01*
X568992Y545663D01*
X570325Y546219D01*
X571658Y546219D01*
X572992Y545663D01*
X573658Y544552D01*
G54D10*
X690562Y552490D02*
X691229Y553601D01*
X692562Y554156D01*
X693896Y554156D01*
X695229Y553601D01*
X695896Y552490D01*
X695896Y551379D01*
X695229Y550268D01*
X693896Y549712D01*
X695229Y549156D01*
X695896Y548045D01*
X695896Y546934D01*
X695229Y545823D01*
X693896Y545268D01*
X692562Y545268D01*
X691229Y545823D01*
X690562Y546934D01*
G54D10*
X695896Y577018D02*
X690562Y577018D01*
X690562Y577573D01*
X691229Y578684D01*
X695229Y582018D01*
X695896Y583129D01*
X695896Y584240D01*
X695229Y585351D01*
X693896Y585906D01*
X692562Y585906D01*
X691229Y585351D01*
X690562Y584240D01*
G54D10*
X780542Y589399D02*
X783208Y589399D01*
X783208Y586622D01*
X782542Y585511D01*
X781208Y584955D01*
X779875Y584955D01*
X778542Y585511D01*
X777875Y586622D01*
X777875Y592177D01*
X778542Y593288D01*
X779875Y593844D01*
X781208Y593844D01*
X782542Y593288D01*
X783208Y592177D01*
G54D10*
X780542Y541774D02*
X783208Y541774D01*
X783208Y538997D01*
X782542Y537886D01*
X781208Y537330D01*
X779875Y537330D01*
X778542Y537886D01*
X777875Y538997D01*
X777875Y544552D01*
X778542Y545663D01*
X779875Y546219D01*
X781208Y546219D01*
X782542Y545663D01*
X783208Y544552D01*
G54D10*
X61912Y486470D02*
X62579Y487581D01*
X63912Y488136D01*
X65246Y488136D01*
X66579Y487581D01*
X67246Y486470D01*
X67246Y485359D01*
X66579Y484248D01*
X65246Y483692D01*
X66579Y483136D01*
X67246Y482025D01*
X67246Y480914D01*
X66579Y479803D01*
X65246Y479248D01*
X63912Y479248D01*
X62579Y479803D01*
X61912Y480914D01*
G54D10*
X67246Y510998D02*
X61912Y510998D01*
X61912Y511553D01*
X62579Y512664D01*
X66579Y515998D01*
X67246Y517109D01*
X67246Y518220D01*
X66579Y519331D01*
X65246Y519886D01*
X63912Y519886D01*
X62579Y519331D01*
X61912Y518220D01*
G54D10*
X151892Y523379D02*
X154558Y523379D01*
X154558Y520602D01*
X153892Y519491D01*
X152558Y518935D01*
X151225Y518935D01*
X149892Y519491D01*
X149225Y520602D01*
X149225Y526157D01*
X149892Y527268D01*
X151225Y527824D01*
X152558Y527824D01*
X153892Y527268D01*
X154558Y526157D01*
G54D10*
X151892Y475754D02*
X154558Y475754D01*
X154558Y472977D01*
X153892Y471866D01*
X152558Y471310D01*
X151225Y471310D01*
X149892Y471866D01*
X149225Y472977D01*
X149225Y478532D01*
X149892Y479643D01*
X151225Y480199D01*
X152558Y480199D01*
X153892Y479643D01*
X154558Y478532D01*
G54D10*
X271462Y486470D02*
X272129Y487581D01*
X273462Y488136D01*
X274796Y488136D01*
X276129Y487581D01*
X276796Y486470D01*
X276796Y485359D01*
X276129Y484248D01*
X274796Y483692D01*
X276129Y483136D01*
X276796Y482025D01*
X276796Y480914D01*
X276129Y479803D01*
X274796Y479248D01*
X273462Y479248D01*
X272129Y479803D01*
X271462Y480914D01*
G54D10*
X276796Y510998D02*
X271462Y510998D01*
X271462Y511553D01*
X272129Y512664D01*
X276129Y515998D01*
X276796Y517109D01*
X276796Y518220D01*
X276129Y519331D01*
X274796Y519886D01*
X273462Y519886D01*
X272129Y519331D01*
X271462Y518220D01*
G54D10*
X361442Y523379D02*
X364108Y523379D01*
X364108Y520602D01*
X363442Y519491D01*
X362108Y518935D01*
X360775Y518935D01*
X359442Y519491D01*
X358775Y520602D01*
X358775Y526157D01*
X359442Y527268D01*
X360775Y527824D01*
X362108Y527824D01*
X363442Y527268D01*
X364108Y526157D01*
G54D10*
X361442Y475754D02*
X364108Y475754D01*
X364108Y472977D01*
X363442Y471866D01*
X362108Y471310D01*
X360775Y471310D01*
X359442Y471866D01*
X358775Y472977D01*
X358775Y478532D01*
X359442Y479643D01*
X360775Y480199D01*
X362108Y480199D01*
X363442Y479643D01*
X364108Y478532D01*
G54D10*
X481012Y486470D02*
X481679Y487581D01*
X483012Y488136D01*
X484346Y488136D01*
X485679Y487581D01*
X486346Y486470D01*
X486346Y485359D01*
X485679Y484248D01*
X484346Y483692D01*
X485679Y483136D01*
X486346Y482025D01*
X486346Y480914D01*
X485679Y479803D01*
X484346Y479248D01*
X483012Y479248D01*
X481679Y479803D01*
X481012Y480914D01*
G54D10*
X486346Y510998D02*
X481012Y510998D01*
X481012Y511553D01*
X481679Y512664D01*
X485679Y515998D01*
X486346Y517109D01*
X486346Y518220D01*
X485679Y519331D01*
X484346Y519886D01*
X483012Y519886D01*
X481679Y519331D01*
X481012Y518220D01*
G54D10*
X570992Y523379D02*
X573658Y523379D01*
X573658Y520602D01*
X572992Y519491D01*
X571658Y518935D01*
X570325Y518935D01*
X568992Y519491D01*
X568325Y520602D01*
X568325Y526157D01*
X568992Y527268D01*
X570325Y527824D01*
X571658Y527824D01*
X572992Y527268D01*
X573658Y526157D01*
G54D10*
X570992Y475754D02*
X573658Y475754D01*
X573658Y472977D01*
X572992Y471866D01*
X571658Y471310D01*
X570325Y471310D01*
X568992Y471866D01*
X568325Y472977D01*
X568325Y478532D01*
X568992Y479643D01*
X570325Y480199D01*
X571658Y480199D01*
X572992Y479643D01*
X573658Y478532D01*
G54D10*
X690562Y486470D02*
X691229Y487581D01*
X692562Y488136D01*
X693896Y488136D01*
X695229Y487581D01*
X695896Y486470D01*
X695896Y485359D01*
X695229Y484248D01*
X693896Y483692D01*
X695229Y483136D01*
X695896Y482025D01*
X695896Y480914D01*
X695229Y479803D01*
X693896Y479248D01*
X692562Y479248D01*
X691229Y479803D01*
X690562Y480914D01*
G54D10*
X695896Y510998D02*
X690562Y510998D01*
X690562Y511553D01*
X691229Y512664D01*
X695229Y515998D01*
X695896Y517109D01*
X695896Y518220D01*
X695229Y519331D01*
X693896Y519886D01*
X692562Y519886D01*
X691229Y519331D01*
X690562Y518220D01*
G54D10*
X780542Y523379D02*
X783208Y523379D01*
X783208Y520602D01*
X782542Y519491D01*
X781208Y518935D01*
X779875Y518935D01*
X778542Y519491D01*
X777875Y520602D01*
X777875Y526157D01*
X778542Y527268D01*
X779875Y527824D01*
X781208Y527824D01*
X782542Y527268D01*
X783208Y526157D01*
G54D10*
X780542Y475754D02*
X783208Y475754D01*
X783208Y472977D01*
X782542Y471866D01*
X781208Y471310D01*
X779875Y471310D01*
X778542Y471866D01*
X777875Y472977D01*
X777875Y478532D01*
X778542Y479643D01*
X779875Y480199D01*
X781208Y480199D01*
X782542Y479643D01*
X783208Y478532D01*
G54D10*
X61912Y420450D02*
X62579Y421561D01*
X63912Y422116D01*
X65246Y422116D01*
X66579Y421561D01*
X67246Y420450D01*
X67246Y419339D01*
X66579Y418228D01*
X65246Y417672D01*
X66579Y417116D01*
X67246Y416005D01*
X67246Y414894D01*
X66579Y413783D01*
X65246Y413228D01*
X63912Y413228D01*
X62579Y413783D01*
X61912Y414894D01*
G54D10*
X67246Y444978D02*
X61912Y444978D01*
X61912Y445533D01*
X62579Y446644D01*
X66579Y449978D01*
X67246Y451089D01*
X67246Y452200D01*
X66579Y453311D01*
X65246Y453866D01*
X63912Y453866D01*
X62579Y453311D01*
X61912Y452200D01*
G54D10*
X151892Y457359D02*
X154558Y457359D01*
X154558Y454582D01*
X153892Y453471D01*
X152558Y452915D01*
X151225Y452915D01*
X149892Y453471D01*
X149225Y454582D01*
X149225Y460137D01*
X149892Y461248D01*
X151225Y461804D01*
X152558Y461804D01*
X153892Y461248D01*
X154558Y460137D01*
G54D10*
X151892Y409734D02*
X154558Y409734D01*
X154558Y406957D01*
X153892Y405846D01*
X152558Y405290D01*
X151225Y405290D01*
X149892Y405846D01*
X149225Y406957D01*
X149225Y412512D01*
X149892Y413623D01*
X151225Y414179D01*
X152558Y414179D01*
X153892Y413623D01*
X154558Y412512D01*
G54D10*
X271462Y420450D02*
X272129Y421561D01*
X273462Y422116D01*
X274796Y422116D01*
X276129Y421561D01*
X276796Y420450D01*
X276796Y419339D01*
X276129Y418228D01*
X274796Y417672D01*
X276129Y417116D01*
X276796Y416005D01*
X276796Y414894D01*
X276129Y413783D01*
X274796Y413228D01*
X273462Y413228D01*
X272129Y413783D01*
X271462Y414894D01*
G54D10*
X276796Y444978D02*
X271462Y444978D01*
X271462Y445533D01*
X272129Y446644D01*
X276129Y449978D01*
X276796Y451089D01*
X276796Y452200D01*
X276129Y453311D01*
X274796Y453866D01*
X273462Y453866D01*
X272129Y453311D01*
X271462Y452200D01*
G54D10*
X361442Y457359D02*
X364108Y457359D01*
X364108Y454582D01*
X363442Y453471D01*
X362108Y452915D01*
X360775Y452915D01*
X359442Y453471D01*
X358775Y454582D01*
X358775Y460137D01*
X359442Y461248D01*
X360775Y461804D01*
X362108Y461804D01*
X363442Y461248D01*
X364108Y460137D01*
G54D10*
X361442Y409734D02*
X364108Y409734D01*
X364108Y406957D01*
X363442Y405846D01*
X362108Y405290D01*
X360775Y405290D01*
X359442Y405846D01*
X358775Y406957D01*
X358775Y412512D01*
X359442Y413623D01*
X360775Y414179D01*
X362108Y414179D01*
X363442Y413623D01*
X364108Y412512D01*
G54D10*
X481012Y420450D02*
X481679Y421561D01*
X483012Y422116D01*
X484346Y422116D01*
X485679Y421561D01*
X486346Y420450D01*
X486346Y419339D01*
X485679Y418228D01*
X484346Y417672D01*
X485679Y417116D01*
X486346Y416005D01*
X486346Y414894D01*
X485679Y413783D01*
X484346Y413228D01*
X483012Y413228D01*
X481679Y413783D01*
X481012Y414894D01*
G54D10*
X486346Y444978D02*
X481012Y444978D01*
X481012Y445533D01*
X481679Y446644D01*
X485679Y449978D01*
X486346Y451089D01*
X486346Y452200D01*
X485679Y453311D01*
X484346Y453866D01*
X483012Y453866D01*
X481679Y453311D01*
X481012Y452200D01*
G54D10*
X570992Y457359D02*
X573658Y457359D01*
X573658Y454582D01*
X572992Y453471D01*
X571658Y452915D01*
X570325Y452915D01*
X568992Y453471D01*
X568325Y454582D01*
X568325Y460137D01*
X568992Y461248D01*
X570325Y461804D01*
X571658Y461804D01*
X572992Y461248D01*
X573658Y460137D01*
G54D10*
X570992Y409734D02*
X573658Y409734D01*
X573658Y406957D01*
X572992Y405846D01*
X571658Y405290D01*
X570325Y405290D01*
X568992Y405846D01*
X568325Y406957D01*
X568325Y412512D01*
X568992Y413623D01*
X570325Y414179D01*
X571658Y414179D01*
X572992Y413623D01*
X573658Y412512D01*
G54D10*
X690562Y420450D02*
X691229Y421561D01*
X692562Y422116D01*
X693896Y422116D01*
X695229Y421561D01*
X695896Y420450D01*
X695896Y419339D01*
X695229Y418228D01*
X693896Y417672D01*
X695229Y417116D01*
X695896Y416005D01*
X695896Y414894D01*
X695229Y413783D01*
X693896Y413228D01*
X692562Y413228D01*
X691229Y413783D01*
X690562Y414894D01*
G54D10*
X695896Y444978D02*
X690562Y444978D01*
X690562Y445533D01*
X691229Y446644D01*
X695229Y449978D01*
X695896Y451089D01*
X695896Y452200D01*
X695229Y453311D01*
X693896Y453866D01*
X692562Y453866D01*
X691229Y453311D01*
X690562Y452200D01*
G54D10*
X780542Y457359D02*
X783208Y457359D01*
X783208Y454582D01*
X782542Y453471D01*
X781208Y452915D01*
X779875Y452915D01*
X778542Y453471D01*
X777875Y454582D01*
X777875Y460137D01*
X778542Y461248D01*
X779875Y461804D01*
X781208Y461804D01*
X782542Y461248D01*
X783208Y460137D01*
G54D10*
X780542Y409734D02*
X783208Y409734D01*
X783208Y406957D01*
X782542Y405846D01*
X781208Y405290D01*
X779875Y405290D01*
X778542Y405846D01*
X777875Y406957D01*
X777875Y412512D01*
X778542Y413623D01*
X779875Y414179D01*
X781208Y414179D01*
X782542Y413623D01*
X783208Y412512D01*
G54D10*
X61912Y354430D02*
X62579Y355541D01*
X63912Y356096D01*
X65246Y356096D01*
X66579Y355541D01*
X67246Y354430D01*
X67246Y353319D01*
X66579Y352208D01*
X65246Y351652D01*
X66579Y351096D01*
X67246Y349985D01*
X67246Y348874D01*
X66579Y347763D01*
X65246Y347208D01*
X63912Y347208D01*
X62579Y347763D01*
X61912Y348874D01*
G54D10*
X67246Y378958D02*
X61912Y378958D01*
X61912Y379513D01*
X62579Y380624D01*
X66579Y383958D01*
X67246Y385069D01*
X67246Y386180D01*
X66579Y387291D01*
X65246Y387846D01*
X63912Y387846D01*
X62579Y387291D01*
X61912Y386180D01*
G54D10*
X151892Y391339D02*
X154558Y391339D01*
X154558Y388562D01*
X153892Y387451D01*
X152558Y386895D01*
X151225Y386895D01*
X149892Y387451D01*
X149225Y388562D01*
X149225Y394117D01*
X149892Y395228D01*
X151225Y395784D01*
X152558Y395784D01*
X153892Y395228D01*
X154558Y394117D01*
G54D10*
X151892Y343714D02*
X154558Y343714D01*
X154558Y340937D01*
X153892Y339826D01*
X152558Y339270D01*
X151225Y339270D01*
X149892Y339826D01*
X149225Y340937D01*
X149225Y346492D01*
X149892Y347603D01*
X151225Y348159D01*
X152558Y348159D01*
X153892Y347603D01*
X154558Y346492D01*
G54D10*
X271462Y354430D02*
X272129Y355541D01*
X273462Y356096D01*
X274796Y356096D01*
X276129Y355541D01*
X276796Y354430D01*
X276796Y353319D01*
X276129Y352208D01*
X274796Y351652D01*
X276129Y351096D01*
X276796Y349985D01*
X276796Y348874D01*
X276129Y347763D01*
X274796Y347208D01*
X273462Y347208D01*
X272129Y347763D01*
X271462Y348874D01*
G54D10*
X276796Y378958D02*
X271462Y378958D01*
X271462Y379513D01*
X272129Y380624D01*
X276129Y383958D01*
X276796Y385069D01*
X276796Y386180D01*
X276129Y387291D01*
X274796Y387846D01*
X273462Y387846D01*
X272129Y387291D01*
X271462Y386180D01*
G54D10*
X361442Y391339D02*
X364108Y391339D01*
X364108Y388562D01*
X363442Y387451D01*
X362108Y386895D01*
X360775Y386895D01*
X359442Y387451D01*
X358775Y388562D01*
X358775Y394117D01*
X359442Y395228D01*
X360775Y395784D01*
X362108Y395784D01*
X363442Y395228D01*
X364108Y394117D01*
G54D10*
X361442Y343714D02*
X364108Y343714D01*
X364108Y340937D01*
X363442Y339826D01*
X362108Y339270D01*
X360775Y339270D01*
X359442Y339826D01*
X358775Y340937D01*
X358775Y346492D01*
X359442Y347603D01*
X360775Y348159D01*
X362108Y348159D01*
X363442Y347603D01*
X364108Y346492D01*
G54D10*
X481012Y354430D02*
X481679Y355541D01*
X483012Y356096D01*
X484346Y356096D01*
X485679Y355541D01*
X486346Y354430D01*
X486346Y353319D01*
X485679Y352208D01*
X484346Y351652D01*
X485679Y351096D01*
X486346Y349985D01*
X486346Y348874D01*
X485679Y347763D01*
X484346Y347208D01*
X483012Y347208D01*
X481679Y347763D01*
X481012Y348874D01*
G54D10*
X486346Y378958D02*
X481012Y378958D01*
X481012Y379513D01*
X481679Y380624D01*
X485679Y383958D01*
X486346Y385069D01*
X486346Y386180D01*
X485679Y387291D01*
X484346Y387846D01*
X483012Y387846D01*
X481679Y387291D01*
X481012Y386180D01*
G54D10*
X570992Y391339D02*
X573658Y391339D01*
X573658Y388562D01*
X572992Y387451D01*
X571658Y386895D01*
X570325Y386895D01*
X568992Y387451D01*
X568325Y388562D01*
X568325Y394117D01*
X568992Y395228D01*
X570325Y395784D01*
X571658Y395784D01*
X572992Y395228D01*
X573658Y394117D01*
G54D10*
X570992Y343714D02*
X573658Y343714D01*
X573658Y340937D01*
X572992Y339826D01*
X571658Y339270D01*
X570325Y339270D01*
X568992Y339826D01*
X568325Y340937D01*
X568325Y346492D01*
X568992Y347603D01*
X570325Y348159D01*
X571658Y348159D01*
X572992Y347603D01*
X573658Y346492D01*
G54D10*
X690562Y354430D02*
X691229Y355541D01*
X692562Y356096D01*
X693896Y356096D01*
X695229Y355541D01*
X695896Y354430D01*
X695896Y353319D01*
X695229Y352208D01*
X693896Y351652D01*
X695229Y351096D01*
X695896Y349985D01*
X695896Y348874D01*
X695229Y347763D01*
X693896Y347208D01*
X692562Y347208D01*
X691229Y347763D01*
X690562Y348874D01*
G54D10*
X695896Y378958D02*
X690562Y378958D01*
X690562Y379513D01*
X691229Y380624D01*
X695229Y383958D01*
X695896Y385069D01*
X695896Y386180D01*
X695229Y387291D01*
X693896Y387846D01*
X692562Y387846D01*
X691229Y387291D01*
X690562Y386180D01*
G54D10*
X780542Y391339D02*
X783208Y391339D01*
X783208Y388562D01*
X782542Y387451D01*
X781208Y386895D01*
X779875Y386895D01*
X778542Y387451D01*
X777875Y388562D01*
X777875Y394117D01*
X778542Y395228D01*
X779875Y395784D01*
X781208Y395784D01*
X782542Y395228D01*
X783208Y394117D01*
G54D10*
X780542Y343714D02*
X783208Y343714D01*
X783208Y340937D01*
X782542Y339826D01*
X781208Y339270D01*
X779875Y339270D01*
X778542Y339826D01*
X777875Y340937D01*
X777875Y346492D01*
X778542Y347603D01*
X779875Y348159D01*
X781208Y348159D01*
X782542Y347603D01*
X783208Y346492D01*
G54D10*
X61912Y288410D02*
X62579Y289521D01*
X63912Y290076D01*
X65246Y290076D01*
X66579Y289521D01*
X67246Y288410D01*
X67246Y287299D01*
X66579Y286188D01*
X65246Y285632D01*
X66579Y285076D01*
X67246Y283965D01*
X67246Y282854D01*
X66579Y281743D01*
X65246Y281188D01*
X63912Y281188D01*
X62579Y281743D01*
X61912Y282854D01*
G54D10*
X67246Y312938D02*
X61912Y312938D01*
X61912Y313493D01*
X62579Y314604D01*
X66579Y317938D01*
X67246Y319049D01*
X67246Y320160D01*
X66579Y321271D01*
X65246Y321826D01*
X63912Y321826D01*
X62579Y321271D01*
X61912Y320160D01*
G54D10*
X151892Y325319D02*
X154558Y325319D01*
X154558Y322542D01*
X153892Y321431D01*
X152558Y320875D01*
X151225Y320875D01*
X149892Y321431D01*
X149225Y322542D01*
X149225Y328097D01*
X149892Y329208D01*
X151225Y329764D01*
X152558Y329764D01*
X153892Y329208D01*
X154558Y328097D01*
G54D10*
X151892Y277694D02*
X154558Y277694D01*
X154558Y274917D01*
X153892Y273806D01*
X152558Y273250D01*
X151225Y273250D01*
X149892Y273806D01*
X149225Y274917D01*
X149225Y280472D01*
X149892Y281583D01*
X151225Y282139D01*
X152558Y282139D01*
X153892Y281583D01*
X154558Y280472D01*
G54D10*
X271462Y288410D02*
X272129Y289521D01*
X273462Y290076D01*
X274796Y290076D01*
X276129Y289521D01*
X276796Y288410D01*
X276796Y287299D01*
X276129Y286188D01*
X274796Y285632D01*
X276129Y285076D01*
X276796Y283965D01*
X276796Y282854D01*
X276129Y281743D01*
X274796Y281188D01*
X273462Y281188D01*
X272129Y281743D01*
X271462Y282854D01*
G54D10*
X276796Y312938D02*
X271462Y312938D01*
X271462Y313493D01*
X272129Y314604D01*
X276129Y317938D01*
X276796Y319049D01*
X276796Y320160D01*
X276129Y321271D01*
X274796Y321826D01*
X273462Y321826D01*
X272129Y321271D01*
X271462Y320160D01*
G54D10*
X361442Y325319D02*
X364108Y325319D01*
X364108Y322542D01*
X363442Y321431D01*
X362108Y320875D01*
X360775Y320875D01*
X359442Y321431D01*
X358775Y322542D01*
X358775Y328097D01*
X359442Y329208D01*
X360775Y329764D01*
X362108Y329764D01*
X363442Y329208D01*
X364108Y328097D01*
G54D10*
X361442Y277694D02*
X364108Y277694D01*
X364108Y274917D01*
X363442Y273806D01*
X362108Y273250D01*
X360775Y273250D01*
X359442Y273806D01*
X358775Y274917D01*
X358775Y280472D01*
X359442Y281583D01*
X360775Y282139D01*
X362108Y282139D01*
X363442Y281583D01*
X364108Y280472D01*
G54D10*
X481012Y288410D02*
X481679Y289521D01*
X483012Y290076D01*
X484346Y290076D01*
X485679Y289521D01*
X486346Y288410D01*
X486346Y287299D01*
X485679Y286188D01*
X484346Y285632D01*
X485679Y285076D01*
X486346Y283965D01*
X486346Y282854D01*
X485679Y281743D01*
X484346Y281188D01*
X483012Y281188D01*
X481679Y281743D01*
X481012Y282854D01*
G54D10*
X486346Y312938D02*
X481012Y312938D01*
X481012Y313493D01*
X481679Y314604D01*
X485679Y317938D01*
X486346Y319049D01*
X486346Y320160D01*
X485679Y321271D01*
X484346Y321826D01*
X483012Y321826D01*
X481679Y321271D01*
X481012Y320160D01*
G54D10*
X570992Y325319D02*
X573658Y325319D01*
X573658Y322542D01*
X572992Y321431D01*
X571658Y320875D01*
X570325Y320875D01*
X568992Y321431D01*
X568325Y322542D01*
X568325Y328097D01*
X568992Y329208D01*
X570325Y329764D01*
X571658Y329764D01*
X572992Y329208D01*
X573658Y328097D01*
G54D10*
X570992Y277694D02*
X573658Y277694D01*
X573658Y274917D01*
X572992Y273806D01*
X571658Y273250D01*
X570325Y273250D01*
X568992Y273806D01*
X568325Y274917D01*
X568325Y280472D01*
X568992Y281583D01*
X570325Y282139D01*
X571658Y282139D01*
X572992Y281583D01*
X573658Y280472D01*
G54D10*
X690562Y288410D02*
X691229Y289521D01*
X692562Y290076D01*
X693896Y290076D01*
X695229Y289521D01*
X695896Y288410D01*
X695896Y287299D01*
X695229Y286188D01*
X693896Y285632D01*
X695229Y285076D01*
X695896Y283965D01*
X695896Y282854D01*
X695229Y281743D01*
X693896Y281188D01*
X692562Y281188D01*
X691229Y281743D01*
X690562Y282854D01*
G54D10*
X695896Y312938D02*
X690562Y312938D01*
X690562Y313493D01*
X691229Y314604D01*
X695229Y317938D01*
X695896Y319049D01*
X695896Y320160D01*
X695229Y321271D01*
X693896Y321826D01*
X692562Y321826D01*
X691229Y321271D01*
X690562Y320160D01*
G54D10*
X780542Y325319D02*
X783208Y325319D01*
X783208Y322542D01*
X782542Y321431D01*
X781208Y320875D01*
X779875Y320875D01*
X778542Y321431D01*
X777875Y322542D01*
X777875Y328097D01*
X778542Y329208D01*
X779875Y329764D01*
X781208Y329764D01*
X782542Y329208D01*
X783208Y328097D01*
G54D10*
X780542Y277694D02*
X783208Y277694D01*
X783208Y274917D01*
X782542Y273806D01*
X781208Y273250D01*
X779875Y273250D01*
X778542Y273806D01*
X777875Y274917D01*
X777875Y280472D01*
X778542Y281583D01*
X779875Y282139D01*
X781208Y282139D01*
X782542Y281583D01*
X783208Y280472D01*
G54D10*
X61912Y222390D02*
X62579Y223501D01*
X63912Y224056D01*
X65246Y224056D01*
X66579Y223501D01*
X67246Y222390D01*
X67246Y221279D01*
X66579Y220168D01*
X65246Y219612D01*
X66579Y219056D01*
X67246Y217945D01*
X67246Y216834D01*
X66579Y215723D01*
X65246Y215168D01*
X63912Y215168D01*
X62579Y215723D01*
X61912Y216834D01*
G54D10*
X67246Y246918D02*
X61912Y246918D01*
X61912Y247473D01*
X62579Y248584D01*
X66579Y251918D01*
X67246Y253029D01*
X67246Y254140D01*
X66579Y255251D01*
X65246Y255806D01*
X63912Y255806D01*
X62579Y255251D01*
X61912Y254140D01*
G54D10*
X151892Y259299D02*
X154558Y259299D01*
X154558Y256522D01*
X153892Y255411D01*
X152558Y254855D01*
X151225Y254855D01*
X149892Y255411D01*
X149225Y256522D01*
X149225Y262077D01*
X149892Y263188D01*
X151225Y263744D01*
X152558Y263744D01*
X153892Y263188D01*
X154558Y262077D01*
G54D10*
X151892Y211674D02*
X154558Y211674D01*
X154558Y208897D01*
X153892Y207786D01*
X152558Y207230D01*
X151225Y207230D01*
X149892Y207786D01*
X149225Y208897D01*
X149225Y214452D01*
X149892Y215563D01*
X151225Y216119D01*
X152558Y216119D01*
X153892Y215563D01*
X154558Y214452D01*
G54D10*
X271462Y222390D02*
X272129Y223501D01*
X273462Y224056D01*
X274796Y224056D01*
X276129Y223501D01*
X276796Y222390D01*
X276796Y221279D01*
X276129Y220168D01*
X274796Y219612D01*
X276129Y219056D01*
X276796Y217945D01*
X276796Y216834D01*
X276129Y215723D01*
X274796Y215168D01*
X273462Y215168D01*
X272129Y215723D01*
X271462Y216834D01*
G54D10*
X276796Y246918D02*
X271462Y246918D01*
X271462Y247473D01*
X272129Y248584D01*
X276129Y251918D01*
X276796Y253029D01*
X276796Y254140D01*
X276129Y255251D01*
X274796Y255806D01*
X273462Y255806D01*
X272129Y255251D01*
X271462Y254140D01*
G54D10*
X361442Y259299D02*
X364108Y259299D01*
X364108Y256522D01*
X363442Y255411D01*
X362108Y254855D01*
X360775Y254855D01*
X359442Y255411D01*
X358775Y256522D01*
X358775Y262077D01*
X359442Y263188D01*
X360775Y263744D01*
X362108Y263744D01*
X363442Y263188D01*
X364108Y262077D01*
G54D10*
X361442Y211674D02*
X364108Y211674D01*
X364108Y208897D01*
X363442Y207786D01*
X362108Y207230D01*
X360775Y207230D01*
X359442Y207786D01*
X358775Y208897D01*
X358775Y214452D01*
X359442Y215563D01*
X360775Y216119D01*
X362108Y216119D01*
X363442Y215563D01*
X364108Y214452D01*
G54D10*
X481012Y222390D02*
X481679Y223501D01*
X483012Y224056D01*
X484346Y224056D01*
X485679Y223501D01*
X486346Y222390D01*
X486346Y221279D01*
X485679Y220168D01*
X484346Y219612D01*
X485679Y219056D01*
X486346Y217945D01*
X486346Y216834D01*
X485679Y215723D01*
X484346Y215168D01*
X483012Y215168D01*
X481679Y215723D01*
X481012Y216834D01*
G54D10*
X486346Y246918D02*
X481012Y246918D01*
X481012Y247473D01*
X481679Y248584D01*
X485679Y251918D01*
X486346Y253029D01*
X486346Y254140D01*
X485679Y255251D01*
X484346Y255806D01*
X483012Y255806D01*
X481679Y255251D01*
X481012Y254140D01*
G54D10*
X570992Y259299D02*
X573658Y259299D01*
X573658Y256522D01*
X572992Y255411D01*
X571658Y254855D01*
X570325Y254855D01*
X568992Y255411D01*
X568325Y256522D01*
X568325Y262077D01*
X568992Y263188D01*
X570325Y263744D01*
X571658Y263744D01*
X572992Y263188D01*
X573658Y262077D01*
G54D10*
X570992Y211674D02*
X573658Y211674D01*
X573658Y208897D01*
X572992Y207786D01*
X571658Y207230D01*
X570325Y207230D01*
X568992Y207786D01*
X568325Y208897D01*
X568325Y214452D01*
X568992Y215563D01*
X570325Y216119D01*
X571658Y216119D01*
X572992Y215563D01*
X573658Y214452D01*
G54D10*
X690562Y222390D02*
X691229Y223501D01*
X692562Y224056D01*
X693896Y224056D01*
X695229Y223501D01*
X695896Y222390D01*
X695896Y221279D01*
X695229Y220168D01*
X693896Y219612D01*
X695229Y219056D01*
X695896Y217945D01*
X695896Y216834D01*
X695229Y215723D01*
X693896Y215168D01*
X692562Y215168D01*
X691229Y215723D01*
X690562Y216834D01*
G54D10*
X695896Y246918D02*
X690562Y246918D01*
X690562Y247473D01*
X691229Y248584D01*
X695229Y251918D01*
X695896Y253029D01*
X695896Y254140D01*
X695229Y255251D01*
X693896Y255806D01*
X692562Y255806D01*
X691229Y255251D01*
X690562Y254140D01*
G54D10*
X780542Y259299D02*
X783208Y259299D01*
X783208Y256522D01*
X782542Y255411D01*
X781208Y254855D01*
X779875Y254855D01*
X778542Y255411D01*
X777875Y256522D01*
X777875Y262077D01*
X778542Y263188D01*
X779875Y263744D01*
X781208Y263744D01*
X782542Y263188D01*
X783208Y262077D01*
G54D10*
X780542Y211674D02*
X783208Y211674D01*
X783208Y208897D01*
X782542Y207786D01*
X781208Y207230D01*
X779875Y207230D01*
X778542Y207786D01*
X777875Y208897D01*
X777875Y214452D01*
X778542Y215563D01*
X779875Y216119D01*
X781208Y216119D01*
X782542Y215563D01*
X783208Y214452D01*
G54D10*
X61912Y156370D02*
X62579Y157481D01*
X63912Y158036D01*
X65246Y158036D01*
X66579Y157481D01*
X67246Y156370D01*
X67246Y155259D01*
X66579Y154148D01*
X65246Y153592D01*
X66579Y153036D01*
X67246Y151925D01*
X67246Y150814D01*
X66579Y149703D01*
X65246Y149148D01*
X63912Y149148D01*
X62579Y149703D01*
X61912Y150814D01*
G54D10*
X67246Y180898D02*
X61912Y180898D01*
X61912Y181453D01*
X62579Y182564D01*
X66579Y185898D01*
X67246Y187009D01*
X67246Y188120D01*
X66579Y189231D01*
X65246Y189786D01*
X63912Y189786D01*
X62579Y189231D01*
X61912Y188120D01*
G54D10*
X151892Y193279D02*
X154558Y193279D01*
X154558Y190502D01*
X153892Y189391D01*
X152558Y188835D01*
X151225Y188835D01*
X149892Y189391D01*
X149225Y190502D01*
X149225Y196057D01*
X149892Y197168D01*
X151225Y197724D01*
X152558Y197724D01*
X153892Y197168D01*
X154558Y196057D01*
G54D10*
X151892Y145654D02*
X154558Y145654D01*
X154558Y142877D01*
X153892Y141766D01*
X152558Y141210D01*
X151225Y141210D01*
X149892Y141766D01*
X149225Y142877D01*
X149225Y148432D01*
X149892Y149543D01*
X151225Y150099D01*
X152558Y150099D01*
X153892Y149543D01*
X154558Y148432D01*
G54D10*
X271462Y156370D02*
X272129Y157481D01*
X273462Y158036D01*
X274796Y158036D01*
X276129Y157481D01*
X276796Y156370D01*
X276796Y155259D01*
X276129Y154148D01*
X274796Y153592D01*
X276129Y153036D01*
X276796Y151925D01*
X276796Y150814D01*
X276129Y149703D01*
X274796Y149148D01*
X273462Y149148D01*
X272129Y149703D01*
X271462Y150814D01*
G54D10*
X276796Y180898D02*
X271462Y180898D01*
X271462Y181453D01*
X272129Y182564D01*
X276129Y185898D01*
X276796Y187009D01*
X276796Y188120D01*
X276129Y189231D01*
X274796Y189786D01*
X273462Y189786D01*
X272129Y189231D01*
X271462Y188120D01*
G54D10*
X361442Y193279D02*
X364108Y193279D01*
X364108Y190502D01*
X363442Y189391D01*
X362108Y188835D01*
X360775Y188835D01*
X359442Y189391D01*
X358775Y190502D01*
X358775Y196057D01*
X359442Y197168D01*
X360775Y197724D01*
X362108Y197724D01*
X363442Y197168D01*
X364108Y196057D01*
G54D10*
X361442Y145654D02*
X364108Y145654D01*
X364108Y142877D01*
X363442Y141766D01*
X362108Y141210D01*
X360775Y141210D01*
X359442Y141766D01*
X358775Y142877D01*
X358775Y148432D01*
X359442Y149543D01*
X360775Y150099D01*
X362108Y150099D01*
X363442Y149543D01*
X364108Y148432D01*
G54D10*
X481012Y156370D02*
X481679Y157481D01*
X483012Y158036D01*
X484346Y158036D01*
X485679Y157481D01*
X486346Y156370D01*
X486346Y155259D01*
X485679Y154148D01*
X484346Y153592D01*
X485679Y153036D01*
X486346Y151925D01*
X486346Y150814D01*
X485679Y149703D01*
X484346Y149148D01*
X483012Y149148D01*
X481679Y149703D01*
X481012Y150814D01*
G54D10*
X486346Y180898D02*
X481012Y180898D01*
X481012Y181453D01*
X481679Y182564D01*
X485679Y185898D01*
X486346Y187009D01*
X486346Y188120D01*
X485679Y189231D01*
X484346Y189786D01*
X483012Y189786D01*
X481679Y189231D01*
X481012Y188120D01*
G54D10*
X570992Y193279D02*
X573658Y193279D01*
X573658Y190502D01*
X572992Y189391D01*
X571658Y188835D01*
X570325Y188835D01*
X568992Y189391D01*
X568325Y190502D01*
X568325Y196057D01*
X568992Y197168D01*
X570325Y197724D01*
X571658Y197724D01*
X572992Y197168D01*
X573658Y196057D01*
G54D10*
X570992Y145654D02*
X573658Y145654D01*
X573658Y142877D01*
X572992Y141766D01*
X571658Y141210D01*
X570325Y141210D01*
X568992Y141766D01*
X568325Y142877D01*
X568325Y148432D01*
X568992Y149543D01*
X570325Y150099D01*
X571658Y150099D01*
X572992Y149543D01*
X573658Y148432D01*
G54D10*
X690562Y156370D02*
X691229Y157481D01*
X692562Y158036D01*
X693896Y158036D01*
X695229Y157481D01*
X695896Y156370D01*
X695896Y155259D01*
X695229Y154148D01*
X693896Y153592D01*
X695229Y153036D01*
X695896Y151925D01*
X695896Y150814D01*
X695229Y149703D01*
X693896Y149148D01*
X692562Y149148D01*
X691229Y149703D01*
X690562Y150814D01*
G54D10*
X695896Y180898D02*
X690562Y180898D01*
X690562Y181453D01*
X691229Y182564D01*
X695229Y185898D01*
X695896Y187009D01*
X695896Y188120D01*
X695229Y189231D01*
X693896Y189786D01*
X692562Y189786D01*
X691229Y189231D01*
X690562Y188120D01*
G54D10*
X780542Y193279D02*
X783208Y193279D01*
X783208Y190502D01*
X782542Y189391D01*
X781208Y188835D01*
X779875Y188835D01*
X778542Y189391D01*
X777875Y190502D01*
X777875Y196057D01*
X778542Y197168D01*
X779875Y197724D01*
X781208Y197724D01*
X782542Y197168D01*
X783208Y196057D01*
G54D10*
X780542Y145654D02*
X783208Y145654D01*
X783208Y142877D01*
X782542Y141766D01*
X781208Y141210D01*
X779875Y141210D01*
X778542Y141766D01*
X777875Y142877D01*
X777875Y148432D01*
X778542Y149543D01*
X779875Y150099D01*
X781208Y150099D01*
X782542Y149543D01*
X783208Y148432D01*
G54D10*
X61912Y90350D02*
X62579Y91461D01*
X63912Y92016D01*
X65246Y92016D01*
X66579Y91461D01*
X67246Y90350D01*
X67246Y89239D01*
X66579Y88128D01*
X65246Y87572D01*
X66579Y87016D01*
X67246Y85905D01*
X67246Y84794D01*
X66579Y83683D01*
X65246Y83128D01*
X63912Y83128D01*
X62579Y83683D01*
X61912Y84794D01*
G54D10*
X67246Y114878D02*
X61912Y114878D01*
X61912Y115433D01*
X62579Y116544D01*
X66579Y119878D01*
X67246Y120989D01*
X67246Y122100D01*
X66579Y123211D01*
X65246Y123766D01*
X63912Y123766D01*
X62579Y123211D01*
X61912Y122100D01*
G54D10*
X151892Y127259D02*
X154558Y127259D01*
X154558Y124482D01*
X153892Y123371D01*
X152558Y122815D01*
X151225Y122815D01*
X149892Y123371D01*
X149225Y124482D01*
X149225Y130037D01*
X149892Y131148D01*
X151225Y131704D01*
X152558Y131704D01*
X153892Y131148D01*
X154558Y130037D01*
G54D10*
X151892Y79634D02*
X154558Y79634D01*
X154558Y76857D01*
X153892Y75746D01*
X152558Y75190D01*
X151225Y75190D01*
X149892Y75746D01*
X149225Y76857D01*
X149225Y82412D01*
X149892Y83523D01*
X151225Y84079D01*
X152558Y84079D01*
X153892Y83523D01*
X154558Y82412D01*
G54D10*
X271462Y90350D02*
X272129Y91461D01*
X273462Y92016D01*
X274796Y92016D01*
X276129Y91461D01*
X276796Y90350D01*
X276796Y89239D01*
X276129Y88128D01*
X274796Y87572D01*
X276129Y87016D01*
X276796Y85905D01*
X276796Y84794D01*
X276129Y83683D01*
X274796Y83128D01*
X273462Y83128D01*
X272129Y83683D01*
X271462Y84794D01*
G54D10*
X276796Y114878D02*
X271462Y114878D01*
X271462Y115433D01*
X272129Y116544D01*
X276129Y119878D01*
X276796Y120989D01*
X276796Y122100D01*
X276129Y123211D01*
X274796Y123766D01*
X273462Y123766D01*
X272129Y123211D01*
X271462Y122100D01*
G54D10*
X361442Y127259D02*
X364108Y127259D01*
X364108Y124482D01*
X363442Y123371D01*
X362108Y122815D01*
X360775Y122815D01*
X359442Y123371D01*
X358775Y124482D01*
X358775Y130037D01*
X359442Y131148D01*
X360775Y131704D01*
X362108Y131704D01*
X363442Y131148D01*
X364108Y130037D01*
G54D10*
X361442Y79634D02*
X364108Y79634D01*
X364108Y76857D01*
X363442Y75746D01*
X362108Y75190D01*
X360775Y75190D01*
X359442Y75746D01*
X358775Y76857D01*
X358775Y82412D01*
X359442Y83523D01*
X360775Y84079D01*
X362108Y84079D01*
X363442Y83523D01*
X364108Y82412D01*
G54D10*
X481012Y90350D02*
X481679Y91461D01*
X483012Y92016D01*
X484346Y92016D01*
X485679Y91461D01*
X486346Y90350D01*
X486346Y89239D01*
X485679Y88128D01*
X484346Y87572D01*
X485679Y87016D01*
X486346Y85905D01*
X486346Y84794D01*
X485679Y83683D01*
X484346Y83128D01*
X483012Y83128D01*
X481679Y83683D01*
X481012Y84794D01*
G54D10*
X486346Y114878D02*
X481012Y114878D01*
X481012Y115433D01*
X481679Y116544D01*
X485679Y119878D01*
X486346Y120989D01*
X486346Y122100D01*
X485679Y123211D01*
X484346Y123766D01*
X483012Y123766D01*
X481679Y123211D01*
X481012Y122100D01*
G54D10*
X570992Y127259D02*
X573658Y127259D01*
X573658Y124482D01*
X572992Y123371D01*
X571658Y122815D01*
X570325Y122815D01*
X568992Y123371D01*
X568325Y124482D01*
X568325Y130037D01*
X568992Y131148D01*
X570325Y131704D01*
X571658Y131704D01*
X572992Y131148D01*
X573658Y130037D01*
G54D10*
X570992Y79634D02*
X573658Y79634D01*
X573658Y76857D01*
X572992Y75746D01*
X571658Y75190D01*
X570325Y75190D01*
X568992Y75746D01*
X568325Y76857D01*
X568325Y82412D01*
X568992Y83523D01*
X570325Y84079D01*
X571658Y84079D01*
X572992Y83523D01*
X573658Y82412D01*
G54D10*
X690562Y90350D02*
X691229Y91461D01*
X692562Y92016D01*
X693896Y92016D01*
X695229Y91461D01*
X695896Y90350D01*
X695896Y89239D01*
X695229Y88128D01*
X693896Y87572D01*
X695229Y87016D01*
X695896Y85905D01*
X695896Y84794D01*
X695229Y83683D01*
X693896Y83128D01*
X692562Y83128D01*
X691229Y83683D01*
X690562Y84794D01*
G54D10*
X695896Y114878D02*
X690562Y114878D01*
X690562Y115433D01*
X691229Y116544D01*
X695229Y119878D01*
X695896Y120989D01*
X695896Y122100D01*
X695229Y123211D01*
X693896Y123766D01*
X692562Y123766D01*
X691229Y123211D01*
X690562Y122100D01*
G54D10*
X780542Y127259D02*
X783208Y127259D01*
X783208Y124482D01*
X782542Y123371D01*
X781208Y122815D01*
X779875Y122815D01*
X778542Y123371D01*
X777875Y124482D01*
X777875Y130037D01*
X778542Y131148D01*
X779875Y131704D01*
X781208Y131704D01*
X782542Y131148D01*
X783208Y130037D01*
G54D10*
X780542Y79634D02*
X783208Y79634D01*
X783208Y76857D01*
X782542Y75746D01*
X781208Y75190D01*
X779875Y75190D01*
X778542Y75746D01*
X777875Y76857D01*
X777875Y82412D01*
X778542Y83523D01*
X779875Y84079D01*
X781208Y84079D01*
X782542Y83523D01*
X783208Y82412D01*
M02*
